# This file uses centimeters as units for non-parametric coordinates.

g default
v 0.559638 0.276112 4.965756
v 0.582207 0.039076 4.930451
v -1.088610 0.276112 5.809949
v -1.139527 0.039076 5.812282
v -1.320831 0.276112 5.511621
v -0.802248 0.276112 5.663282
v -0.695816 0.188199 5.547920
v -0.691852 0.039076 5.582994
v -0.803902 0.276112 5.334066
v 0.139184 0.276112 5.181103
v 0.292657 0.276112 5.102497
v 0.271681 0.039076 5.089495
v -0.181645 0.276112 5.077398
v -0.282878 0.276112 4.827789
v -0.115530 0.276112 4.990614
v -0.583711 0.276112 4.602912
v -0.592610 0.039076 4.602912
v -0.489600 0.276112 4.736260
v -1.293720 0.276112 4.644652
v -1.121918 0.276112 4.602912
v -1.313312 0.039076 4.602912
v -1.155099 0.276112 4.835624
v -0.900990 0.276112 5.102256
v -1.134878 0.276112 4.998568
v -1.341661 0.276112 5.276334
v -1.218713 0.276112 4.916990
v 0.662101 0.276112 4.766074
v 0.704759 0.039076 4.691618
v 0.551055 0.276112 4.602912
v 0.609132 0.039076 4.602912
v -1.787000 0.039076 6.061663
v -1.787000 0.188885 6.054275
v -1.688112 0.198161 6.110296
v -1.711019 0.039076 6.104986
v -1.437702 0.276112 4.602912
v -1.787000 0.039076 4.744540
v -1.643300 0.039076 4.602912
v -1.787000 0.276112 4.871188
v -1.162309 0.155226 4.917664
v -1.308933 0.149336 4.602912
v -1.635726 0.276112 4.637168
v -1.728399 0.276112 4.728505
v -1.787000 0.212561 4.776659
v -1.651114 0.276112 4.710006
v -1.615097 0.183959 4.602911
v -1.681368 0.233480 4.675710
v -1.206859 0.276112 4.701128
v -1.259086 0.218082 4.602912
v -0.132096 0.136657 5.041843
v -0.478993 0.276112 4.656725
v -0.139068 0.276112 4.602912
v -0.497276 0.217916 4.602912
v 0.279124 0.276112 4.602912
v 0.171418 0.276112 4.723577
v -0.012072 0.213353 4.602912
v 0.700670 0.209270 4.693011
v 0.603749 0.201480 4.602912
v -0.167105 0.276112 5.337976
v -0.712692 0.090431 5.536695
v -0.421047 0.276112 5.417298
v -0.406598 0.222829 5.449059
v -0.658164 0.270888 5.516181
v -0.969423 0.276112 5.654577
v -0.918917 0.205200 5.716938
v -1.787000 0.276112 5.785601
v -1.787000 0.276112 5.592546
v -1.787000 0.276112 5.076048
v -1.695072 0.276112 5.236156
v -1.787000 0.193709 5.454541
v -1.787000 0.204750 5.696754
v -1.713575 0.276112 5.700644
v -1.787000 0.039076 5.581195
v -1.787000 0.276112 5.888652
v -1.523542 0.276112 6.032712
v -1.712040 0.276112 6.031838
v -1.239257 0.276112 5.887107
v -1.202599 0.276112 5.775290
v -1.158685 0.181508 5.837704
v 0.523709 -0.004651 4.952505
v 0.229354 -0.004651 5.103267
v 0.639879 -0.004651 4.726109
v -1.108364 -0.004651 5.788414
v -1.650096 -0.004651 6.065876
v -0.684002 -0.004651 5.571066
v -0.589929 -0.004651 4.642022
v 0.549232 -0.004651 4.642023
v -1.273100 -0.004651 4.642022
v -1.722120 -0.004651 6.024808
v -1.722120 -0.004651 4.776275
v -1.722120 -0.004651 5.569361
v -1.585904 -0.004651 4.642022
vt 0.539146 0.455986
vt 0.540725 0.789731
vt 0.402713 0.332444
vt 0.397372 0.556262
vt 0.391463 0.373620
vt 0.426421 0.355848
vt 0.432506 0.440797
vt 0.434646 0.616967
vt 0.432309 0.399845
vt 0.504343 0.424471
vt 0.517047 0.435975
vt 0.514259 0.737503
vt 0.482942 0.438091
vt 0.480213 0.472722
vt 0.489433 0.450485
vt 0.459462 0.500331
vt 0.458547 0.750000
vt 0.464441 0.482536
vt 0.408771 0.494141
vt 0.421599 0.500046
vt 0.408110 0.749535
vt 0.415080 0.467650
vt 0.428495 0.430947
vt 0.413609 0.444999
vt 0.394226 0.406387
vt 0.409190 0.456340
vt 0.546220 0.479842
vt 0.549298 0.760760
vt 0.538630 0.499396
vt 0.542608 0.750000
vt 0.331804 0.443462
vt 0.345146 0.483488
vt 0.332048 0.337204
vt 0.345530 0.351651
vt 0.351567 0.339857
vt 0.349790 0.478766
vt 0.399366 0.499952
vt 0.145078 0.043055
vt 0.385052 0.750000
vt 0.162556 0.239741
vt 0.369629 0.462239
vt 0.413123 0.456246
vt 0.408429 0.614573
vt 0.384923 0.495186
vt 0.376683 0.482349
vt 0.319365 0.374991
vt 0.149458 0.205084
vt 0.382267 0.484808
vt 0.387025 0.583438
vt 0.378929 0.522142
vt 0.413841 0.486347
vt 0.411922 0.552444
vt 0.487239 0.443236
vt 0.465965 0.492952
vt 0.490272 0.500000
vt 0.465216 0.552692
vt 0.519525 0.500000
vt 0.511351 0.484709
vt 0.499156 0.556824
vt 0.549012 0.554801
vt 0.542232 0.567574
vt 0.478990 0.401514
vt 0.434211 0.576584
vt 0.450024 0.396627
vt 0.458723 0.507811
vt 0.436493 0.418551
vt 0.414374 0.354592
vt 0.416470 0.403624
vt 0.291179 0.269281
vt 0.352204 0.333775
vt 0.264023 0.263044
vt 0.355883 0.360897
vt 0.191372 0.246359
vt 0.365726 0.433459
vt 0.369334 0.411187
vt 0.245147 0.307907
vt 0.279112 0.301284
vt 0.359185 0.345924
vt 0.213907 0.251652
vt 0.353924 0.346265
vt 0.263689 0.297399
vt 0.305674 0.272610
vt 0.350241 0.319298
vt 0.366711 0.299844
vt 0.352972 0.299403
vt 0.390243 0.321152
vt 0.395055 0.336962
vt 0.396527 0.405185
vt 0.000000 0.000000
vt 1.000000 0.000000
vt 1.000000 1.000000
vt 0.000000 1.000000
vt 0.000000 0.000000
vt 1.000000 0.000000
vt 1.000000 1.000000
vt 0.000000 1.000000
vt 0.000000 0.000000
vt 1.000000 0.000000
vt 1.000000 1.000000
vt 0.000000 1.000000
vt 0.000000 0.000000
vt 1.000000 0.000000
vt 1.000000 1.000000
vt 0.000000 1.000000
vt 0.000000 0.000000
vt 1.000000 0.000000
vt 1.000000 1.000000
vt 0.000000 1.000000
vt 0.000000 0.000000
vt 1.000000 0.000000
vt 1.000000 1.000000
vt 0.000000 1.000000
vt 0.000000 0.000000
vt 1.000000 0.000000
vt 1.000000 1.000000
vt 0.000000 1.000000
vt 0.000000 0.000000
vt 1.000000 0.000000
vt 1.000000 1.000000
vt 0.000000 1.000000
vt 0.000000 0.000000
vt 1.000000 0.000000
vt 1.000000 1.000000
vt 0.000000 1.000000
vt 0.000000 0.000000
vt 1.000000 0.000000
vt 1.000000 1.000000
vt 0.000000 1.000000
vt 0.000000 0.000000
vt 1.000000 0.000000
vt 1.000000 1.000000
vt 0.000000 1.000000
vt 0.000000 0.000000
vt 1.000000 0.000000
vt 1.000000 1.000000
vt 0.000000 1.000000
vt 0.000000 0.000000
vt 1.000000 0.000000
vt 1.000000 1.000000
vt 0.000000 1.000000
vn 0.816633 -0.030659 -0.576342
vn 0.816633 -0.030659 -0.576342
vn 0.816633 -0.030659 -0.576342
vn 0.454061 -0.088811 0.886533
vn 0.454061 -0.088811 0.886533
vn 0.454061 -0.088811 0.886533
vn 0.454061 -0.088811 0.886533
vn 0.900735 0.177827 -0.396301
vn 0.900735 0.177827 -0.396301
vn 0.900735 0.177827 -0.396301
vn 0.900735 0.177827 -0.396301
vn 0.455474 -0.091445 0.885540
vn 0.455474 -0.091445 0.885540
vn 0.455474 -0.091445 0.885540
vn 0.455474 -0.091445 0.885540
vn 0.911252 0.409488 0.044027
vn 0.911252 0.409488 0.044027
vn 0.911252 0.409488 0.044027
vn -0.658995 0.327092 0.677301
vn -0.658995 0.327092 0.677301
vn -0.658995 0.327092 0.677301
vn 0.454061 -0.088811 0.886533
vn 0.454061 -0.088811 0.886533
vn 0.454061 -0.088811 0.886533
vn -0.112663 0.693446 -0.711646
vn -0.112663 0.693446 -0.711646
vn -0.112663 0.693446 -0.711646
vn -0.902615 0.271764 0.333812
vn -0.902615 0.271764 0.333812
vn -0.902615 0.271764 0.333812
vn -0.902615 0.271764 0.333812
vn -0.902615 0.271764 0.333812
vn 0.000000 0.000000 -1.000000
vn 0.000000 0.000000 -1.000000
vn 0.000000 0.000000 -1.000000
vn 0.000000 1.000000 -0.000002
vn 0.000000 1.000000 -0.000002
vn 0.000000 1.000000 -0.000002
vn 0.453843 -0.090087 0.886516
vn 0.453843 -0.090087 0.886516
vn 0.453843 -0.090087 0.886516
vn 0.453843 -0.090087 0.886516
vn 0.453843 -0.090087 0.886516
vn 0.453843 -0.090087 0.886516
vn -1.000000 0.000001 -0.000000
vn -1.000000 0.000001 -0.000000
vn -1.000000 0.000001 -0.000000
vn -1.000000 0.000001 -0.000000
vn -1.000000 0.000001 -0.000000
vn 0.000001 -0.000003 -1.000000
vn 0.000001 -0.000003 -1.000000
vn 0.000001 -0.000003 -1.000000
vn -0.495216 0.042562 0.867727
vn -0.495216 0.042562 0.867727
vn -0.495216 0.042562 0.867727
vn -0.495216 0.042562 0.867727
vn -0.689829 0.125098 -0.713083
vn -0.689829 0.125098 -0.713083
vn -0.689829 0.125098 -0.713083
vn -0.689829 0.125098 -0.713083
vn 0.586150 0.636805 -0.500908
vn 0.586150 0.636805 -0.500908
vn 0.586150 0.636805 -0.500908
vn 0.586150 0.636805 -0.500908
vn -0.865357 0.092827 0.492483
vn -0.865357 0.092827 0.492483
vn -0.865357 0.092827 0.492483
vn -0.777227 0.172905 0.604998
vn -0.777227 0.172905 0.604998
vn -0.777227 0.172905 0.604998
vn -0.693369 0.502793 -0.516177
vn -0.693369 0.502793 -0.516177
vn -0.693369 0.502794 -0.516177
vn 0.864982 0.405239 0.295950
vn 0.864982 0.405240 0.295950
vn 0.864982 0.405240 0.295950
vn 0.359596 0.461258 -0.811130
vn 0.359596 0.461258 -0.811130
vn 0.359596 0.461258 -0.811130
vn 0.918159 0.130634 -0.374058
vn 0.918159 0.130634 -0.374057
vn 0.918159 0.130634 -0.374057
vn 0.918159 0.130634 -0.374057
vn 0.918159 0.130634 -0.374058
vn -0.644517 0.455302 0.614247
vn -0.644517 0.455302 0.614247
vn -0.644517 0.455302 0.614247
vn -0.805327 0.491986 -0.330755
vn -0.805327 0.491986 -0.330755
vn -0.805327 0.491986 -0.330755
vn -0.168971 0.687821 -0.705940
vn -0.168971 0.687821 -0.705940
vn -0.168971 0.687821 -0.705940
vn -0.161961 0.311780 -0.936249
vn -0.161961 0.311780 -0.936249
vn -0.161961 0.311780 -0.936249
vn 0.267930 0.272139 -0.924204
vn 0.267930 0.272139 -0.924205
vn 0.267930 0.272139 -0.924204
vn -0.741585 0.652308 -0.156673
vn -0.741585 0.652308 -0.156673
vn -0.741585 0.652308 -0.156673
vn -0.698306 0.124961 -0.704807
vn -0.698306 0.124961 -0.704807
vn -0.698306 0.124961 -0.704807
vn -0.698306 0.124961 -0.704807
vn -0.696163 0.128184 -0.706347
vn -0.696163 0.128184 -0.706347
vn -0.696163 0.128184 -0.706347
vn 0.000000 0.000001 -1.000000
vn 0.000000 0.000001 -1.000000
vn 0.000000 0.000001 -1.000000
vn 0.000000 0.000001 -1.000000
vn -0.369226 0.872758 -0.319321
vn -0.369226 0.872758 -0.319321
vn -0.369226 0.872758 -0.319321
vn 0.000000 1.000000 0.000000
vn 0.000000 1.000000 0.000000
vn 0.000000 1.000000 0.000000
vn 0.000000 1.000000 0.000000
vn 0.000000 1.000000 -0.000001
vn 0.000000 1.000000 -0.000001
vn 0.000000 1.000000 -0.000001
vn 0.000000 1.000000 -0.000000
vn 0.000000 1.000000 -0.000000
vn 0.000000 1.000000 -0.000000
vn 0.852835 0.391201 -0.345881
vn 0.852835 0.391201 -0.345881
vn 0.852835 0.391201 -0.345881
vn 0.239158 0.412526 -0.878991
vn 0.239158 0.412526 -0.878991
vn 0.239158 0.412526 -0.878991
vn 0.239158 0.412526 -0.878991
vn -0.177920 0.116950 0.977071
vn -0.177920 0.116950 0.977071
vn -0.177920 0.116950 0.977071
vn -0.177920 0.116950 0.977071
vn 0.000000 1.000000 0.000000
vn 0.000000 1.000000 0.000000
vn 0.000000 1.000000 0.000000
vn 0.000000 1.000000 0.000000
vn -0.000000 1.000000 -0.000001
vn -0.000000 1.000000 -0.000001
vn -0.000000 1.000000 -0.000001
vn -0.000000 1.000000 -0.000001
vn 0.000000 1.000000 0.000000
vn 0.000000 1.000000 0.000000
vn 0.000000 1.000000 0.000000
vn 0.000000 1.000000 0.000000
vn 0.000000 1.000000 0.000000
vn 0.000000 1.000000 0.000000
vn 0.000000 1.000000 0.000000
vn -0.002094 0.999951 0.009632
vn -0.002094 0.999951 0.009632
vn -0.002094 0.999951 0.009632
vn -0.002094 0.999951 0.009632
vn -0.000000 1.000000 -0.000000
vn -0.000000 1.000000 -0.000000
vn -0.000000 1.000000 -0.000000
vn -0.000000 1.000000 -0.000000
vn -0.000001 1.000000 0.000000
vn -0.000001 1.000000 0.000000
vn -0.000001 1.000000 0.000000
vn -0.000001 1.000000 0.000000
vn 0.000001 1.000000 -0.000002
vn 0.000001 1.000000 -0.000002
vn 0.000001 1.000000 -0.000002
vn -0.000000 1.000000 0.000000
vn -0.000000 1.000000 0.000000
vn -0.000000 1.000000 0.000000
vn -0.000000 1.000000 0.000000
vn -0.000000 1.000000 0.000000
vn -0.878352 0.454581 -0.147829
vn -0.878352 0.454581 -0.147829
vn -0.878352 0.454581 -0.147829
vn -0.878352 0.454581 -0.147829
vn -0.207054 0.960713 -0.184820
vn -0.207054 0.960713 -0.184820
vn -0.207054 0.960713 -0.184820
vn 0.000000 1.000000 -0.000001
vn 0.000000 1.000000 -0.000001
vn 0.000000 1.000000 -0.000001
vn 0.000000 1.000000 -0.000001
vn 0.889711 0.016814 0.456214
vn 0.889711 0.016814 0.456214
vn 0.889711 0.016814 0.456214
vn 0.889711 0.016814 0.456214
vn 0.889711 0.016814 0.456214
vn 0.679815 0.022430 -0.733041
vn 0.679815 0.022430 -0.733041
vn 0.679815 0.022430 -0.733041
vn 0.679815 0.022430 -0.733041
vn 0.000001 0.000000 -1.000000
vn 0.000001 0.000000 -1.000000
vn 0.000001 0.000000 -1.000000
vn 0.000001 0.000000 -1.000000
vn 0.292156 0.591193 -0.751755
vn 0.292156 0.591193 -0.751755
vn 0.292156 0.591193 -0.751755
vn 0.000000 1.000000 0.000000
vn 0.000000 1.000000 0.000000
vn 0.000000 1.000000 0.000000
vn 0.000000 1.000000 0.000000
vn 0.000000 1.000000 -0.000001
vn 0.000000 1.000000 -0.000001
vn 0.000000 1.000000 -0.000001
vn 0.000000 1.000000 -0.000001
vn -0.000000 1.000000 -0.000001
vn -0.000000 1.000000 -0.000001
vn -0.000000 1.000000 -0.000001
vn 0.000000 1.000000 0.000000
vn 0.000000 1.000000 0.000000
vn 0.000000 1.000000 0.000000
vn 0.000000 1.000000 0.000000
vn 0.000000 0.000000 -1.000000
vn 0.000000 0.000000 -1.000000
vn 0.000000 0.000000 -1.000000
vn 0.000000 0.000000 -1.000000
vn 0.000000 0.000000 -1.000000
vn 0.000000 0.000000 -1.000000
vn 0.000000 0.000000 -1.000000
vn 0.000000 0.000000 -1.000000
vn -0.000000 0.000000 -1.000000
vn -0.000000 0.000000 -1.000000
vn -0.000000 0.000000 -1.000000
vn -0.000000 0.000000 -1.000000
vn 0.250007 0.544885 0.800373
vn 0.250007 0.544885 0.800373
vn 0.250007 0.544885 0.800373
vn -0.872069 0.095423 0.479989
vn -0.872069 0.095423 0.479989
vn -0.872069 0.095423 0.479989
vn 0.899491 0.436915 -0.004518
vn 0.899491 0.436915 -0.004518
vn 0.899491 0.436915 -0.004518
vn 0.000001 1.000000 0.000001
vn 0.000001 1.000000 0.000001
vn 0.000001 1.000000 0.000001
vn 0.000001 1.000000 0.000001
vn 0.290668 0.226383 0.929657
vn 0.290668 0.226383 0.929657
vn 0.290668 0.226383 0.929657
vn 0.304104 0.360004 0.881996
vn 0.304104 0.360004 0.881996
vn 0.304104 0.360004 0.881996
vn 0.304104 0.360004 0.881996
vn -0.663612 0.511651 0.545740
vn -0.663612 0.511651 0.545740
vn -0.663612 0.511651 0.545740
vn 0.450424 -0.077774 0.889421
vn 0.450424 -0.077774 0.889421
vn 0.450425 -0.077774 0.889421
vn 0.450424 -0.077774 0.889421
vn -0.000000 1.000000 0.000001
vn -0.000000 1.000000 0.000001
vn -0.000000 1.000000 0.000001
vn 0.533626 0.740052 0.409348
vn 0.533626 0.740052 0.409348
vn 0.533626 0.740052 0.409348
vn -0.039795 0.643724 0.764222
vn -0.039795 0.643724 0.764222
vn -0.039795 0.643724 0.764222
vn 0.450260 -0.087978 0.888553
vn 0.450260 -0.087978 0.888553
vn 0.450260 -0.087978 0.888553
vn -0.000001 1.000000 -0.000000
vn -0.000000 1.000000 -0.000000
vn -0.000000 1.000000 -0.000000
vn -0.000001 1.000000 -0.000000
vn -0.893303 0.385895 -0.230421
vn -0.893303 0.385895 -0.230421
vn -0.893303 0.385895 -0.230421
vn 0.000000 1.000000 0.000000
vn 0.000000 1.000000 0.000000
vn 0.000000 1.000000 0.000000
vn 0.000000 1.000000 0.000000
vn 0.000000 1.000000 0.000000
vn 0.000000 1.000000 0.000000
vn 0.000000 1.000000 0.000000
vn 0.000000 1.000000 0.000000
vn -0.639503 0.634312 0.434378
vn -0.639503 0.634312 0.434378
vn -0.639503 0.634312 0.434378
vn -0.347428 0.916244 0.199478
vn -0.347428 0.916244 0.199478
vn -0.347428 0.916244 0.199478
vn -0.586736 0.631343 -0.507097
vn -0.586736 0.631343 -0.507097
vn -0.586736 0.631343 -0.507097
vn 0.000000 1.000000 -0.000000
vn -1.000000 0.000000 0.000000
vn -1.000000 0.000000 0.000000
vn -1.000000 0.000001 0.000000
vn -1.000000 0.000001 -0.000000
vn -1.000000 0.000001 -0.000000
vn -1.000000 0.000001 -0.000000
vn -1.000000 0.000000 -0.000000
vn -1.000000 0.000001 -0.000000
vn -1.000000 0.000002 -0.000000
vn -0.003265 0.708893 0.705308
vn -0.003265 0.708893 0.705308
vn -0.003265 0.708893 0.705308
vn -0.664874 0.660901 0.348070
vn -0.664874 0.660901 0.348070
vn -0.664874 0.660901 0.348070
vn -0.446771 0.562818 0.695436
vn -0.446771 0.562818 0.695436
vn -0.446771 0.562818 0.695436
vn 0.797952 0.542991 0.261599
vn 0.797952 0.542991 0.261599
vn 0.797952 0.542991 0.261599
vn 0.450071 -0.158911 0.878740
vn 0.450071 -0.158911 0.878740
vn 0.450071 -0.158911 0.878740
vn 0.450071 -0.158911 0.878740
vn 0.641821 -0.692534 0.329336
vn 0.641821 -0.692534 0.329336
vn 0.641821 -0.692534 0.329336
vn 0.641821 -0.692534 0.329336
vn 0.450071 -0.158905 0.878741
vn 0.450071 -0.158905 0.878741
vn 0.450071 -0.158905 0.878741
vn 0.450071 -0.158905 0.878741
vn 0.450069 -0.158906 0.878742
vn 0.450069 -0.158906 0.878742
vn 0.450069 -0.158906 0.878741
vn 0.450069 -0.158906 0.878741
vn 0.450070 -0.158909 0.878741
vn 0.450070 -0.158909 0.878741
vn 0.450070 -0.158909 0.878741
vn 0.450070 -0.158909 0.878741
vn 0.000000 -0.666670 -0.745353
vn 0.000000 -0.666670 -0.745353
vn 0.000000 -0.666670 -0.745353
vn 0.000000 -0.666670 -0.745353
vn 0.000000 -0.666668 -0.745355
vn 0.000000 -0.666668 -0.745355
vn 0.000000 -0.666668 -0.745355
vn 0.000000 -0.666668 -0.745355
vn 0.362495 -0.846103 -0.390779
vn 0.362495 -0.846102 -0.390779
vn 0.362495 -0.846102 -0.390779
vn 0.362495 -0.846102 -0.390779
vn -0.278978 -0.826310 0.489268
vn -0.278978 -0.826310 0.489268
vn -0.278978 -0.826310 0.489268
vn -0.278978 -0.826310 0.489268
vn -0.558879 -0.829249 -0.000000
vn -0.558879 -0.829249 -0.000000
vn -0.558879 -0.829249 -0.000000
vn -0.558879 -0.829249 -0.000000
vn 0.000000 -0.666667 -0.745355
vn 0.000000 -0.666668 -0.745355
vn 0.000000 -0.666667 -0.745355
vn 0.000000 -0.666668 -0.745355
vn -0.379090 -0.841634 -0.384634
vn -0.379090 -0.841634 -0.384634
vn -0.379090 -0.841634 -0.384634
vn -0.379090 -0.841634 -0.384634
vn -0.558880 -0.829249 -0.000000
vn -0.558880 -0.829249 -0.000000
vn -0.558880 -0.829249 -0.000000
vn -0.558880 -0.829249 -0.000000
s off
g mesh_ConcreteSlab2
f 17/17/1 16/16/2 18/18/3
f 11/11/4 12/12/5 2/2/6 1/1/7
f 77/87/8 78/88/9 4/4/10 5/5/11
f 64/68/12 4/4/13 8/8/14 6/6/15
f 59/63/16 6/6/17 8/8/18
f 49/53/19 15/15/20 14/14/21
f 58/62/22 12/12/23 10/10/24
f 50/54/25 51/55/26 52/56/27
f 21/21/28 39/42/29 22/22/30 47/51/31 48/52/32
f 21/21/33 48/52/34 20/20/35
f 47/51/36 16/16/37 20/20/38
f 74/84/39 33/35/40 34/36/41 4/4/42 78/88/43 76/86/44
f 70/77/45 31/31/46 32/33/47 73/82/48 65/69/49
f 37/39/50 45/49/51 21/21/52
f 33/35/53 32/33/54 31/32/55 34/36/56
f 37/39/57 46/50/58 41/44/59 45/49/60
f 27/27/61 56/60/62 57/61/63 29/29/64
f 7/7/65 59/63/66 8/8/67
f 5/5/68 4/4/69 3/3/70
f 39/42/71 25/25/72 24/24/73
f 39/42/74 26/26/75 25/25/76
f 39/42/77 24/24/78 23/23/79
f 40/43/80 19/19/81 26/26/82 39/42/83 21/21/84
f 22/22/85 39/42/86 23/23/87
f 38/41/88 42/45/89 43/46/90
f 44/48/91 46/50/92 42/45/93
f 45/49/94 41/44/95 35/37/96
f 40/43/97 35/37/98 19/19/99
f 41/44/100 46/50/101 44/48/102
f 43/46/103 42/45/104 46/50/105 36/38/106
f 36/38/107 46/50/108 37/39/109
f 21/21/110 45/49/111 35/37/112 40/43/113
f 48/52/114 47/51/115 20/20/116
f 14/14/117 18/18/118 23/23/119 13/13/120
f 22/22/121 16/16/122 47/51/123
f 13/13/124 23/23/125 9/9/126
f 13/13/127 49/53/128 14/14/129
f 12/12/130 49/53/131 13/13/132 10/10/133
f 11/11/134 15/15/135 49/53/136 12/12/137
f 9/9/138 5/5/139 63/67/140 6/6/141
f 41/44/142 26/26/143 19/19/144 35/37/145
f 5/5/146 24/24/147 25/25/148
f 9/9/149 23/23/150 24/24/151 5/5/152
f 13/13/153 9/9/154 62/66/155 60/64/156
f 23/23/157 18/18/158 16/16/159 22/22/160
f 42/45/161 25/25/162 26/26/163 44/48/164
f 44/48/165 26/26/166 41/44/167
f 5/5/168 25/25/169 68/75/170 66/72/171 71/78/172
f 17/17/173 18/18/174 50/54/175 52/56/176
f 53/57/177 55/59/178 54/58/179
f 27/27/180 29/29/181 53/57/182 54/58/183
f 2/2/184 28/28/185 56/60/186 27/27/187 1/1/188
f 57/61/189 56/60/190 28/28/191 30/30/192
f 17/17/193 52/56/194 51/55/195 55/59/196
f 54/58/197 55/59/198 51/55/199
f 27/27/200 54/58/201 11/11/202 1/1/203
f 14/14/204 51/55/205 50/54/206 18/18/207
f 14/14/208 54/58/209 51/55/210
f 11/11/211 54/58/212 14/14/213 15/15/214
f 30/30/215 53/57/216 29/29/217 57/61/218
f 17/17/219 55/59/220 53/57/221 30/30/222
f 21/21/223 20/20/224 16/16/225 17/17/226
f 60/64/227 61/65/228 58/62/229
f 9/9/230 59/63/231 7/7/232
f 6/6/233 59/63/234 9/9/235
f 13/13/236 60/64/237 58/62/238 10/10/239
f 7/7/240 8/8/241 61/65/242
f 60/64/243 62/66/244 7/7/245 61/65/246
f 7/7/247 62/66/248 9/9/249
f 58/62/250 61/65/251 8/8/252 12/12/253
f 3/3/254 63/67/255 5/5/256
f 3/3/257 64/68/258 63/67/259
f 63/67/260 64/68/261 6/6/262
f 3/3/263 4/4/264 64/68/265
s 1
f 67/74/266 68/75/267 42/45/268 38/41/269
s off
f 68/79/270 69/76/271 66/71/272
f 5/5/273 71/78/274 65/70/275 73/83/276 75/85/277 74/84/278 76/86/279 77/87/280
f 71/78/281 66/72/282 70/80/283
f 67/73/284 69/76/285 68/79/286
f 71/78/287 70/80/288 65/70/289
s 1
f 42/45/268 68/75/267 25/25/290
s 2
f 38/40/291 43/47/292 36/38/293 67/73/294
f 70/77/295 72/81/296 31/31/297
f 67/73/294 36/38/293 72/81/296 69/76/298
f 69/76/298 72/81/296 70/77/295 66/71/299
s off
f 74/84/300 75/85/301 33/35/302
f 32/34/303 75/85/304 73/83/305
f 33/35/306 75/85/307 32/34/308
f 78/88/309 77/87/310 76/86/311
f 2/89/312 12/90/313 80/91/314 79/92/315
f 28/93/316 2/94/317 79/95/318 81/96/319
f 4/97/320 34/98/321 83/99/322 82/100/323
f 8/101/324 4/102/325 82/103/326 84/104/327
f 12/105/328 8/106/329 84/107/330 80/108/331
f 17/109/332 30/110/333 86/111/334 85/112/335
f 21/113/336 17/114/337 85/115/338 87/116/339
f 30/117/340 28/118/341 81/119/342 86/120/343
f 34/121/344 31/122/345 88/123/346 83/124/347
f 72/125/348 36/126/349 89/127/350 90/128/351
f 37/129/352 21/130/353 87/131/354 91/132/355
f 36/133/356 37/134/357 91/135/358 89/136/359
f 31/137/360 72/138/361 90/139/362 88/140/363
