# This file uses centimeters as units for non-parametric coordinates.

mtllib mesh_ContainerDoorL.mtl
g default
v -5.641055 1.136257 2.964121
v -5.384118 1.136257 2.964121
v -5.641055 1.299963 2.964121
v -5.384118 1.299963 2.964121
v -5.641055 1.299963 2.796002
v -5.384118 1.299963 2.796002
v -5.641055 1.136257 2.796002
v -5.384118 1.136257 2.796002
v -6.428880 0.963301 2.963411
v -6.385661 0.963301 2.963411
v -6.428880 1.095018 2.963411
v -6.385661 1.095018 2.963411
v -6.428880 1.095018 2.858617
v -6.385661 1.095018 2.858617
v -6.428880 0.963301 2.858617
v -6.385661 0.963301 2.858617
v -5.948526 0.963301 2.963411
v -5.905307 0.963301 2.963411
v -5.948526 1.095018 2.963411
v -5.905307 1.095018 2.963411
v -5.948526 1.095018 2.858617
v -5.905307 1.095018 2.858617
v -5.948526 0.963301 2.858617
v -5.905307 0.963301 2.858617
v -6.394551 1.783996 2.987535
v -6.276397 1.783996 2.987535
v -6.394551 1.866988 2.987535
v -6.276397 1.866988 2.987535
v -6.394551 1.866988 2.819416
v -6.276397 1.866988 2.819416
v -6.394551 1.783996 2.819416
v -6.276397 1.783996 2.819416
v -5.859978 1.783996 2.987535
v -5.741824 1.783996 2.987535
v -5.859978 1.866988 2.987535
v -5.741824 1.866988 2.987535
v -5.859978 1.866988 2.819416
v -5.741824 1.866988 2.819416
v -5.859978 1.783996 2.819416
v -5.741824 1.783996 2.819416
v -6.581023 1.009370 2.983749
v -6.233518 1.009370 2.983749
v -6.581023 1.048950 2.983749
v -6.233518 1.048950 2.983749
v -6.581023 1.048950 2.918603
v -6.233518 1.048950 2.918603
v -6.581023 1.009370 2.918603
v -6.233518 1.009370 2.918603
v -6.100669 1.009370 2.983749
v -5.753164 1.009370 2.983749
v -6.100669 1.048950 2.983749
v -5.753164 1.048950 2.983749
v -6.100669 1.048950 2.918603
v -5.753164 1.048950 2.918603
v -6.100669 1.009370 2.918603
v -5.753164 1.009370 2.918603
v -6.394551 0.428285 2.987535
v -6.276397 0.428285 2.987535
v -6.394551 0.511277 2.987535
v -6.276397 0.511277 2.987535
v -6.394551 0.511277 2.819416
v -6.276397 0.511277 2.819416
v -6.394551 0.428285 2.819416
v -6.276397 0.428285 2.819416
v -5.859978 0.428285 2.987535
v -5.741824 0.428285 2.987535
v -5.859978 0.511277 2.987535
v -5.741824 0.511277 2.987535
v -5.859978 0.511277 2.819416
v -5.741824 0.511277 2.819416
v -5.859978 0.428285 2.819416
v -5.741824 0.428285 2.819416
v -5.788786 0.002776 2.923548
v -5.815699 0.002776 2.923548
v -5.829155 0.002776 2.946855
v -5.815699 0.002776 2.970161
v -5.788786 0.002776 2.970161
v -5.775331 0.002776 2.946855
v -5.788786 2.798011 2.923548
v -5.815699 2.798011 2.923548
v -5.829155 2.798011 2.946855
v -5.815699 2.798011 2.970161
v -5.788786 2.798011 2.970161
v -5.775331 2.798011 2.946855
v -5.802243 2.798011 2.946855
v -6.320353 0.002776 2.923548
v -6.347264 0.002776 2.923548
v -6.360721 0.002776 2.946855
v -6.347264 0.002776 2.970161
v -6.320353 0.002776 2.970161
v -6.306896 0.002776 2.946855
v -6.320353 2.798011 2.923548
v -6.347264 2.798011 2.923548
v -6.360721 2.798011 2.946855
v -6.347264 2.798011 2.970161
v -6.320353 2.798011 2.970161
v -6.306896 2.798011 2.946855
v -6.333808 2.798011 2.946855
v -6.637190 0.256229 2.876303
v -5.512587 0.256229 2.876303
v -6.637190 2.550275 2.876303
v -5.512587 2.550275 2.876303
v -6.637190 2.550275 2.789095
v -5.512587 2.550275 2.789095
v -6.637190 0.256229 2.789095
v -5.512587 0.256229 2.789095
v -5.512587 1.088997 2.876303
v -5.512587 1.763381 2.876303
v -6.637190 1.088997 2.876303
v -6.637190 1.763381 2.876303
v -6.637190 1.426189 2.789095
v -5.512587 1.426189 2.789095
v -5.575411 2.016284 2.876303
v -5.575411 2.184863 2.876303
v -5.575411 0.667516 2.876303
v -5.575411 0.836095 2.876303
v -5.575411 1.341900 2.876303
v -5.575411 1.510479 2.876303
v -6.586722 2.016284 2.876303
v -6.586722 2.184863 2.876303
v -6.586722 0.667516 2.876303
v -6.586722 0.836095 2.876303
v -6.586722 1.341900 2.876303
v -6.586722 1.510479 2.876303
v -5.575411 2.049302 2.838961
v -5.575411 2.151845 2.838961
v -6.586722 2.151845 2.838961
v -6.586722 2.049302 2.838961
v -5.575411 0.700534 2.838961
v -5.575411 0.803077 2.838961
v -6.586722 0.803077 2.838961
v -6.586722 0.700534 2.838961
v -5.575411 1.374918 2.838961
v -5.575411 1.477461 2.838961
v -6.586722 1.477461 2.838961
v -6.586722 1.374918 2.838961
vt 0.375000 0.000000
vt 0.625000 0.000000
vt 0.375000 0.250000
vt 0.625000 0.250000
vt 0.375000 0.500000
vt 0.625000 0.500000
vt 0.375000 0.750000
vt 0.625000 0.750000
vt 0.375000 1.000000
vt 0.625000 1.000000
vt 0.875000 0.000000
vt 0.875000 0.250000
vt 0.125000 0.000000
vt 0.125000 0.250000
vt 0.375000 0.000000
vt 0.625000 0.000000
vt 0.625000 0.250000
vt 0.375000 0.250000
vt 0.625000 0.500000
vt 0.375000 0.500000
vt 0.625000 0.750000
vt 0.375000 0.750000
vt 0.625000 1.000000
vt 0.375000 1.000000
vt 0.875000 0.000000
vt 0.875000 0.250000
vt 0.125000 0.000000
vt 0.125000 0.250000
vt 0.375000 0.000000
vt 0.625000 0.000000
vt 0.625000 0.250000
vt 0.375000 0.250000
vt 0.625000 0.500000
vt 0.375000 0.500000
vt 0.625000 0.750000
vt 0.375000 0.750000
vt 0.625000 1.000000
vt 0.375000 1.000000
vt 0.875000 0.000000
vt 0.875000 0.250000
vt 0.125000 0.000000
vt 0.125000 0.250000
vt 0.375000 0.000000
vt 0.625000 0.000000
vt 0.625000 0.250000
vt 0.375000 0.250000
vt 0.625000 0.500000
vt 0.375000 0.500000
vt 0.625000 0.750000
vt 0.375000 0.750000
vt 0.625000 1.000000
vt 0.375000 1.000000
vt 0.875000 0.000000
vt 0.875000 0.250000
vt 0.125000 0.000000
vt 0.125000 0.250000
vt 0.375000 0.000000
vt 0.625000 0.000000
vt 0.625000 0.250000
vt 0.375000 0.250000
vt 0.625000 0.500000
vt 0.375000 0.500000
vt 0.625000 0.750000
vt 0.375000 0.750000
vt 0.625000 1.000000
vt 0.375000 1.000000
vt 0.875000 0.000000
vt 0.875000 0.250000
vt 0.125000 0.000000
vt 0.125000 0.250000
vt 0.375000 0.000000
vt 0.625000 0.000000
vt 0.625000 0.250000
vt 0.375000 0.250000
vt 0.625000 0.500000
vt 0.375000 0.500000
vt 0.625000 0.750000
vt 0.375000 0.750000
vt 0.625000 1.000000
vt 0.375000 1.000000
vt 0.875000 0.000000
vt 0.875000 0.250000
vt 0.125000 0.000000
vt 0.125000 0.250000
vt 0.375000 0.000000
vt 0.625000 0.000000
vt 0.625000 0.250000
vt 0.375000 0.250000
vt 0.625000 0.500000
vt 0.375000 0.500000
vt 0.625000 0.750000
vt 0.375000 0.750000
vt 0.625000 1.000000
vt 0.375000 1.000000
vt 0.875000 0.000000
vt 0.875000 0.250000
vt 0.125000 0.000000
vt 0.125000 0.250000
vt 0.375000 0.000000
vt 0.625000 0.000000
vt 0.625000 0.250000
vt 0.375000 0.250000
vt 0.625000 0.500000
vt 0.375000 0.500000
vt 0.625000 0.750000
vt 0.375000 0.750000
vt 0.625000 1.000000
vt 0.375000 1.000000
vt 0.875000 0.000000
vt 0.875000 0.250000
vt 0.125000 0.000000
vt 0.125000 0.250000
vt 0.375000 0.000000
vt 0.625000 0.000000
vt 0.625000 0.250000
vt 0.375000 0.250000
vt 0.625000 0.500000
vt 0.375000 0.500000
vt 0.625000 0.750000
vt 0.375000 0.750000
vt 0.625000 1.000000
vt 0.375000 1.000000
vt 0.875000 0.000000
vt 0.875000 0.250000
vt 0.125000 0.000000
vt 0.125000 0.250000
vt 0.375000 0.312500
vt 0.416667 0.312500
vt 0.416667 0.688440
vt 0.375000 0.688440
vt 0.458333 0.312500
vt 0.458333 0.688440
vt 0.500000 0.312500
vt 0.500000 0.688440
vt 0.541667 0.312500
vt 0.541667 0.688440
vt 0.583333 0.312500
vt 0.583333 0.688440
vt 0.625000 0.312500
vt 0.625000 0.688440
vt 0.578125 0.979066
vt 0.421875 0.979066
vt 0.500000 0.837500
vt 0.343750 0.843750
vt 0.421875 0.708434
vt 0.578125 0.708434
vt 0.656250 0.843750
vt 0.375000 0.312500
vt 0.416667 0.312500
vt 0.416667 0.688440
vt 0.375000 0.688440
vt 0.458333 0.312500
vt 0.458333 0.688440
vt 0.500000 0.312500
vt 0.500000 0.688440
vt 0.541667 0.312500
vt 0.541667 0.688440
vt 0.583333 0.312500
vt 0.583333 0.688440
vt 0.625000 0.312500
vt 0.625000 0.688440
vt 0.578125 0.979066
vt 0.421875 0.979066
vt 0.500000 0.837500
vt 0.343750 0.843750
vt 0.421875 0.708434
vt 0.578125 0.708434
vt 0.656250 0.843750
vt 0.380610 0.197030
vt 0.380610 0.213752
vt 0.376141 0.248224
vt 0.375000 0.164246
vt 0.499984 0.254883
vt 0.500000 0.335754
vt 0.499925 0.622575
vt 0.499914 0.501131
vt 0.500000 0.409247
vt 0.499905 0.514293
vt 0.499910 0.722065
vt 0.380610 0.063236
vt 0.380610 0.079959
vt 0.375000 0.090753
vt 0.375187 0.006752
vt 0.380610 0.130133
vt 0.380610 0.146856
vt 0.125053 0.127434
vt 0.125023 0.000105
vt 0.125602 0.249083
vt 0.493017 0.285373
vt 0.493017 0.301691
vt 0.493017 0.415936
vt 0.493017 0.432255
vt 0.493017 0.366973
vt 0.493017 0.350654
vt 0.493017 0.301691
vt 0.493017 0.285373
vt 0.380610 0.213752
vt 0.380610 0.197030
vt 0.375314 0.499815
vt 0.375177 0.622484
vt 0.375163 0.789366
vt 0.375883 0.967734
vt 0.493017 0.432255
vt 0.493017 0.415936
vt 0.380610 0.079959
vt 0.380610 0.063236
vt 0.493017 0.366973
vt 0.493017 0.350654
vt 0.380610 0.146856
vt 0.380610 0.130133
vn 0.000000 0.000000 1.000000
vn 0.000000 0.000000 1.000000
vn 0.000000 0.000000 1.000000
vn 0.000000 0.000000 1.000000
vn 0.000000 1.000000 0.000000
vn 0.000000 1.000000 0.000000
vn 0.000000 1.000000 0.000000
vn 0.000000 1.000000 0.000000
vn 0.000000 0.000000 -1.000000
vn 0.000000 0.000000 -1.000000
vn 0.000000 0.000000 -1.000000
vn 0.000000 0.000000 -1.000000
vn 0.000000 -1.000000 0.000000
vn 0.000000 -1.000000 0.000000
vn 0.000000 -1.000000 0.000000
vn 0.000000 -1.000000 0.000000
vn 1.000000 0.000000 0.000000
vn 1.000000 0.000000 0.000000
vn 1.000000 0.000000 0.000000
vn 1.000000 0.000000 0.000000
vn -1.000000 0.000000 0.000000
vn -1.000000 0.000000 0.000000
vn -1.000000 0.000000 0.000000
vn -1.000000 0.000000 0.000000
vn 0.000000 0.000000 1.000000
vn 0.000000 0.000000 1.000000
vn 0.000000 0.000000 1.000000
vn 0.000000 0.000000 1.000000
vn 0.000000 1.000000 0.000000
vn 0.000000 1.000000 0.000000
vn 0.000000 1.000000 0.000000
vn 0.000000 1.000000 0.000000
vn 0.000000 0.000000 -1.000000
vn 0.000000 0.000000 -1.000000
vn 0.000000 0.000000 -1.000000
vn 0.000000 0.000000 -1.000000
vn 0.000000 -1.000000 0.000000
vn 0.000000 -1.000000 0.000000
vn 0.000000 -1.000000 0.000000
vn 0.000000 -1.000000 0.000000
vn 1.000000 0.000000 0.000000
vn 1.000000 0.000000 0.000000
vn 1.000000 0.000000 0.000000
vn 1.000000 0.000000 0.000000
vn -1.000000 0.000000 0.000000
vn -1.000000 0.000000 0.000000
vn -1.000000 0.000000 0.000000
vn -1.000000 0.000000 0.000000
vn 0.000000 0.000000 1.000000
vn 0.000000 0.000000 1.000000
vn 0.000000 0.000000 1.000000
vn 0.000000 0.000000 1.000000
vn 0.000000 1.000000 0.000000
vn 0.000000 1.000000 0.000000
vn 0.000000 1.000000 0.000000
vn 0.000000 1.000000 0.000000
vn 0.000000 0.000000 -1.000000
vn 0.000000 0.000000 -1.000000
vn 0.000000 0.000000 -1.000000
vn 0.000000 0.000000 -1.000000
vn 0.000000 -1.000000 0.000000
vn 0.000000 -1.000000 0.000000
vn 0.000000 -1.000000 0.000000
vn 0.000000 -1.000000 0.000000
vn 1.000000 0.000000 0.000000
vn 1.000000 0.000000 0.000000
vn 1.000000 0.000000 0.000000
vn 1.000000 0.000000 0.000000
vn -1.000000 0.000000 0.000000
vn -1.000000 0.000000 0.000000
vn -1.000000 0.000000 0.000000
vn -1.000000 0.000000 0.000000
vn 0.000000 0.000000 1.000000
vn 0.000000 0.000000 1.000000
vn 0.000000 0.000000 1.000000
vn 0.000000 0.000000 1.000000
vn 0.000000 1.000000 0.000000
vn 0.000000 1.000000 0.000000
vn 0.000000 1.000000 0.000000
vn 0.000000 1.000000 0.000000
vn 0.000000 0.000000 -1.000000
vn 0.000000 0.000000 -1.000000
vn 0.000000 0.000000 -1.000000
vn 0.000000 0.000000 -1.000000
vn 0.000000 -1.000000 0.000000
vn 0.000000 -1.000000 0.000000
vn 0.000000 -1.000000 0.000000
vn 0.000000 -1.000000 0.000000
vn 1.000000 0.000000 0.000000
vn 1.000000 0.000000 0.000000
vn 1.000000 0.000000 0.000000
vn 1.000000 0.000000 0.000000
vn -1.000000 0.000000 0.000000
vn -1.000000 0.000000 0.000000
vn -1.000000 0.000000 0.000000
vn -1.000000 0.000000 0.000000
vn 0.000000 0.000000 1.000000
vn 0.000000 0.000000 1.000000
vn 0.000000 0.000000 1.000000
vn 0.000000 0.000000 1.000000
vn 0.000000 1.000000 0.000000
vn 0.000000 1.000000 0.000000
vn 0.000000 1.000000 0.000000
vn 0.000000 1.000000 0.000000
vn 0.000000 0.000000 -1.000000
vn 0.000000 0.000000 -1.000000
vn 0.000000 0.000000 -1.000000
vn 0.000000 0.000000 -1.000000
vn 0.000000 -1.000000 0.000000
vn 0.000000 -1.000000 0.000000
vn 0.000000 -1.000000 0.000000
vn 0.000000 -1.000000 0.000000
vn 1.000000 0.000000 0.000000
vn 1.000000 0.000000 0.000000
vn 1.000000 0.000000 0.000000
vn 1.000000 0.000000 0.000000
vn -1.000000 0.000000 0.000000
vn -1.000000 0.000000 0.000000
vn -1.000000 0.000000 0.000000
vn -1.000000 0.000000 0.000000
vn 0.000000 0.000000 1.000000
vn 0.000000 0.000000 1.000000
vn 0.000000 0.000000 1.000000
vn 0.000000 0.000000 1.000000
vn 0.000000 1.000000 0.000000
vn 0.000000 1.000000 0.000000
vn 0.000000 1.000000 0.000000
vn 0.000000 1.000000 0.000000
vn 0.000000 0.000000 -1.000000
vn 0.000000 0.000000 -1.000000
vn 0.000000 0.000000 -1.000000
vn 0.000000 0.000000 -1.000000
vn 0.000000 -1.000000 0.000000
vn 0.000000 -1.000000 0.000000
vn 0.000000 -1.000000 0.000000
vn 0.000000 -1.000000 0.000000
vn 1.000000 0.000000 0.000000
vn 1.000000 0.000000 0.000000
vn 1.000000 0.000000 0.000000
vn 1.000000 0.000000 0.000000
vn -1.000000 0.000000 0.000000
vn -1.000000 0.000000 0.000000
vn -1.000000 0.000000 0.000000
vn -1.000000 0.000000 0.000000
vn 0.000000 0.000000 1.000000
vn 0.000000 0.000000 1.000000
vn 0.000000 0.000000 1.000000
vn 0.000000 0.000000 1.000000
vn 0.000000 1.000000 0.000000
vn 0.000000 1.000000 0.000000
vn 0.000000 1.000000 0.000000
vn 0.000000 1.000000 0.000000
vn 0.000000 0.000000 -1.000000
vn 0.000000 0.000000 -1.000000
vn 0.000000 0.000000 -1.000000
vn 0.000000 0.000000 -1.000000
vn 0.000000 -1.000000 0.000000
vn 0.000000 -1.000000 0.000000
vn 0.000000 -1.000000 0.000000
vn 0.000000 -1.000000 0.000000
vn 1.000000 0.000000 0.000000
vn 1.000000 0.000000 0.000000
vn 1.000000 0.000000 0.000000
vn 1.000000 0.000000 0.000000
vn -1.000000 0.000000 0.000000
vn -1.000000 0.000000 0.000000
vn -1.000000 0.000000 0.000000
vn -1.000000 0.000000 0.000000
vn 0.000000 0.000000 1.000000
vn 0.000000 0.000000 1.000000
vn 0.000000 0.000000 1.000000
vn 0.000000 0.000000 1.000000
vn 0.000000 1.000000 0.000000
vn 0.000000 1.000000 0.000000
vn 0.000000 1.000000 0.000000
vn 0.000000 1.000000 0.000000
vn 0.000000 0.000000 -1.000000
vn 0.000000 0.000000 -1.000000
vn 0.000000 0.000000 -1.000000
vn 0.000000 0.000000 -1.000000
vn 0.000000 -1.000000 0.000000
vn 0.000000 -1.000000 0.000000
vn 0.000000 -1.000000 0.000000
vn 0.000000 -1.000000 0.000000
vn 1.000000 0.000000 0.000000
vn 1.000000 0.000000 0.000000
vn 1.000000 0.000000 0.000000
vn 1.000000 0.000000 0.000000
vn -1.000000 0.000000 0.000000
vn -1.000000 0.000000 0.000000
vn -1.000000 0.000000 0.000000
vn -1.000000 0.000000 0.000000
vn 0.000000 0.000000 1.000000
vn 0.000000 0.000000 1.000000
vn 0.000000 0.000000 1.000000
vn 0.000000 0.000000 1.000000
vn 0.000000 1.000000 0.000000
vn 0.000000 1.000000 0.000000
vn 0.000000 1.000000 0.000000
vn 0.000000 1.000000 0.000000
vn 0.000000 0.000000 -1.000000
vn 0.000000 0.000000 -1.000000
vn 0.000000 0.000000 -1.000000
vn 0.000000 0.000000 -1.000000
vn 0.000000 -1.000000 0.000000
vn 0.000000 -1.000000 0.000000
vn 0.000000 -1.000000 0.000000
vn 0.000000 -1.000000 0.000000
vn 1.000000 0.000000 0.000000
vn 1.000000 0.000000 0.000000
vn 1.000000 0.000000 0.000000
vn 1.000000 0.000000 0.000000
vn -1.000000 0.000000 0.000000
vn -1.000000 0.000000 0.000000
vn -1.000000 0.000000 0.000000
vn -1.000000 0.000000 0.000000
vn 0.500001 0.000000 -0.866025
vn -0.499992 0.000000 -0.866030
vn -0.499992 0.000000 -0.866030
vn 0.500001 0.000000 -0.866025
vn -1.000000 0.000000 0.000000
vn -1.000000 0.000000 0.000000
vn -0.499998 0.000000 0.866027
vn -0.499998 0.000000 0.866027
vn 0.500007 0.000000 0.866022
vn 0.500007 0.000000 0.866022
vn 1.000000 0.000000 0.000000
vn 1.000000 0.000000 0.000000
vn 0.000000 1.000000 0.000000
vn 0.000000 1.000000 0.000000
vn 0.000000 1.000000 0.000000
vn 0.000000 1.000000 0.000000
vn 0.000000 1.000000 0.000000
vn 0.000000 1.000000 0.000000
vn 0.000000 1.000000 0.000000
vn 0.499997 0.000000 -0.866027
vn -0.500001 0.000000 -0.866025
vn -0.500001 0.000000 -0.866025
vn 0.499997 0.000000 -0.866027
vn -1.000000 0.000000 -0.000000
vn -1.000000 0.000000 -0.000000
vn -0.500007 0.000000 0.866022
vn -0.500007 0.000000 0.866022
vn 0.500002 0.000000 0.866024
vn 0.500002 0.000000 0.866024
vn 1.000000 0.000000 0.000000
vn 1.000000 0.000000 0.000000
vn 0.000000 1.000000 0.000000
vn 0.000000 1.000000 0.000000
vn 0.000000 1.000000 0.000000
vn 0.000000 1.000000 0.000000
vn 0.000000 1.000000 0.000000
vn 0.000000 1.000000 0.000000
vn 0.000000 1.000000 0.000000
vn 0.000000 0.000000 1.000000
vn 0.000000 0.000000 1.000000
vn 0.000000 0.000000 1.000000
vn 0.000000 0.000000 1.000000
vn 1.000000 0.000000 0.000000
vn 1.000000 0.000000 0.000000
vn 1.000000 0.000000 0.000000
vn 1.000000 0.000000 0.000000
vn 1.000000 0.000000 0.000000
vn 1.000000 0.000000 0.000000
vn 1.000000 0.000000 0.000000
vn -0.000000 0.000000 1.000000
vn -0.000000 0.000000 1.000000
vn -0.000001 0.000000 1.000000
vn -0.000000 0.000000 1.000000
vn 0.000000 0.000000 1.000000
vn 0.000000 0.000000 1.000000
vn -1.000000 0.000000 0.000000
vn -1.000000 0.000000 0.000000
vn -1.000000 0.000000 0.000000
vn -1.000000 0.000000 0.000000
vn -1.000000 0.000000 0.000000
vn -1.000000 0.000000 0.000000
vn -1.000000 0.000000 0.000000
vn 0.000000 0.000000 1.000000
vn 0.000000 0.000000 1.000000
vn 0.000000 0.000000 1.000000
vn 0.000000 0.000000 1.000000
vn 0.000000 0.000000 1.000000
vn 0.000001 0.000000 1.000000
vn 0.000000 0.000000 1.000000
vn 0.000000 0.000000 1.000000
vn 0.000000 0.000000 1.000000
vn 0.000000 0.000000 1.000000
vn 0.000000 0.000000 1.000000
vn 0.000000 0.000000 1.000000
vn 0.000000 0.000000 1.000000
vn 0.000000 0.000000 1.000000
vn 0.000000 1.000000 0.000000
vn 0.000000 1.000000 0.000000
vn 0.000000 1.000000 0.000000
vn 0.000000 1.000000 0.000000
vn 0.000000 0.000000 -1.000000
vn 0.000000 0.000000 -1.000000
vn 0.000000 0.000000 -1.000000
vn 0.000000 0.000000 -1.000000
vn 0.000000 0.000000 -1.000000
vn 0.000000 0.000000 -1.000000
vn 0.000000 -1.000000 0.000000
vn 0.000000 -1.000000 0.000000
vn 0.000000 -1.000000 0.000000
vn 0.000000 -1.000000 0.000000
vn 0.000000 0.000000 1.000000
vn 0.000000 0.000000 1.000000
vn 0.000000 0.000000 1.000000
vn 0.000000 0.000000 1.000000
vn 0.000000 0.000000 1.000000
vn 0.000000 0.000000 1.000000
vn 0.000000 0.000000 1.000000
vn 0.000000 0.000000 1.000000
vn -1.000000 0.000000 0.000000
vn -1.000000 0.000000 0.000000
vn -1.000000 0.000000 0.000000
vn -1.000000 0.000000 0.000000
vn 0.000000 -0.749152 0.662399
vn 0.000000 -0.749152 0.662399
vn 0.000000 -0.749152 0.662399
vn 0.000000 -0.749152 0.662399
vn 1.000000 0.000000 0.000000
vn 1.000000 0.000000 0.000000
vn 1.000000 0.000000 0.000000
vn 1.000000 0.000000 0.000000
vn 0.000000 0.749154 0.662396
vn 0.000000 0.749154 0.662396
vn 0.000000 0.749154 0.662396
vn 0.000000 0.749154 0.662396
vn -1.000000 0.000000 0.000000
vn -1.000000 0.000000 0.000000
vn -1.000000 0.000000 0.000000
vn -1.000000 0.000000 0.000000
vn 0.000000 -0.749150 0.662400
vn 0.000000 -0.749150 0.662400
vn 0.000000 -0.749150 0.662400
vn 0.000000 -0.749150 0.662400
vn 1.000000 0.000000 0.000000
vn 1.000000 0.000000 0.000000
vn 1.000000 0.000000 0.000000
vn 1.000000 0.000000 0.000000
vn 0.000000 0.749153 0.662397
vn 0.000000 0.749153 0.662397
vn 0.000000 0.749153 0.662397
vn 0.000000 0.749153 0.662397
vn -1.000000 0.000000 0.000000
vn -1.000000 0.000000 0.000000
vn -1.000000 0.000000 0.000000
vn -1.000000 0.000000 0.000000
vn 0.000000 -0.749155 0.662395
vn 0.000000 -0.749155 0.662395
vn 0.000000 -0.749155 0.662395
vn 0.000000 -0.749155 0.662395
vn 1.000000 0.000000 0.000000
vn 1.000000 0.000000 0.000000
vn 1.000000 0.000000 0.000000
vn 1.000000 0.000000 0.000000
vn 0.000000 0.749155 0.662395
vn 0.000000 0.749155 0.662395
vn 0.000000 0.749155 0.662395
vn 0.000000 0.749155 0.662395
s off
g mesh_ContainerDoorL
usemtl initialShadingGroup
f 1/1/1 2/2/2 4/4/3 3/3/4
f 3/3/5 4/4/6 6/6/7 5/5/8
f 5/5/9 6/6/10 8/8/11 7/7/12
f 7/7/13 8/8/14 2/10/15 1/9/16
f 2/2/17 8/11/18 6/12/19 4/4/20
f 7/13/21 1/1/22 3/3/23 5/14/24
f 9/15/25 10/16/26 12/17/27 11/18/28
f 11/18/29 12/17/30 14/19/31 13/20/32
f 13/20/33 14/19/34 16/21/35 15/22/36
f 15/22/37 16/21/38 10/23/39 9/24/40
f 10/16/41 16/25/42 14/26/43 12/17/44
f 15/27/45 9/15/46 11/18/47 13/28/48
f 17/29/49 18/30/50 20/31/51 19/32/52
f 19/32/53 20/31/54 22/33/55 21/34/56
f 21/34/57 22/33/58 24/35/59 23/36/60
f 23/36/61 24/35/62 18/37/63 17/38/64
f 18/30/65 24/39/66 22/40/67 20/31/68
f 23/41/69 17/29/70 19/32/71 21/42/72
f 25/43/73 26/44/74 28/45/75 27/46/76
f 27/46/77 28/45/78 30/47/79 29/48/80
f 29/48/81 30/47/82 32/49/83 31/50/84
f 31/50/85 32/49/86 26/51/87 25/52/88
f 26/44/89 32/53/90 30/54/91 28/45/92
f 31/55/93 25/43/94 27/46/95 29/56/96
f 33/57/97 34/58/98 36/59/99 35/60/100
f 35/60/101 36/59/102 38/61/103 37/62/104
f 37/62/105 38/61/106 40/63/107 39/64/108
f 39/64/109 40/63/110 34/65/111 33/66/112
f 34/58/113 40/67/114 38/68/115 36/59/116
f 39/69/117 33/57/118 35/60/119 37/70/120
f 41/71/121 42/72/122 44/73/123 43/74/124
f 43/74/125 44/73/126 46/75/127 45/76/128
f 45/76/129 46/75/130 48/77/131 47/78/132
f 47/78/133 48/77/134 42/79/135 41/80/136
f 42/72/137 48/81/138 46/82/139 44/73/140
f 47/83/141 41/71/142 43/74/143 45/84/144
f 49/85/145 50/86/146 52/87/147 51/88/148
f 51/88/149 52/87/150 54/89/151 53/90/152
f 53/90/153 54/89/154 56/91/155 55/92/156
f 55/92/157 56/91/158 50/93/159 49/94/160
f 50/86/161 56/95/162 54/96/163 52/87/164
f 55/97/165 49/85/166 51/88/167 53/98/168
f 57/99/169 58/100/170 60/101/171 59/102/172
f 59/102/173 60/101/174 62/103/175 61/104/176
f 61/104/177 62/103/178 64/105/179 63/106/180
f 63/106/181 64/105/182 58/107/183 57/108/184
f 58/100/185 64/109/186 62/110/187 60/101/188
f 63/111/189 57/99/190 59/102/191 61/112/192
f 65/113/193 66/114/194 68/115/195 67/116/196
f 67/116/197 68/115/198 70/117/199 69/118/200
f 69/118/201 70/117/202 72/119/203 71/120/204
f 71/120/205 72/119/206 66/121/207 65/122/208
f 66/114/209 72/123/210 70/124/211 68/115/212
f 71/125/213 65/113/214 67/116/215 69/126/216
s 1
f 73/127/217 74/128/218 80/129/219 79/130/220
f 74/128/218 75/131/221 81/132/222 80/129/219
f 75/131/221 76/133/223 82/134/224 81/132/222
f 76/133/223 77/135/225 83/136/226 82/134/224
f 77/135/225 78/137/227 84/138/228 83/136/226
f 78/137/227 73/139/217 79/140/220 84/138/228
s 2
f 79/141/229 80/142/230 85/143/231
f 80/142/230 81/144/232 85/143/231
f 81/144/232 82/145/233 85/143/231
f 82/145/233 83/146/234 85/143/231
f 83/146/234 84/147/235 85/143/231
f 84/147/235 79/141/229 85/143/231
s 3
f 86/148/236 87/149/237 93/150/238 92/151/239
f 87/149/237 88/152/240 94/153/241 93/150/238
f 88/152/240 89/154/242 95/155/243 94/153/241
f 89/154/242 90/156/244 96/157/245 95/155/243
f 90/156/244 91/158/246 97/159/247 96/157/245
f 91/158/246 86/160/236 92/161/239 97/159/247
s 4
f 92/162/248 93/163/249 98/164/250
f 93/163/249 94/165/251 98/164/250
f 94/165/251 95/166/252 98/164/250
f 95/166/252 96/167/253 98/164/250
f 96/167/253 97/168/254 98/164/250
f 97/168/254 92/162/248 98/164/250
s 5
f 119/169/255 120/170/256 101/171/257 110/172/258
s 6
f 102/173/259 108/174/260 112/175/261 104/176/262
f 107/177/263 100/178/264 106/179/265 112/175/261
s 5
f 121/180/266 122/181/267 109/182/268 99/183/269
s 6
f 108/174/260 107/177/263 112/175/261
s 5
f 123/184/270 124/185/271 110/172/258 109/182/268
s 8
f 109/182/272 110/172/273 111/186/274
f 99/183/275 109/182/272 111/186/274 105/187/276
f 110/172/273 101/171/277 103/188/278 111/186/274
s 5
f 122/181/267 123/184/270 109/182/268
f 124/185/271 119/169/255 110/172/258
f 108/174/279 102/173/280 114/189/281 113/190/282
f 100/178/283 107/177/284 116/191/285 115/192/286
f 107/177/284 117/193/287 116/191/285
f 107/177/284 108/174/279 118/194/288 117/193/287
f 108/174/279 113/190/282 118/194/288
s off
f 125/195/289 126/196/290 127/197/291 128/198/292
s 5
f 101/171/257 120/170/256 114/189/281 102/173/280
s off
f 103/199/293 101/171/294 102/173/295 104/176/296
s 10
f 104/176/297 112/175/298 111/200/299 103/199/300
f 112/175/298 106/179/301 105/201/302 111/200/299
s off
f 99/202/303 105/201/304 106/179/305 100/178/306
s 5
f 121/180/266 99/183/269 100/178/283 115/192/286
s off
f 129/203/307 130/204/308 131/205/309 132/206/310
s 5
f 116/191/285 117/193/287 123/184/270 122/181/267
s off
f 133/207/311 134/208/312 135/209/313 136/210/314
s 5
f 118/194/288 113/190/282 119/169/255 124/185/271
s off
f 113/190/315 114/189/316 126/196/317 125/195/318
f 114/189/319 120/170/320 127/197/321 126/196/322
f 120/170/323 119/169/324 128/198/325 127/197/326
f 119/169/327 113/190/328 125/195/329 128/198/330
f 115/192/331 116/191/332 130/204/333 129/203/334
f 116/191/335 122/181/336 131/205/337 130/204/338
f 122/181/339 121/180/340 132/206/341 131/205/342
f 121/180/343 115/192/344 129/203/345 132/206/346
f 117/193/347 118/194/348 134/208/349 133/207/350
f 118/194/351 124/185/352 135/209/353 134/208/354
f 124/185/355 123/184/356 136/210/357 135/209/358
f 123/184/359 117/193/360 133/207/361 136/210/362
