# This file uses centimeters as units for non-parametric coordinates.

mtllib mesh_ContainerDoorR.mtl
g default
v -4.571872 0.962702 2.963514
v -4.615150 0.962702 2.963514
v -4.571872 1.094599 2.963514
v -4.615150 1.094599 2.963514
v -4.571872 1.094599 2.858577
v -4.615150 1.094599 2.858577
v -4.571872 0.962702 2.858577
v -4.615150 0.962702 2.858577
v -5.052885 0.962702 2.963514
v -5.096163 0.962702 2.963514
v -5.052885 1.094599 2.963514
v -5.096163 1.094599 2.963514
v -5.052885 1.094599 2.858577
v -5.096163 1.094599 2.858577
v -5.052885 0.962702 2.858577
v -5.096163 0.962702 2.858577
v -4.606248 1.784522 2.987671
v -4.724565 1.784522 2.987671
v -4.606248 1.867628 2.987671
v -4.724565 1.867628 2.987671
v -4.606248 1.867628 2.819322
v -4.724565 1.867628 2.819322
v -4.606248 1.784522 2.819322
v -4.724565 1.784522 2.819322
v -5.141555 1.784522 2.987671
v -5.259871 1.784522 2.987671
v -5.141555 1.867628 2.987671
v -5.259871 1.867628 2.987671
v -5.141555 1.867628 2.819322
v -5.259871 1.867628 2.819322
v -5.141555 1.784522 2.819322
v -5.259871 1.784522 2.819322
v -4.419520 1.008833 2.983880
v -4.767502 1.008833 2.983880
v -4.419520 1.048468 2.983880
v -4.767502 1.048468 2.983880
v -4.419520 1.048468 2.918645
v -4.767502 1.048468 2.918645
v -4.419520 1.008833 2.918645
v -4.767502 1.008833 2.918645
v -4.900533 1.008833 2.983880
v -5.248515 1.008833 2.983880
v -4.900533 1.048468 2.983880
v -5.248515 1.048468 2.983880
v -4.900533 1.048468 2.918645
v -5.248515 1.048468 2.918645
v -4.900533 1.008833 2.918645
v -5.248515 1.008833 2.918645
v -4.606248 0.426952 2.987671
v -4.724565 0.426952 2.987671
v -4.606248 0.510058 2.987671
v -4.724565 0.510058 2.987671
v -4.606248 0.510058 2.819322
v -4.724565 0.510058 2.819322
v -4.606248 0.426952 2.819322
v -4.724565 0.426952 2.819322
v -5.141555 0.426952 2.987671
v -5.259871 0.426952 2.987671
v -5.141555 0.510058 2.987671
v -5.259871 0.510058 2.987671
v -5.141555 0.510058 2.819322
v -5.259871 0.510058 2.819322
v -5.141555 0.426952 2.819322
v -5.259871 0.426952 2.819322
v -5.212843 0.000858 2.923596
v -5.185894 0.000858 2.923596
v -5.172420 0.000858 2.946935
v -5.185894 0.000858 2.970273
v -5.212843 0.000858 2.970273
v -5.226318 0.000858 2.946935
v -5.212843 2.799928 2.923596
v -5.185894 2.799928 2.923596
v -5.172420 2.799928 2.946935
v -5.185894 2.799928 2.970273
v -5.212843 2.799928 2.970273
v -5.226318 2.799928 2.946935
v -5.199369 2.799928 2.946935
v -4.680549 0.000858 2.923596
v -4.653600 0.000858 2.923596
v -4.640125 0.000858 2.946935
v -4.653600 0.000858 2.970273
v -4.680549 0.000858 2.970273
v -4.694024 0.000858 2.946935
v -4.680549 2.799928 2.923596
v -4.653600 2.799928 2.923596
v -4.640125 2.799928 2.946935
v -4.653600 2.799928 2.970273
v -4.680549 2.799928 2.970273
v -4.694024 2.799928 2.946935
v -4.667074 2.799928 2.946935
v -4.363276 0.254659 2.876287
v -5.489423 0.254659 2.876287
v -4.363276 2.551853 2.876287
v -5.489423 2.551853 2.876287
v -4.363276 2.551853 2.788959
v -5.489423 2.551853 2.788959
v -4.363276 0.254659 2.788959
v -5.489423 0.254659 2.788959
v -5.489423 1.088570 2.876287
v -5.489423 1.763879 2.876287
v -4.363276 1.088570 2.876287
v -4.363276 1.763879 2.876287
v -4.363276 1.426225 2.788959
v -5.489423 1.426225 2.788959
v -5.426512 2.017129 2.876287
v -5.426512 2.185939 2.876287
v -5.426512 0.666510 2.876287
v -5.426512 0.835321 2.876287
v -5.426512 1.341820 2.876287
v -5.426512 1.510630 2.876287
v -4.413814 2.017129 2.876287
v -4.413814 2.185939 2.876287
v -4.413814 0.666510 2.876287
v -4.413814 0.835321 2.876287
v -4.413814 1.341820 2.876287
v -4.413814 1.510630 2.876287
v -5.426512 2.050192 2.838893
v -5.426512 2.152876 2.838893
v -4.413814 2.152876 2.838893
v -4.413814 2.050192 2.838893
v -5.426512 0.699574 2.838893
v -5.426512 0.802257 2.838893
v -4.413814 0.802257 2.838893
v -4.413814 0.699574 2.838893
v -5.426512 1.374883 2.838893
v -5.426512 1.477566 2.838893
v -4.413814 1.477566 2.838893
v -4.413814 1.374883 2.838893
vt 0.375000 0.000000
vt 0.625000 0.000000
vt 0.375000 0.250000
vt 0.625000 0.250000
vt 0.375000 0.500000
vt 0.625000 0.500000
vt 0.375000 0.750000
vt 0.625000 0.750000
vt 0.375000 1.000000
vt 0.625000 1.000000
vt 0.875000 0.000000
vt 0.875000 0.250000
vt 0.125000 0.000000
vt 0.125000 0.250000
vt 0.375000 0.000000
vt 0.625000 0.000000
vt 0.625000 0.250000
vt 0.375000 0.250000
vt 0.625000 0.500000
vt 0.375000 0.500000
vt 0.625000 0.750000
vt 0.375000 0.750000
vt 0.625000 1.000000
vt 0.375000 1.000000
vt 0.875000 0.000000
vt 0.875000 0.250000
vt 0.125000 0.000000
vt 0.125000 0.250000
vt 0.375000 0.000000
vt 0.625000 0.000000
vt 0.625000 0.250000
vt 0.375000 0.250000
vt 0.625000 0.500000
vt 0.375000 0.500000
vt 0.625000 0.750000
vt 0.375000 0.750000
vt 0.625000 1.000000
vt 0.375000 1.000000
vt 0.875000 0.000000
vt 0.875000 0.250000
vt 0.125000 0.000000
vt 0.125000 0.250000
vt 0.375000 0.000000
vt 0.625000 0.000000
vt 0.625000 0.250000
vt 0.375000 0.250000
vt 0.625000 0.500000
vt 0.375000 0.500000
vt 0.625000 0.750000
vt 0.375000 0.750000
vt 0.625000 1.000000
vt 0.375000 1.000000
vt 0.875000 0.000000
vt 0.875000 0.250000
vt 0.125000 0.000000
vt 0.125000 0.250000
vt 0.375000 0.000000
vt 0.625000 0.000000
vt 0.625000 0.250000
vt 0.375000 0.250000
vt 0.625000 0.500000
vt 0.375000 0.500000
vt 0.625000 0.750000
vt 0.375000 0.750000
vt 0.625000 1.000000
vt 0.375000 1.000000
vt 0.875000 0.000000
vt 0.875000 0.250000
vt 0.125000 0.000000
vt 0.125000 0.250000
vt 0.375000 0.000000
vt 0.625000 0.000000
vt 0.625000 0.250000
vt 0.375000 0.250000
vt 0.625000 0.500000
vt 0.375000 0.500000
vt 0.625000 0.750000
vt 0.375000 0.750000
vt 0.625000 1.000000
vt 0.375000 1.000000
vt 0.875000 0.000000
vt 0.875000 0.250000
vt 0.125000 0.000000
vt 0.125000 0.250000
vt 0.375000 0.000000
vt 0.625000 0.000000
vt 0.625000 0.250000
vt 0.375000 0.250000
vt 0.625000 0.500000
vt 0.375000 0.500000
vt 0.625000 0.750000
vt 0.375000 0.750000
vt 0.625000 1.000000
vt 0.375000 1.000000
vt 0.875000 0.000000
vt 0.875000 0.250000
vt 0.125000 0.000000
vt 0.125000 0.250000
vt 0.375000 0.000000
vt 0.625000 0.000000
vt 0.625000 0.250000
vt 0.375000 0.250000
vt 0.625000 0.500000
vt 0.375000 0.500000
vt 0.625000 0.750000
vt 0.375000 0.750000
vt 0.625000 1.000000
vt 0.375000 1.000000
vt 0.875000 0.000000
vt 0.875000 0.250000
vt 0.125000 0.000000
vt 0.125000 0.250000
vt 0.375000 0.312500
vt 0.416667 0.312500
vt 0.416667 0.688440
vt 0.375000 0.688440
vt 0.458333 0.312500
vt 0.458333 0.688440
vt 0.500000 0.312500
vt 0.500000 0.688440
vt 0.541667 0.312500
vt 0.541667 0.688440
vt 0.583333 0.312500
vt 0.583333 0.688440
vt 0.625000 0.312500
vt 0.625000 0.688440
vt 0.578125 0.979066
vt 0.421875 0.979066
vt 0.500000 0.837500
vt 0.343750 0.843750
vt 0.421875 0.708434
vt 0.578125 0.708434
vt 0.656250 0.843750
vt 0.375000 0.312500
vt 0.416667 0.312500
vt 0.416667 0.688440
vt 0.375000 0.688440
vt 0.458333 0.312500
vt 0.458333 0.688440
vt 0.500000 0.312500
vt 0.500000 0.688440
vt 0.541667 0.312500
vt 0.541667 0.688440
vt 0.583333 0.312500
vt 0.583333 0.688440
vt 0.625000 0.312500
vt 0.625000 0.688440
vt 0.578125 0.979066
vt 0.421875 0.979066
vt 0.500000 0.837500
vt 0.343750 0.843750
vt 0.421875 0.708434
vt 0.578125 0.708434
vt 0.656250 0.843750
vt 0.380610 0.197030
vt 0.380610 0.213752
vt 0.376141 0.248224
vt 0.375000 0.164246
vt 0.499984 0.254883
vt 0.500000 0.335754
vt 0.499925 0.622575
vt 0.499914 0.501131
vt 0.500000 0.409247
vt 0.499905 0.514293
vt 0.499910 0.722065
vt 0.380610 0.063236
vt 0.380610 0.079959
vt 0.375000 0.090753
vt 0.375187 0.006752
vt 0.380610 0.130133
vt 0.380610 0.146856
vt 0.125053 0.127434
vt 0.125023 0.000105
vt 0.125602 0.249083
vt 0.493017 0.285373
vt 0.493017 0.301691
vt 0.493017 0.415936
vt 0.493017 0.432255
vt 0.493017 0.366973
vt 0.493017 0.350654
vt 0.493017 0.301691
vt 0.493017 0.285373
vt 0.380610 0.213752
vt 0.380610 0.197030
vt 0.375314 0.499815
vt 0.375177 0.622484
vt 0.375163 0.789366
vt 0.375883 0.967734
vt 0.493017 0.432255
vt 0.493017 0.415936
vt 0.380610 0.079959
vt 0.380610 0.063236
vt 0.493017 0.366973
vt 0.493017 0.350654
vt 0.380610 0.146856
vt 0.380610 0.130133
vn 0.000000 0.000000 1.000000
vn 0.000000 0.000000 1.000000
vn 0.000000 0.000000 1.000000
vn 0.000000 0.000000 1.000000
vn 0.000000 1.000000 0.000000
vn 0.000000 1.000000 0.000000
vn 0.000000 1.000000 0.000000
vn 0.000000 1.000000 0.000000
vn 0.000000 0.000000 -1.000000
vn 0.000000 0.000000 -1.000000
vn 0.000000 0.000000 -1.000000
vn 0.000000 0.000000 -1.000000
vn 0.000000 -1.000000 0.000000
vn 0.000000 -1.000000 0.000000
vn 0.000000 -1.000000 0.000000
vn 0.000000 -1.000000 0.000000
vn -1.000000 0.000000 0.000000
vn -1.000000 0.000000 0.000000
vn -1.000000 0.000000 0.000000
vn -1.000000 0.000000 0.000000
vn 1.000000 0.000000 0.000000
vn 1.000000 0.000000 0.000000
vn 1.000000 0.000000 0.000000
vn 1.000000 0.000000 0.000000
vn 0.000000 0.000000 1.000000
vn 0.000000 0.000000 1.000000
vn 0.000000 0.000000 1.000000
vn 0.000000 0.000000 1.000000
vn 0.000000 1.000000 0.000000
vn 0.000000 1.000000 0.000000
vn 0.000000 1.000000 0.000000
vn 0.000000 1.000000 0.000000
vn 0.000000 0.000000 -1.000000
vn 0.000000 0.000000 -1.000000
vn 0.000000 0.000000 -1.000000
vn 0.000000 0.000000 -1.000000
vn 0.000000 -1.000000 0.000000
vn 0.000000 -1.000000 0.000000
vn 0.000000 -1.000000 0.000000
vn 0.000000 -1.000000 0.000000
vn -1.000000 0.000000 0.000000
vn -1.000000 0.000000 0.000000
vn -1.000000 0.000000 0.000000
vn -1.000000 0.000000 0.000000
vn 1.000000 0.000000 0.000000
vn 1.000000 0.000000 0.000000
vn 1.000000 0.000000 0.000000
vn 1.000000 0.000000 0.000000
vn 0.000000 0.000000 1.000000
vn 0.000000 0.000000 1.000000
vn 0.000000 0.000000 1.000000
vn 0.000000 0.000000 1.000000
vn 0.000000 1.000000 0.000000
vn 0.000000 1.000000 0.000000
vn 0.000000 1.000000 0.000000
vn 0.000000 1.000000 0.000000
vn 0.000000 0.000000 -1.000000
vn 0.000000 0.000000 -1.000000
vn 0.000000 0.000000 -1.000000
vn 0.000000 0.000000 -1.000000
vn 0.000000 -1.000000 0.000000
vn 0.000000 -1.000000 0.000000
vn 0.000000 -1.000000 0.000000
vn 0.000000 -1.000000 0.000000
vn -1.000000 0.000000 0.000000
vn -1.000000 0.000000 0.000000
vn -1.000000 0.000000 0.000000
vn -1.000000 0.000000 0.000000
vn 1.000000 0.000000 0.000000
vn 1.000000 0.000000 0.000000
vn 1.000000 0.000000 0.000000
vn 1.000000 0.000000 0.000000
vn 0.000000 0.000000 1.000000
vn 0.000000 0.000000 1.000000
vn 0.000000 0.000000 1.000000
vn 0.000000 0.000000 1.000000
vn 0.000000 1.000000 0.000000
vn 0.000000 1.000000 0.000000
vn 0.000000 1.000000 0.000000
vn 0.000000 1.000000 0.000000
vn 0.000000 0.000000 -1.000000
vn 0.000000 0.000000 -1.000000
vn 0.000000 0.000000 -1.000000
vn 0.000000 0.000000 -1.000000
vn 0.000000 -1.000000 0.000000
vn 0.000000 -1.000000 0.000000
vn 0.000000 -1.000000 0.000000
vn 0.000000 -1.000000 0.000000
vn -1.000000 0.000000 0.000000
vn -1.000000 0.000000 0.000000
vn -1.000000 0.000000 0.000000
vn -1.000000 0.000000 0.000000
vn 1.000000 0.000000 0.000000
vn 1.000000 0.000000 0.000000
vn 1.000000 0.000000 0.000000
vn 1.000000 0.000000 0.000000
vn 0.000000 0.000000 1.000000
vn 0.000000 0.000000 1.000000
vn 0.000000 0.000000 1.000000
vn 0.000000 0.000000 1.000000
vn 0.000000 1.000000 0.000000
vn 0.000000 1.000000 0.000000
vn 0.000000 1.000000 0.000000
vn 0.000000 1.000000 0.000000
vn 0.000000 0.000000 -1.000000
vn 0.000000 0.000000 -1.000000
vn 0.000000 0.000000 -1.000000
vn 0.000000 0.000000 -1.000000
vn 0.000000 -1.000000 0.000000
vn 0.000000 -1.000000 0.000000
vn 0.000000 -1.000000 0.000000
vn 0.000000 -1.000000 0.000000
vn -1.000000 0.000000 0.000000
vn -1.000000 0.000000 0.000000
vn -1.000000 0.000000 0.000000
vn -1.000000 0.000000 0.000000
vn 1.000000 0.000000 0.000000
vn 1.000000 0.000000 0.000000
vn 1.000000 0.000000 0.000000
vn 1.000000 0.000000 0.000000
vn 0.000000 0.000000 1.000000
vn 0.000000 0.000000 1.000000
vn 0.000000 0.000000 1.000000
vn 0.000000 0.000000 1.000000
vn 0.000000 1.000000 0.000000
vn 0.000000 1.000000 0.000000
vn 0.000000 1.000000 0.000000
vn 0.000000 1.000000 0.000000
vn 0.000000 0.000000 -1.000000
vn 0.000000 0.000000 -1.000000
vn 0.000000 0.000000 -1.000000
vn 0.000000 0.000000 -1.000000
vn 0.000000 -1.000000 0.000000
vn 0.000000 -1.000000 0.000000
vn 0.000000 -1.000000 0.000000
vn 0.000000 -1.000000 0.000000
vn -1.000000 0.000000 0.000000
vn -1.000000 0.000000 0.000000
vn -1.000000 0.000000 0.000000
vn -1.000000 0.000000 0.000000
vn 1.000000 0.000000 0.000000
vn 1.000000 0.000000 0.000000
vn 1.000000 0.000000 0.000000
vn 1.000000 0.000000 0.000000
vn 0.000000 0.000000 1.000000
vn 0.000000 0.000000 1.000000
vn 0.000000 0.000000 1.000000
vn 0.000000 0.000000 1.000000
vn 0.000000 1.000000 0.000000
vn 0.000000 1.000000 0.000000
vn 0.000000 1.000000 0.000000
vn 0.000000 1.000000 0.000000
vn 0.000000 0.000000 -1.000000
vn 0.000000 0.000000 -1.000000
vn 0.000000 0.000000 -1.000000
vn 0.000000 0.000000 -1.000000
vn 0.000000 -1.000000 0.000000
vn 0.000000 -1.000000 0.000000
vn 0.000000 -1.000000 0.000000
vn 0.000000 -1.000000 0.000000
vn -1.000000 0.000000 0.000000
vn -1.000000 0.000000 0.000000
vn -1.000000 0.000000 0.000000
vn -1.000000 0.000000 0.000000
vn 1.000000 0.000000 0.000000
vn 1.000000 0.000000 0.000000
vn 1.000000 0.000000 0.000000
vn 1.000000 0.000000 0.000000
vn 0.000000 0.000000 1.000000
vn 0.000000 0.000000 1.000000
vn 0.000000 0.000000 1.000000
vn 0.000000 0.000000 1.000000
vn 0.000000 1.000000 0.000000
vn 0.000000 1.000000 0.000000
vn 0.000000 1.000000 0.000000
vn 0.000000 1.000000 0.000000
vn 0.000000 0.000000 -1.000000
vn 0.000000 0.000000 -1.000000
vn 0.000000 0.000000 -1.000000
vn 0.000000 0.000000 -1.000000
vn 0.000000 -1.000000 0.000000
vn 0.000000 -1.000000 0.000000
vn 0.000000 -1.000000 0.000000
vn 0.000000 -1.000000 0.000000
vn -1.000000 0.000000 0.000000
vn -1.000000 0.000000 0.000000
vn -1.000000 0.000000 0.000000
vn -1.000000 0.000000 0.000000
vn 1.000000 0.000000 0.000000
vn 1.000000 0.000000 0.000000
vn 1.000000 0.000000 0.000000
vn 1.000000 0.000000 0.000000
vn -0.500004 0.000000 -0.866023
vn -0.500004 0.000000 -0.866023
vn 0.500000 0.000000 -0.866026
vn 0.500000 0.000000 -0.866026
vn 1.000000 0.000000 0.000000
vn 1.000000 0.000000 0.000000
vn 0.500000 0.000000 0.866026
vn 0.500000 0.000000 0.866026
vn -0.500004 0.000000 0.866023
vn -0.500004 0.000000 0.866023
vn -1.000000 0.000000 0.000000
vn -1.000000 0.000000 0.000000
vn 0.000000 1.000000 0.000000
vn 0.000000 1.000000 0.000000
vn 0.000000 1.000000 -0.000006
vn 0.000000 1.000000 0.000000
vn 0.000000 1.000000 0.000006
vn 0.000000 1.000000 0.000000
vn 0.000000 1.000000 0.000000
vn -0.500000 0.000000 -0.866026
vn -0.500000 0.000000 -0.866026
vn 0.500000 0.000000 -0.866026
vn 0.500000 0.000000 -0.866026
vn 1.000000 0.000000 0.000000
vn 1.000000 0.000000 0.000000
vn 0.500000 0.000000 0.866026
vn 0.500000 0.000000 0.866026
vn -0.500000 0.000000 0.866026
vn -0.500000 0.000000 0.866026
vn -1.000000 0.000000 0.000000
vn -1.000000 0.000000 0.000000
vn 0.000000 1.000000 0.000006
vn 0.000000 1.000000 0.000000
vn 0.000000 1.000000 0.000012
vn 0.000000 1.000000 0.000000
vn 0.000000 1.000000 -0.000012
vn 0.000000 1.000000 -0.000006
vn 0.000000 1.000000 0.000000
vn 0.000000 0.000000 1.000000
vn -0.000000 0.000000 1.000000
vn 0.000000 0.000000 1.000000
vn 0.000000 0.000000 1.000000
vn -1.000000 0.000000 0.000000
vn -1.000000 0.000000 0.000000
vn -1.000000 0.000000 0.000000
vn -1.000000 0.000000 0.000000
vn -1.000000 0.000000 0.000000
vn -1.000000 0.000000 0.000000
vn -1.000000 0.000000 0.000000
vn 0.000000 0.000000 1.000000
vn 0.000000 0.000000 1.000000
vn 0.000000 0.000000 1.000000
vn 0.000000 0.000000 1.000000
vn -0.000000 0.000000 1.000000
vn -0.000000 0.000000 1.000000
vn 1.000000 0.000000 0.000000
vn 1.000000 0.000000 0.000000
vn 1.000000 0.000000 0.000000
vn 1.000000 0.000000 0.000000
vn 1.000000 0.000000 0.000000
vn 1.000000 0.000000 0.000000
vn 1.000000 0.000000 0.000000
vn 0.000000 0.000000 1.000000
vn 0.000000 0.000000 1.000000
vn 0.000000 0.000000 1.000000
vn 0.000000 0.000000 1.000000
vn -0.000000 0.000000 1.000000
vn -0.000001 0.000000 1.000000
vn -0.000001 0.000000 1.000000
vn -0.000001 0.000000 1.000000
vn 0.000000 0.000000 1.000000
vn 0.000000 0.000000 1.000000
vn 0.000000 0.000000 1.000000
vn 0.000000 0.000000 1.000000
vn 0.000000 0.000000 1.000000
vn 0.000000 0.000000 1.000000
vn 0.000000 1.000000 0.000000
vn 0.000000 1.000000 0.000000
vn 0.000000 1.000000 0.000000
vn 0.000000 1.000000 0.000000
vn 0.000000 0.000000 -1.000000
vn 0.000000 0.000000 -1.000000
vn 0.000000 0.000000 -1.000000
vn 0.000000 0.000000 -1.000000
vn 0.000000 0.000000 -1.000000
vn 0.000000 0.000000 -1.000000
vn 0.000000 -1.000000 0.000000
vn 0.000000 -1.000000 0.000000
vn 0.000000 -1.000000 0.000000
vn 0.000000 -1.000000 0.000000
vn 0.000000 0.000000 1.000000
vn 0.000000 0.000000 1.000000
vn 0.000000 0.000000 1.000000
vn 0.000000 0.000000 1.000000
vn 0.000000 0.000000 1.000000
vn 0.000000 0.000000 1.000000
vn 0.000000 0.000000 1.000000
vn 0.000000 0.000000 1.000000
vn 1.000000 0.000000 0.000000
vn 1.000000 0.000000 0.000000
vn 1.000000 0.000000 0.000000
vn 1.000000 0.000000 0.000000
vn 0.000000 -0.749155 0.662395
vn 0.000000 -0.749155 0.662395
vn 0.000000 -0.749155 0.662395
vn 0.000000 -0.749155 0.662395
vn -1.000000 0.000000 0.000000
vn -1.000000 0.000000 0.000000
vn -1.000000 0.000000 0.000000
vn -1.000000 0.000000 0.000000
vn 0.000000 0.749155 0.662395
vn 0.000000 0.749155 0.662395
vn 0.000000 0.749155 0.662395
vn 0.000000 0.749155 0.662395
vn 1.000000 0.000000 0.000000
vn 1.000000 0.000000 0.000000
vn 1.000000 0.000000 0.000000
vn 1.000000 0.000000 0.000000
vn 0.000000 -0.749152 0.662398
vn 0.000000 -0.749152 0.662398
vn 0.000000 -0.749152 0.662398
vn 0.000000 -0.749152 0.662398
vn -1.000000 0.000000 0.000000
vn -1.000000 0.000000 0.000000
vn -1.000000 0.000000 0.000000
vn -1.000000 0.000000 0.000000
vn 0.000000 0.749155 0.662395
vn 0.000000 0.749155 0.662395
vn 0.000000 0.749155 0.662395
vn 0.000000 0.749155 0.662395
vn 1.000000 0.000000 0.000000
vn 1.000000 0.000000 0.000000
vn 1.000000 0.000000 0.000000
vn 1.000000 0.000000 0.000000
vn 0.000000 -0.749157 0.662392
vn 0.000000 -0.749157 0.662392
vn 0.000000 -0.749157 0.662392
vn 0.000000 -0.749157 0.662392
vn -1.000000 0.000000 0.000000
vn -1.000000 0.000000 0.000000
vn -1.000000 0.000000 0.000000
vn -1.000000 0.000000 0.000000
vn 0.000000 0.749155 0.662395
vn 0.000000 0.749155 0.662395
vn 0.000000 0.749155 0.662395
vn 0.000000 0.749155 0.662395
s off
g mesh_ContainerDoorR
usemtl initialShadingGroup
f 1/1/1 3/3/2 4/4/3 2/2/4
f 3/3/5 5/5/6 6/6/7 4/4/8
f 5/5/9 7/7/10 8/8/11 6/6/12
f 7/7/13 1/9/14 2/10/15 8/8/16
f 2/2/17 4/4/18 6/12/19 8/11/20
f 7/13/21 5/14/22 3/3/23 1/1/24
f 9/15/25 11/18/26 12/17/27 10/16/28
f 11/18/29 13/20/30 14/19/31 12/17/32
f 13/20/33 15/22/34 16/21/35 14/19/36
f 15/22/37 9/24/38 10/23/39 16/21/40
f 10/16/41 12/17/42 14/26/43 16/25/44
f 15/27/45 13/28/46 11/18/47 9/15/48
f 17/29/49 19/32/50 20/31/51 18/30/52
f 19/32/53 21/34/54 22/33/55 20/31/56
f 21/34/57 23/36/58 24/35/59 22/33/60
f 23/36/61 17/38/62 18/37/63 24/35/64
f 18/30/65 20/31/66 22/40/67 24/39/68
f 23/41/69 21/42/70 19/32/71 17/29/72
f 25/43/73 27/46/74 28/45/75 26/44/76
f 27/46/77 29/48/78 30/47/79 28/45/80
f 29/48/81 31/50/82 32/49/83 30/47/84
f 31/50/85 25/52/86 26/51/87 32/49/88
f 26/44/89 28/45/90 30/54/91 32/53/92
f 31/55/93 29/56/94 27/46/95 25/43/96
f 33/57/97 35/60/98 36/59/99 34/58/100
f 35/60/101 37/62/102 38/61/103 36/59/104
f 37/62/105 39/64/106 40/63/107 38/61/108
f 39/64/109 33/66/110 34/65/111 40/63/112
f 34/58/113 36/59/114 38/68/115 40/67/116
f 39/69/117 37/70/118 35/60/119 33/57/120
f 41/71/121 43/74/122 44/73/123 42/72/124
f 43/74/125 45/76/126 46/75/127 44/73/128
f 45/76/129 47/78/130 48/77/131 46/75/132
f 47/78/133 41/80/134 42/79/135 48/77/136
f 42/72/137 44/73/138 46/82/139 48/81/140
f 47/83/141 45/84/142 43/74/143 41/71/144
f 49/85/145 51/88/146 52/87/147 50/86/148
f 51/88/149 53/90/150 54/89/151 52/87/152
f 53/90/153 55/92/154 56/91/155 54/89/156
f 55/92/157 49/94/158 50/93/159 56/91/160
f 50/86/161 52/87/162 54/96/163 56/95/164
f 55/97/165 53/98/166 51/88/167 49/85/168
f 57/99/169 59/102/170 60/101/171 58/100/172
f 59/102/173 61/104/174 62/103/175 60/101/176
f 61/104/177 63/106/178 64/105/179 62/103/180
f 63/106/181 57/108/182 58/107/183 64/105/184
f 58/100/185 60/101/186 62/110/187 64/109/188
f 63/111/189 61/112/190 59/102/191 57/99/192
s 1
f 65/113/193 71/116/194 72/115/195 66/114/196
f 66/114/196 72/115/195 73/118/197 67/117/198
f 67/117/198 73/118/197 74/120/199 68/119/200
f 68/119/200 74/120/199 75/122/201 69/121/202
f 69/121/202 75/122/201 76/124/203 70/123/204
f 70/123/204 76/124/203 71/126/194 65/125/193
s 2
f 71/127/205 77/129/206 72/128/207
f 72/128/207 77/129/206 73/130/208
f 73/130/208 77/129/206 74/131/209
f 74/131/209 77/129/206 75/132/210
f 75/132/210 77/129/206 76/133/211
f 76/133/211 77/129/206 71/127/205
s 3
f 78/134/212 84/137/213 85/136/214 79/135/215
f 79/135/215 85/136/214 86/139/216 80/138/217
f 80/138/217 86/139/216 87/141/218 81/140/219
f 81/140/219 87/141/218 88/143/220 82/142/221
f 82/142/221 88/143/220 89/145/222 83/144/223
f 83/144/223 89/145/222 84/147/213 78/146/212
s 4
f 84/148/224 90/150/225 85/149/226
f 85/149/226 90/150/225 86/151/227
f 86/151/227 90/150/225 87/152/228
f 87/152/228 90/150/225 88/153/229
f 88/153/229 90/150/225 89/154/230
f 89/154/230 90/150/225 84/148/224
s 5
f 111/155/231 102/158/232 93/157/233 112/156/234
s 6
f 94/159/235 96/162/236 104/161/237 100/160/238
f 99/163/239 104/161/237 98/165/240 92/164/241
s 5
f 113/166/242 91/169/243 101/168/244 114/167/245
s 6
f 100/160/238 104/161/237 99/163/239
s 5
f 115/170/246 101/168/244 102/158/232 116/171/247
s 8
f 101/168/248 103/172/249 102/158/250
f 91/169/251 97/173/252 103/172/249 101/168/248
f 102/158/250 103/172/249 95/174/253 93/157/254
s 5
f 114/167/245 101/168/244 115/170/246
f 116/171/247 102/158/232 111/155/231
f 100/160/255 105/176/256 106/175/257 94/159/258
f 92/164/259 107/178/260 108/177/261 99/163/262
f 99/163/262 108/177/261 109/179/263
f 99/163/262 109/179/263 110/180/264 100/160/255
f 100/160/255 110/180/264 105/176/256
s off
f 117/181/265 120/184/266 119/183/267 118/182/268
s 5
f 93/157/233 94/159/258 106/175/257 112/156/234
s off
f 95/185/269 96/162/270 94/159/271 93/157/272
s 10
f 96/162/273 95/185/274 103/186/275 104/161/276
f 104/161/276 103/186/275 97/187/277 98/165/278
s off
f 91/188/279 92/164/280 98/165/281 97/187/282
s 5
f 113/166/242 107/178/260 92/164/259 91/169/243
s off
f 121/189/283 124/192/284 123/191/285 122/190/286
s 5
f 108/177/261 114/167/245 115/170/246 109/179/263
s off
f 125/193/287 128/196/288 127/195/289 126/194/290
s 5
f 110/180/264 116/171/247 111/155/231 105/176/256
s off
f 105/176/291 117/181/292 118/182/293 106/175/294
f 106/175/295 118/182/296 119/183/297 112/156/298
f 112/156/299 119/183/300 120/184/301 111/155/302
f 111/155/303 120/184/304 117/181/305 105/176/306
f 107/178/307 121/189/308 122/190/309 108/177/310
f 108/177/311 122/190/312 123/191/313 114/167/314
f 114/167/315 123/191/316 124/192/317 113/166/318
f 113/166/319 124/192/320 121/189/321 107/178/322
f 109/179/323 125/193/324 126/194/325 110/180/326
f 110/180/327 126/194/328 127/195/329 116/171/330
f 116/171/331 127/195/332 128/196/333 115/170/334
f 115/170/335 128/196/336 125/193/337 109/179/338
