# This file uses centimeters as units for non-parametric coordinates.

g default
v -1.362309 0.002487 2.161229
v 1.716643 0.002487 2.161229
v -1.362309 0.053134 2.161229
v 1.716643 0.053134 2.161229
v -1.362309 0.537975 2.161229
v 1.716643 0.537975 2.161229
v -1.362309 0.588621 2.161229
v 1.716643 0.588621 2.161229
v -1.362309 0.588621 1.575096
v 1.716643 0.588621 1.575096
v -1.362309 0.537975 1.575096
v 1.716643 0.537975 1.575096
v -1.362309 0.053134 1.575096
v 1.716643 0.053134 1.575096
v -1.362309 0.002487 1.575096
v 1.716643 0.002487 1.575096
v 1.716643 0.053134 1.836194
v 1.716643 0.053134 1.900131
v 1.716643 0.537975 1.836194
v 1.716643 0.537975 1.900131
v -1.362309 0.053134 1.836194
v -1.362309 0.053134 1.900131
v -1.362309 0.537975 1.836194
v -1.362309 0.537975 1.900131
vt 0.379308 -0.000196
vt 0.619804 -0.004730
vt 0.375000 0.083333
vt 0.625000 0.083333
vt 0.375000 0.166667
vt 0.625000 0.166667
vt 0.377948 0.244028
vt 0.621912 0.246853
vt 0.358130 0.505236
vt 0.640788 0.507114
vt 0.250000 0.375000
vt 0.750000 0.375000
vt 0.250000 0.375000
vt 0.750000 0.375000
vt 0.357608 0.741690
vt 0.640618 0.745149
vt 0.372710 1.004968
vt 0.624125 1.007276
vt 0.842291 0.087256
vt 0.791667 0.083333
vt 0.708333 0.083333
vt 0.791667 0.166667
vt 0.708333 0.166667
vt 0.851472 0.301184
vt 0.148461 0.071813
vt 0.208333 0.083333
vt 0.291667 0.083333
vt 0.208333 0.166667
vt 0.291667 0.166667
vt 0.157709 0.312072
vn 0.000000 0.000000 1.000000
vn 0.000000 0.000000 1.000000
vn 0.000000 0.000000 1.000000
vn 0.000000 0.000000 1.000000
vn 0.000000 0.000000 1.000000
vn 0.000000 0.000000 1.000000
vn 0.000000 0.000000 1.000000
vn 0.000000 0.000000 1.000000
vn 0.000000 1.000000 0.000000
vn 0.000000 1.000000 0.000000
vn 0.000000 1.000000 0.000000
vn 0.000000 1.000000 0.000000
vn 0.000000 0.000000 -1.000000
vn 0.000000 0.000000 -1.000000
vn 0.000000 0.000000 -1.000000
vn 0.000000 0.000000 -1.000000
vn 0.000000 0.000000 -1.000000
vn 0.000000 0.000000 -1.000000
vn 0.000000 0.000000 -1.000000
vn 0.000000 0.000000 -1.000000
vn 0.000000 -1.000000 0.000000
vn 0.000000 -1.000000 0.000000
vn 0.000000 -1.000000 0.000000
vn 0.000000 -1.000000 0.000000
vn 1.000000 0.000000 0.000000
vn 1.000000 0.000000 0.000000
vn 1.000000 0.000000 0.000000
vn 1.000000 0.000002 0.000000
vn 1.000000 0.000002 0.000000
vn 1.000000 0.000002 0.000000
vn 1.000000 0.000002 0.000000
vn 1.000000 0.000000 0.000000
vn 1.000000 0.000000 0.000000
vn 1.000000 0.000000 0.000000
vn 1.000000 0.000000 0.000000
vn 1.000000 0.000000 0.000000
vn 1.000000 0.000000 0.000000
vn 1.000000 0.000000 0.000000
vn 1.000000 0.000000 0.000000
vn 1.000000 0.000000 0.000000
vn 1.000000 0.000000 0.000000
vn 1.000000 -0.000002 0.000000
vn 1.000000 -0.000002 0.000000
vn 1.000000 -0.000002 0.000000
vn 1.000000 -0.000002 0.000000
vn 1.000000 0.000000 0.000000
vn 1.000000 0.000000 0.000000
vn 1.000000 0.000000 0.000000
vn -1.000000 0.000000 0.000000
vn -1.000000 0.000000 0.000000
vn -1.000000 0.000000 0.000000
vn -1.000000 -0.000002 0.000000
vn -1.000000 -0.000002 0.000000
vn -1.000000 -0.000002 0.000000
vn -1.000000 -0.000002 0.000000
vn -1.000000 0.000000 0.000000
vn -1.000000 0.000000 0.000000
vn -1.000000 0.000000 0.000000
vn -1.000000 0.000000 0.000000
vn -1.000000 0.000000 0.000000
vn -1.000000 0.000000 0.000000
vn -1.000000 0.000000 0.000000
vn -1.000000 0.000000 0.000000
vn -1.000000 0.000000 0.000000
vn -1.000000 0.000000 0.000000
vn -1.000000 0.000002 0.000000
vn -1.000000 0.000002 0.000000
vn -1.000000 0.000002 0.000000
vn -1.000000 0.000002 0.000000
vn -1.000000 0.000000 0.000000
vn -1.000000 0.000000 0.000000
vn -1.000000 0.000000 0.000000
vn 0.000000 1.000000 0.000000
vn 0.000000 1.000000 0.000000
vn 0.000000 1.000000 0.000000
vn 0.000000 1.000000 0.000000
vn 0.000000 0.000000 1.000000
vn 0.000000 0.000000 1.000000
vn 0.000000 0.000000 1.000000
vn 0.000000 0.000000 1.000000
vn 0.000000 -1.000000 0.000000
vn 0.000000 -1.000000 0.000000
vn 0.000000 -1.000000 0.000000
vn 0.000000 -1.000000 0.000000
vn 0.000000 -1.000000 0.000000
vn 0.000000 -1.000000 0.000000
vn 0.000000 -1.000000 0.000000
vn 0.000000 -1.000000 0.000000
vn 0.000000 0.000000 -1.000000
vn 0.000000 0.000000 -1.000000
vn 0.000000 0.000000 -1.000000
vn 0.000000 0.000000 -1.000000
vn 0.000000 1.000000 -0.000000
vn 0.000000 1.000000 -0.000000
vn 0.000000 1.000000 -0.000000
vn 0.000000 1.000000 -0.000000
s off
g mesh_Girder2
f 1/1/1 2/2/2 4/4/3 3/3/4
f 5/5/5 6/6/6 8/8/7 7/7/8
f 7/7/9 8/8/10 10/10/11 9/9/12
f 9/9/13 10/10/14 12/12/15 11/11/16
f 13/13/17 14/14/18 16/16/19 15/15/20
f 15/15/21 16/16/22 2/18/23 1/17/24
f 16/19/25 14/14/26 17/20/27
f 2/2/28 16/19/29 17/20/30 18/21/31
f 2/2/32 18/21/33 4/4/34
f 18/21/35 17/20/36 19/22/37 20/23/38
f 19/22/39 12/12/40 10/24/41
f 20/23/42 19/22/43 10/24/44 8/8/45
f 6/6/46 20/23/47 8/8/48
f 15/25/49 21/26/50 13/13/51
f 15/25/52 1/1/53 22/27/54 21/26/55
f 1/1/56 3/3/57 22/27/58
f 21/26/59 22/27/60 24/29/61 23/28/62
f 11/11/63 23/28/64 9/30/65
f 23/28/66 24/29/67 7/7/68 9/30/69
f 24/29/70 5/5/71 7/7/72
f 4/4/73 18/21/74 22/27/75 3/3/76
f 18/21/77 20/23/78 24/29/79 22/27/80
f 20/23/81 6/6/82 5/5/83 24/29/84
f 12/12/85 19/22/86 23/28/87 11/11/88
f 19/22/89 17/20/90 21/26/91 23/28/92
f 17/20/93 14/14/94 13/13/95 21/26/96
