# This file uses centimeters as units for non-parametric coordinates.

mtllib mesh_CardboardBoxLarge.mtl
g default
v -5.312897 0.000000 7.507278
v -5.100647 0.000000 7.523579
v -4.888382 0.000000 7.523579
v -4.676117 0.000000 7.507278
v -5.314484 0.201157 7.500286
v -5.107086 0.210176 7.516586
v -4.899689 0.219196 7.516586
v -4.692291 0.228216 7.500286
v -5.323502 0.408558 7.500286
v -5.116104 0.417576 7.480288
v -4.908707 0.426598 7.480288
v -4.701309 0.435616 7.500286
v -5.312897 0.636772 7.507278
v -5.100647 0.636772 7.487278
v -4.888382 0.636772 7.487278
v -4.676117 0.636772 7.507278
v -5.312897 0.642281 7.288767
v -4.676117 0.636772 7.295018
v -5.312897 0.630936 7.076813
v -4.676117 0.636772 7.082763
v -5.312897 0.636772 6.870502
v -5.100647 0.636772 6.870502
v -4.888382 0.636772 6.870502
v -4.676117 0.636772 6.870502
v -5.323502 0.408558 6.877495
v -5.116104 0.432873 6.877495
v -4.908707 0.441891 6.877495
v -4.701309 0.435616 6.877495
v -5.314484 0.201157 6.877495
v -5.107086 0.225111 6.845539
v -4.899689 0.234064 6.844460
v -4.692291 0.228216 6.877495
v -5.312897 0.000000 6.870502
v -5.100647 0.000424 6.865574
v -4.888382 0.000424 6.865574
v -4.676117 0.000000 6.870502
v -5.348114 0.000076 7.082761
v -5.100647 0.014141 7.082761
v -4.888382 0.014141 7.082761
v -4.665024 0.007252 7.075740
v -5.348114 0.000076 7.295018
v -5.100647 0.014141 7.295018
v -4.888382 0.014141 7.295018
v -4.665024 -0.006772 7.287535
v -4.681183 0.226202 7.092573
v -4.681183 0.212486 7.299716
v -4.701309 0.426987 7.085093
v -4.701309 0.426987 7.292688
v -5.356110 0.201080 7.085093
v -5.356110 0.201080 7.292688
v -5.323502 0.403172 7.091342
v -5.323502 0.414272 7.298641
v -5.285339 0.620117 7.473301
v -5.091461 0.636757 7.461454
v -5.285339 0.625153 7.278108
v -4.897568 0.636757 7.461454
v -4.710297 0.628761 7.479723
v -4.710297 0.628761 7.285835
v -5.285339 0.614784 7.088771
v -4.710297 0.628761 7.091946
v -5.091461 0.636757 6.898060
v -5.285339 0.620117 6.904480
v -4.897568 0.636757 6.898060
v -4.710297 0.628761 6.898060
v -5.285339 0.083139 7.479723
v -4.994507 0.033449 7.461454
v -4.994507 0.033449 7.188890
v -5.285339 0.033300 7.183318
v -4.703690 0.083139 7.479723
v -4.703690 0.033449 7.188890
v -4.994507 0.033449 6.898060
v -5.285339 0.083139 6.898060
v -4.703690 0.083139 6.898060
v -5.012466 0.709152 7.507278
v -5.007156 0.710648 7.288767
v -5.005035 0.682625 7.479723
v -5.000183 0.683983 7.280124
v -5.005066 0.715294 7.076813
v -4.997147 0.688896 7.086513
v -5.012466 0.709152 6.870502
v -5.005035 0.682625 6.898060
v -4.974609 0.709755 7.507278
v -4.982422 0.709755 7.295018
v -4.993744 0.684631 7.285835
v -4.985947 0.684631 7.479723
v -4.982422 0.709755 7.082763
v -4.993744 0.684631 7.091946
v -4.974609 0.709755 6.870502
v -4.985947 0.684631 6.898060
vt 0.439329 0.234794
vt 0.367214 0.234861
vt 0.295850 0.235941
vt 0.225120 0.239377
vt 0.439993 0.165468
vt 0.368068 0.162741
vt 0.296494 0.160468
vt 0.224956 0.159828
vt 0.441290 0.094180
vt 0.369755 0.090519
vt 0.298223 0.088034
vt 0.224959 0.086468
vt 0.123605 0.420258
vt 0.365467 0.015123
vt 0.291894 0.015690
vt 0.006398 0.406519
vt 0.026203 0.406774
vt 0.650883 0.820039
vt 0.127691 0.406134
vt 0.184376 0.589566
vt 0.181033 0.697362
vt 0.166997 0.701930
vt 0.771493 0.016777
vt 0.844856 0.017279
vt 0.163150 0.603462
vt 0.694516 0.095537
vt 0.765925 0.086920
vt 0.837335 0.084142
vt 0.908741 0.087263
vt 0.696955 0.167267
vt 0.768924 0.158933
vt 0.839872 0.156307
vt 0.911876 0.159021
vt 0.697797 0.236904
vt 0.770648 0.236250
vt 0.843460 0.236652
vt 0.916301 0.238061
vt 0.685017 0.310013
vt 0.770154 0.310898
vt 0.843166 0.311296
vt 0.919950 0.308883
vt 0.684492 0.383130
vt 0.769724 0.383761
vt 0.842726 0.384184
vt 0.919878 0.381977
vt 0.696199 0.456244
vt 0.769210 0.462440
vt 0.842294 0.462854
vt 0.915357 0.457562
vt 0.008890 0.242103
vt 0.079318 0.238415
vt 0.151181 0.242055
vt 0.010222 0.163789
vt 0.084272 0.163107
vt 0.155602 0.166164
vt 0.008576 0.093211
vt 0.080185 0.094311
vt 0.152220 0.092167
vt 0.003906 0.023929
vt 0.076720 0.022007
vt 0.149061 0.020285
vt 0.659656 0.234249
vt 0.585650 0.234928
vt 0.512555 0.234903
vt 0.656581 0.165111
vt 0.584014 0.166093
vt 0.513070 0.166070
vt 0.655900 0.093875
vt 0.582232 0.095972
vt 0.510616 0.092473
vt 0.658083 0.015468
vt 0.587125 0.017742
vt 0.514277 0.014071
vt 0.230985 0.419214
vt 0.801507 0.802317
vt 0.226143 0.405236
vt 0.801670 0.836538
vt 0.180977 0.804970
vt 0.166952 0.800392
vt 0.335620 0.421692
vt 0.321769 0.397620
vt 0.801330 0.635226
vt 0.159906 0.918399
vt 0.801763 0.601389
vt 0.163017 0.898856
vt 0.703997 0.769256
vt 0.697515 0.819869
vt 0.650448 0.769012
vt 0.708126 0.464821
vt 0.698185 0.515345
vt 0.600279 0.820221
vt 0.704253 0.667800
vt 0.705581 0.566302
vt 0.123793 0.579590
vt 0.003906 0.249458
vt 0.024843 0.260761
vt 0.124059 0.258175
vt 0.231921 0.581023
vt 0.220356 0.254080
vt 0.337025 0.578894
vt 0.314044 0.251804
vt 0.340557 0.589208
vt 0.340949 0.697148
vt 0.020282 0.701863
vt 0.020324 0.603401
vt 0.340986 0.805259
vt 0.020237 0.800326
vt 0.003906 0.914545
vt 0.020191 0.898788
vt 0.429048 0.003906
vt 0.917973 0.018140
vt 0.798034 0.768378
vt 0.362021 0.006422
vt 0.219593 0.015540
vt 0.295486 0.006932
vt 0.798868 0.734279
vt 0.698317 0.016926
vt 0.802480 0.501035
vt 0.798005 0.669047
vt 0.439089 0.016138
vt 0.707783 0.003906
vt 0.696249 0.616940
vt 0.600154 0.871984
vt 0.651773 0.871060
vt 0.695452 0.717555
vt 0.599772 0.768457
vt 0.704296 0.870445
vt 0.231887 0.006834
vt 0.800056 0.869412
vt 0.803328 0.467207
vt 0.841750 0.007791
vt 0.800787 0.568690
vt 0.906314 0.008139
vt 0.801633 0.534862
vt 0.774780 0.007339
vt 0.797058 0.701217
vt 0.170035 0.898952
vt 0.184272 0.912759
vt 0.340496 0.913208
vt 0.160057 0.583917
vt 0.170134 0.603363
vt 0.004054 0.587629
vt 0.341521 0.396133
vt 0.322115 0.407047
vt 0.334237 0.239221
vt 0.026322 0.408637
vt 0.012668 0.422983
vt 0.012660 0.580072
vn -0.078097 0.032344 0.996421
vn -0.037861 0.032458 0.998756
vn -0.020043 0.080945 0.996517
vn -0.037013 0.059637 0.997534
vn -0.037861 0.032458 0.998756
vn 0.040094 0.034294 0.998607
vn 0.015121 0.080650 0.996628
vn -0.020043 0.080945 0.996517
vn 0.040094 0.034294 0.998607
vn 0.076631 0.035840 0.996415
vn 0.034313 0.060014 0.997608
vn 0.015121 0.080650 0.996628
vn -0.037013 0.059637 0.997534
vn -0.020043 0.080945 0.996517
vn 0.026654 0.045315 0.998617
vn 0.051144 0.024543 0.998390
vn -0.020043 0.080945 0.996517
vn 0.015121 0.080650 0.996628
vn -0.026107 0.050068 0.998405
vn 0.026654 0.045315 0.998617
vn 0.015121 0.080650 0.996628
vn 0.034313 0.060014 0.997608
vn -0.055732 0.028854 0.998029
vn -0.026107 0.050068 0.998405
vn 0.051144 0.024543 0.998390
vn 0.026654 0.045315 0.998617
vn 0.047227 -0.034627 0.998284
vn 0.095594 -0.036655 0.994745
vn 0.026654 0.045315 0.998617
vn -0.026107 0.050068 0.998405
vn -0.048904 -0.027834 0.998416
vn 0.047227 -0.034627 0.998284
vn -0.026107 0.050068 0.998405
vn -0.055732 0.028854 0.998029
vn -0.094353 -0.023393 0.995264
vn -0.048904 -0.027834 0.998416
vn 0.082658 0.992777 -0.086963
vn 0.000706 0.996159 -0.087558
vn -0.000137 1.000000 -0.000531
vn 0.083518 0.996506 0.001043
vn 0.000706 0.996159 -0.087558
vn -0.082060 0.992774 -0.087560
vn -0.083769 0.996485 0.000000
vn -0.000137 1.000000 -0.000531
vn 0.083518 0.996506 0.001043
vn -0.000137 1.000000 -0.000531
vn -0.000948 0.996325 0.085652
vn 0.083733 0.992780 0.085888
vn -0.000137 1.000000 -0.000531
vn -0.083769 0.996485 0.000000
vn -0.084811 0.992781 0.084811
vn -0.000948 0.996325 0.085652
vn 0.001880 -0.032452 -0.999472
vn 0.001312 -0.033790 -0.999428
vn -0.021915 0.038852 -0.999005
vn -0.044236 0.023325 -0.998749
vn 0.001312 -0.033790 -0.999428
vn 0.000073 -0.035167 -0.999382
vn 0.017534 0.042084 -0.998960
vn -0.021915 0.038852 -0.999005
vn 0.000073 -0.035167 -0.999382
vn -0.000527 -0.035220 -0.999380
vn 0.041146 0.024517 -0.998852
vn 0.017534 0.042084 -0.998960
vn -0.044236 0.023325 -0.998749
vn -0.021915 0.038852 -0.999005
vn -0.044012 0.024027 -0.998742
vn -0.085489 0.016719 -0.996199
vn -0.021915 0.038852 -0.999005
vn 0.017534 0.042084 -0.998960
vn 0.040263 0.027111 -0.998821
vn -0.044012 0.024027 -0.998742
vn 0.017534 0.042084 -0.998960
vn 0.041146 0.024517 -0.998852
vn 0.086186 0.022873 -0.996017
vn 0.040263 0.027111 -0.998821
vn -0.085489 0.016719 -0.996199
vn -0.044012 0.024027 -0.998742
vn -0.040946 -0.062401 -0.997211
vn -0.085668 -0.032124 -0.995806
vn -0.044012 0.024027 -0.998742
vn 0.040263 0.027111 -0.998821
vn 0.046181 -0.056246 -0.997348
vn -0.040946 -0.062401 -0.997211
vn 0.040263 0.027111 -0.998821
vn 0.086186 0.022873 -0.996017
vn 0.089706 -0.025118 -0.995652
vn 0.046181 -0.056246 -0.997348
vn 0.031853 -0.998890 0.034695
vn 0.016342 -0.998689 0.048508
vn 0.023598 -0.999435 0.023941
vn 0.045388 -0.998844 0.015846
vn 0.016342 -0.998689 0.048508
vn -0.008191 -0.998365 0.056577
vn -0.020607 -0.999601 0.019338
vn 0.023598 -0.999435 0.023941
vn -0.008191 -0.998365 0.056577
vn -0.016525 -0.998612 0.050004
vn -0.040174 -0.999161 0.007999
vn -0.020607 -0.999601 0.019338
vn 0.045388 -0.998844 0.015846
vn 0.023598 -0.999435 0.023941
vn 0.023344 -0.999435 -0.024187
vn 0.045210 -0.998848 -0.016083
vn 0.023598 -0.999435 0.023941
vn -0.020607 -0.999601 0.019338
vn -0.028279 -0.999193 -0.028522
vn 0.023344 -0.999435 -0.024187
vn -0.020607 -0.999601 0.019338
vn -0.040174 -0.999161 0.007999
vn -0.056193 -0.998095 -0.025484
vn -0.028279 -0.999193 -0.028522
vn 0.045210 -0.998848 -0.016083
vn 0.023344 -0.999435 -0.024187
vn 0.015818 -0.998706 -0.048333
vn 0.031792 -0.998890 -0.034756
vn 0.023344 -0.999435 -0.024187
vn -0.028279 -0.999193 -0.028522
vn -0.023909 -0.998905 -0.040213
vn 0.015818 -0.998706 -0.048333
vn -0.028279 -0.999193 -0.028522
vn -0.056193 -0.998095 -0.025484
vn -0.048905 -0.998648 -0.017627
vn -0.023909 -0.998905 -0.040213
vn 0.996920 0.074086 -0.025713
vn 0.995759 0.074812 -0.053539
vn 0.996553 0.072879 -0.039639
vn 0.996723 0.079057 -0.017102
vn 0.997029 0.072333 0.026487
vn 0.996920 0.074086 -0.025713
vn 0.996723 0.079057 -0.017102
vn 0.996802 0.077048 0.021211
vn 0.996254 0.071380 0.048812
vn 0.997029 0.072333 0.026487
vn 0.996802 0.077048 0.021211
vn 0.996876 0.070334 0.035935
vn 0.996723 0.079057 -0.017102
vn 0.996553 0.072879 -0.039639
vn 0.999483 -0.029380 -0.013088
vn 0.999816 -0.018153 -0.006222
vn 0.996802 0.077048 0.021211
vn 0.996723 0.079057 -0.017102
vn 0.999816 -0.018153 -0.006222
vn 0.999808 -0.018250 0.007184
vn 0.996876 0.070334 0.035935
vn 0.996802 0.077048 0.021211
vn 0.999808 -0.018250 0.007184
vn 0.999469 -0.030117 0.012400
vn 0.999816 -0.018153 -0.006222
vn 0.999483 -0.029380 -0.013088
vn 0.992566 -0.121678 -0.002501
vn 0.992723 -0.120414 -0.001246
vn 0.999808 -0.018250 0.007184
vn 0.999816 -0.018153 -0.006222
vn 0.992723 -0.120414 -0.001246
vn 0.992723 -0.120414 0.001246
vn 0.999469 -0.030117 0.012400
vn 0.999808 -0.018250 0.007184
vn 0.992723 -0.120414 0.001246
vn 0.992566 -0.121678 0.002501
vn -0.983484 -0.019277 -0.179968
vn -0.995328 -0.029465 -0.091949
vn -0.996723 0.039211 -0.070750
vn -0.990072 0.019440 -0.139209
vn -0.995328 -0.029465 -0.091949
vn -0.995328 -0.029465 0.091949
vn -0.996866 0.039042 0.068798
vn -0.996723 0.039211 -0.070750
vn -0.995328 -0.029465 0.091949
vn -0.983484 -0.019276 0.179968
vn -0.989800 0.017183 0.141426
vn -0.996866 0.039042 0.068798
vn -0.990072 0.019440 -0.139209
vn -0.996723 0.039211 -0.070750
vn -0.996743 0.076826 -0.024511
vn -0.997645 0.052231 -0.044455
vn -0.996723 0.039211 -0.070750
vn -0.996866 0.039042 0.068798
vn -0.997071 0.072981 0.022873
vn -0.996743 0.076826 -0.024511
vn -0.996866 0.039042 0.068798
vn -0.989800 0.017183 0.141426
vn -0.997513 0.050254 0.049427
vn -0.997071 0.072981 0.022873
vn -0.997645 0.052231 -0.044455
vn -0.996743 0.076826 -0.024511
vn -0.998920 0.046452 -0.000562
vn -0.998916 0.046535 0.001243
vn -0.996743 0.076826 -0.024511
vn -0.997071 0.072981 0.022873
vn -0.998922 0.046411 -0.000656
vn -0.998920 0.046452 -0.000562
vn -0.997071 0.072981 0.022873
vn -0.997513 0.050254 0.049427
vn -0.998919 0.046459 0.001241
vn -0.998922 0.046411 -0.000656
vn -0.062758 0.950735 -0.303585
vn -0.062758 0.950735 -0.303585
vn -0.062758 0.950735 -0.303585
vn -0.062758 0.950735 -0.303585
vn 0.969106 0.245352 0.025206
vn 0.969106 0.245352 0.025206
vn 0.969106 0.245352 0.025206
vn 0.969106 0.245352 0.025206
vn 0.000000 1.000000 -0.000546
vn 0.000000 1.000000 -0.000546
vn 0.000000 1.000000 -0.000546
vn 0.000000 1.000000 -0.000546
vn 0.036694 0.983412 -0.177637
vn 0.036694 0.983412 -0.177637
vn 0.036694 0.983412 -0.177637
vn 0.036694 0.983412 -0.177637
vn -0.920535 0.389052 0.035404
vn -0.920535 0.389052 0.035404
vn -0.920535 0.389052 0.035404
vn -0.920535 0.389052 0.035404
vn 0.962517 0.270584 0.018590
vn 0.962517 0.270584 0.018590
vn 0.962517 0.270584 0.018590
vn 0.962517 0.270584 0.018590
vn -0.911666 0.410933 0.000000
vn -0.911666 0.410933 0.000000
vn -0.911666 0.410933 0.000000
vn -0.911666 0.410933 0.000000
vn -0.034863 0.959169 0.280675
vn -0.034863 0.959169 0.280675
vn -0.034863 0.959170 0.280675
vn -0.034863 0.959169 0.280675
vn 0.967501 0.248773 -0.045315
vn 0.967501 0.248773 -0.045315
vn 0.967501 0.248773 -0.045315
vn 0.967501 0.248773 -0.045315
vn 0.000000 1.000000 0.000513
vn 0.000000 1.000000 0.000513
vn 0.000000 1.000000 0.000513
vn 0.000000 1.000000 0.000513
vn -0.920537 0.389049 -0.035404
vn -0.920537 0.389049 -0.035404
vn -0.920537 0.389049 -0.035404
vn -0.920537 0.389049 -0.035404
vn 0.019754 0.987039 0.159258
vn 0.019754 0.987039 0.159258
vn 0.019754 0.987039 0.159258
vn 0.019754 0.987039 0.159258
vn -0.062745 -0.010955 -0.997969
vn -0.062745 -0.010955 -0.997969
vn -0.062745 -0.010955 -0.997969
vn -0.062745 -0.010955 -0.997969
vn 1.000000 -0.000000 0.000000
vn 1.000000 -0.000000 0.000000
vn 1.000000 -0.000000 0.000000
vn 1.000000 -0.000000 0.000000
vn 0.000000 0.000000 -1.000000
vn 0.000000 0.000000 -1.000000
vn 0.000000 0.000000 -1.000000
vn 0.076716 -0.006031 -0.997035
vn 0.076716 -0.006031 -0.997035
vn 0.076716 -0.006031 -0.997035
vn 0.076716 -0.006031 -0.997035
vn -0.999931 -0.011700 0.001199
vn -0.999931 -0.011700 0.001199
vn -0.999931 -0.011700 0.001199
vn -0.999931 -0.011700 0.001199
vn 1.000000 -0.000000 0.000000
vn 1.000000 -0.000000 0.000000
vn 1.000000 -0.000000 0.000000
vn -0.999938 -0.011115 0.000000
vn -0.999938 -0.011115 0.000000
vn -0.999938 -0.011115 0.000000
vn 0.012939 -0.004531 0.999906
vn 0.012939 -0.004531 0.999906
vn 0.012939 -0.004531 0.999906
vn 0.012939 -0.004531 0.999906
vn 1.000000 -0.000000 0.000000
vn 1.000000 -0.000000 0.000000
vn 1.000000 -0.000000 0.000000
vn 1.000000 -0.000000 0.000000
vn 0.000000 0.000000 1.000000
vn 0.000000 0.000000 1.000000
vn 0.000000 0.000000 1.000000
vn -0.999931 -0.011700 -0.001199
vn -0.999931 -0.011700 -0.001199
vn -0.999931 -0.011700 -0.001199
vn -0.999931 -0.011700 -0.001199
vn 0.000000 0.000000 1.000000
vn 0.000000 0.000000 1.000000
vn 0.000000 0.000000 1.000000
vn 0.000000 0.000000 1.000000
vn -0.226144 0.974009 0.012857
vn -0.226144 0.974009 0.012858
vn -0.226144 0.974009 0.012858
vn -0.226144 0.974009 0.012858
vn 0.169294 -0.758836 0.628893
vn 0.169294 -0.758836 0.628893
vn 0.169294 -0.758836 0.628893
vn 0.169294 -0.758836 0.628893
vn 0.209968 -0.977619 -0.013258
vn 0.209968 -0.977619 -0.013258
vn 0.209968 -0.977619 -0.013258
vn 0.209968 -0.977619 -0.013258
vn -0.241495 0.970261 -0.016529
vn -0.241495 0.970261 -0.016529
vn -0.241495 0.970261 -0.016529
vn -0.241495 0.970261 -0.016529
vn 0.225852 -0.974036 0.015662
vn 0.225852 -0.974036 0.015661
vn 0.225852 -0.974036 0.015661
vn 0.225852 -0.974036 0.015662
vn -0.249527 0.968361 0.003770
vn -0.249527 0.968361 0.003770
vn -0.249527 0.968361 0.003770
vn -0.249527 0.968361 0.003770
vn 0.233616 -0.972326 -0.002485
vn 0.233616 -0.972326 -0.002485
vn 0.233616 -0.972326 -0.002485
vn 0.233616 -0.972326 -0.002485
vn 0.169294 -0.758836 -0.628893
vn 0.169294 -0.758836 -0.628893
vn 0.169294 -0.758836 -0.628893
vn 0.169294 -0.758836 -0.628893
vn 0.234604 0.972081 -0.004316
vn 0.234604 0.972081 -0.004316
vn 0.234604 0.972081 -0.004316
vn 0.234604 0.972081 -0.004316
vn -0.195982 -0.980600 0.003947
vn -0.195982 -0.980600 0.003947
vn -0.195982 -0.980600 0.003947
vn -0.195982 -0.980600 0.003947
vn -0.173726 -0.774084 0.608780
vn -0.173726 -0.774084 0.608780
vn -0.173726 -0.774084 0.608780
vn -0.173726 -0.774084 0.608780
vn 0.231777 0.972769 0.000000
vn 0.231777 0.972769 0.000000
vn 0.231777 0.972769 0.000000
vn 0.231777 0.972769 0.000000
vn -0.193386 -0.981123 0.000000
vn -0.193386 -0.981123 0.000000
vn -0.193386 -0.981123 0.000000
vn -0.193386 -0.981123 0.000000
vn 0.234604 0.972081 0.004316
vn 0.234604 0.972081 0.004316
vn 0.234604 0.972081 0.004316
vn 0.234604 0.972081 0.004316
vn -0.173726 -0.774084 -0.608780
vn -0.173726 -0.774084 -0.608780
vn -0.173726 -0.774084 -0.608780
vn -0.173726 -0.774084 -0.608780
vn -0.195982 -0.980600 -0.003947
vn -0.195982 -0.980600 -0.003947
vn -0.195982 -0.980600 -0.003947
vn -0.195982 -0.980600 -0.003947
s off
g mesh_CardboardBoxLarge
usemtl mesh_CardboardBoxLargeSG
f 1/1/1 2/2/2 6/6/3 5/5/4
f 2/2/5 3/3/6 7/7/7 6/6/8
f 3/3/9 4/4/10 8/8/11 7/7/12
f 5/5/13 6/6/14 10/10/15 9/9/16
f 6/6/17 7/7/18 11/11/19 10/10/20
f 7/7/21 8/8/22 12/12/23 11/11/24
f 9/9/25 10/10/26 14/14/27 13/120/28
f 10/10/29 11/11/30 15/15/31 14/14/32
f 11/11/33 12/12/34 16/114/35 15/15/36
f 65/86/37 66/87/38 67/18/39 68/88/40
f 66/87/41 69/127/42 70/124/43 67/18/44
f 68/88/45 67/18/46 71/91/47 72/126/48
f 67/18/49 70/124/50 73/123/51 71/91/52
f 21/117/53 22/23/54 26/27/55 25/26/56
f 22/23/57 23/24/58 27/28/59 26/27/60
f 23/24/61 24/111/62 28/29/63 27/28/64
f 25/26/65 26/27/66 30/31/67 29/30/68
f 26/27/69 27/28/70 31/32/71 30/31/72
f 27/28/73 28/29/74 32/33/75 31/32/76
f 29/30/77 30/31/78 34/35/79 33/34/80
f 30/31/81 31/32/82 35/36/83 34/35/84
f 31/32/85 32/33/86 36/37/87 35/36/88
f 33/34/89 34/35/90 38/39/91 37/38/92
f 34/35/93 35/36/94 39/40/95 38/39/96
f 35/36/97 36/37/98 40/41/99 39/40/100
f 37/38/101 38/39/102 42/43/103 41/42/104
f 38/39/105 39/40/106 43/44/107 42/43/108
f 39/40/109 40/41/110 44/45/111 43/44/112
f 41/42/113 42/43/114 2/47/115 1/46/116
f 42/43/117 43/44/118 3/48/119 2/47/120
f 43/44/121 44/45/122 4/49/123 3/48/124
f 40/51/125 36/50/126 32/53/127 45/54/128
f 44/52/129 40/51/130 45/54/131 46/55/132
f 4/4/133 44/52/134 46/55/135 8/8/136
f 45/54/137 32/53/138 28/56/139 47/57/140
f 46/55/141 45/54/142 47/57/143 48/58/144
f 8/8/145 46/55/146 48/58/147 12/12/148
f 47/57/149 28/56/150 24/59/151 20/60/152
f 48/58/153 47/57/154 20/60/155 18/61/156
f 12/12/157 48/58/158 18/61/159 16/114/160
f 33/62/161 37/63/162 49/66/163 29/65/164
f 37/63/165 41/64/166 50/67/167 49/66/168
f 41/64/169 1/1/170 5/5/171 50/67/172
f 29/65/173 49/66/174 51/69/175 25/68/176
f 49/66/177 50/67/178 52/70/179 51/69/180
f 50/67/181 5/5/182 9/9/183 52/70/184
f 25/68/185 51/69/186 19/72/187 21/71/188
f 51/69/189 52/70/190 17/73/191 19/72/192
f 52/70/193 9/9/194 13/120/195 17/73/196
f 13/120/197 14/14/198 54/113/199 53/110/200
f 75/13/201 74/147/202 76/146/203 77/19/204
f 14/14/205 15/15/206 56/115/207 54/113/208
f 15/15/209 16/114/210 57/128/211 56/115/212
f 82/20/213 83/21/214 84/22/215 85/141/216
f 78/74/217 75/13/218 77/19/219 79/76/220
f 83/21/221 86/78/222 87/79/223 84/22/224
f 22/23/225 21/117/226 62/121/227 61/135/228
f 80/80/229 78/74/230 79/76/231 81/144/232
f 23/24/233 22/23/234 61/135/235 63/131/236
f 86/78/237 88/138/238 89/137/239 87/79/240
f 24/111/241 23/24/242 63/131/243 64/133/244
f 53/112/245 54/75/246 66/87/247 65/86/248
f 55/116/249 53/112/250 65/86/251 68/125/252
f 54/75/253 56/77/254 66/87/255
f 56/77/256 57/129/257 69/127/258 66/87/259
f 57/130/260 58/118/261 70/90/262 69/89/263
f 59/136/264 55/116/265 68/125/266
f 58/118/267 60/134/268 70/90/269
f 61/82/270 62/119/271 72/92/272 71/122/273
f 62/119/274 59/136/275 68/125/276 72/92/277
f 63/84/278 61/82/279 71/122/280
f 60/134/281 64/132/282 73/93/283 70/90/284
f 64/132/285 63/84/286 71/122/287 73/93/288
f 17/94/289 13/148/290 74/147/291 75/13/292
f 13/95/293 53/96/294 76/17/295 74/16/296
f 53/96/297 55/97/298 77/19/299 76/17/300
f 19/98/301 17/94/302 75/13/303 78/74/304
f 55/97/305 59/99/306 79/76/307 77/19/308
f 21/100/309 19/98/310 78/74/311 80/80/312
f 59/99/313 62/101/314 81/81/315 79/76/316
f 62/101/317 21/145/318 80/143/319 81/81/320
f 16/102/321 18/103/322 83/21/323 82/20/324
f 58/104/325 57/105/326 85/25/327 84/22/328
f 57/105/329 16/142/330 82/140/331 85/25/332
f 18/103/333 20/106/334 86/78/335 83/21/336
f 60/107/337 58/104/338 84/22/339 87/79/340
f 20/106/341 24/139/342 88/138/343 86/78/344
f 24/108/345 64/109/346 89/85/347 88/83/348
f 64/109/349 60/107/350 87/79/351 89/85/352
