# This file uses centimeters as units for non-parametric coordinates.

g default
v 0.340693 0.232320 7.062117
v 0.340693 0.046235 7.062117
v 0.152090 0.276112 7.846653
v 0.116210 0.046235 7.897446
v 0.875251 0.276112 7.059787
v 0.962033 0.046235 7.059428
v 0.958164 0.276112 7.667060
v 1.057317 0.046235 7.665175
v -0.053371 0.276112 7.404581
v -0.154939 0.046235 7.384339
v 0.118290 0.276112 7.203454
v -0.008766 0.276112 7.662684
v 0.358675 0.276112 7.862932
v 0.711110 0.276112 7.778246
v 0.998585 0.276112 7.400058
v 0.986148 0.276112 7.296749
v 0.513093 0.276112 7.687166
v 0.598551 0.276112 7.460651
v 0.600641 0.276112 7.152952
v 0.477935 0.276112 7.271332
v 0.556011 0.205142 7.809411
v 1.043139 0.173458 7.687355
v 1.005084 0.046235 7.333111
v 0.958613 0.212086 7.059428
v 0.525867 0.046235 7.061316
v 0.590831 0.172484 7.061030
v 0.483762 0.213640 7.061439
v 0.298889 0.276112 7.113740
v -0.150372 0.203478 7.376094
v 0.116211 0.212107 7.915688
v 0.501707 0.147479 7.206074
v 0.456120 0.257236 7.098504
v 0.350161 0.011014 7.097792
v -0.102999 0.011014 7.392402
v 0.519468 0.011014 7.097060
v 1.005378 0.011014 7.649173
v 0.957620 0.011014 7.345564
v 0.144915 0.011014 7.861541
v 0.918258 0.011014 7.095333
vt 0.375839 0.539074
vt 0.375000 0.750000
vt 0.343463 0.468463
vt 0.125000 0.000000
vt 0.358737 0.305958
vt 0.124941 0.206159
vt 0.525008 0.439509
vt 0.523820 0.506386
vt 0.552482 0.750000
vt 0.539196 0.748529
vt 0.235273 0.265068
vt 0.350133 0.389714
vt 0.240225 0.247084
vt 0.174946 0.256836
vt 0.368164 0.450054
vt 0.293022 0.272996
vt 0.352004 0.331978
vt 0.396177 0.326526
vt 0.470707 0.394013
vt 0.545250 0.476613
vt 0.547349 0.483706
vt 0.425840 0.386564
vt 0.462871 0.400740
vt 0.447599 0.490307
vt 0.409686 0.472197
vt 0.437266 0.432592
vt 0.539733 0.580067
vt 0.547170 0.767951
vt 0.552242 0.557971
vt 0.427894 0.750000
vt 0.446793 0.540739
vt 0.419944 0.556564
vt 0.385255 0.484944
vt 0.133983 0.221085
vt 0.236312 0.260319
vt 0.344570 0.323761
vt 0.428036 0.503601
vt 0.417495 0.510765
vt 0.000000 0.000000
vt 1.000000 0.000000
vt 1.000000 1.000000
vt 0.000000 1.000000
vt 0.000000 0.000000
vt 1.000000 0.000000
vt 1.000000 1.000000
vt 0.000000 1.000000
vt 0.000000 0.000000
vt 1.000000 0.000000
vt 1.000000 1.000000
vt 0.000000 1.000000
vt 0.000000 0.000000
vt 1.000000 0.000000
vt 1.000000 1.000000
vt 0.000000 1.000000
vt 0.000000 0.000000
vt 1.000000 0.000000
vt 1.000000 1.000000
vt 0.000000 1.000000
vt 0.000000 0.000000
vt 1.000000 0.000000
vt 1.000000 1.000000
vt 0.000000 1.000000
vt 0.000000 0.000000
vt 1.000000 0.000000
vt 1.000000 1.000000
vt 0.000000 1.000000
vn -0.615816 0.780669 0.106424
vn -0.615816 0.780669 0.106424
vn -0.615816 0.780669 0.106424
vn 0.000001 1.000000 -0.000000
vn 0.000001 1.000000 -0.000000
vn 0.000001 1.000000 -0.000000
vn 0.000000 1.000000 -0.000000
vn 0.364117 0.461358 0.809054
vn 0.364117 0.461358 0.809054
vn 0.364117 0.461358 0.809054
vn 0.754079 0.646786 0.114158
vn 0.754079 0.646786 0.114158
vn 0.754079 0.646786 0.114158
vn -0.470459 0.785771 -0.401537
vn -0.470459 0.785771 -0.401537
vn -0.470459 0.785771 -0.401537
vn -0.253292 0.795360 0.550677
vn -0.253292 0.795360 0.550677
vn -0.253292 0.795360 0.550677
vn 0.956326 0.251933 -0.148227
vn 0.956326 0.251933 -0.148227
vn 0.956326 0.251933 -0.148227
vn -0.052336 0.745731 0.664188
vn -0.052336 0.745731 0.664188
vn -0.052336 0.745731 0.664188
vn 0.383464 0.175030 0.906819
vn 0.383464 0.175030 0.906819
vn 0.383464 0.175030 0.906819
vn 0.986049 0.091758 -0.138883
vn 0.986049 0.091758 -0.138883
vn 0.986049 0.091758 -0.138883
vn 0.986049 0.091758 -0.138883
vn 0.585092 0.763340 -0.273823
vn 0.585092 0.763340 -0.273823
vn 0.585092 0.763340 -0.273823
vn 0.988944 0.042822 -0.141971
vn 0.988944 0.042822 -0.141971
vn 0.988944 0.042822 -0.141971
vn 0.988944 0.042822 -0.141971
vn 0.877801 0.467399 0.104897
vn 0.877801 0.467399 0.104897
vn 0.877801 0.467399 0.104897
vn -0.004336 -0.000059 -0.999991
vn -0.004336 -0.000059 -0.999991
vn -0.004337 -0.000061 -0.999991
vn -0.004337 -0.000060 -0.999991
vn -0.004518 -0.000190 -0.999990
vn -0.004518 -0.000190 -0.999990
vn -0.004518 -0.000190 -0.999990
vn -0.004518 -0.000190 -0.999990
vn -0.537065 0.014119 -0.843423
vn -0.542328 -0.016380 -0.840007
vn -0.542328 -0.016380 -0.840007
vn -0.540578 -0.005900 -0.841273
vn -0.498413 0.749444 0.435796
vn -0.498413 0.749444 0.435796
vn -0.498413 0.749444 0.435796
vn -0.889683 0.007695 0.456514
vn -0.892255 -0.004237 0.451512
vn -0.900291 -0.047583 0.432680
vn 0.233719 -0.122455 0.964562
vn 0.236453 -0.120761 0.964109
vn 0.234858 -0.122986 0.964218
vn 0.233719 -0.122455 0.964562
vn 0.399748 0.846677 0.351198
vn 0.399748 0.846677 0.351198
vn 0.399748 0.846677 0.351198
vn -0.144075 0.272939 -0.951182
vn -0.144075 0.272939 -0.951182
vn -0.144075 0.272939 -0.951182
vn -0.242333 0.656549 -0.714295
vn -0.242333 0.656549 -0.714296
vn -0.242333 0.656549 -0.714296
vn -0.805777 0.413665 -0.423799
vn -0.805777 0.413665 -0.423799
vn -0.805777 0.413665 -0.423799
vn -0.748280 0.340361 -0.569414
vn -0.748280 0.340361 -0.569414
vn -0.748280 0.340361 -0.569414
vn -0.748280 0.340361 -0.569414
vn 0.055681 0.732656 -0.678318
vn 0.055681 0.732656 -0.678318
vn 0.055681 0.732656 -0.678318
vn 0.055681 0.732656 -0.678318
vn 0.106723 0.986868 -0.121254
vn 0.106723 0.986868 -0.121254
vn 0.106723 0.986868 -0.121254
vn 0.969758 0.243912 -0.008742
vn 0.969758 0.243912 -0.008742
vn 0.969758 0.243912 -0.008742
vn -0.000000 1.000000 0.000000
vn -0.000000 1.000000 -0.000000
vn -0.000000 1.000000 -0.000001
vn -0.000000 1.000000 -0.000001
vn 0.000000 1.000000 0.000000
vn -0.000000 1.000000 0.000000
vn -0.000000 1.000000 0.000000
vn -0.000000 1.000000 0.000000
vn -0.000000 1.000000 0.000000
vn -0.000000 1.000000 0.000000
vn -0.000000 1.000000 0.000000
vn 0.233821 -0.106728 0.966404
vn 0.232225 -0.099674 0.967542
vn 0.232225 -0.099674 0.967542
vn -0.004380 -0.000090 -0.999990
vn -0.520358 0.095926 -0.848543
vn -0.520358 0.095926 -0.848543
vn -0.888967 0.010895 0.457841
vn -0.888967 0.010895 0.457841
vn -0.386243 -0.705588 -0.594106
vn -0.386243 -0.705588 -0.594106
vn -0.386243 -0.705588 -0.594106
vn -0.386243 -0.705588 -0.594106
vn -0.003037 -0.712016 -0.702157
vn -0.003037 -0.712016 -0.702157
vn -0.003037 -0.712016 -0.702157
vn -0.003037 -0.712016 -0.702157
vn 0.577958 -0.810987 -0.090913
vn 0.577958 -0.810987 -0.090913
vn 0.577958 -0.810987 -0.090913
vn 0.577958 -0.810987 -0.090913
vn -0.566893 -0.767391 0.299572
vn -0.566893 -0.767391 0.299572
vn -0.566893 -0.767391 0.299572
vn -0.566893 -0.767391 0.299572
vn 0.577958 -0.810987 -0.090913
vn 0.577958 -0.810987 -0.090913
vn 0.577958 -0.810987 -0.090913
vn 0.577958 -0.810987 -0.090913
vn -0.003041 -0.712012 -0.702160
vn -0.003041 -0.712012 -0.702160
vn -0.003041 -0.712012 -0.702160
vn -0.003041 -0.712012 -0.702160
vn 0.187618 -0.622032 0.760182
vn 0.187618 -0.622032 0.760182
vn 0.187618 -0.622032 0.760182
vn 0.187618 -0.622032 0.760182
s off
g mesh_ConcreteSlab4
f 9/11/1 29/35/2 12/16/3
s 1
f 16/21/4 5/8/5 19/24/6 18/23/7
s off
f 14/19/8 22/27/9 7/7/10
f 22/27/11 15/20/12 7/7/13
f 11/14/14 29/35/15 9/11/16
f 21/26/17 14/19/18 17/22/19
f 32/38/20 20/25/21 31/37/22
f 30/36/23 13/18/24 3/5/25
f 18/23/26 23/28/27 16/21/28
f 8/10/29 23/28/30 15/20/31 22/27/32
f 16/21/33 24/29/34 5/8/35
f 16/21/36 23/28/37 6/9/38 24/29/39
f 31/37/40 27/32/41 32/38/42
s 2
f 25/30/43 26/31/44 5/8/45 6/9/46
s off
f 2/2/47 1/1/48 27/32/49 25/30/50
s 3
f 2/4/51 10/13/52 29/35/53 11/14/54
s off
f 12/16/55 30/36/56 3/5/57
s 4
f 12/16/58 4/3/59 30/36/60
s 5
f 14/19/61 21/26/62 8/10/63 22/27/64
s off
f 21/26/65 17/22/66 13/18/67
f 15/20/68 23/28/69 18/23/70
f 26/31/71 19/24/72 5/8/73
f 25/30/74 31/37/75 26/31/76
f 19/24/77 26/31/78 31/37/79 20/25/80
f 32/38/81 27/32/82 1/1/83 28/33/84
f 32/38/85 28/33/86 20/25/87
f 25/30/88 27/32/89 31/37/90
s 1
f 9/12/91 20/25/92 28/33/93 11/15/94
f 18/23/7 14/19/95 7/7/96 15/20/97
f 17/22/98 12/17/99 3/5/100 13/18/101
f 17/22/98 20/25/92 9/12/91 12/17/99
f 18/23/7 19/24/6 20/25/92
f 18/23/7 17/22/98 14/19/95
f 18/23/7 20/25/92 17/22/98
s 5
f 4/3/102 21/26/62 13/18/103 30/36/104
s 2
f 6/9/46 5/8/45 24/29/105
s 3
f 2/4/51 11/14/54 28/34/106 1/6/107
s 4
f 12/16/58 29/35/108 10/13/109 4/3/59
s 5
f 4/3/102 8/10/63 21/26/62
s off
f 10/39/110 2/40/111 33/41/112 34/42/113
f 2/43/114 25/44/115 35/45/116 33/46/117
f 23/47/118 8/48/119 36/49/120 37/50/121
f 4/51/122 10/52/123 34/53/124 38/54/125
f 6/55/126 23/56/127 37/57/128 39/58/129
f 25/59/130 6/60/131 39/61/132 35/62/133
f 8/63/134 4/64/135 38/65/136 36/66/137
