# This file uses centimeters as units for non-parametric coordinates.

g default
v 2.046125 0.044837 4.602912
v 2.009316 0.225776 4.659304
v 0.695309 0.030951 6.663870
v 0.841332 0.044837 4.930451
v 1.009402 0.030453 4.602912
v 0.818764 0.276112 4.965756
v -0.076916 0.044837 5.400756
v 0.956376 0.276112 4.697572
v 1.106150 0.276112 4.602912
v 1.006200 0.198580 4.602912
v 0.119090 0.276112 5.708972
v 1.095478 0.276112 4.919421
v 1.153420 0.276112 5.757685
v 0.260262 0.276112 5.251807
v 0.705041 0.276112 5.024002
v 0.573653 0.276112 5.145709
v 0.440273 0.213669 5.154239
v 0.145859 0.276112 5.310401
v -0.041518 0.225084 5.448558
v 0.041350 0.276112 5.581815
v 0.005756 0.276112 5.430710
v -0.021239 0.224447 5.391542
v 0.309290 0.276112 5.499576
v 0.148980 0.276112 5.757864
v 0.129418 0.044837 5.738252
v 1.245946 0.276112 6.167363
v 0.798253 0.276112 6.197246
v 0.911687 0.276112 6.109894
v 0.820612 0.276112 6.074573
v 0.358520 0.054893 6.112990
v 0.625474 0.276112 6.037110
v 0.392968 0.044837 6.169337
v 0.498330 0.044837 6.084496
v 0.825138 0.110304 6.134581
v 0.665804 0.276112 6.603225
v 0.969156 0.276112 6.663870
v 1.088240 0.033441 6.663870
v 1.504737 0.276112 6.663870
v 1.394019 0.276112 5.008532
v 1.422874 0.276112 4.602912
v 1.539818 0.276112 4.602912
v 1.491204 0.064896 4.602911
v 0.256725 0.276112 5.934101
v 1.461979 0.145751 4.744589
v 2.046125 0.276112 4.812931
v 1.808651 0.276112 4.602912
v 2.046125 0.172858 4.602912
v 1.992588 0.276112 4.679910
v 2.046125 0.276112 5.080831
v 2.046125 0.276112 6.112148
v 2.046125 0.276112 5.726614
v 1.966186 0.276112 5.581172
v 1.956388 0.276112 5.286222
v 1.917179 0.276112 5.953690
v 1.983271 0.205564 5.935905
v 2.046125 0.222218 5.359998
v 2.068026 0.039981 5.365827
v 2.020842 0.067762 5.940006
v 2.046125 0.044837 6.612788
v 1.995043 0.052389 6.663870
v 1.995043 0.239190 6.663870
v 2.046125 0.239190 6.612788
v 2.046125 0.276112 6.522919
v 1.920516 0.276112 6.663870
v 1.192955 0.276112 6.596566
v 1.095835 0.183067 6.663870
v 0.763556 0.276112 6.663870
v 0.435385 0.276112 6.108629
v 0.373192 0.220621 6.127093
v 0.584185 0.225944 6.106141
v 0.400381 0.233975 6.170965
v 0.421559 0.326073 6.245990
v 0.600906 0.276112 6.145914
v 0.251019 0.044837 5.232795
v 0.719936 0.007482 6.620065
v 1.088240 0.007038 6.613870
v 0.876171 0.004972 4.964318
v 1.035751 0.007539 4.645728
v -0.030187 0.002585 5.412825
v 0.272170 0.002553 5.273946
v 0.439112 0.001304 6.179635
v 0.530663 -0.024576 6.063803
v 0.375510 0.007125 6.065872
v 1.975909 0.007038 6.617676
v 1.491204 0.007038 4.652911
v 2.010770 0.007038 4.638267
v 0.171160 0.005657 5.712732
v 2.018026 0.007038 5.365827
v 1.970842 0.007038 5.940006
v 1.999931 0.007038 6.593654
vt 0.872722 0.014502
vt 0.875000 0.250000
vt 0.539146 0.455986
vt 0.625000 0.500000
vt 0.552487 0.760929
vt 0.476493 0.790561
vt 0.625000 0.500000
vt 0.624989 0.736831
vt 0.548772 0.488517
vt 0.559249 0.500000
vt 0.559249 0.500000
vt 0.552258 0.570199
vt 0.490206 0.370455
vt 0.558647 0.461751
vt 0.562402 0.358135
vt 0.500079 0.421287
vt 0.531192 0.448921
vt 0.520272 0.431805
vt 0.512671 0.533434
vt 0.492077 0.414180
vt 0.478972 0.482816
vt 0.484767 0.381256
vt 0.482245 0.399619
vt 0.480335 0.492751
vt 0.503630 0.390938
vt 0.492295 0.359901
vt 0.000000 0.000000
vt 0.998902 -0.000073
vt -0.432113 -1.800121
vt 0.001245 0.000145
vt 0.998753 -0.002927
vt 1.051128 -1.603111
vt 0.537712 0.306603
vt 0.545646 0.317199
vt 0.540377 0.318770
vt 0.524975 0.321860
vt 0.516756 0.668647
vt 0.001223 0.000438
vt 1.000000 0.000000
vt 1.000000 1.000000
vt 0.000000 0.000000
vt 0.998464 -0.000050
vt 0.000001 0.998023
vt 0.000000 0.000000
vt 0.999691 0.002569
vt 0.000000 1.000000
vt 0.000434 0.002569
vt 1.000000 0.000000
vt 1.000142 1.163730
vt 1.000000 0.000000
vt 1.000000 1.000000
vt -0.625131 1.610867
vt 0.000000 0.000000
vt 0.976880 0.039986
vt 1.548336 1.624549
vt 0.000000 1.000000
vt 0.528464 0.257365
vt 0.530513 0.595967
vt 0.549666 0.250000
vt 0.557992 0.337641
vt 0.579342 0.447680
vt 0.581404 0.500000
vt 0.581404 0.500000
vt 0.589584 0.500000
vt 0.589584 0.500000
vt 0.586183 0.750000
vt 0.499832 0.338523
vt 0.000000 0.000000
vt 0.999673 0.001743
vt 0.500000 1.000000
vt 0.000268 0.002083
vt 1.000000 0.000000
vt 0.500000 1.000000
vt 0.000000 0.000000
vt 1.000000 0.000000
vt 0.500000 1.000000
vt 0.000000 0.000000
vt 1.000000 0.000000
vt 0.500000 1.000000
vt 0.625000 0.457061
vt 0.832061 0.250000
vt 0.608389 0.500000
vt 0.608389 0.500000
vt 0.625000 0.566437
vt 0.875000 0.183564
vt 0.619838 0.488351
vt 0.624943 0.426913
vt 0.625000 0.354849
vt 0.729849 0.250000
vt 0.801545 0.251388
vt 0.619408 0.372163
vt 0.618723 0.405286
vt 0.618269 0.330702
vt 0.706436 0.186124
vt 0.770844 0.201133
vt 0.769537 -0.000378
vt 0.705973 -0.000593
vt 0.000000 0.000000
vt 1.000000 0.000000
vt -0.409060 0.947662
vt 0.000000 0.000000
vt 1.000000 0.000000
vt 0.250753 0.698009
vt 0.002169 -0.000574
vt 1.000000 0.000000
vt 0.929363 0.646633
vt 0.540710 0.786625
vt 0.509362 0.635771
vt 0.507057 0.661387
vt 0.490928 0.736723
vt 0.568944 0.309977
vt 0.626295 0.250062
vt 0.587130 0.250000
vt 0.655860 0.280860
vt 0.621793 0.038148
vt 0.632529 0.003640
vt 0.621427 0.250000
vt 0.630288 0.265743
vt 0.616214 0.250000
vt 0.565310 0.258130
vt 0.558528 0.301570
vt 0.535285 0.250000
vt 0.000000 0.000000
vt 0.992678 0.000344
vt 0.691511 0.530048
vt 0.511895 0.316039
vt 0.507979 0.382321
vt 0.521231 0.376385
vt -0.113583 0.292686
vt 0.509881 0.359508
vt 0.511362 0.305818
vt 0.522780 0.309424
vt 0.499436 0.788318
vt 0.000000 0.000000
vt 1.000000 0.000000
vt 1.000000 1.000000
vt 0.000000 1.000000
vt 0.000000 0.000000
vt 1.000000 0.000000
vt 1.000000 1.000000
vt 0.000000 1.000000
vt 0.000000 0.000000
vt 1.000000 0.000000
vt 1.000000 1.000000
vt 0.000000 1.000000
vt 0.000000 0.000000
vt 1.000000 0.000000
vt 1.000000 1.000000
vt 0.000000 1.000000
vt 0.000000 0.000000
vt 1.000000 0.000000
vt 1.000000 1.000000
vt 0.000000 1.000000
vt 0.000000 0.000000
vt 1.000000 0.000000
vt 1.000000 1.000000
vt 0.000000 1.000000
vt 0.000000 0.000000
vt 1.000000 0.000000
vt 1.000000 1.000000
vt 0.000000 1.000000
vt 0.000000 0.000000
vt 1.000000 0.000000
vt 1.000000 1.000000
vt 0.000000 1.000000
vt 0.000000 0.000000
vt 1.000000 0.000000
vt 1.000000 1.000000
vt 0.000000 1.000000
vt 0.000000 0.000000
vt 1.000000 0.000000
vt 1.000000 1.000000
vt 0.000000 1.000000
vt 0.000000 0.000000
vt 1.000000 0.000000
vt 1.000000 1.000000
vt 0.000000 1.000000
vt 0.000000 0.000000
vt 1.000000 0.000000
vt 1.000000 1.000000
vt 0.000000 1.000000
vt 0.000000 0.000000
vt 1.000000 0.000000
vt 1.000000 1.000000
vt 0.000000 1.000000
vt 0.000000 0.000000
vt 1.000000 0.000000
vt 1.000000 1.000000
vt 0.000000 1.000000
vt 0.000000 0.000000
vt 1.000000 0.000000
vt 1.000000 1.000000
vt 0.000000 1.000000
vt 0.000000 0.000000
vt 1.000000 0.000000
vt 1.000000 1.000000
vt 0.000000 1.000000
vn 0.998877 0.042653 -0.020641
vn 0.999034 0.039560 -0.019144
vn 1.000000 0.000000 0.000000
vn 0.000000 0.000000 1.000000
vn 0.000000 0.000000 1.000000
vn 0.000021 0.000000 1.000000
vn -0.012437 0.999818 -0.014483
vn -0.480509 0.675280 -0.559561
vn -0.099009 0.994322 -0.038993
vn -0.889774 -0.016732 -0.456095
vn -0.889766 -0.016730 -0.456109
vn -0.890438 -0.016961 -0.454788
vn -0.439995 0.567226 -0.696175
vn -0.439995 0.567226 -0.696175
vn -0.439995 0.567226 -0.696175
vn -0.000000 1.000000 -0.000000
vn -0.000000 1.000000 0.000000
vn -0.000000 1.000000 0.000000
vn -0.000000 1.000000 -0.000000
vn -0.000000 1.000000 -0.000000
vn -0.018032 0.999828 0.004247
vn -0.694505 0.700642 0.163595
vn -0.386702 0.753343 -0.531917
vn -0.301261 0.535740 -0.788812
vn -0.280315 0.485648 -0.827991
vn -0.000000 1.000000 0.000000
vn -0.455092 0.092364 -0.885641
vn -0.454325 0.092639 -0.886006
vn -0.455262 0.092569 -0.885532
vn -0.455262 0.092569 -0.885532
vn -0.907650 0.264643 -0.325785
vn -0.907650 0.264643 -0.325785
vn -0.907650 0.264643 -0.325785
vn -0.751383 0.600306 -0.273963
vn -0.751383 0.600306 -0.273963
vn -0.751383 0.600306 -0.273963
vn 0.395927 0.842930 0.364295
vn 0.395927 0.842930 0.364295
vn 0.395927 0.842930 0.364295
vn 0.395927 0.842930 0.364295
vn -0.843934 0.115802 -0.523799
vn -0.843934 0.115802 -0.523799
vn -0.843934 0.115802 -0.523799
vn 0.735106 0.117359 0.667717
vn 0.735106 0.117359 0.667717
vn 0.735106 0.117359 0.667717
vn 0.000000 1.000000 -0.000000
vn 0.000000 1.000000 0.000000
vn 0.000000 1.000000 -0.000000
vn -0.000000 1.000000 -0.000000
vn -0.000000 1.000000 0.000000
vn 0.000000 1.000000 -0.000000
vn -0.488903 0.714489 0.500479
vn -0.488903 0.714489 0.500479
vn -0.488903 0.714489 0.500479
vn 0.663875 0.270456 0.697226
vn 0.663875 0.270456 0.697226
vn 0.663875 0.270456 0.697226
vn -0.779141 0.327076 -0.534752
vn -0.779141 0.327076 -0.534752
vn -0.779141 0.327076 -0.534752
vn -0.062537 0.343950 -0.936903
vn -0.062537 0.343950 -0.936903
vn -0.062537 0.343950 -0.936903
vn -0.164944 0.228935 0.959366
vn -0.164944 0.228935 0.959366
vn -0.164944 0.228935 0.959366
vn -0.195080 0.311745 0.929924
vn -0.195080 0.311745 0.929924
vn -0.195080 0.311745 0.929924
vn -0.195080 0.311745 0.929924
vn -0.226945 0.647490 -0.727498
vn -0.226945 0.647490 -0.727498
vn -0.226945 0.647490 -0.727498
vn -0.226945 0.647490 -0.727498
vn 0.049816 0.998734 -0.007069
vn -0.000000 1.000000 0.000001
vn 0.000000 1.000000 0.000000
vn 0.000000 0.000000 1.000000
vn -0.000000 0.000000 1.000000
vn -0.000000 0.000000 1.000000
vn 0.000000 1.000000 -0.000000
vn 0.000000 1.000000 -0.000000
vn -0.000001 1.000000 0.000001
vn -0.000001 1.000000 0.000001
vn -0.000001 0.000001 -1.000000
vn 0.000000 0.000001 -1.000000
vn -0.000001 0.000001 -1.000000
vn -0.000001 0.000001 -1.000000
vn 0.000001 0.000001 -1.000000
vn 0.000001 0.000001 -1.000000
vn -0.000010 0.000000 -1.000000
vn -0.000001 1.000000 -0.000001
vn 0.000000 1.000000 -0.000001
vn 0.000000 1.000000 -0.000000
vn 0.000000 1.000000 -0.000001
vn -0.889746 -0.016723 -0.456149
vn -0.889746 -0.016723 -0.456149
vn 0.000001 0.000001 -1.000000
vn 0.000001 0.000001 -1.000000
vn -0.000000 1.000000 -0.000000
vn -0.000000 1.000000 -0.000000
vn -0.852806 0.028908 0.521428
vn -0.852995 0.028526 0.521140
vn -0.853072 0.028370 0.521022
vn -0.853072 0.028370 0.521022
vn -0.852853 0.027925 0.521405
vn -0.852852 0.027925 0.521405
vn -0.852897 0.028007 0.521328
vn -0.852954 0.028115 0.521229
vn -0.853905 0.029902 0.519569
vn 0.933558 0.352221 0.066411
vn 0.933558 0.352221 0.066411
vn 0.933558 0.352221 0.066411
vn -0.923779 0.190722 -0.332051
vn -0.923779 0.190722 -0.332051
vn -0.923779 0.190722 -0.332051
vn -0.925698 0.213064 -0.312548
vn -0.925698 0.213064 -0.312548
vn -0.925698 0.213064 -0.312548
vn 0.951249 0.307736 0.020596
vn 0.951249 0.307736 0.020596
vn 0.951249 0.307736 0.020596
vn 0.998728 0.046632 -0.019175
vn 0.999095 0.035335 0.023670
vn 0.344553 0.451444 -0.823093
vn 0.344553 0.451444 -0.823093
vn 0.344553 0.451444 -0.823093
vn 0.341873 0.786277 -0.514677
vn 0.341873 0.786277 -0.514677
vn 0.341873 0.786277 -0.514677
vn 0.523368 0.764686 -0.375953
vn 0.523368 0.764686 -0.375953
vn 0.523368 0.764686 -0.375953
vn 0.842426 0.418762 -0.339053
vn 0.842426 0.418762 -0.339053
vn 0.842426 0.418762 -0.339053
vn 0.000000 1.000000 -0.000000
vn 0.000004 0.000000 -1.000000
vn 0.000000 1.000000 -0.000000
vn 0.000000 1.000000 0.000000
vn 0.000000 1.000000 0.000000
vn 0.000000 1.000000 0.000000
vn 0.998241 0.040850 0.042964
vn 0.997886 0.026790 0.059218
vn 0.999949 0.007735 0.006545
vn 0.964766 0.263101 0.002120
vn 0.998362 -0.045410 -0.034806
vn 0.998403 -0.051286 -0.023692
vn 0.998380 -0.051650 -0.023860
vn 0.715671 0.568027 0.406399
vn 0.723044 0.689207 -0.046913
vn 0.735308 0.675724 0.052152
vn -0.404233 0.803839 -0.436393
vn 0.580619 0.663056 -0.472482
vn 0.255817 0.956446 -0.140601
vn 0.255817 0.956446 -0.140601
vn 0.255817 0.956446 -0.140601
vn 0.525284 0.850748 -0.017450
vn 0.525284 0.850748 -0.017450
vn 0.525284 0.850748 -0.017450
vn 0.398011 0.900749 0.173892
vn 0.398011 0.900749 0.173892
vn 0.398011 0.900749 0.173892
vn 0.707105 0.000000 0.707108
vn 0.707105 0.000000 0.707108
vn 0.707105 0.000000 0.707108
vn 0.707105 0.000000 0.707108
vn 0.000000 1.000000 0.000000
vn 0.000000 1.000000 0.000000
vn 0.000000 1.000000 0.000000
vn 0.000000 1.000000 0.000000
vn 1.000000 0.000000 0.000000
vn -0.154720 0.679956 0.716744
vn -0.087221 0.642024 0.761707
vn 0.097775 0.514265 0.852040
vn 0.268115 0.365040 0.891549
vn 0.000000 0.000000 1.000000
vn 0.000000 0.000000 1.000000
vn 0.000000 0.000000 1.000000
vn 0.049809 0.998734 -0.007068
vn -0.000000 1.000000 0.000001
vn -0.521598 0.145203 0.840745
vn -0.521597 0.145203 0.840745
vn -0.521598 0.145203 0.840745
vn -0.000001 1.000000 0.000001
vn -0.851811 0.030913 0.522936
vn 0.299339 -0.031513 0.953626
vn 0.299339 -0.031513 0.953626
vn 0.299339 -0.031513 0.953626
vn 0.299339 -0.031513 0.953626
vn 0.299339 -0.031513 0.953626
vn 0.207852 0.197492 -0.958016
vn 0.207852 0.197492 -0.958016
vn 0.207852 0.197492 -0.958016
vn 0.207852 0.197492 -0.958016
vn -0.449400 0.168356 -0.877323
vn -0.449400 0.168356 -0.877323
vn -0.449400 0.168356 -0.877323
vn -0.449400 0.168356 -0.877323
vn -0.851178 -0.015125 0.524659
vn -0.851178 -0.015125 0.524659
vn -0.851178 -0.015125 0.524659
vn -0.851178 -0.015125 0.524659
vn -0.851178 -0.015125 0.524659
vn 0.129126 0.991459 -0.018324
vn 0.129126 0.991459 -0.018324
vn 0.207839 0.564205 -0.799046
vn 0.207839 0.564205 -0.799047
vn 0.207839 0.564205 -0.799047
vn -0.454804 0.093236 -0.885697
vn -0.454804 0.093235 -0.885698
vn -0.453963 0.091006 -0.886361
vn -0.454452 0.093200 -0.885882
vn -0.451711 0.091009 -0.887510
vn 0.006948 -0.825779 0.563952
vn 0.006203 -0.882273 0.470697
vn 0.006203 -0.882273 0.470697
vn 0.006948 -0.825789 0.563936
vn -0.379250 -0.783128 -0.492829
vn -0.522691 -0.814997 -0.250149
vn -0.522691 -0.814997 -0.250149
vn -0.380900 -0.783784 -0.490508
vn -0.322548 -0.676071 -0.662489
vn -0.309100 -0.724548 -0.616026
vn -0.309001 -0.724873 -0.615692
vn -0.322548 -0.676071 -0.662489
vn -0.556268 -0.757945 0.340712
vn -0.556268 -0.757945 0.340712
vn -0.556268 -0.757945 0.340712
vn -0.556268 -0.757945 0.340712
vn -0.675964 -0.413533 -0.609970
vn -0.675964 -0.413533 -0.609970
vn -0.675964 -0.413533 -0.609970
vn -0.675964 -0.413533 -0.609970
vn 0.020043 -0.494435 0.868984
vn 0.020043 -0.494435 0.868984
vn 0.020043 -0.494435 0.868984
vn 0.020043 -0.494435 0.868984
vn 0.031079 -0.802998 0.595171
vn 0.032112 -0.803021 0.595085
vn 0.002201 -0.702578 -0.711603
vn -0.022563 -0.660962 -0.750080
vn -0.022563 -0.660962 -0.750080
vn 0.002502 -0.703067 -0.711119
vn 0.032208 -0.749418 -0.661314
vn 0.032208 -0.749418 -0.661314
vn -0.598643 -0.711603 0.367759
vn -0.596290 -0.709975 0.374665
vn -0.596284 -0.709970 0.374683
vn -0.598643 -0.711603 0.367759
vn -0.593411 -0.707960 0.382956
vn -0.593411 -0.707960 0.382956
vn 0.634376 -0.772881 -0.014927
vn 0.658304 -0.752232 0.027971
vn 0.658913 -0.751656 0.029107
vn 0.634376 -0.772881 -0.014927
vn 0.702960 -0.711123 0.012258
vn 0.703203 -0.710896 0.011498
vn 0.707791 -0.706418 -0.002198
vn 0.708596 -0.705598 -0.004893
s 1
g mesh_ConcreteSlab1
f 45/81/1 1/1/2 47/85/3
s 2
f 64/119/4 60/115/5 61/117/6
s 3
f 18/20/7 22/24/8 21/23/9
s 4
f 5/5/10 8/9/11 10/12/12
s off
f 9/10/13 10/12/14 8/9/15
s 3
f 15/17/16 16/18/17 13/15/18 12/14/19 6/3/20
f 20/22/21 21/23/9 19/21/22
s 6
f 16/18/23 17/19/24 14/16/25
s 3
f 18/20/7 21/23/9 20/22/21 23/25/26
s 7
f 18/20/27 74/133/28 7/6/29 22/24/30
s off
f 7/6/31 19/21/32 22/24/33
f 19/21/34 21/23/35 22/24/36
f 63/118/37 64/119/38 61/117/39 62/112/40
f 24/27/41 23/28/42 25/29/43
f 23/30/44 11/31/45 25/32/46
s 3
f 13/15/18 28/34/47 26/111/48
f 29/35/49 13/15/18 31/36/50
f 14/16/51 23/25/26 13/15/18 16/18/17
f 18/20/7 23/25/26 14/16/51
f 23/25/26 20/22/21 11/13/52
s off
f 69/127/53 68/126/54 43/67/55
f 13/38/56 29/39/57 34/40/58
f 28/41/59 13/42/60 34/43/61
f 27/44/62 26/45/63 34/46/64
f 26/47/65 28/48/66 34/49/67
f 29/53/68 31/54/69 33/55/70 34/56/71
f 71/130/72 72/131/73 73/132/74 70/128/75
s 3
f 27/33/76 36/59/77 65/120/78
s 2
f 66/121/79 37/60/80 38/113/81
s 3
f 46/83/82 49/87/83 45/80/84 48/86/85
s 13
f 46/82/86 1/8/87 42/66/88 41/64/89
s 14
f 9/10/90 5/5/91 10/12/92
s 3
f 8/9/93 12/14/19 9/11/94
f 9/11/94 12/14/19 39/61/95 40/63/96
s 4
f 8/9/11 5/5/10 4/107/97 6/3/98
s 3
f 6/3/20 12/14/19 8/9/93
s 14
f 40/62/99 42/66/100 5/5/91 9/10/90
s 3
f 12/14/19 13/15/18 39/61/95
f 31/36/50 13/15/18 23/25/26
f 43/67/101 31/36/50 23/25/26 24/26/102
s 15
f 30/109/103 43/67/104 24/26/105 25/110/106
s 16
f 25/110/107 11/13/108 20/22/109 7/6/110
f 7/6/110 20/22/109 19/21/111
s off
f 40/68/112 39/69/113 44/70/114
f 39/71/115 41/72/116 44/73/117
f 41/74/118 42/75/119 44/76/120
f 42/77/121 40/78/122 44/79/123
s 1
f 49/90/124 57/96/125 1/1/2 45/81/1
s off
f 46/83/126 48/86/127 2/4/128
f 47/84/129 46/82/130 2/7/131
f 45/81/132 47/85/133 2/2/134
f 2/4/135 48/86/136 45/80/137
s 3
f 41/65/138 39/61/95 49/87/83 46/83/82
s 13
f 1/8/87 46/82/86 47/84/139
s 3
f 53/92/140 49/87/83 39/61/95
f 53/92/140 39/61/95 13/15/18 52/91/141
f 52/91/141 13/15/18 54/93/142 51/88/143
s 1
f 56/95/144 57/96/125 49/90/124
f 51/89/145 58/97/146 57/96/125 56/95/144
f 55/94/147 58/97/146 51/89/145
f 50/114/148 58/97/146 55/94/147
f 63/118/149 59/116/150 58/97/146 50/114/148
s 17
f 51/88/151 54/93/152 55/94/153
s 6
f 15/17/154 17/19/24 16/18/23
s 17
f 55/94/153 54/93/152 50/114/155
s off
f 52/98/156 51/99/157 56/100/158
f 53/101/159 52/102/160 56/103/161
f 49/104/162 53/105/163 56/106/164
f 60/115/165 59/116/166 62/112/167 61/117/168
s 3
f 54/93/142 13/15/18 63/118/169 50/114/170
f 26/111/48 38/113/171 64/119/172 63/118/169 13/15/18
s 1
f 62/112/173 59/116/150 63/118/149
s 2
f 38/113/81 37/60/80 60/115/5 64/119/4
s 18
f 38/113/174 65/120/175 66/121/176
f 66/121/176 65/120/175 36/59/177
s 2
f 36/59/178 37/60/80 66/121/79
s 3
f 27/33/76 65/120/78 38/113/171 26/111/48
s 2
f 67/122/179 3/58/180 37/60/80 36/59/178
s 3
f 27/33/76 35/57/181 67/122/182 36/59/77
s off
f 67/123/183 35/124/184 3/125/185
s 3
f 31/36/50 43/67/101 68/126/186
s 15
f 30/109/103 69/127/187 43/67/104
s off
f 31/36/188 68/126/189 69/127/190 30/109/191 33/37/192
f 70/129/193 27/50/194 34/51/195 33/52/196
f 71/130/197 70/128/198 33/37/199 32/108/200
f 3/58/201 35/57/202 72/131/203 71/130/204 32/108/205
s 3
f 27/33/76 73/132/206 72/131/207 35/57/181
s off
f 70/128/208 73/132/209 27/50/210
s 7
f 4/107/211 15/17/212 6/3/213
f 15/17/212 4/107/211 74/133/28 17/19/214
f 17/19/214 74/133/28 14/16/215
f 14/16/215 74/133/28 18/20/27
s 20
f 37/134/216 3/135/217 75/136/218 76/137/219
s 21
f 4/138/220 5/139/221 78/140/222 77/141/223
f 7/142/224 74/143/225 80/144/226 79/145/227
s off
f 3/146/228 32/147/229 81/148/230 75/149/231
f 32/150/232 33/151/233 82/152/234 81/153/235
f 33/154/236 30/155/237 83/156/238 82/157/239
s 20
f 60/158/240 37/159/216 76/160/219 84/161/241
s 22
f 42/162/242 1/163/243 86/164/244 85/165/245
f 5/166/246 42/167/242 85/168/245 78/169/247
s 23
f 30/170/248 25/171/249 87/172/250 83/173/251
f 25/174/249 7/175/252 79/176/253 87/177/250
s 20
f 1/178/254 57/179/255 88/180/256 86/181/257
f 57/182/255 58/183/258 89/184/259 88/185/256
f 58/186/258 59/187/260 90/188/261 89/189/259
f 59/190/260 60/191/240 84/192/241 90/193/261
s 21
f 74/194/225 4/195/220 77/196/223 80/197/226
