# This file uses centimeters as units for non-parametric coordinates.

mtllib mesh_ModBuilding_WallPlain.mtl
g default
v 2.584826 0.000000 -0.881859
v 2.584826 0.540119 -0.881859
v 2.584826 0.820614 -1.003522
v 2.584826 0.820614 -1.078747
v 4.644207 0.540119 -0.881859
v 4.644207 0.820614 -1.078747
v 4.644207 0.820614 -1.003522
v 4.644207 0.000000 -0.881859
v 2.584826 2.380565 -1.078747
v 4.644207 2.380565 -1.078747
v 2.584826 2.380565 -0.962219
v 4.644207 2.380565 -0.962219
v 2.584826 2.574254 -0.962219
v 4.644207 2.574254 -0.962219
vt 0.625000 0.000000
vt 0.625000 0.250000
vt 0.625000 0.250000
vt 0.639063 0.283282
vt 0.639063 0.283282
vt 0.625000 0.250000
vt 0.625000 0.250000
vt 0.625000 0.000000
vt 0.000000 0.000000
vt 1.000000 0.000000
vt 1.000000 1.000000
vt 0.000000 1.000000
vt 0.000000 0.000000
vt 1.000000 0.000000
vt 1.000000 1.000000
vt 0.000000 1.000000
vt 0.000000 0.000000
vt 1.000000 0.000000
vt 1.000000 1.000000
vt 0.000000 1.000000
vn 0.000000 1.000000 0.000000
vn 0.000000 1.000000 0.000000
vn 0.000000 1.000000 0.000000
vn 0.000000 1.000000 0.000000
vn 0.000000 0.397925 0.917418
vn 0.000000 0.397925 0.917418
vn 0.000000 0.397925 0.917418
vn 0.000000 0.397925 0.917418
vn 0.000000 0.000000 1.000000
vn 0.000000 0.000000 1.000000
vn 0.000000 0.000000 1.000000
vn 0.000000 0.000000 1.000000
vn 0.000000 0.000000 1.000000
vn 0.000000 0.000000 1.000000
vn 0.000000 0.000000 1.000000
vn 0.000000 0.000000 1.000000
vn 0.000000 -1.000000 0.000000
vn 0.000000 -1.000000 0.000000
vn 0.000000 -1.000000 0.000000
vn 0.000000 -1.000000 0.000000
vn 0.000000 0.000000 1.000000
vn 0.000000 0.000000 1.000000
vn 0.000000 0.000000 1.000000
vn 0.000000 0.000000 1.000000
s off
g mesh_ModBuilding_WallPlain
usemtl initialShadingGroup
f 4/4/1 3/3/2 7/6/3 6/5/4
f 3/3/5 2/2/6 5/7/7 7/6/8
f 2/2/9 1/1/10 8/8/11 5/7/12
f 4/9/13 6/10/14 10/11/15 9/12/16
f 9/13/17 10/14/18 12/15/19 11/16/20
f 11/17/21 12/18/22 14/19/23 13/20/24
