# This file uses centimeters as units for non-parametric coordinates.

mtllib mesh_CardboardBoxSmall.mtl
g default
v -4.460587 0.002839 7.510078
v -4.307281 0.002839 7.521852
v -4.153961 0.002839 7.521852
v -4.000671 0.002839 7.510078
v -4.464996 0.137289 7.505030
v -4.315186 0.143803 7.503695
v -4.165405 0.150318 7.503695
v -4.015594 0.156832 7.505030
v -4.460587 0.296974 7.510078
v -4.307281 0.296974 7.495636
v -4.153961 0.296974 7.495636
v -4.000671 0.296974 7.510078
v -4.460587 0.300957 7.352253
v -4.000671 0.296974 7.356770
v -4.460587 0.292759 7.199164
v -4.000671 0.296974 7.203461
v -4.460587 0.296974 7.050152
v -4.307281 0.296974 7.050152
v -4.153961 0.296974 7.050152
v -4.000671 0.296974 7.050152
v -4.464996 0.137289 7.055199
v -4.315186 0.154720 7.043657
v -4.165405 0.161211 7.043268
v -4.006012 0.156832 7.055199
v -4.460587 0.002839 7.050152
v -4.307281 0.003145 7.046589
v -4.153961 0.003145 7.046589
v -4.000671 0.002839 7.050152
v -4.486023 0.002894 7.203461
v -4.307281 0.010876 7.203461
v -4.153961 0.010876 7.203461
v -3.992645 0.008077 7.198388
v -4.486023 0.002894 7.356770
v -4.307281 0.010876 7.356770
v -4.153961 0.010876 7.356770
v -3.992645 -0.002052 7.351362
v -4.011566 0.152988 7.207843
v -4.011566 0.148035 7.357624
v -4.480026 0.135316 7.207401
v -4.480026 0.139324 7.357237
v -4.440689 0.284946 7.485538
v -4.300644 0.296967 7.476984
v -4.440689 0.288582 7.344555
v -4.160614 0.296967 7.476984
v -4.025330 0.291191 7.490177
v -4.025330 0.291191 7.350136
v -4.440689 0.281094 7.207803
v -4.025330 0.291191 7.210094
v -4.300644 0.296967 7.070055
v -4.440689 0.284946 7.074690
v -4.160614 0.296967 7.070055
v -4.025330 0.291191 7.070055
v -4.440689 0.062889 7.490177
v -4.230621 0.026999 7.476984
v -4.230621 0.026999 7.280115
v -4.440689 0.026891 7.276090
v -4.020569 0.062889 7.490177
v -4.020569 0.026999 7.280115
v -4.230621 0.026999 7.070055
v -4.440689 0.062889 7.070055
v -4.020569 0.062889 7.070055
v -4.381546 0.514996 7.510078
v -4.380875 0.518917 7.352253
v -4.361938 0.511585 7.490177
v -4.361328 0.515171 7.346010
v -4.383255 0.521732 7.199164
v -4.363586 0.518684 7.206170
v -4.381546 0.514996 7.050152
v -4.361938 0.511585 7.070055
v -4.216248 0.349689 7.510078
v -4.221893 0.349689 7.356770
v -4.230072 0.331543 7.350136
v -4.224426 0.331543 7.490177
v -4.221893 0.349689 7.203461
v -4.230072 0.331543 7.210094
v -4.216248 0.349689 7.050152
v -4.224426 0.331543 7.070055
vt 0.814794 0.814849
vt 0.815144 0.756509
vt 0.814801 0.698877
vt 0.811846 0.642098
vt 0.866425 0.817064
vt 0.869672 0.759191
vt 0.871750 0.701157
vt 0.872384 0.642089
vt 0.609319 0.338825
vt 0.928735 0.756425
vt 0.928147 0.696821
vt 0.003906 0.003906
vt 0.003906 0.003906
vt 0.518638 0.512420
vt 0.003906 0.003906
vt 0.003906 0.003906
vt 0.003906 0.003906
vt 0.003906 0.003906
vt 0.472423 0.985923
vt 0.413126 0.987204
vt 0.003906 0.003906
vt 0.531758 0.922504
vt 0.474093 0.931012
vt 0.416500 0.934863
vt 0.354895 0.934267
vt 0.528412 0.870581
vt 0.469553 0.872878
vt 0.410788 0.874213
vt 0.351878 0.874749
vt 0.537064 0.811198
vt 0.468250 0.812508
vt 0.409232 0.813885
vt 0.347225 0.817604
vt 0.535790 0.752081
vt 0.466903 0.753561
vt 0.407870 0.754925
vt 0.345611 0.758516
vt 0.524638 0.693242
vt 0.465471 0.689967
vt 0.406388 0.691337
vt 0.347444 0.697299
vt 0.807808 0.466480
vt 0.811050 0.523552
vt 0.808839 0.582201
vt 0.867254 0.526085
vt 0.867199 0.584123
vt 0.867039 0.467188
vt 0.920853 0.463496
vt 0.922577 0.522411
vt 0.924047 0.581028
vt 0.813381 0.993090
vt 0.813421 0.933262
vt 0.813957 0.874295
vt 0.864412 0.932029
vt 0.866409 0.874366
vt 0.865157 0.990899
vt 0.926629 0.993234
vt 0.925380 0.935831
vt 0.928972 0.876850
vt 0.596443 0.340737
vt 0.693279 0.483773
vt 0.541958 0.338620
vt 0.693400 0.540113
vt 0.003906 0.003906
vt 0.003906 0.003906
vt 0.488151 0.342068
vt 0.003906 0.003906
vt 0.340905 0.484057
vt 0.436575 0.342516
vt 0.340909 0.540757
vt 0.003906 0.003906
vt 0.599160 0.429442
vt 0.592430 0.512199
vt 0.516314 0.435217
vt 0.599476 0.594867
vt 0.518032 0.589775
vt 0.440765 0.512452
vt 0.436088 0.430869
vt 0.436163 0.593964
vt 0.543455 0.238943
vt 0.607859 0.248727
vt 0.597064 0.247481
vt 0.541057 0.246613
vt 0.483645 0.238661
vt 0.486543 0.246255
vt 0.425998 0.242082
vt 0.433937 0.249456
vt 0.003906 0.003906
vt 0.003906 0.003906
vt 0.003906 0.003906
vt 0.003906 0.003906
vt 0.003906 0.003906
vt 0.003906 0.003906
vt 0.003906 0.003906
vt 0.003906 0.003906
vt 0.003906 0.003906
vt 0.423169 0.250942
vt 0.003906 0.003906
vt 0.531566 0.984129
vt 0.423662 0.340902
vt 0.003906 0.003906
vt 0.003906 0.003906
vt 0.604848 0.239920
vt 0.927724 0.815962
vt 0.003906 0.003906
vt 0.433862 0.683697
vt 0.346082 0.593589
vt 0.363658 0.996094
vt 0.524214 0.994874
vt 0.348618 0.429363
vt 0.934737 0.648138
vt 0.689078 0.593280
vt 0.600191 0.685017
vt 0.686220 0.428917
vt 0.937655 0.807810
vt 0.415861 0.994804
vt 0.488636 0.687197
vt 0.353990 0.988292
vt 0.469984 0.993631
vt 0.545412 0.687611
vt 0.935248 0.699668
vt 0.927575 0.638252
vt 0.935774 0.753597
vn -0.036062 0.082308 0.995954
vn -0.018314 0.104914 0.994313
vn 0.005132 0.064962 0.997875
vn 0.009434 0.043705 0.999000
vn -0.018314 0.104914 0.994313
vn 0.016130 0.100688 0.994787
vn -0.004535 0.069557 0.997568
vn 0.005132 0.064962 0.997875
vn 0.016130 0.100688 0.994787
vn 0.032596 0.079543 0.996298
vn -0.009908 0.047455 0.998824
vn -0.004535 0.069557 0.997568
vn 0.009434 0.043705 0.999000
vn 0.005132 0.064962 0.997875
vn 0.025010 0.030979 0.999207
vn 0.051827 0.007568 0.998627
vn 0.005132 0.064962 0.997875
vn -0.004535 0.069557 0.997568
vn -0.027394 0.034053 0.999045
vn 0.025010 0.030979 0.999207
vn -0.004535 0.069557 0.997568
vn -0.009908 0.047455 0.998824
vn -0.052312 0.015286 0.998514
vn -0.027394 0.034053 0.999045
vn 0.082658 0.992777 -0.086963
vn 0.000706 0.996159 -0.087558
vn -0.000137 1.000000 -0.000531
vn 0.083518 0.996506 0.001043
vn 0.000706 0.996159 -0.087558
vn -0.082060 0.992774 -0.087560
vn -0.083769 0.996485 0.000000
vn -0.000137 1.000000 -0.000531
vn 0.083518 0.996506 0.001043
vn -0.000137 1.000000 -0.000531
vn -0.000948 0.996325 0.085652
vn 0.083733 0.992780 0.085888
vn -0.000137 1.000000 -0.000531
vn -0.083769 0.996485 0.000000
vn -0.084811 0.992781 0.084811
vn -0.000948 0.996325 0.085652
vn -0.038413 0.006343 -0.999242
vn -0.020468 0.027176 -0.999421
vn -0.023330 0.008389 -0.999693
vn -0.044527 0.005765 -0.998992
vn -0.020468 0.027176 -0.999421
vn 0.019281 0.024827 -0.999506
vn 0.020533 0.009861 -0.999741
vn -0.023330 0.008389 -0.999693
vn 0.019281 0.024827 -0.999506
vn 0.038187 0.004319 -0.999261
vn 0.044335 0.006406 -0.998996
vn 0.020533 0.009861 -0.999741
vn -0.044527 0.005765 -0.998992
vn -0.023330 0.008389 -0.999693
vn -0.023727 -0.008404 -0.999683
vn -0.050070 0.005241 -0.998732
vn -0.023330 0.008389 -0.999693
vn 0.020533 0.009861 -0.999741
vn 0.026040 -0.005092 -0.999648
vn -0.023727 -0.008404 -0.999683
vn 0.020533 0.009861 -0.999741
vn 0.044335 0.006406 -0.998996
vn 0.049604 0.008195 -0.998735
vn 0.026040 -0.005092 -0.999648
vn 0.025235 -0.999313 0.027154
vn 0.012948 -0.999197 0.037907
vn 0.018598 -0.999652 0.018706
vn 0.035769 -0.999283 0.012402
vn 0.012948 -0.999197 0.037907
vn -0.004787 -0.998930 0.045999
vn -0.015399 -0.999782 0.014095
vn 0.018598 -0.999652 0.018706
vn -0.004787 -0.998930 0.045999
vn -0.009657 -0.999041 0.042718
vn -0.029966 -0.999541 0.004396
vn -0.015399 -0.999782 0.014095
vn 0.035769 -0.999283 0.012402
vn 0.018598 -0.999652 0.018706
vn 0.018348 -0.999650 -0.019048
vn 0.035541 -0.999288 -0.012677
vn 0.018598 -0.999652 0.018706
vn -0.015399 -0.999782 0.014095
vn -0.023087 -0.999461 -0.023347
vn 0.018348 -0.999650 -0.019048
vn -0.015399 -0.999782 0.014095
vn -0.029966 -0.999541 0.004396
vn -0.045781 -0.998706 -0.022132
vn -0.023087 -0.999461 -0.023347
vn 0.035541 -0.999288 -0.012677
vn 0.018348 -0.999650 -0.019048
vn 0.012437 -0.999198 -0.038070
vn 0.024994 -0.999312 -0.027396
vn 0.018348 -0.999650 -0.019048
vn -0.023087 -0.999461 -0.023347
vn -0.020357 -0.999339 -0.030124
vn 0.012437 -0.999198 -0.038070
vn -0.023087 -0.999461 -0.023347
vn -0.045781 -0.998706 -0.022132
vn -0.041638 -0.999075 -0.010739
vn -0.020357 -0.999339 -0.030124
vn 0.994622 0.103566 -0.001264
vn 0.996651 0.081339 -0.008443
vn 0.999911 0.012524 0.004529
vn 0.999788 0.020313 0.003376
vn 0.992718 0.118756 0.020223
vn 0.994622 0.103566 -0.001264
vn 0.999788 0.020313 0.003376
vn 0.999618 0.023545 0.014509
vn 0.993293 0.110487 0.034091
vn 0.992718 0.118756 0.020223
vn 0.999618 0.023545 0.014509
vn 0.999631 0.010431 0.025097
vn 0.999788 0.020313 0.003376
vn 0.999911 0.012524 0.004529
vn 0.998248 -0.056517 0.017510
vn 0.997827 -0.065370 0.008225
vn 0.999618 0.023545 0.014509
vn 0.999788 0.020313 0.003376
vn 0.997827 -0.065370 0.008225
vn 0.996629 -0.081717 0.007222
vn 0.999631 0.010431 0.025097
vn 0.999618 0.023545 0.014509
vn 0.996629 -0.081717 0.007222
vn 0.995881 -0.089268 0.015891
vn -0.991299 0.010331 -0.131222
vn -0.997355 0.027153 -0.067422
vn -0.996898 0.065282 -0.043973
vn -0.995276 0.044222 -0.086428
vn -0.997355 0.027153 -0.067422
vn -0.997438 0.026383 0.066487
vn -0.996942 0.065188 0.043106
vn -0.996898 0.065282 -0.043973
vn -0.997438 0.026383 0.066487
vn -0.991052 0.008076 0.133231
vn -0.995105 0.043664 0.088658
vn -0.996942 0.065188 0.043106
vn -0.995276 0.044222 -0.086428
vn -0.996898 0.065282 -0.043973
vn -0.994972 0.096474 -0.026889
vn -0.996176 0.072864 -0.048213
vn -0.996898 0.065282 -0.043973
vn -0.996942 0.065188 0.043106
vn -0.994978 0.097496 0.022653
vn -0.994972 0.096474 -0.026889
vn -0.996942 0.065188 0.043106
vn -0.995105 0.043664 0.088658
vn -0.995990 0.073885 0.050439
vn -0.994978 0.097496 0.022653
vn -0.062759 0.950735 -0.303586
vn -0.062759 0.950735 -0.303586
vn -0.062759 0.950735 -0.303586
vn -0.062759 0.950735 -0.303586
vn 0.196038 0.980272 0.025205
vn 0.196038 0.980272 0.025205
vn 0.196038 0.980272 0.025205
vn 0.196038 0.980272 0.025205
vn 0.000000 1.000000 -0.000549
vn 0.000000 1.000000 -0.000549
vn 0.000000 1.000000 -0.000549
vn 0.000000 1.000000 -0.000549
vn 0.036694 0.983411 -0.177638
vn 0.036694 0.983412 -0.177638
vn 0.036694 0.983412 -0.177638
vn 0.036694 0.983411 -0.177638
vn -0.920540 0.389042 0.035403
vn -0.920540 0.389042 0.035403
vn -0.920540 0.389042 0.035403
vn -0.920540 0.389042 0.035403
vn 0.170435 0.985194 0.018590
vn 0.170435 0.985194 0.018590
vn 0.170435 0.985194 0.018590
vn 0.170435 0.985194 0.018590
vn -0.911663 0.410940 0.000000
vn -0.911663 0.410940 0.000000
vn -0.911663 0.410940 0.000000
vn -0.911663 0.410940 0.000000
vn -0.034863 0.959169 0.280675
vn -0.034863 0.959169 0.280675
vn -0.034863 0.959169 0.280675
vn -0.034863 0.959169 0.280675
vn 0.192257 0.980298 -0.045315
vn 0.192257 0.980298 -0.045315
vn 0.192257 0.980298 -0.045315
vn 0.192257 0.980298 -0.045315
vn 0.000000 1.000000 0.000516
vn 0.000000 1.000000 0.000516
vn 0.000000 1.000000 0.000516
vn 0.000000 1.000000 0.000516
vn -0.920538 0.389046 -0.035403
vn -0.920538 0.389046 -0.035403
vn -0.920538 0.389046 -0.035403
vn -0.920538 0.389046 -0.035403
vn 0.019753 0.987039 0.159260
vn 0.019753 0.987039 0.159260
vn 0.019753 0.987039 0.159260
vn 0.019753 0.987039 0.159260
vn -0.063245 -0.018408 -0.997828
vn -0.063245 -0.018408 -0.997828
vn -0.063245 -0.018408 -0.997828
vn -0.063245 -0.018408 -0.997828
vn 1.000000 0.000000 0.000000
vn 1.000000 0.000000 0.000000
vn 1.000000 0.000000 0.000000
vn 1.000000 0.000000 0.000000
vn 0.000000 0.000000 -1.000000
vn 0.000000 0.000000 -1.000000
vn 0.000000 0.000000 -1.000000
vn 0.077066 -0.010091 -0.996975
vn 0.077066 -0.010091 -0.996975
vn 0.077066 -0.010091 -0.996975
vn 0.077066 -0.010091 -0.996975
vn -0.999804 -0.019692 0.002019
vn -0.999804 -0.019692 0.002019
vn -0.999804 -0.019692 0.002019
vn -0.999804 -0.019692 0.002019
vn 1.000000 -0.000000 0.000000
vn 1.000000 -0.000000 0.000000
vn 1.000000 -0.000000 0.000000
vn -0.999836 -0.018088 0.000000
vn -0.999836 -0.018088 0.000000
vn -0.999837 -0.018088 0.000000
vn 0.012728 -0.007615 0.999890
vn 0.012728 -0.007615 0.999890
vn 0.012728 -0.007615 0.999890
vn 0.012728 -0.007615 0.999890
vn 1.000000 0.000000 0.000000
vn 1.000000 0.000000 0.000000
vn 1.000000 0.000000 0.000000
vn 1.000000 0.000000 0.000000
vn 0.000000 0.000000 1.000000
vn 0.000000 0.000000 1.000000
vn 0.000000 0.000000 1.000000
vn -0.999804 -0.019692 -0.002019
vn -0.999804 -0.019692 -0.002019
vn -0.999804 -0.019692 -0.002019
vn -0.999804 -0.019692 -0.002019
vn 0.000000 0.000000 1.000000
vn 0.000000 0.000000 1.000000
vn 0.000000 0.000000 1.000000
vn 0.000000 0.000000 1.000000
vn -0.939627 0.342139 0.006542
vn -0.939627 0.342139 0.006542
vn -0.939627 0.342139 0.006542
vn -0.939627 0.342139 0.006542
vn 0.679516 -0.248311 0.690362
vn 0.679516 -0.248311 0.690362
vn 0.679516 -0.248311 0.690362
vn 0.679516 -0.248311 0.690362
vn 0.944207 -0.329293 -0.006280
vn 0.944207 -0.329293 -0.006280
vn 0.944207 -0.329293 -0.006280
vn 0.944207 -0.329293 -0.006280
vn -0.943445 0.331527 0.001500
vn -0.943445 0.331527 0.001500
vn -0.943445 0.331527 0.001500
vn -0.943445 0.331527 0.001500
vn 0.947606 -0.319427 -0.003142
vn 0.947606 -0.319427 -0.003142
vn 0.947606 -0.319427 -0.003142
vn 0.947606 -0.319427 -0.003142
vn -0.943876 0.330199 -0.008170
vn -0.943876 0.330199 -0.008170
vn -0.943876 0.330199 -0.008170
vn -0.943876 0.330199 -0.008170
vn 0.948000 -0.318125 0.009594
vn 0.948000 -0.318125 0.009594
vn 0.948000 -0.318125 0.009594
vn 0.948000 -0.318125 0.009594
vn 0.679516 -0.248310 -0.690362
vn 0.679516 -0.248310 -0.690362
vn 0.679516 -0.248310 -0.690362
vn 0.679516 -0.248311 -0.690362
vn 0.234604 0.972081 -0.004316
vn 0.234604 0.972081 -0.004316
vn 0.234604 0.972081 -0.004316
vn 0.234604 0.972081 -0.004316
vn -0.195983 -0.980600 0.003947
vn -0.195983 -0.980600 0.003947
vn -0.195983 -0.980600 0.003947
vn -0.195983 -0.980600 0.003947
vn -0.173725 -0.774084 0.608781
vn -0.173725 -0.774084 0.608781
vn -0.173725 -0.774083 0.608781
vn -0.173725 -0.774084 0.608781
vn 0.231777 0.972769 0.000000
vn 0.231777 0.972769 0.000000
vn 0.231777 0.972769 0.000000
vn 0.231777 0.972769 0.000000
vn -0.193386 -0.981123 0.000000
vn -0.193386 -0.981123 0.000000
vn -0.193386 -0.981123 0.000000
vn -0.193386 -0.981123 0.000000
vn 0.234604 0.972081 0.004316
vn 0.234604 0.972081 0.004316
vn 0.234604 0.972081 0.004316
vn 0.234604 0.972081 0.004316
vn -0.173725 -0.774083 -0.608781
vn -0.173725 -0.774084 -0.608781
vn -0.173725 -0.774084 -0.608781
vn -0.173725 -0.774084 -0.608781
vn -0.195983 -0.980600 -0.003947
vn -0.195983 -0.980600 -0.003947
vn -0.195983 -0.980600 -0.003947
vn -0.195983 -0.980600 -0.003947
s off
g mesh_CardboardBoxSmall
usemtl mesh_CardboardBoxSmallSG
f 1/1/1 2/2/2 6/6/3 5/5/4
f 2/2/5 3/3/6 7/7/7 6/6/8
f 3/3/9 4/4/10 8/8/11 7/7/12
f 5/5/13 6/6/14 10/10/15 9/104/16
f 6/6/17 7/7/18 11/11/19 10/10/20
f 7/7/21 8/8/22 12/122/23 11/11/24
f 53/72/25 54/73/26 55/14/27 56/74/28
f 54/73/29 57/75/30 58/76/31 55/14/32
f 56/74/33 55/14/34 59/77/35 60/78/36
f 55/14/37 58/76/38 61/79/39 59/77/40
f 17/99/41 18/19/42 22/23/43 21/22/44
f 18/19/45 19/20/46 23/24/47 22/23/48
f 19/20/49 20/118/50 24/25/51 23/24/52
f 21/22/53 22/23/54 26/27/55 25/26/56
f 22/23/57 23/24/58 27/28/59 26/27/60
f 23/24/61 24/25/62 28/29/63 27/28/64
f 25/26/65 26/27/66 30/31/67 29/30/68
f 26/27/69 27/28/70 31/32/71 30/31/72
f 27/28/73 28/29/74 32/33/75 31/32/76
f 29/30/77 30/31/78 34/35/79 33/34/80
f 30/31/81 31/32/82 35/36/83 34/35/84
f 31/32/85 32/33/86 36/37/87 35/36/88
f 33/34/89 34/35/90 2/39/91 1/38/92
f 34/35/93 35/36/94 3/40/95 2/39/96
f 35/36/97 36/37/98 4/41/99 3/40/100
f 32/43/101 28/42/102 24/47/103 37/45/104
f 36/44/105 32/43/106 37/45/107 38/46/108
f 4/4/109 36/44/110 38/46/111 8/8/112
f 37/45/113 24/47/114 20/48/115 16/49/116
f 38/46/117 37/45/118 16/49/119 14/50/120
f 8/8/121 38/46/122 14/50/123 12/122/124
f 25/51/125 29/52/126 39/54/127 21/56/128
f 29/52/129 33/53/130 40/55/131 39/54/132
f 33/53/133 1/1/134 5/5/135 40/55/136
f 21/56/137 39/54/138 15/58/139 17/57/140
f 39/54/141 40/55/142 13/59/143 15/58/144
f 40/55/145 5/5/146 9/104/147 13/59/148
f 9/104/149 10/10/150 42/123/151 41/115/152
f 63/80/153 62/103/154 64/82/155 65/83/156
f 10/10/157 11/11/158 44/121/159 42/123/160
f 11/11/161 12/122/162 45/111/163 44/121/164
f 70/88/165 71/89/166 72/90/167 73/91/168
f 66/84/169 63/80/170 65/83/171 67/85/172
f 71/89/173 74/92/174 75/93/175 72/90/176
f 18/19/177 17/99/178 50/109/179 49/119/180
f 68/86/181 66/84/182 67/85/183 69/87/184
f 19/20/185 18/19/186 49/119/187 51/116/188
f 74/92/189 76/94/190 77/95/191 75/93/192
f 20/118/193 19/20/194 51/116/195 52/108/196
f 41/114/197 42/61/198 54/73/199 53/72/200
f 43/62/201 41/60/202 53/72/203 56/74/204
f 42/61/205 44/63/206 54/73/207
f 44/63/208 45/112/209 57/75/210 54/73/211
f 45/113/212 46/120/213 58/76/214 57/75/215
f 47/66/216 43/62/217 56/74/218
f 46/120/219 48/117/220 58/76/221
f 49/68/222 50/110/223 60/78/224 59/77/225
f 50/69/226 47/66/227 56/74/228 60/78/229
f 51/70/230 49/68/231 59/77/232
f 48/117/233 52/106/234 61/79/235 58/76/236
f 52/107/237 51/70/238 59/77/239 61/79/240
f 13/13/241 9/105/242 62/102/243 63/101/244
f 9/9/245 41/60/246 64/82/247 62/81/248
f 41/60/249 43/62/250 65/83/251 64/82/252
f 15/16/253 13/13/254 63/101/255 66/98/256
f 43/62/257 47/66/258 67/85/259 65/83/260
f 17/18/261 15/16/262 66/98/263 68/96/264
f 47/66/265 50/69/266 69/87/267 67/85/268
f 50/69/269 17/100/270 68/97/271 69/87/272
f 12/12/273 14/15/274 71/89/275 70/88/276
f 46/65/277 45/64/278 73/91/279 72/90/280
f 45/64/281 12/12/282 70/88/283 73/91/284
f 14/15/285 16/17/286 74/92/287 71/89/288
f 48/67/289 46/65/290 72/90/291 75/93/292
f 16/17/293 20/21/294 76/94/295 74/92/296
f 20/21/297 52/71/298 77/95/299 76/94/300
f 52/71/301 48/67/302 75/93/303 77/95/304
