# This file uses centimeters as units for non-parametric coordinates.

mtllib mesh_ModBuilding_WallDoor.mtl
g default
v 4.855958 0.000000 -0.881859
v 4.855958 0.540119 -0.881859
v 4.855958 0.820614 -1.003522
v 4.855958 0.820614 -1.078747
v 6.915339 0.540119 -0.881859
v 6.915339 0.820614 -1.078747
v 6.915339 0.820614 -1.003522
v 6.915339 0.000000 -0.881859
v 4.855958 2.380565 -1.078747
v 6.915339 2.380565 -1.078747
v 4.855958 2.380565 -0.962219
v 6.915339 2.380565 -0.962219
v 4.855958 2.574254 -0.962219
v 6.915339 2.574254 -0.962219
v 5.326220 0.000000 -0.881859
v 5.326220 0.540119 -0.881859
v 5.326220 0.820614 -1.003522
v 5.326220 0.820614 -1.079626
v 5.326220 2.380565 -1.078747
v 5.326220 2.380565 -0.962219
v 5.326220 2.574254 -0.962219
v 6.494961 0.000000 -0.881859
v 6.494961 0.540119 -0.881859
v 6.494961 0.820614 -1.003522
v 6.494961 0.820614 -1.079626
v 6.494961 2.380565 -1.078747
v 6.494961 2.380565 -0.962219
v 6.494961 2.574254 -0.962219
v 6.915339 2.162197 -1.078747
v 6.494961 2.162197 -1.078747
v 5.326220 2.162197 -1.078747
v 4.855958 2.162197 -1.078747
v 5.326220 0.000000 -1.080504
v 6.494961 0.000000 -1.080504
v 5.476995 0.000000 -1.080504
v 5.476995 2.023725 -1.078747
v 6.344186 0.000000 -1.080504
v 6.344186 2.023725 -1.078747
v 5.354259 -0.000000 -1.012956
v 5.354248 2.134135 -1.011220
v 5.448957 -0.000000 -1.012956
v 5.448946 2.051740 -1.011238
v 6.466923 -0.000000 -1.012956
v 6.466933 2.134135 -1.011220
v 6.372235 2.051740 -1.011238
v 6.372224 -0.000000 -1.012956
v 5.354255 0.820983 -1.012288
v 5.448953 0.821280 -1.012268
v 5.476995 0.821975 -1.079791
v 6.344186 1.556611 -1.079150
v 6.372232 1.556611 -1.011654
v 6.466931 1.556611 -1.011692
v 6.494961 1.556611 -1.079142
v 6.915339 1.556611 -1.078747
v 5.691060 0.821975 -1.079790
v 6.056382 1.556611 -1.079150
v 5.533072 0.878015 -1.037075
v 5.533072 1.967611 -1.036128
v 5.656318 0.878015 -1.037074
v 6.021641 1.612651 -1.036434
v 6.288108 1.612651 -1.036435
v 6.288108 1.967611 -1.036129
v 6.091124 1.500497 -1.036532
v 6.288108 1.500497 -1.036532
v 5.725801 0.765861 -1.037171
v 5.533072 0.765861 -1.037173
v 5.533072 0.056040 -1.037788
v 6.288108 0.056040 -1.037788
vt 0.625000 0.000000
vt 0.625000 0.250000
vt 0.625000 0.250000
vt 0.639063 0.283282
vt 0.639063 0.283282
vt 0.625000 0.250000
vt 0.625000 0.250000
vt 0.625000 0.000000
vt 0.000000 0.000000
vt 1.000000 0.000000
vt 1.000000 1.000000
vt 0.000000 1.000000
vt 0.000000 0.000000
vt 1.000000 0.000000
vt 1.000000 1.000000
vt 0.000000 1.000000
vt 0.000000 0.000000
vt 1.000000 0.000000
vt 1.000000 1.000000
vt 0.000000 1.000000
vt 0.625000 0.000000
vt 0.625000 0.250000
vt 0.625000 0.250000
vt 0.228351 0.000000
vt 0.639063 0.283282
vt 0.228351 0.000000
vt 0.228351 1.000000
vt 0.228351 0.000000
vt 0.228351 1.000000
vt 0.228351 1.000000
vt 0.625000 0.000000
vt 0.625000 0.250000
vt 0.625000 0.250000
vt 0.795872 0.000000
vt 0.639063 0.283282
vt 0.795872 0.000000
vt 0.795872 1.000000
vt 0.795872 0.000000
vt 0.795872 1.000000
vt 0.795872 1.000000
vt 1.000000 0.860016
vt 0.795872 0.860016
vt 0.228351 0.860016
vt 0.000000 0.860016
vt 0.000000 0.000000
vt 1.000000 0.000000
vt 0.999987 0.999900
vt 0.000000 0.000000
vt 1.000000 0.000000
vt 2.925293 1.808553
vt 0.000000 1.000000
vt 0.000000 0.000000
vt 1.000000 0.000000
vt 0.000013 0.999900
vt 0.000000 0.000000
vt 1.000000 0.000000
vt 1.000000 1.000000
vt -1.925294 1.808552
vt 0.000000 0.000000
vt 1.000000 0.000000
vt 1.653679 0.999261
vt 0.500000 1.000000
vt 0.000000 0.000000
vt 1.000000 0.000000
vt 0.500000 1.000000
vt -0.667006 1.000000
vt 0.000000 0.000000
vt 1.000000 0.000000
vt 0.000000 0.000000
vt 1.000000 0.000000
vt 0.000000 0.000000
vt 1.000000 0.000000
vt 0.000000 0.000000
vt 1.648841 0.001004
vt 1.651493 0.998566
vt 0.000000 1.000000
vt -0.651298 0.001125
vt 1.000000 0.000000
vt 1.000000 1.000000
vt -0.659160 0.998944
vt 0.000000 0.000000
vt 1.000000 0.000000
vt 1.000000 1.000000
vt 0.000000 1.000000
vt 0.999984 0.000555
vt 0.000016 0.000554
vt 1.014547 0.000618
vt 0.990425 0.999140
vt 1.185596 0.999561
vt 0.231943 1.000000
vt 0.597587 0.999744
vt 0.551118 0.000306
vt 0.550165 0.000000
vt 0.795872 0.473151
vt 1.000000 0.472816
vt 0.846188 0.999669
vt 0.689839 0.999854
vt 0.500000 1.000000
vt 1.185596 0.999561
vt 0.846188 0.999669
vt 0.689839 0.999854
vt 0.231943 1.000000
vt 0.500000 1.000000
vt 0.231943 1.000000
vt 0.689839 0.999854
vt 0.846188 0.999669
vt 1.185596 0.999561
vt 1.653679 0.999261
vt -0.667006 1.000000
vn 0.000000 1.000000 0.000000
vn 0.000000 1.000000 0.000000
vn 0.000000 1.000000 0.000000
vn 0.000000 1.000000 0.000000
vn 0.000000 0.397925 0.917418
vn 0.000000 0.397925 0.917418
vn 0.000000 0.397925 0.917418
vn 0.000000 0.397925 0.917418
vn 0.000000 0.000000 1.000000
vn 0.000000 0.000000 1.000000
vn 0.000000 0.000000 1.000000
vn 0.000000 0.000000 1.000000
vn 0.000935 -0.000328 1.000000
vn 0.000935 -0.000328 1.000000
vn 0.000596 -0.000209 1.000000
vn 0.000804 -0.000282 1.000000
vn 0.000000 -1.000000 0.000000
vn 0.000000 -1.000000 0.000000
vn 0.000000 -1.000000 0.000000
vn 0.000000 -1.000000 0.000000
vn 0.000000 0.000000 1.000000
vn 0.000000 0.000000 1.000000
vn 0.000000 0.000000 1.000000
vn 0.000000 0.000000 1.000000
vn 0.000000 -1.000000 0.000000
vn 0.000000 -1.000000 0.000000
vn 0.000000 0.000000 1.000000
vn 0.000000 0.000000 1.000000
vn 0.000000 0.000000 1.000000
vn 0.000000 0.000000 1.000000
vn 0.000000 0.000000 1.000000
vn 0.000000 0.000000 1.000000
vn 0.000000 0.397925 0.917418
vn 0.000000 0.397925 0.917418
vn 0.000000 0.397925 0.917418
vn 0.000000 0.397925 0.917418
vn 0.000000 1.000000 0.000000
vn 0.000000 1.000000 0.000000
vn 0.000000 1.000000 0.000000
vn 0.000000 1.000000 0.000000
vn -0.000199 -0.000138 1.000000
vn -0.001044 -0.000328 0.999999
vn -0.001044 -0.000328 0.999999
vn -0.000346 -0.000240 1.000000
vn 0.000000 -1.000000 0.000000
vn 0.000000 -1.000000 0.000000
vn 0.000000 0.000000 1.000000
vn 0.000000 0.000000 1.000000
vn 0.000000 0.000000 1.000000
vn 0.000000 0.000000 1.000000
vn 0.000000 0.000000 1.000000
vn 0.000000 0.000000 1.000000
vn 1.000000 0.000000 0.000000
vn 1.000000 0.000000 0.000000
vn 1.000000 0.000000 0.000000
vn 1.000000 -0.000000 0.000000
vn 1.000000 -0.000000 0.000000
vn 1.000000 -0.000000 0.000000
vn 1.000000 -0.000000 0.000000
vn -1.000000 0.000000 0.000000
vn -1.000000 0.000000 0.000000
vn -1.000000 0.000000 0.000000
vn -1.000000 0.000000 0.000000
vn -1.000000 0.000000 0.000000
vn -1.000000 0.000000 0.000000
vn -1.000000 0.000000 0.000000
vn -0.000367 -0.000825 1.000000
vn -0.000263 -0.000825 1.000000
vn -0.000263 -0.000825 1.000000
vn -0.000367 -0.000825 1.000000
vn 0.000263 -0.000825 1.000000
vn 0.000263 -0.000825 1.000000
vn 0.000462 -0.000828 1.000000
vn 0.000462 -0.000828 1.000000
vn 0.000000 -0.000217 1.000000
vn 0.000000 -0.000217 1.000000
vn 0.000000 -0.000217 1.000000
vn 0.000000 -0.000217 1.000000
vn -0.923415 -0.000283 0.383803
vn -0.923366 -0.000293 0.383921
vn -0.923361 -0.000291 0.383932
vn -0.923415 -0.000283 0.383803
vn 0.923505 -0.000324 0.383586
vn 0.923505 -0.000324 0.383587
vn 0.923469 -0.000325 0.383674
vn 0.923469 -0.000325 0.383674
vn 0.923361 -0.000292 0.383933
vn 0.923361 -0.000292 0.383934
vn 0.923540 -0.000283 0.383502
vn 0.923540 -0.000283 0.383502
vn -0.923434 -0.000323 0.383757
vn -0.923502 -0.000324 0.383594
vn -0.923502 -0.000324 0.383594
vn -0.923434 -0.000323 0.383757
vn 0.000000 0.923440 0.383743
vn 0.000000 0.923440 0.383743
vn 0.000000 0.923440 0.383743
vn 0.000000 0.923440 0.383743
vn 0.000000 -0.923628 0.383290
vn 0.000000 -0.923628 0.383290
vn 0.000000 -0.923628 0.383290
vn 0.000000 -0.923628 0.383290
vn -0.923591 -0.000410 0.383379
vn -0.923568 -0.000405 0.383434
vn 0.923594 -0.000410 0.383372
vn 0.923271 -0.000298 0.384149
vn 0.923548 -0.000394 0.383484
vn -0.000004 -0.000867 1.000000
vn -0.000005 -0.000869 1.000000
vn -0.000005 -0.000869 1.000000
vn -0.000003 -0.000866 1.000000
vn -0.000102 -0.000825 1.000000
vn -0.000102 -0.000825 1.000000
vn 0.923558 -0.000324 0.383458
vn 0.923558 -0.000324 0.383458
vn 0.000000 -0.000870 1.000000
vn 0.000000 -0.000870 1.000000
vn -0.000001 -0.000869 1.000000
vn -0.000001 -0.000869 1.000000
vn -0.923523 -0.000325 0.383544
vn -0.923523 -0.000325 0.383544
vn 0.000195 -0.000824 1.000000
vn 0.000195 -0.000824 1.000000
vn -0.001517 -0.000329 0.999999
vn -0.001517 -0.000329 0.999999
vn -0.605522 -0.000691 0.795829
vn -0.605522 -0.000691 0.795829
vn -0.605522 -0.000691 0.795829
vn -0.605522 -0.000691 0.795829
vn -0.000006 -0.606210 0.795304
vn -0.000006 -0.606210 0.795304
vn -0.000006 -0.606210 0.795304
vn -0.000006 -0.606210 0.795304
vn 0.542181 -0.270311 0.795596
vn 0.542181 -0.270311 0.795596
vn 0.542181 -0.270311 0.795596
vn 0.542181 -0.270311 0.795596
vn 0.000001 -0.606209 0.795306
vn 0.000001 -0.606208 0.795306
vn 0.000001 -0.606209 0.795306
vn 0.000001 -0.606209 0.795306
vn 0.605516 -0.000687 0.795833
vn 0.605516 -0.000687 0.795833
vn 0.605516 -0.000687 0.795833
vn 0.605516 -0.000687 0.795833
vn 0.000000 0.604831 0.796354
vn 0.000000 0.604831 0.796354
vn 0.000000 0.604831 0.796354
vn 0.000000 0.604831 0.796354
vn 0.000002 0.604828 0.796356
vn 0.000002 0.604828 0.796356
vn 0.000002 0.604828 0.796356
vn 0.000002 0.604828 0.796356
vn -0.542183 0.268927 0.796063
vn -0.542183 0.268927 0.796063
vn -0.542183 0.268927 0.796063
vn -0.542183 0.268927 0.796063
vn -0.000005 0.604828 0.796357
vn -0.000005 0.604827 0.796357
vn -0.000005 0.604828 0.796357
vn -0.000005 0.604827 0.796357
vn -0.605520 -0.000690 0.795830
vn -0.605520 -0.000690 0.795830
vn -0.605520 -0.000690 0.795830
vn -0.605520 -0.000690 0.795830
vn 0.000000 -0.606213 0.795303
vn 0.000000 -0.606213 0.795303
vn 0.000000 -0.606213 0.795303
vn 0.000000 -0.606213 0.795303
vn 0.605516 -0.000692 0.795833
vn 0.605516 -0.000692 0.795833
vn 0.605516 -0.000692 0.795833
vn 0.605516 -0.000692 0.795833
vn 0.000001 -0.000862 1.000000
vn 0.000001 -0.000862 1.000000
vn -0.000001 -0.000869 1.000000
vn -0.000001 -0.000869 1.000000
s off
g mesh_ModBuilding_WallDoor
usemtl initialShadingGroup
f 4/4/1 3/3/2 17/23/3 18/25/4
f 3/3/5 2/2/6 16/22/7 17/23/8
f 2/2/9 1/1/10 15/21/11 16/22/12
s 1
f 4/9/13 18/24/14 31/43/15 32/44/16
s 2
f 9/13/17 19/26/18 20/29/19 11/16/20
s 3
f 11/17/21 20/28/22 21/30/23 13/20/24
s 2
f 20/29/19 19/26/18 26/36/25 27/39/26
s 3
f 21/30/23 20/28/22 27/38/27 28/40/28
s off
f 23/32/29 22/31/30 8/8/31 5/7/32
f 24/33/33 23/32/34 5/7/35 7/6/36
f 25/35/37 24/33/38 7/6/39 6/5/40
s 1
f 30/42/41 53/94/42 54/95/43 29/41/44
s 2
f 27/39/26 26/36/25 10/14/45 12/15/46
s 3
f 28/40/28 27/38/27 12/18/47 14/19/48
s 1
f 26/37/49 30/42/41 29/41/44 10/11/50
f 19/27/51 31/43/15 30/42/41 26/37/49
f 32/44/16 31/43/15 19/27/51 9/12/52
s off
f 16/45/53 15/46/54 33/47/55
f 17/48/56 16/49/57 33/50/58 18/51/59
f 22/52/60 23/53/61 34/54/62
f 23/55/63 24/56/64 25/57/65 34/58/66
s 5
f 40/73/67 47/87/68 48/88/69 42/76/70
s 6
f 51/91/71 52/92/72 44/78/73 45/79/74
s off
f 44/81/75 40/82/76 42/83/77 45/84/78
s 7
f 31/59/79 18/60/80 47/87/81 40/73/82
s 8
f 48/88/83 49/89/84 36/62/85 42/76/86
s 9
f 52/92/87 53/93/88 30/64/89 44/78/90
s 10
f 38/65/91 50/90/92 51/91/93 45/79/94
s off
f 30/67/95 31/68/96 40/82/97 44/81/98
f 36/62/99 38/65/100 45/84/101 42/83/102
s 7
f 18/69/80 33/70/103 39/85/104
s 9
f 34/71/105 25/72/106 43/86/107
s 11
f 58/62/108 57/107/109 59/106/110 60/105/111
s 7
f 47/87/81 18/60/80 39/74/104
s 5
f 48/88/69 47/87/68 39/74/112 41/75/113
s 8
f 35/61/114 49/89/84 48/88/83 41/75/115
s 12
f 64/104/116 63/105/117 65/106/118 68/109/119
s 10
f 51/91/93 50/90/92 37/66/120 46/80/121
s 6
f 43/77/122 52/92/72 51/91/71 46/80/123
s 9
f 25/63/106 53/93/88 52/92/87 43/77/107
s 1
f 54/95/43 53/94/42 25/34/124 6/10/125
s off
f 36/62/126 49/89/127 57/99/128 58/98/129
f 49/89/130 55/96/131 59/100/132 57/99/133
f 55/96/134 56/97/135 60/101/136 59/100/137
f 56/97/138 50/90/139 61/102/140 60/101/141
f 50/90/142 38/65/143 62/103/144 61/102/145
f 38/65/146 36/62/147 58/98/148 62/103/149
f 50/90/150 56/97/151 63/105/152 64/104/153
f 56/97/154 55/96/155 65/106/156 63/105/157
f 55/96/158 49/89/159 66/107/160 65/106/161
f 49/89/162 35/61/163 67/108/164 66/107/165
f 35/61/166 37/66/167 68/109/168 67/108/169
f 37/66/170 50/90/171 64/104/172 68/109/173
s 11
f 58/62/108 60/105/111 61/104/174 62/65/175
s 12
f 68/109/119 65/106/118 66/107/176 67/108/177
