# This file uses centimeters as units for non-parametric coordinates.

g default
v 1.000950 0.096917 -0.000000
v 0.990183 0.107685 -0.010769
v 0.606823 0.107685 -0.990181
v 0.617592 0.096917 -1.001121
v 0.010769 0.107685 -0.010767
v 0.000000 0.096917 -0.000000
v 0.010767 0.107685 -0.990181
v 0.000000 0.096917 -1.000949
v 1.121664 0.096917 -0.000000
v 0.809237 0.060768 -1.000949
v 1.194302 0.010963 -1.000949
v 1.121664 0.010533 -0.000000
v 1.253918 0.000000 -0.000000
v 1.369741 0.000000 -1.000949
v 1.347553 0.010963 -1.000949
v 1.236908 0.010533 -0.000000
v 1.121225 0.107685 -0.013138
v 1.011717 0.107685 -0.013138
v 1.268934 0.000000 -0.013765
v 1.236908 0.019739 -0.013765
v 1.131994 0.019739 -0.013765
v 1.001875 0.040658 -0.990504
v 0.808754 0.071535 -0.989986
v 0.628359 0.107685 -0.989986
v 1.379580 0.000000 -0.990504
v 1.347553 0.019739 -0.990504
v 1.196514 0.019739 -0.990504
v 1.131992 0.096917 -0.013571
v 0.606962 0.107685 -0.868302
v 0.651573 0.107685 -0.723577
v 0.752264 0.107685 -0.577921
v 0.897223 0.107685 -0.435381
v 0.971737 0.107685 -0.294839
v 0.990183 0.107685 -0.154297
v 0.617584 0.096917 -0.870176
v 0.661793 0.096917 -0.727008
v 0.761259 0.096917 -0.583856
v 0.906591 0.096917 -0.440693
v 0.982172 0.096917 -0.297504
v 1.000950 0.096917 -0.154325
v 0.628222 0.107685 -0.871922
v 0.671993 0.107685 -0.730510
v 0.770105 0.107685 -0.590030
v 0.915735 0.107685 -0.446434
v 0.992443 0.107685 -0.300839
v 1.011717 0.107685 -0.155245
v 0.816294 0.071917 -0.870672
v 0.846933 0.074929 -0.725978
v 0.922232 0.075312 -0.583599
v 1.028364 0.088261 -0.441137
v 1.107517 0.101261 -0.298349
v 1.121225 0.107685 -0.155269
v 1.003733 0.039625 -0.870973
v 1.008394 0.040840 -0.729575
v 1.028023 0.044747 -0.585863
v 1.060633 0.065081 -0.442233
v 1.118284 0.090493 -0.298929
v 1.131992 0.096917 -0.155919
v 1.193476 0.019739 -0.871068
v 1.183010 0.019739 -0.728057
v 1.163218 0.019739 -0.585047
v 1.144352 0.019739 -0.442037
v 1.131992 0.019739 -0.299026
v 1.131992 0.019739 -0.156015
v 1.347553 0.019739 -0.871068
v 1.347553 0.019739 -0.728057
v 1.332577 0.019739 -0.585047
v 1.302586 0.019739 -0.442037
v 1.260292 0.019739 -0.299026
v 1.236908 0.019739 -0.156015
v 1.379580 0.000000 -0.871068
v 1.379580 0.000000 -0.728057
v 1.364603 0.000000 -0.585047
v 1.334612 0.000000 -0.442036
v 1.292316 0.000000 -0.299025
v 1.268934 0.000000 -0.156014
v 0.999615 0.033007 -1.000951
vt 0.001390 0.001881
vt 0.012128 0.012618
vt 0.012126 0.988404
vt 0.001390 0.999141
vt 0.988772 0.394892
vt 0.317953 0.886624
vt 0.999510 0.999141
vt 0.988772 0.988404
vt 0.010210 0.676366
vt 0.015312 0.672597
vt 0.014610 0.684022
vt 0.009929 0.682612
vt 0.008349 0.742977
vt 0.013237 0.744592
vt 0.011270 0.776830
vt 0.008369 0.716566
vt 0.013821 0.715980
vt 0.013159 0.740354
vt 0.317712 0.826774
vt 0.313055 0.827391
vt 0.312284 0.768219
vt 0.316278 0.768580
vt 0.313236 0.882812
vt 0.311374 0.663577
vt 0.312386 0.652413
vt 0.315783 0.655444
vt 0.315456 0.663135
vt 0.316035 0.709551
vt 0.311849 0.709123
vt 0.867237 0.394756
vt 0.277219 0.888487
vt 0.275297 0.663350
vt 0.275535 0.651801
vt 0.275312 0.710225
vt 0.275711 0.767859
vt 0.276599 0.825392
vt 0.277704 0.883814
vt 0.155250 0.012618
vt 0.155278 0.001881
vt 0.054575 0.778742
vt 0.053905 0.744987
vt 0.053990 0.740360
vt 0.054664 0.718048
vt 0.057657 0.686586
vt 0.058568 0.675173
vt 0.295395 0.031011
vt 0.435540 0.105314
vt 0.577677 0.249863
vt 0.722923 0.350270
vt 0.098387 0.786805
vt 0.143321 0.805751
vt 0.189167 0.847166
vt 0.233494 0.875789
vt 0.099588 0.782301
vt 0.145580 0.801654
vt 0.191672 0.843242
vt 0.234988 0.871371
vt 0.096584 0.747710
vt 0.141957 0.766557
vt 0.187948 0.795682
vt 0.232258 0.817082
vt 0.096997 0.743145
vt 0.142987 0.754161
vt 0.188032 0.761918
vt 0.232356 0.766992
vt 0.098474 0.721800
vt 0.142828 0.724251
vt 0.187346 0.719736
vt 0.231410 0.713644
vt 0.102103 0.683676
vt 0.145846 0.675361
vt 0.188949 0.667851
vt 0.232050 0.663542
vt 0.102723 0.672268
vt 0.146144 0.663881
vt 0.189020 0.656366
vt 0.232094 0.652076
vt 0.006287 0.780873
vt 0.054102 0.783394
vt 0.869106 0.384162
vt 0.999680 0.384155
vt 0.298052 0.020607
vt 0.440838 0.095971
vt 0.583596 0.240895
vt 0.726342 0.340078
vn 0.000001 0.707117 0.707097
vn 0.000001 0.707117 0.707097
vn 0.000001 0.707117 0.707097
vn 0.000001 0.707117 0.707097
vn -0.000099 0.709934 -0.704269
vn -0.000099 0.709934 -0.704269
vn -0.000099 0.709934 -0.704269
vn -0.000099 0.709934 -0.704269
vn 0.456167 0.738905 0.495914
vn 0.524578 0.851050 0.023068
vn 0.524452 0.850824 0.032384
vn 0.456167 0.738905 0.495914
vn 0.021828 0.773606 0.633291
vn 0.420839 0.836278 0.351474
vn -0.000001 0.773433 0.633879
vn -0.000001 0.773433 0.633879
vn 0.797908 -0.000708 0.602779
vn 0.797908 -0.000708 0.602779
vn 0.797908 -0.000708 0.602779
vn 0.797908 -0.000708 0.602779
vn 0.000000 0.831230 0.555928
vn 0.000000 0.831230 0.555928
vn 0.000000 0.831230 0.555928
vn 0.000000 0.831230 0.555928
vn 0.122606 0.715938 -0.687314
vn 0.124397 0.709166 -0.693981
vn 0.099014 0.762051 -0.639902
vn 0.100696 0.760509 -0.641472
vn 0.132174 0.678436 -0.722672
vn 0.132174 0.678436 -0.722672
vn 0.422990 0.746932 -0.513003
vn 0.422990 0.746932 -0.513003
vn 0.422990 0.746932 -0.513003
vn 0.422990 0.746932 -0.513003
vn 0.051150 0.771488 -0.634185
vn 0.044425 0.770835 -0.635484
vn 0.000000 0.765613 -0.643301
vn 0.000000 0.765613 -0.643301
vn 0.707356 0.706649 0.017154
vn 0.695157 0.709500 -0.115612
vn 0.695536 0.709501 -0.113305
vn 0.709365 0.704841 -0.000369
vn 0.709365 0.704841 -0.000369
vn -0.707089 0.707124 0.000001
vn -0.707089 0.707124 0.000001
vn -0.707089 0.707124 0.000001
vn -0.707089 0.707124 0.000001
vn 0.000000 1.000000 -0.000000
vn 0.000000 1.000000 -0.000000
vn 0.000000 1.000000 -0.000000
vn 0.000000 1.000000 -0.000000
vn 0.524692 0.851292 0.000000
vn 0.524692 0.851292 0.000000
vn 0.524692 0.851292 0.000000
vn 0.524692 0.851292 0.000000
vn 0.000000 1.000000 0.000000
vn 0.058244 0.998299 0.002658
vn 0.058430 0.998291 0.000715
vn 0.000000 1.000000 -0.000000
vn 0.134958 0.990851 0.000494
vn 0.142360 0.989762 -0.010209
vn 0.177981 0.984017 -0.005697
vn 0.181917 0.982881 -0.029163
vn 0.191584 0.981447 -0.007554
vn 0.188955 0.981447 -0.032534
vn -0.709163 0.705044 -0.000413
vn -0.709163 0.705044 -0.000413
vn -0.695295 0.709446 0.115119
vn -0.695492 0.709449 0.113896
vn 0.000000 1.000000 0.000000
vn 0.000000 1.000000 0.000000
vn 0.707122 0.707092 0.000000
vn 0.707122 0.707092 0.000000
vn 0.706274 0.706578 -0.043863
vn 0.706181 0.706505 -0.046468
vn -0.705831 0.706865 0.046314
vn -0.705867 0.706882 0.045491
vn -0.707119 0.707095 0.000000
vn -0.707119 0.707095 0.000000
vn 0.014274 0.999818 -0.012628
vn 0.015301 0.999791 -0.013537
vn 0.000000 1.000000 0.000000
vn 0.000000 1.000000 0.000000
vn 0.704768 0.707632 -0.050586
vn 0.704867 0.707642 -0.049035
vn 0.998664 0.045477 -0.024526
vn 0.998707 0.044737 -0.024127
vn 1.000000 0.000012 -0.000007
vn 1.000000 0.000012 -0.000007
vn 0.000000 1.000000 0.000000
vn 0.000000 1.000000 0.000000
vn 0.000000 1.000000 0.000000
vn 0.000000 1.000000 0.000000
vn 0.524171 0.850436 0.044766
vn 0.524255 0.850573 0.041008
vn 0.000000 1.000000 0.000000
vn 0.000000 1.000000 0.000000
vn 0.000000 1.000000 0.000000
vn 0.000000 1.000000 0.000000
vn 0.668886 0.708798 -0.224045
vn 0.670878 0.708891 -0.217706
vn 0.559199 0.702898 -0.439580
vn 0.566260 0.703319 -0.429758
vn 0.545574 0.699908 -0.460953
vn 0.541205 0.699681 -0.466417
vn 0.634883 0.707415 -0.310625
vn 0.629621 0.707008 -0.322051
vn -0.668336 0.710603 0.219933
vn -0.668135 0.710599 0.220557
vn -0.558665 0.706324 0.434740
vn -0.563138 0.706559 0.428545
vn -0.542726 0.701974 0.461173
vn -0.539274 0.701923 0.465283
vn -0.634282 0.707560 0.311523
vn -0.629146 0.707220 0.322514
vn 0.080792 0.993961 -0.074263
vn 0.062493 0.996411 -0.057091
vn 0.174939 0.966672 -0.186926
vn 0.143318 0.979115 -0.144200
vn 0.197686 0.969738 -0.143277
vn 0.223604 0.961435 -0.160135
vn 0.189748 0.978702 -0.078348
vn 0.196885 0.977331 -0.077844
vn 0.613842 0.734471 -0.289396
vn 0.620960 0.733558 -0.276226
vn 0.388884 0.873769 -0.292055
vn 0.416243 0.856766 -0.304457
vn 0.238884 0.966453 -0.094355
vn 0.167222 0.985319 -0.034398
vn 0.919862 0.374456 -0.116772
vn 0.914273 0.387013 -0.119692
vn 0.475151 0.871955 -0.118009
vn 0.490403 0.863025 -0.121214
vn 0.095632 0.995249 -0.018288
vn 0.063743 0.997960 -0.003459
vn 0.000000 1.000000 0.000000
vn 0.000000 1.000000 0.000000
vn 0.000000 1.000000 0.000000
vn 0.000000 1.000000 0.000000
vn 0.000000 1.000000 0.000000
vn 0.000000 1.000000 -0.000000
vn 0.521198 0.845605 0.115348
vn 0.520677 0.844759 0.123605
vn 0.519941 0.843575 0.134326
vn 0.520348 0.844238 0.128452
vn 0.522817 0.848252 0.084444
vn 0.523015 0.848575 0.079851
vn 0.524483 0.850953 0.028217
vn 0.524505 0.850990 0.026665
s off
g mesh_Paving_DrivewayLeft Modular_PavementEXPORT
f 1/1/1 2/2/2 5/3/3 6/4/4
f 3/5/5 4/81/6 8/7/7 7/8/8
s 1
f 13/9/9 19/10/10 20/11/11 16/12/12
s 2
f 9/13/13 17/14/14 18/15/15 1/78/16
s off
f 9/13/17 12/16/18 21/17/19 28/18/20
f 21/17/21 12/16/22 16/12/23 20/11/24
s 3
f 10/19/25 23/20/26 22/21/27 77/22/28
f 10/19/25 4/6/29 24/23/30 23/20/26
s off
f 26/24/31 25/25/32 14/26/33 15/27/34
s 3
f 11/28/35 27/29/36 26/24/37 15/27/38
s 2
f 17/14/14 9/13/13 28/18/39
s 4
f 29/30/40 35/80/41 4/81/42 3/5/43
s off
f 6/4/44 5/3/45 7/8/46 8/7/47
s 5
f 29/30/48 3/5/49 7/8/50 5/3/51
s 1
f 65/32/52 71/33/53 25/25/54 26/24/55
s 2
f 26/24/56 27/29/57 59/34/58 65/32/59
f 27/29/57 22/21/60 53/35/61 59/34/58
f 22/21/60 23/20/62 47/36/63 53/35/61
f 23/20/62 24/23/64 41/37/65 47/36/63
s 8
f 24/23/66 4/6/67 35/31/68 41/37/69
s 5
f 2/2/70 34/38/71 5/3/51
s 4
f 2/2/72 1/1/73 40/39/74 34/38/75
s 8
f 46/40/76 40/79/77 1/78/78 18/15/79
s 2
f 52/41/80 46/40/81 18/15/82 17/14/83
f 58/42/84 52/41/85 17/14/14 28/18/39
f 64/43/86 58/42/87 28/18/88 21/17/89
f 70/44/90 64/43/91 21/17/92 20/11/93
s 1
f 19/10/10 76/45/94 70/44/95 20/11/11
s 5
f 5/3/51 34/38/71 33/46/96
f 5/3/51 33/46/96 32/47/97
f 5/3/51 32/47/97 31/48/98
f 5/3/51 30/49/99 29/30/48
f 5/3/51 31/48/98 30/49/99
s 4
f 33/46/100 34/38/75 40/39/74 39/82/101
f 32/47/102 33/46/100 39/82/101 38/83/103
f 31/48/104 32/47/102 38/83/103 37/84/105
f 29/30/40 30/49/106 36/85/107 35/80/41
f 30/49/106 31/48/104 37/84/105 36/85/107
s 8
f 39/50/108 40/79/77 46/40/76 45/54/109
f 38/51/110 39/50/108 45/54/109 44/55/111
f 37/52/112 38/51/110 44/55/111 43/56/113
f 35/31/68 36/53/114 42/57/115 41/37/69
f 36/53/114 37/52/112 43/56/113 42/57/115
s 2
f 45/54/116 46/40/81 52/41/80 51/58/117
f 44/55/118 45/54/116 51/58/117 50/59/119
f 43/56/120 44/55/118 50/59/119 49/60/121
f 41/37/65 42/57/122 48/61/123 47/36/63
f 42/57/122 43/56/120 49/60/121 48/61/123
f 51/58/124 52/41/85 58/42/84 57/62/125
f 50/59/126 51/58/124 57/62/125 56/63/127
f 49/60/121 50/59/126 56/63/127 55/64/128
f 47/36/63 48/61/123 54/65/129 53/35/61
f 48/61/123 49/60/121 55/64/128 54/65/129
f 57/62/130 58/42/87 64/43/86 63/66/131
f 56/63/132 57/62/130 63/66/131 62/67/133
f 55/64/128 56/63/132 62/67/133 61/68/134
f 53/35/61 54/65/129 60/69/135 59/34/58
f 54/65/129 55/64/128 61/68/134 60/69/135
f 63/66/136 64/43/91 70/44/90 69/70/137
f 62/67/138 63/66/136 69/70/137 68/71/139
f 61/68/134 62/67/138 68/71/139 67/72/140
f 59/34/58 60/69/135 66/73/141 65/32/59
f 60/69/135 61/68/134 67/72/140 66/73/141
s 1
f 69/70/142 70/44/95 76/45/94 75/74/143
f 68/71/144 69/70/142 75/74/143 74/75/145
f 67/72/146 68/71/144 74/75/145 73/76/147
f 65/32/52 66/73/148 72/77/149 71/33/53
f 66/73/148 67/72/146 73/76/147 72/77/149
s 3
f 22/21/27 27/29/36 11/28/35 77/22/28
