# This file uses centimeters as units for non-parametric coordinates.

g default
v -0.010767 0.107685 -0.010768
v 0.000000 0.096917 0.000000
v -0.990183 0.107685 -0.010768
v -0.000002 0.096918 -1.000947
v -0.010767 0.107685 -0.990180
v -0.261108 0.097895 -0.999192
v -0.990227 0.107685 -0.869732
v -1.001120 0.096917 -0.877441
v -1.012058 0.107685 -0.010768
v -1.012106 0.107685 -0.860888
v -1.978073 0.107685 -0.010768
v -2.002584 0.096938 0.000344
v -0.889599 0.107685 -0.909963
v -0.711294 0.107685 -0.951956
v -0.501408 0.107685 -0.977793
v -1.806602 0.107685 -0.181158
v -1.630400 0.107685 -0.354207
v -1.465925 0.107685 -0.516638
v -1.317886 0.107685 -0.652971
v -1.177618 0.107685 -0.764793
v -1.041569 0.107685 -0.847945
v -0.274210 0.107685 -0.986197
v 0.000000 0.096917 -1.121661
v 0.000000 0.010533 -1.121661
v 0.000000 0.010533 -1.236906
v 0.000000 0.000000 -1.253915
v -2.087662 0.096917 -0.085217
v -2.087662 0.010963 -0.085217
v -2.169188 0.010963 -0.166744
v -2.184534 0.000000 -0.182089
v -0.501408 0.097182 -0.989114
v -0.711294 0.097070 -0.964702
v -0.889599 0.096815 -0.922519
v -1.043221 0.096483 -0.860423
v -1.184727 0.096147 -0.775241
v -1.326351 0.095889 -0.663493
v -1.476404 0.095804 -0.524878
v -1.639511 0.095964 -0.363278
v -1.816448 0.096376 -0.185384
v -2.005598 0.000120 -0.374850
v -2.182114 -0.000204 -0.197127
v -1.985144 0.019744 -0.354450
v -2.162432 0.019744 -0.177441
v -1.907616 0.019744 -0.277160
v -2.083290 0.019744 -0.098284
v -1.825144 0.106275 -0.194101
v -2.002739 0.106275 -0.016895
v -0.012352 -0.000480 -1.263246
v -0.263638 0.000544 -1.263340
v -0.012316 0.019744 -1.240112
v -0.263292 0.019744 -1.238489
v -0.012344 0.019744 -1.127773
v -0.262352 0.019744 -1.128558
v -0.012299 0.106275 -1.013171
v -0.261402 0.106275 -1.011496
v -0.515985 0.000665 -1.253208
v -0.514397 0.019744 -1.227980
v -0.508492 0.019744 -1.118204
v -0.502380 0.106275 -1.001389
v -0.750059 0.000574 -1.226526
v -0.746038 0.019744 -1.201155
v -0.730072 0.019744 -1.092440
v -0.713440 0.106275 -0.976839
v -0.964279 0.000287 -1.176516
v -0.956659 0.019744 -1.151560
v -0.925714 0.019744 -1.046246
v -0.893362 0.106275 -0.934275
v -1.159182 -0.000103 -1.098716
v -1.147388 0.019744 -1.074955
v -1.099258 0.019744 -0.976390
v -1.048759 0.106275 -0.871462
v -1.336325 -0.000460 -0.993376
v -1.320829 0.019744 -0.971256
v -1.257977 0.019744 -0.881352
v -1.191763 0.106275 -0.785379
v -1.500973 -0.000665 -0.864594
v -1.482922 0.019744 -0.843845
v -1.410721 0.019744 -0.761266
v -1.334366 0.106275 -0.672858
v -1.662149 -0.000649 -0.716505
v -1.642670 0.019744 -0.696423
v -1.566120 0.019744 -0.617954
v -1.484917 0.106275 -0.533780
v -1.828674 -0.000383 -0.552145
v -1.808525 0.019744 -0.532076
v -1.730806 0.019744 -0.454891
v -1.648199 0.106275 -0.372005
v -1.899334 0.106275 -0.268812
v -1.907623 0.094508 -0.277161
v -2.074991 0.106275 -0.089897
v -2.083271 0.094510 -0.098263
v -0.012341 0.106275 -1.116007
v -0.012344 0.094508 -1.127773
v -0.262377 0.094503 -1.128629
v -0.262157 0.106275 -1.116865
v -0.508587 0.094496 -1.118347
v -0.507677 0.106275 -1.106621
v -0.730282 0.094488 -1.092657
v -0.728277 0.106275 -1.081061
v -0.926062 0.094480 -1.046499
v -0.922541 0.106275 -1.035263
v -1.099697 0.094476 -0.976604
v -1.094498 0.106275 -0.966040
v -1.258402 0.094480 -0.881472
v -1.251759 0.106275 -0.871759
v -1.411037 0.094489 -0.761304
v -1.403431 0.106275 -0.752337
v -1.566315 0.094498 -0.617942
v -1.558186 0.106275 -0.609445
v -1.730875 0.094505 -0.454889
v -1.722572 0.106275 -0.446556
v -2.002584 0.096938 0.000344
v -2.002584 0.096938 0.000344
v 0.000000 0.096917 0.000000
v -1.001120 0.096917 0.000001
v -2.002584 0.096938 0.000344
vt 0.989245 0.010842
vt 0.010926 0.010842
vt 0.000000 0.000086
vt 0.999954 0.999111
vt 0.999913 0.000087
vt 0.726101 0.985048
vt 0.739110 0.999465
vt 0.010881 0.868845
vt 0.011585 0.989002
vt 0.011633 0.141529
vt 0.974591 0.989002
vt 0.000000 0.876546
vt 0.803652 0.819142
vt 0.464038 0.484707
vt 0.628001 0.646632
vt 0.176628 0.237326
vt 0.316462 0.348799
vt 0.041004 0.154432
vt 0.499148 0.976927
vt 0.669813 0.885490
vt 0.669728 0.896388
vt 0.745544 0.897939
vt 0.746029 0.887529
vt 0.669611 0.930406
vt 0.745465 0.931724
vt 0.009094 0.889765
vt 0.009748 0.899062
vt 0.085212 0.896358
vt 0.085024 0.886645
vt 0.010406 0.932349
vt 0.086113 0.930405
vt 0.160945 0.897169
vt 0.161076 0.887740
vt 0.161283 0.930485
vt 0.228210 0.899433
vt 0.228349 0.890504
vt 0.228593 0.931235
vt 0.288040 0.900021
vt 0.288010 0.891226
vt 0.288664 0.931267
vt 0.344287 0.899723
vt 0.344237 0.890716
vt 0.344554 0.931099
vt 0.400270 0.899484
vt 0.400272 0.890119
vt 0.400007 0.931146
vt 0.458749 0.899235
vt 0.458714 0.889493
vt 0.458416 0.931256
vt 0.522200 0.898404
vt 0.522031 0.888205
vt 0.522258 0.931082
vt 0.592627 0.896751
vt 0.592482 0.886021
vt 0.592816 0.930502
vt 0.749897 0.898647
vt 0.750303 0.890966
vt 0.749777 0.931942
vt 0.748941 0.953561
vt 0.744431 0.953561
vt 0.813469 0.814930
vt 0.746610 0.988737
vt 0.670204 0.991265
vt 0.744595 0.957567
vt 0.004688 0.893651
vt 0.005427 0.900050
vt 0.006184 0.932604
vt 0.006687 0.953561
vt 0.011326 0.953561
vt 0.010175 0.988986
vt 0.011246 0.957576
vt 0.086664 0.990981
vt 0.989245 0.986098
vt 0.162146 0.990990
vt 0.999913 0.000087
vt 0.229537 0.990816
vt 0.111398 0.909031
vt 0.289447 0.991431
vt 0.344978 0.991895
vt 0.042650 0.141993
vt 0.183716 0.226909
vt 0.400001 0.991464
vt 0.324898 0.338310
vt 0.458202 0.990867
vt 0.474485 0.476493
vt 0.522061 0.990648
vt 0.637083 0.637590
vt 0.592859 0.991270
vt 0.669591 0.958714
vt 0.669534 0.953561
vt 0.593016 0.953561
vt 0.592998 0.958618
vt 0.086427 0.958616
vt 0.086435 0.953561
vt 0.161133 0.958668
vt 0.161115 0.953561
vt 0.228468 0.958414
vt 0.228457 0.953561
vt 0.288759 0.958616
vt 0.288773 0.953561
vt 0.344666 0.958635
vt 0.344664 0.953561
vt 0.400022 0.958441
vt 0.399999 0.953561
vt 0.458471 0.958642
vt 0.458457 0.953561
vt 0.522458 0.958597
vt 0.522487 0.953561
vt 0.345169 0.997127
vt 0.670298 0.996161
vt 0.999025 0.999795
vt 0.592842 0.996266
vt 0.522049 0.995615
vt 0.458246 0.995914
vt 0.400054 0.996690
vt 0.289325 0.996495
vt 0.229502 0.997461
vt 0.329564 0.996991
vt 0.750454 0.993119
vt 0.751799 0.992229
vt 0.289502 0.950978
vt 0.999025 0.999795
vt 0.000681 0.999736
vt 0.000681 0.125029
vt 0.086604 0.995750
vt 0.162162 0.996568
vt 0.498989 0.991616
vt 0.289502 0.963709
vt 0.006073 0.994218
vt 0.111398 0.921574
vn 0.000000 0.707140 0.707074
vn 0.000000 0.707140 0.707074
vn 0.000000 0.707140 0.707074
vn 0.000000 0.707140 0.707074
vn -0.702280 0.711901 0.000018
vn -0.702280 0.711901 0.000018
vn -0.702280 0.711901 0.000018
vn -0.702280 0.711901 0.000018
vn 0.700730 0.713427 -0.000019
vn 0.700730 0.713427 -0.000019
vn 0.700730 0.713427 -0.000019
vn 0.700730 0.713427 -0.000019
vn 0.000130 0.713028 0.701136
vn 0.000130 0.713028 0.701136
vn 0.000130 0.713028 0.701136
vn 0.000130 0.713028 0.701136
vn 0.707135 0.707079 -0.000000
vn 0.707135 0.707079 -0.000000
vn 0.707135 0.707079 -0.000000
vn 0.707135 0.707079 -0.000000
vn 0.000000 1.000000 -0.000000
vn 0.000000 1.000000 0.000000
vn 0.000000 1.000000 0.000000
vn 0.000000 1.000000 -0.000000
vn 0.000000 1.000000 0.000000
vn 0.000000 1.000000 -0.000000
vn 0.000000 1.000000 0.000000
vn 0.000000 1.000000 -0.000000
vn 0.000000 1.000000 0.000000
vn 0.000000 1.000000 0.000000
vn 0.000000 1.000000 -0.000000
vn 0.000000 1.000000 0.000000
vn 0.000000 1.000000 0.000000
vn 0.000000 1.000000 0.000000
vn 0.000000 1.000000 0.000000
vn 0.000000 1.000000 0.000000
vn 0.000000 1.000000 0.000000
vn -0.404286 0.820972 -0.403184
vn -0.405462 0.820162 -0.403651
vn -0.405462 0.820162 -0.403651
vn -0.404287 0.820972 -0.403185
vn 0.000000 1.000000 0.000000
vn 0.000000 1.000000 0.000000
vn 0.000000 1.000000 0.000000
vn 0.000000 1.000000 0.000000
vn -0.000357 0.772663 -0.634817
vn -0.012583 0.783929 -0.620723
vn -0.012694 0.784028 -0.620595
vn -0.000357 0.772663 -0.634817
vn 0.000000 1.000000 0.000000
vn 0.000000 1.000000 0.000000
vn 0.000000 1.000000 0.000000
vn 0.000000 1.000000 0.000000
vn -0.045860 0.797216 -0.601949
vn -0.046191 0.797253 -0.601876
vn 0.000000 1.000000 0.000000
vn 0.000000 1.000000 0.000000
vn -0.101773 0.800642 -0.590436
vn -0.102291 0.800653 -0.590332
vn 0.000000 1.000000 0.000000
vn 0.000000 1.000000 0.000000
vn -0.179715 0.801359 -0.570549
vn -0.180094 0.801357 -0.570433
vn 0.000000 1.000000 0.000000
vn 0.000000 1.000000 0.000000
vn -0.266173 0.800943 -0.536323
vn -0.266079 0.800943 -0.536369
vn 0.000000 1.000000 0.000000
vn 0.000000 1.000000 0.000000
vn -0.339584 0.801303 -0.492541
vn -0.339261 0.801295 -0.492777
vn 0.000000 1.000000 0.000000
vn 0.000000 1.000000 0.000000
vn -0.386066 0.803798 -0.452616
vn -0.385876 0.803775 -0.452820
vn 0.000000 1.000000 0.000000
vn 0.000000 1.000000 0.000000
vn -0.405851 0.809050 -0.425115
vn -0.405816 0.809023 -0.425200
vn 0.000000 1.000000 0.000000
vn 0.000000 1.000000 0.000000
vn -0.406384 0.817203 -0.408694
vn -0.406395 0.817187 -0.408715
vn 0.000000 1.000000 0.000000
vn 0.000000 1.000000 0.000000
vn -0.465852 0.816053 0.342110
vn -0.468009 0.815977 0.339335
vn -0.667354 0.744671 0.010228
vn -0.667354 0.744671 0.010228
vn -0.410090 0.814669 0.410049
vn -0.410091 0.814669 0.410049
vn -0.948056 0.000155 -0.318105
vn -0.732209 0.000151 -0.681080
vn -0.736076 0.000151 -0.676899
vn -0.948056 0.000155 -0.318105
vn 0.442928 0.780520 0.441139
vn 0.442937 0.780510 0.441146
vn 0.435599 0.787869 0.435334
vn 0.435599 0.787869 0.435334
vn -0.432634 0.792874 0.429161
vn -0.432634 0.792874 0.429161
vn -0.432634 0.792874 0.429161
vn -0.432634 0.792874 0.429161
vn 0.508219 0.683404 -0.524092
vn 0.508219 0.683404 -0.524092
vn 0.595749 0.798103 -0.090081
vn 0.595832 0.798206 -0.088611
vn 0.598430 0.801175 0.000075
vn 0.598430 0.801176 0.000075
vn 0.443719 0.000000 -0.896166
vn 0.036794 -0.000439 -0.999323
vn 0.030703 -0.000445 -0.999528
vn 0.443719 0.000000 -0.896166
vn 0.604888 0.796311 -0.000112
vn 0.604888 0.796311 -0.000112
vn 0.604888 0.796311 -0.000112
vn 0.604888 0.796311 -0.000112
vn 0.005481 0.811659 0.584106
vn 0.005481 0.811659 0.584106
vn 0.013993 0.813496 0.581402
vn 0.013995 0.813497 0.581401
vn 0.044627 0.809541 0.585365
vn 0.044636 0.809538 0.585368
vn 0.101399 0.800321 0.590935
vn 0.101378 0.800323 0.590937
vn 0.159637 0.796509 0.583172
vn 0.161036 0.796477 0.582832
vn 0.314431 0.778368 0.543393
vn 0.312229 0.778556 0.544393
vn 0.226491 0.782297 0.580270
vn 0.361905 0.773406 0.520450
vn 0.361867 0.773411 0.520469
vn 0.418668 0.765897 0.487974
vn 0.418657 0.765899 0.487981
vn 0.446690 0.763814 0.465893
vn 0.446692 0.763814 0.465891
vn 0.452090 0.768836 0.452223
vn 0.452089 0.768839 0.452219
vn -0.503024 0.707047 -0.497043
vn -0.499794 0.706850 -0.500568
vn -0.499793 0.706850 -0.500570
vn -0.503011 0.707046 -0.497057
vn -0.507042 0.707098 -0.492870
vn -0.506522 0.707105 -0.493395
vn 0.006055 0.706956 -0.707232
vn -0.013426 0.706872 -0.707215
vn -0.013434 0.706872 -0.707214
vn 0.005256 0.706959 -0.707235
vn -0.054221 0.706628 -0.705505
vn -0.054247 0.706628 -0.705503
vn -0.119978 0.706554 -0.697415
vn -0.120059 0.706553 -0.697401
vn -0.212004 0.706583 -0.675126
vn -0.212161 0.706583 -0.675077
vn -0.314680 0.706503 -0.633901
vn -0.314860 0.706503 -0.633811
vn -0.402601 0.706307 -0.582275
vn -0.402720 0.706307 -0.582192
vn -0.460290 0.706295 -0.537848
vn -0.460342 0.706296 -0.537802
vn -0.489554 0.706556 -0.510994
vn -0.489553 0.706556 -0.510995
vn -0.711260 -0.000104 -0.702929
vn -0.711260 -0.000104 -0.702929
vn -0.000000 1.000000 -0.000000
vn -0.000000 1.000000 -0.000000
vn -0.000000 1.000000 -0.000000
vn -0.000000 1.000000 -0.000000
vn -0.019132 -0.000963 -0.999817
vn -0.019140 -0.000963 -0.999816
vn 0.000000 1.000000 -0.000000
vn 0.000000 1.000000 -0.000000
vn 0.000000 1.000000 -0.000001
vn 0.000000 1.000000 -0.000001
vn -0.076795 -0.002018 -0.997045
vn -0.076846 -0.002019 -0.997041
vn -0.000000 1.000000 -0.000000
vn -0.000000 1.000000 -0.000000
vn -0.169698 -0.003248 -0.985491
vn -0.169861 -0.003250 -0.985463
vn -0.000000 1.000000 -0.000000
vn -0.000000 1.000000 -0.000000
vn -0.299631 -0.004391 -0.954045
vn -0.299941 -0.004393 -0.953948
vn -0.000000 1.000000 -0.000000
vn -0.000000 1.000000 -0.000000
vn -0.444462 -0.004893 -0.895784
vn -0.444818 -0.004893 -0.895608
vn -0.000000 1.000000 -0.000000
vn -0.000000 1.000000 -0.000000
vn -0.568414 -0.004389 -0.822731
vn -0.568666 -0.004387 -0.822557
vn -0.000000 1.000000 -0.000000
vn -0.000000 1.000000 -0.000000
vn -0.649938 -0.003144 -0.759981
vn -0.650049 -0.003141 -0.759886
vn -0.000000 1.000000 -0.000000
vn -0.000000 1.000000 -0.000000
vn -0.691612 -0.001780 -0.722267
vn -0.691645 -0.001778 -0.722236
vn -0.000000 1.000000 -0.000000
vn -0.000000 1.000000 -0.000000
vn -0.706469 -0.000748 -0.707744
vn -0.706471 -0.000748 -0.707742
vn -0.000000 1.000000 -0.000000
vn -0.000000 1.000000 -0.000000
vn -0.636717 0.691188 -0.341833
vn 0.207519 0.691679 -0.691749
vn -0.078903 0.749324 -0.657486
vn -0.078903 0.749324 -0.657486
vn -0.078903 0.749324 -0.657486
vn -0.078903 0.749324 -0.657486
vn -0.151556 0.753469 -0.639777
vn -0.151556 0.753469 -0.639777
vn -0.151556 0.753469 -0.639777
vn -0.151556 0.753469 -0.639777
vn 0.228989 0.792881 0.564715
vn 0.226793 0.796088 0.561079
vn 0.226793 0.796088 0.561079
vn 0.226793 0.796088 0.561079
vn -0.256130 0.726341 -0.637830
vn -0.256130 0.726341 -0.637830
vn -0.256130 0.726340 -0.637830
vn -0.256130 0.726341 -0.637830
vn -0.270134 0.723980 -0.634729
vn -0.270134 0.723980 -0.634729
vn -0.270134 0.723980 -0.634729
vn -0.270134 0.723980 -0.634729
vn -0.356212 0.727911 -0.585882
vn -0.356212 0.727911 -0.585882
vn -0.356212 0.727911 -0.585882
vn -0.356212 0.727911 -0.585882
vn -0.414519 0.745590 -0.521794
vn -0.414519 0.745590 -0.521794
vn -0.414519 0.745590 -0.521794
vn -0.414519 0.745590 -0.521794
vn -0.450560 0.747398 -0.488254
vn -0.450560 0.747398 -0.488253
vn -0.450560 0.747398 -0.488254
vn -0.450560 0.747398 -0.488254
vn -0.471659 0.741501 -0.477194
vn -0.471659 0.741501 -0.477194
vn -0.471659 0.741501 -0.477194
vn -0.471659 0.741501 -0.477194
vn -0.500617 0.703410 -0.504576
vn -0.500617 0.703410 -0.504576
vn -0.500617 0.703410 -0.504576
vn -0.500617 0.703410 -0.504576
vn -0.530081 0.659214 -0.533339
vn -0.530081 0.659214 -0.533339
vn -0.530081 0.659214 -0.533339
vn -0.530081 0.659214 -0.533339
vn -0.005789 0.753383 -0.657557
vn -0.005789 0.753383 -0.657557
vn -0.005789 0.753383 -0.657557
vn -0.005789 0.753383 -0.657557
vn -0.026819 0.760333 -0.648980
vn -0.026819 0.760333 -0.648980
vn -0.026819 0.760333 -0.648980
vn -0.026819 0.760333 -0.648980
s off
g mesh_Paving_Outer45Left Modular_PavementEXPORT
f 1/1/1 3/2/2 115/3/3 114/5/4
f 7/8/5 8/12/6 115/3/7 3/2/8
f 8/124/9 10/10/10 9/9/11 115/123/12
f 11/11/13 116/122/14 115/123/15 9/9/16
f 4/4/17 5/73/18 1/1/19 2/75/20
s 1
f 13/77/21 7/8/22 3/2/23
s 2
f 16/13/24 11/11/25 9/9/26
f 18/14/27 17/15/28 9/9/26
f 17/15/28 16/13/24 9/9/26
f 20/16/29 19/17/30 9/9/26
f 19/17/30 18/14/27 9/9/26
f 10/10/31 21/18/32 9/9/26
f 21/18/32 20/16/29 9/9/26
s 1
f 15/19/33 14/121/34 3/2/23
f 14/121/34 13/77/21 3/2/23
f 5/73/35 22/6/36 3/2/23 1/1/37
f 22/6/36 15/19/33 3/2/23
s 3
f 40/20/38 41/23/39 43/22/40 42/21/41
s 4
f 42/21/42 43/22/43 45/25/44 44/24/45
s 3
f 48/26/46 49/29/47 51/28/48 50/27/49
s 4
f 50/27/50 51/28/51 53/31/52 52/30/53
s 3
f 49/29/47 56/33/54 57/32/55 51/28/48
s 4
f 51/28/51 57/32/56 58/34/57 53/31/52
s 3
f 56/33/54 60/36/58 61/35/59 57/32/55
s 4
f 57/32/56 61/35/60 62/37/61 58/34/57
s 3
f 60/36/58 64/39/62 65/38/63 61/35/59
s 4
f 61/35/60 65/38/64 66/40/65 62/37/61
s 3
f 64/39/62 68/42/66 69/41/67 65/38/63
s 4
f 65/38/64 69/41/68 70/43/69 66/40/65
s 3
f 68/42/66 72/45/70 73/44/71 69/41/67
s 4
f 69/41/68 73/44/72 74/46/73 70/43/69
s 3
f 72/45/70 76/48/74 77/47/75 73/44/71
s 4
f 73/44/72 77/47/76 78/49/77 74/46/73
s 3
f 76/48/74 80/51/78 81/50/79 77/47/75
s 4
f 77/47/76 81/50/80 82/52/81 78/49/77
s 3
f 80/51/78 84/54/82 85/53/83 81/50/79
s 4
f 81/50/80 85/53/84 86/55/85 82/52/81
s 3
f 84/54/82 40/20/38 42/21/41 85/53/83
s 4
f 85/53/84 42/21/42 44/24/45 86/55/85
s 7
f 29/56/86 43/22/87 41/23/88 30/57/89
f 28/58/90 45/25/91 43/22/87 29/56/86
s 8
f 27/59/92 91/60/93 45/25/94 28/58/95
s 9
f 39/110/96 46/63/97 47/62/98 112/119/99
s off
f 113/120/100 47/62/101 90/64/102 27/59/103
s 10
f 26/65/104 48/26/105 50/27/106 25/66/107
f 25/66/107 50/27/106 52/30/108 24/67/109
s 8
f 24/67/110 52/30/111 93/69/112 23/68/113
s off
f 23/68/114 92/71/115 54/70/116 4/129/117
s 12
f 4/129/118 54/70/119 55/72/120 6/125/121
f 6/125/121 55/72/120 59/74/122 31/126/123
f 31/126/123 59/74/122 63/76/124 32/117/125
f 32/117/125 63/76/124 67/78/126 33/116/127
s 9
f 71/79/128 34/109/129 8/118/130
f 34/109/129 71/79/128 75/82/131 35/115/132
f 35/115/132 75/82/131 79/84/133 36/114/134
f 36/114/134 79/84/133 83/86/135 37/113/136
f 37/113/136 83/86/135 87/88/137 38/112/138
f 38/112/138 87/88/137 46/63/97 39/110/96
s 14
f 88/89/139 111/92/140 110/91/141 89/90/142
f 89/90/142 91/60/143 90/64/144 88/89/139
f 93/69/145 94/94/146 95/93/147 92/71/148
f 94/94/146 96/96/149 97/95/150 95/93/147
f 96/96/149 98/98/151 99/97/152 97/95/150
f 98/98/151 100/100/153 101/99/154 99/97/152
f 100/100/153 102/102/155 103/101/156 101/99/154
f 102/102/155 104/104/157 105/103/158 103/101/156
f 104/104/157 106/106/159 107/105/160 105/103/158
f 106/106/159 108/108/161 109/107/162 107/105/160
f 108/108/161 110/91/141 111/92/140 109/107/162
s 8
f 44/24/163 45/25/94 91/60/93 89/90/164
s 16
f 88/89/165 90/64/166 47/62/167 46/63/168
s 8
f 52/30/111 53/31/169 94/94/170 93/69/112
s 16
f 95/93/171 55/72/172 54/70/173 92/71/174
s 8
f 53/31/169 58/34/175 96/96/176 94/94/170
s 16
f 95/93/171 97/95/177 59/74/178 55/72/172
s 8
f 58/34/175 62/37/179 98/98/180 96/96/176
s 16
f 97/95/177 99/97/181 63/76/182 59/74/178
s 8
f 62/37/179 66/40/183 100/100/184 98/98/180
s 16
f 99/97/181 101/99/185 67/78/186 63/76/182
s 8
f 66/40/183 70/43/187 102/102/188 100/100/184
s 16
f 101/99/185 103/101/189 71/79/190 67/78/186
s 8
f 70/43/187 74/46/191 104/104/192 102/102/188
s 16
f 103/101/189 105/103/193 75/82/194 71/79/190
s 8
f 74/46/191 78/49/195 106/106/196 104/104/192
s 16
f 105/103/193 107/105/197 79/84/198 75/82/194
s 8
f 78/49/195 82/52/199 108/108/200 106/106/196
s 16
f 107/105/197 109/107/201 83/86/202 79/84/198
s 8
f 82/52/199 86/55/203 110/91/204 108/108/200
s 16
f 109/107/201 111/92/205 87/88/206 83/86/202
s 8
f 86/55/203 44/24/163 89/90/164 110/91/204
s 16
f 111/92/205 88/89/165 46/63/168 87/88/206
s 14
f 90/64/144 91/60/143 27/59/207
f 92/71/148 23/68/208 93/69/145
s off
f 15/19/209 31/127/210 32/128/211 14/121/212
f 14/121/213 32/128/214 33/130/215 13/77/216
s 12
f 33/116/127 67/78/126 8/118/217
s off
f 67/78/218 71/79/219 8/118/220
f 13/77/221 33/130/222 8/12/223 7/8/224
f 10/10/225 8/124/226 34/80/227 21/18/228
f 21/18/229 34/80/230 35/81/231 20/16/232
f 20/16/233 35/81/234 36/83/235 19/17/236
f 19/17/237 36/83/238 37/85/239 18/14/240
f 18/14/241 37/85/242 38/87/243 17/15/244
f 17/15/245 38/87/246 39/61/247 16/13/248
f 16/13/249 39/61/250 12/111/251 11/11/252
f 22/6/253 5/73/254 4/4/255 6/7/256
f 15/19/257 22/6/258 6/7/259 31/127/260
