# This file uses centimeters as units for non-parametric coordinates.

g default
v 0.000648 0.095892 0.000942
v -0.130458 0.095892 0.013342
v -0.119691 0.106659 0.012714
v -0.011000 0.107685 0.114659
v -0.010483 0.096917 0.125426
v -0.011000 0.107685 0.014047
v -0.010483 0.019739 0.125426
v -0.130458 0.018714 0.013342
v -0.267400 -0.001026 0.013342
v -0.010483 0.000000 0.262367
v -0.010483 0.019739 0.230342
v -0.235373 0.018714 0.013342
v 0.000952 0.096917 0.115406
v 0.000952 0.008832 0.115406
v 0.000952 0.008832 0.230342
v 0.000952 0.000000 0.247700
v -0.120065 0.095892 0.000942
v -0.120065 0.009508 0.000942
v -0.235311 0.009508 0.000942
v -0.252318 -0.001026 0.000942
v -0.266137 -0.000000 0.056213
v -0.233747 0.020902 0.051894
v -0.131104 0.021039 0.044530
v -0.131066 0.096119 0.044402
v -0.119574 0.106757 0.036786
v -0.249605 0.000000 0.134935
v -0.219390 0.020902 0.118574
v -0.124841 0.021039 0.073671
v -0.124797 0.096119 0.073576
v -0.114061 0.106757 0.066375
v -0.197598 0.000000 0.205020
v -0.174635 0.020902 0.178519
v -0.103363 0.021039 0.101802
v -0.103220 0.096119 0.101523
v -0.092467 0.106757 0.093419
v -0.124967 0.000000 0.248935
v -0.112058 0.020902 0.216920
v -0.072639 0.021039 0.121471
v -0.072392 0.096119 0.121117
v -0.066115 0.106757 0.110157
v -0.051726 -0.000000 0.259251
v -0.048614 0.020902 0.226513
v -0.040947 0.021039 0.126403
v -0.040892 0.096119 0.126373
v -0.035868 0.106757 0.117078
vt 0.581058 0.945325
vt 0.515571 0.986814
vt 0.520035 0.987288
vt 0.581058 0.976754
vt 0.584696 0.980848
vt 0.519419 0.964260
vt 0.524061 0.964629
vt 0.528544 0.934747
vt 0.533104 0.934867
vt 0.532144 0.924043
vt 0.534973 0.928857
vt 0.453854 0.987184
vt 0.452983 0.991552
vt 0.546988 0.980848
vt 0.449761 0.964342
vt 0.445145 0.964895
vt 0.439561 0.935752
vt 0.435129 0.936160
vt 0.435302 0.925098
vt 0.432587 0.930300
vt 0.463361 0.986852
vt 0.547142 0.969651
vt 0.460565 0.963667
vt 0.449718 0.933450
vt 0.446403 0.921922
vt 0.464933 0.916859
vt 0.466240 0.929123
vt 0.471353 0.963114
vt 0.472794 0.986358
vt 0.548864 0.960408
vt 0.484795 0.916040
vt 0.484554 0.928908
vt 0.484180 0.962551
vt 0.484297 0.986166
vt 0.555609 0.951960
vt 0.503977 0.917943
vt 0.502347 0.930314
vt 0.497504 0.962568
vt 0.496166 0.986081
vt 0.563841 0.946732
vt 0.520852 0.922475
vt 0.517835 0.934209
vt 0.509104 0.963222
vt 0.506342 0.986420
vt 0.573290 0.944570
vt 0.507823 0.990898
vt 0.516240 0.991219
vt 0.496774 0.991117
vt 0.485147 0.991405
vt 0.472262 0.991591
vt 0.461251 0.991908
vt 0.547105 0.977171
vt 0.449049 0.987756
vt 0.584791 0.945092
vn 0.518728 0.616844 0.591966
vn 0.518728 0.616844 0.591966
vn 0.518728 0.616844 0.591966
vn 0.689796 0.723990 -0.004426
vn 0.689796 0.723990 -0.004426
vn 0.689796 0.723990 -0.004426
vn 0.689796 0.723990 -0.004426
vn 0.659051 0.000000 0.752098
vn 0.659051 0.000000 0.752098
vn 0.659051 0.000000 0.752098
vn 0.659051 0.000000 0.752098
vn 0.690225 0.723595 0.000000
vn 0.690225 0.723595 0.000000
vn 0.690225 0.723595 0.000000
vn 0.690225 0.723595 0.000000
vn 0.591719 0.697776 0.403705
vn 0.591719 0.697776 0.403705
vn 0.591719 0.697776 0.403705
vn 0.591719 0.697776 0.403705
vn -0.619346 0.589036 -0.519082
vn -0.619346 0.589036 -0.519082
vn -0.619346 0.589036 -0.519082
vn 0.000588 0.740890 -0.671626
vn 0.000588 0.740890 -0.671626
vn 0.000588 0.740890 -0.671626
vn 0.000588 0.740890 -0.671626
vn -0.766416 0.000000 -0.642344
vn -0.766416 0.000000 -0.642344
vn -0.766416 0.000000 -0.642344
vn -0.766416 0.000000 -0.642344
vn 0.000000 0.802928 -0.596076
vn 0.000000 0.802928 -0.596076
vn 0.000000 0.802928 -0.596076
vn 0.000000 0.802928 -0.596076
vn -0.443147 0.717786 -0.537032
vn -0.443147 0.717786 -0.537032
vn -0.443147 0.717786 -0.537032
vn -0.443147 0.717786 -0.537032
vn -0.695105 0.718833 -0.010436
vn -0.695105 0.718833 -0.010436
vn -0.660438 0.746482 0.081155
vn -0.673990 0.737208 0.047550
vn -0.999797 0.000234 -0.020168
vn -0.999797 0.000234 -0.020168
vn -0.995963 0.000528 0.089767
vn -0.995715 0.000535 0.092479
vn -0.002950 0.997911 -0.064539
vn -0.002950 0.997911 -0.064539
vn -0.002035 0.999600 -0.028201
vn -0.001994 0.999645 -0.026562
vn -0.534222 0.845222 -0.014400
vn -0.534222 0.845222 -0.014400
vn -0.529849 0.845366 0.067939
vn -0.529837 0.845361 0.068106
vn -0.470049 0.853882 0.223471
vn -0.474302 0.853556 0.215592
vn -0.001183 0.999999 0.000560
vn -0.001185 0.999999 0.000555
vn -0.899374 0.001790 0.437177
vn -0.899483 0.001789 0.436951
vn -0.559943 0.778171 0.284453
vn -0.571455 0.776874 0.264398
vn -0.346114 0.857668 0.380277
vn -0.348165 0.857648 0.378446
vn -0.000889 0.999999 0.000968
vn -0.000887 0.999999 0.000969
vn -0.673515 0.003808 0.739164
vn -0.673695 0.003806 0.739000
vn -0.431971 0.776574 0.458622
vn -0.417919 0.775333 0.473500
vn -0.184839 0.855258 0.484117
vn -0.180850 0.855129 0.485848
vn -0.000482 0.999999 0.001234
vn -0.000470 0.999999 0.001240
vn -0.368683 0.004056 0.929546
vn -0.368348 0.004054 0.929679
vn -0.258510 0.751556 0.606907
vn -0.243958 0.748622 0.616481
vn -0.061264 0.846773 0.528415
vn -0.061820 0.846756 0.528377
vn 0.015548 0.999878 0.001640
vn 0.015153 0.999884 0.001633
vn -0.064569 0.001533 0.997912
vn -0.064973 0.001538 0.997886
vn -0.078683 0.708378 0.701434
vn -0.048268 0.701095 0.711432
vn -0.033976 0.847277 0.530063
vn -0.033976 0.847277 0.530063
vn 0.035782 0.999358 0.002007
vn 0.035782 0.999358 0.002007
vn 0.031587 0.000188 0.999501
vn 0.031587 0.000188 0.999501
vn 0.023292 0.681041 0.731874
vn 0.023292 0.681041 0.731874
vn -0.009388 0.999948 -0.004023
vn -0.009388 0.999948 -0.004023
vn -0.009388 0.999948 -0.004023
vn -0.008225 0.999965 0.001529
vn -0.008225 0.999965 0.001529
vn -0.008225 0.999965 0.001529
vn -0.006405 0.999966 0.005113
vn -0.006405 0.999967 0.005113
vn -0.006405 0.999966 0.005113
vn -0.004494 0.999965 0.007075
vn -0.004494 0.999965 0.007075
vn -0.004494 0.999965 0.007075
vn -0.001951 0.999962 0.008533
vn -0.001951 0.999962 0.008533
vn -0.001951 0.999962 0.008533
vn -0.037281 0.999305 0.000000
vn -0.037281 0.999305 0.000000
vn -0.037281 0.999305 0.000000
s off
g mesh_Paving_Outer90SingleTight Modular_PavementEXPORT
f 4/47/1 5/2/2 13/3/3
f 6/4/4 4/1/5 13/54/6 1/5/7
f 5/2/8 7/6/9 14/7/10 13/3/11
f 7/6/12 11/8/13 15/9/14 14/7/15
f 11/8/16 10/10/17 16/11/18 15/9/19
f 2/12/20 3/13/21 17/53/22
f 3/52/23 6/4/24 1/5/25 17/14/26
f 8/15/27 2/12/28 17/53/29 18/16/30
f 12/17/31 8/15/32 18/16/33 19/18/34
f 9/19/35 12/17/36 19/18/37 20/20/38
s 1
f 3/13/39 2/12/40 24/21/41 25/51/42
s 2
f 2/12/43 8/15/44 23/23/45 24/21/46
s 3
f 8/15/47 12/17/48 22/24/49 23/23/50
s 4
f 12/17/51 9/19/52 21/25/53 22/24/54
f 22/24/54 21/25/53 26/26/55 27/27/56
s 3
f 23/23/50 22/24/49 27/27/57 28/28/58
s 2
f 24/21/46 23/23/45 28/28/59 29/29/60
s 1
f 25/51/42 24/21/41 29/29/61 30/50/62
s 4
f 27/27/56 26/26/55 31/31/63 32/32/64
s 3
f 28/28/58 27/27/57 32/32/65 33/33/66
s 2
f 29/29/60 28/28/59 33/33/67 34/34/68
s 1
f 30/50/62 29/29/61 34/34/69 35/49/70
s 4
f 32/32/64 31/31/63 36/36/71 37/37/72
s 3
f 33/33/66 32/32/65 37/37/73 38/38/74
s 2
f 34/34/68 33/33/67 38/38/75 39/39/76
s 1
f 35/49/70 34/34/69 39/39/77 40/48/78
s 4
f 37/37/72 36/36/71 41/41/79 42/42/80
s 3
f 38/38/74 37/37/73 42/42/81 43/43/82
s 2
f 39/39/76 38/38/75 43/43/83 44/44/84
s 1
f 40/48/78 39/39/77 44/44/85 45/46/86
s 4
f 42/42/80 41/41/79 10/10/87 11/8/88
s 3
f 43/43/82 42/42/81 11/8/89 7/6/90
s 2
f 44/44/84 43/43/83 7/6/91 5/2/92
s 1
f 45/46/86 44/44/85 5/2/93 4/47/94
s off
f 3/52/95 25/22/96 6/4/97
f 25/22/98 30/30/99 6/4/100
f 30/30/101 35/35/102 6/4/103
f 35/35/104 40/40/105 6/4/106
f 40/40/107 45/45/108 6/4/109
f 45/45/110 4/1/111 6/4/112
