# This file uses centimeters as units for non-parametric coordinates.

g default
v -0.120712 0.096917 -0.000000
v -0.120712 0.010533 -0.000000
v -0.252966 0.000000 -0.000000
v -0.235958 0.010533 -0.000000
v 0.000002 0.096917 0.000000
v -1.086853 0.096917 1.917506
v -1.086853 0.010963 1.917506
v -1.179825 0.000000 1.824052
v -1.167797 0.010533 1.836079
v -1.001062 0.096960 2.002355
v 0.000002 0.096917 0.242020
v -0.013443 0.097044 0.474383
v -0.039713 0.097044 0.687763
v -0.087320 0.097044 0.881691
v -0.160093 0.097044 1.057303
v -0.257877 0.097044 1.217008
v -0.377249 0.097044 1.366320
v -0.514532 0.097044 1.513645
v -0.666758 0.097044 1.666883
v -0.830570 0.097044 1.830321
v -1.022381 -0.000000 1.641758
v -1.000546 0.022483 1.660868
v -1.161951 0.022482 1.823234
v -1.181925 -0.000000 1.806684
v -0.925190 0.022482 1.736300
v -1.083740 0.022482 1.901142
v -0.843517 0.107384 1.823209
v -1.001715 0.107384 1.985517
v -0.266619 -0.000000 0.014912
v -0.240007 0.022482 0.014702
v -0.242649 0.022482 0.240958
v -0.268827 -0.000000 0.224170
v -0.129900 0.022482 0.014659
v -0.136164 0.022482 0.241910
v -0.015781 0.107384 0.015687
v -0.017969 0.107384 0.245125
v -0.253107 0.022482 0.461565
v -0.279190 -0.000000 0.445003
v -0.146955 0.022482 0.467516
v -0.028824 0.107384 0.476668
v -0.276913 0.022482 0.653034
v -0.302761 -0.000000 0.636858
v -0.172060 0.022482 0.668985
v -0.054878 0.107384 0.688439
v -0.316954 0.022483 0.814424
v -0.342386 -0.000000 0.798710
v -0.215702 0.022482 0.845094
v -0.101725 0.107384 0.879319
v -0.375013 0.022483 0.952742
v -0.399776 0.000000 0.937450
v -0.280489 0.022482 1.000124
v -0.173010 0.107384 1.051373
v -0.454203 0.022483 1.080411
v -0.477922 0.000000 1.065442
v -0.367960 0.022483 1.141986
v -0.269064 0.107384 1.208284
v -0.558010 0.022483 1.209167
v -0.582586 0.000000 1.190544
v -0.478502 0.022483 1.279686
v -0.387371 0.107384 1.356291
v -0.686666 0.022483 1.346705
v -0.709232 0.000000 1.328198
v -0.610712 0.022483 1.421334
v -0.524738 0.107384 1.503735
v -0.836327 0.022483 1.497132
v -0.856438 0.000000 1.478608
v -0.761261 0.022483 1.572803
v -0.678057 0.107384 1.658099
v -0.916428 0.107384 1.745015
v -0.925310 0.093880 1.736322
v -1.074980 0.107384 1.909907
v -1.083773 0.093883 1.901114
v -0.117411 0.107384 0.014644
v -0.129856 0.093890 0.014664
v -0.135967 0.093899 0.241637
v -0.123507 0.107384 0.241618
v -0.146507 0.093917 0.466711
v -0.134062 0.107384 0.467618
v -0.171257 0.093933 0.667554
v -0.158903 0.107384 0.669550
v -0.214489 0.093936 0.843209
v -0.202463 0.107384 0.846767
v -0.279005 0.093924 0.998175
v -0.267664 0.107384 1.003510
v -0.366552 0.093905 1.140350
v -0.356131 0.107384 1.147242
v -0.477488 0.093884 1.278556
v -0.467903 0.107384 1.286508
v -0.610111 0.093882 1.420616
v -0.601158 0.107384 1.429242
v -0.761179 0.093879 1.572593
v -0.752398 0.107384 1.581384
v -0.116615 0.107685 0.990182
v -0.010767 0.107685 0.990182
v -0.136810 0.096917 1.001120
v -0.010765 0.107685 1.012058
v -0.125082 0.107685 1.012058
v 0.000002 0.096917 2.002241
v -0.010765 0.107685 1.991474
v -0.973522 0.105132 1.991374
v -0.010765 0.099378 0.478888
v -0.074289 0.107685 0.886338
v -0.026236 0.107685 0.691008
v -0.822241 0.107685 1.840680
v -0.656120 0.107685 1.676657
v -0.503349 0.107685 1.525907
v -0.365921 0.107685 1.377542
v -0.246557 0.107685 1.224542
v -0.147921 0.107685 1.065490
v 0.000002 0.096917 0.478328
v 0.000002 0.096917 1.001120
v 0.000002 0.096917 2.002241
vt 0.229248 0.889125
vt 0.229571 0.899529
vt 0.160926 0.899531
vt 0.160926 0.889139
vt 0.230219 0.932148
vt 0.160926 0.932154
vt 0.845302 0.889118
vt 0.845304 0.899528
vt 0.776611 0.899529
vt 0.781804 0.889117
vt 0.845333 0.932144
vt 0.776913 0.932148
vt 0.707273 0.899520
vt 0.712549 0.889079
vt 0.707248 0.932132
vt 0.642829 0.899514
vt 0.646930 0.889047
vt 0.643731 0.932124
vt 0.585593 0.899516
vt 0.587793 0.889052
vt 0.586913 0.932131
vt 0.534407 0.899519
vt 0.535048 0.889064
vt 0.534815 0.932132
vt 0.484108 0.899518
vt 0.483761 0.889067
vt 0.483359 0.932133
vt 0.429485 0.899515
vt 0.428492 0.889059
vt 0.428536 0.932126
vt 0.367987 0.899514
vt 0.366644 0.889061
vt 0.367991 0.932118
vt 0.300569 0.899520
vt 0.299445 0.889090
vt 0.301512 0.932131
vt 0.155728 0.901950
vt 0.155726 0.896768
vt 0.155710 0.932150
vt 0.155722 0.957837
vt 0.160926 0.954963
vt 0.172770 0.828715
vt 0.002962 0.996858
vt 0.160926 0.992132
vt 0.229475 0.991973
vt 0.160926 0.960089
vt 0.850899 0.894853
vt 0.850899 0.903094
vt 0.850874 0.932134
vt 0.850885 0.957868
vt 0.845327 0.954963
vt 0.850883 0.997393
vt 0.845326 0.991764
vt 0.845328 0.960089
vt 0.777025 0.997429
vt 0.776960 0.991603
vt 0.985490 0.475324
vt 0.706959 0.991795
vt 0.960446 0.687847
vt 0.644296 0.991944
vt 0.913027 0.880995
vt 0.587973 0.991660
vt 0.535794 0.991794
vt 0.863738 0.999943
vt 0.536156 0.997098
vt 0.743159 0.217868
vt 0.483841 0.991813
vt 0.624268 0.366579
vt 0.428655 0.991889
vt 0.487536 0.513313
vt 0.368139 0.991892
vt 0.335923 0.665933
vt 0.301695 0.992012
vt 0.230987 0.960089
vt 0.230824 0.954961
vt 0.302221 0.954960
vt 0.302379 0.960089
vt 0.776628 0.960089
vt 0.776583 0.954961
vt 0.706914 0.960089
vt 0.707000 0.954959
vt 0.644222 0.960089
vt 0.644160 0.954959
vt 0.587990 0.960089
vt 0.587825 0.954960
vt 0.535681 0.960089
vt 0.535556 0.954960
vt 0.483675 0.960089
vt 0.483650 0.954960
vt 0.428651 0.960089
vt 0.428655 0.954959
vt 0.368481 0.960089
vt 0.368441 0.954959
vt 0.883855 0.989048
vt 0.988717 0.989048
vt 0.999440 0.999943
vt 0.987880 0.013743
vt 0.875420 0.013743
vt 0.999440 0.999943
vt 0.987320 0.989219
vt 0.030393 0.986817
vt 0.998043 0.999943
vt 0.988157 0.479811
vt 0.998880 0.479254
vt 0.926008 0.885623
vt 0.852674 0.066960
vt 0.754432 0.225372
vt 0.973869 0.691078
vt 0.346516 0.675668
vt 0.181064 0.839031
vt 0.498673 0.525525
vt 0.635550 0.377757
vt 0.998603 0.002849
vt 0.552642 0.997185
vt 0.863738 0.002849
vt 0.840550 0.058805
vt 0.230675 0.997461
vt 0.155724 0.997394
vt 0.302233 0.997310
vt 0.368122 0.997227
vt 0.428424 0.997324
vt 0.483705 0.997019
vt 0.588486 0.997311
vt 0.645246 0.997336
vt 0.706875 0.997207
vt 0.998880 0.243896
vn -0.446177 0.777110 -0.443877
vn -0.452812 0.773171 -0.444035
vn -0.452812 0.773171 -0.444035
vn -0.445740 0.777367 -0.443866
vn 0.000000 1.000000 0.000001
vn -0.039951 0.998710 0.031343
vn -0.046044 0.997889 0.045792
vn 0.000000 1.000000 0.000001
vn -0.647104 0.762368 -0.007207
vn -0.644804 0.764187 -0.015711
vn -0.643064 0.765496 -0.022019
vn -0.647104 0.762368 -0.007207
vn -0.007869 0.998571 -0.052868
vn 0.000001 1.000000 -0.000000
vn 0.000001 1.000000 -0.000000
vn -0.000012 0.997825 -0.065917
vn -0.635157 0.770962 -0.046827
vn -0.631179 0.773446 -0.058256
vn 0.000000 1.000000 -0.000000
vn 0.000000 1.000000 -0.000000
vn -0.615098 0.781599 -0.103713
vn -0.610197 0.783540 -0.117156
vn 0.000000 1.000000 -0.000000
vn 0.000000 1.000000 -0.000000
vn -0.584738 0.789991 -0.184382
vn -0.580623 0.790522 -0.194814
vn 0.000000 1.000000 -0.000000
vn 0.000000 1.000000 -0.000000
vn -0.546796 0.789830 -0.277817
vn -0.545291 0.789600 -0.281405
vn 0.000000 1.000000 0.000000
vn 0.000000 1.000000 0.000000
vn -0.496569 0.790747 -0.357963
vn -0.498149 0.790537 -0.356229
vn 0.000000 1.000000 0.000000
vn 0.000000 1.000000 0.000000
vn -0.453842 0.796898 -0.398724
vn -0.454900 0.796695 -0.397924
vn 0.000000 1.000000 0.000000
vn 0.000000 1.000000 0.000000
vn -0.442343 0.790026 -0.424491
vn -0.442218 0.790699 -0.423365
vn 0.000000 1.000000 0.000000
vn 0.000000 1.000000 0.000000
vn -0.441387 0.781472 -0.440998
vn -0.441476 0.781486 -0.440885
vn 0.000000 1.000000 0.000000
vn 0.000000 1.000000 0.000000
vn -0.523603 0.742650 0.417504
vn -0.771380 0.618674 0.149045
vn -0.771380 0.618674 0.149045
vn -0.465662 0.754118 0.463104
vn -0.982580 -0.000236 -0.185840
vn -0.751572 -0.000765 -0.659650
vn -0.758201 -0.000757 -0.652020
vn -0.982580 -0.000236 -0.185840
vn 0.426025 0.799454 0.423529
vn 0.061452 0.996249 0.060926
vn 0.040301 0.992189 0.118056
vn 0.439819 0.787040 0.432583
vn -0.453668 0.769505 0.449497
vn -0.035158 0.998775 0.034834
vn -0.453668 0.769505 0.449498
vn -0.500081 0.657101 -0.564037
vn -0.500081 0.657101 -0.564036
vn -0.092699 0.769567 -0.631801
vn -0.000120 0.775559 -0.631275
vn -0.847912 0.000250 -0.530137
vn -0.996735 0.001506 -0.080727
vn -0.997479 0.001529 -0.070952
vn -0.847912 0.000250 -0.530137
vn 0.002663 0.823547 -0.567242
vn 0.000237 0.998724 -0.050500
vn 0.111457 0.992425 -0.051669
vn 0.002663 0.823547 -0.567242
vn 0.528009 0.849235 0.002450
vn 0.088967 0.996031 0.002723
vn 0.528010 0.849235 0.002450
vn 0.532294 0.846108 0.027651
vn 0.089270 0.995975 0.008047
vn 0.545113 0.837189 0.044341
vn 0.091563 0.995650 0.017239
vn 0.563529 0.820270 0.097936
vn 0.064248 0.997758 0.018754
vn 0.558589 0.814462 0.156938
vn 0.054863 0.997997 0.031507
vn 0.510422 0.807226 0.296405
vn 0.544396 0.808428 0.223782
vn 0.077330 0.995533 0.054171
vn 0.481686 0.807797 0.339769
vn 0.068468 0.995902 0.059088
vn 0.444262 0.808729 0.385473
vn 0.062844 0.996186 0.060526
vn 0.423441 0.808906 0.407883
vn 0.060560 0.996332 0.060450
vn 0.416669 0.808455 0.415677
vn -0.524971 0.677247 -0.515501
vn -0.520719 0.677180 -0.519885
vn -0.520720 0.677180 -0.519883
vn -0.524978 0.677247 -0.515494
vn -0.530303 0.677311 -0.509930
vn -0.530303 0.677311 -0.509930
vn -0.734626 0.678184 -0.019767
vn -0.734038 0.678566 -0.027147
vn -0.734057 0.678554 -0.026906
vn -0.734626 0.678184 -0.019767
vn -0.730961 0.679718 -0.060663
vn -0.730990 0.679712 -0.060381
vn -0.720516 0.681058 -0.130449
vn -0.720668 0.681050 -0.129649
vn -0.695389 0.681742 -0.227294
vn -0.695841 0.681743 -0.225903
vn -0.651468 0.681105 -0.334195
vn -0.652216 0.681121 -0.332699
vn -0.598563 0.679465 -0.424322
vn -0.599232 0.679482 -0.423350
vn -0.554690 0.678003 -0.482319
vn -0.555014 0.678010 -0.481936
vn -0.529431 0.677343 -0.510793
vn -0.529431 0.677343 -0.510793
vn -0.713472 -0.000965 -0.700683
vn -0.713485 -0.000965 -0.700670
vn -0.000000 1.000000 -0.000000
vn -0.999302 0.002890 -0.037249
vn -0.999304 0.002884 -0.037199
vn 0.000000 1.000000 0.000000
vn -0.996497 0.005402 -0.083452
vn -0.996544 0.005383 -0.082888
vn 0.000000 1.000000 0.000000
vn -0.983782 0.007433 -0.179215
vn -0.984074 0.007414 -0.177606
vn -0.000000 1.000000 0.000000
vn -0.950080 0.007643 -0.311913
vn -0.950997 0.007663 -0.309107
vn -0.000000 1.000000 -0.000000
vn -0.889227 0.005566 -0.457432
vn -0.890766 0.005631 -0.454427
vn 0.000000 1.000000 -0.000000
vn -0.815431 0.002516 -0.578849
vn -0.816805 0.002573 -0.576908
vn -0.000000 1.000000 -0.000000
vn -0.754484 0.000222 -0.656318
vn -0.755146 0.000245 -0.655557
vn -0.000000 1.000000 -0.000000
vn -0.719591 -0.000894 -0.694398
vn -0.719772 -0.000889 -0.694210
vn -0.000000 1.000000 -0.000000
vn -0.707662 -0.001157 -0.706551
vn -0.707667 -0.001157 -0.706545
vn -0.000000 1.000000 -0.000000
vn -0.726044 0.638746 -0.254683
vn -0.726044 0.638746 -0.254683
vn -0.726044 0.638746 -0.254683
vn -0.700600 0.645762 -0.303565
vn -0.700600 0.645762 -0.303565
vn -0.700599 0.645762 -0.303565
vn 0.000000 0.712648 0.701522
vn 0.000000 0.712648 0.701522
vn 0.000000 0.712648 0.701522
vn 0.000000 0.712648 0.701522
vn 0.000000 0.712648 -0.701522
vn 0.000000 0.712648 -0.701522
vn 0.000000 0.712648 -0.701522
vn 0.000000 0.712648 -0.701522
vn 0.707121 0.707093 0.000000
vn 0.707121 0.707093 0.000000
vn 0.707121 0.707093 0.000000
vn 0.707121 0.707093 0.000000
vn -0.000960 0.754492 0.656309
vn -0.000960 0.754492 0.656309
vn -0.000960 0.754491 0.656309
vn -0.000960 0.754491 0.656309
vn 0.525751 0.850611 -0.006832
vn 0.525751 0.850611 -0.006832
vn 0.525751 0.850611 -0.006832
vn 0.525751 0.850611 -0.006832
vn 0.000000 1.000000 0.000000
vn 0.000000 1.000000 0.000000
vn 0.006626 0.999978 -0.000343
vn 0.000000 1.000000 -0.000000
vn 0.000000 1.000000 0.000000
vn -0.000322 0.999999 0.001731
vn -0.592631 0.792197 -0.145641
vn -0.592631 0.792197 -0.145641
vn -0.592631 0.792197 -0.145641
vn -0.592632 0.792197 -0.145641
vn -0.429654 0.792462 -0.432898
vn -0.429654 0.792462 -0.432898
vn -0.429654 0.792462 -0.432898
vn -0.429654 0.792462 -0.432898
vn -0.399434 0.824527 -0.400759
vn -0.399433 0.824527 -0.400759
vn -0.399433 0.824527 -0.400759
vn -0.399434 0.824527 -0.400759
vn -0.401539 0.836420 -0.373052
vn -0.401539 0.836420 -0.373052
vn -0.401539 0.836420 -0.373052
vn -0.401539 0.836420 -0.373052
vn -0.460187 0.810039 -0.363407
vn -0.460186 0.810039 -0.363407
vn -0.460187 0.810039 -0.363407
vn -0.460187 0.810039 -0.363407
vn -0.519228 0.801604 -0.296368
vn -0.520587 0.802141 -0.292505
vn -0.512273 0.798705 -0.315668
vn -0.512273 0.798705 -0.315668
vn -0.427328 0.800871 -0.419519
vn -0.427328 0.800871 -0.419519
vn -0.427328 0.800871 -0.419519
vn -0.427328 0.800871 -0.419519
vn 0.543217 0.808614 0.225961
vn 0.547936 0.805126 0.227020
vn 0.299726 0.953900 -0.015497
vn 0.250556 0.968015 -0.012955
vn -0.602422 0.794683 -0.074611
vn -0.602422 0.794683 -0.074611
vn -0.602422 0.794683 -0.074611
vn -0.602422 0.794683 -0.074611
vn 0.222758 0.974874 0.000000
vn 0.222758 0.974874 0.000000
vn 0.222758 0.974874 0.000000
vn -0.557504 0.798020 -0.228808
vn -0.557504 0.798020 -0.228808
vn -0.557504 0.798020 -0.228808
vn -0.557504 0.798020 -0.228808
vn -0.541515 0.808963 -0.228783
vn -0.541515 0.808963 -0.228783
vn 0.000000 1.000000 -0.000000
vn 0.000000 1.000000 -0.000000
vn 0.000000 1.000000 0.000000
vn 0.000000 1.000000 0.000000
vn 0.000000 1.000000 0.000000
vn -0.001789 0.999952 0.009629
vn -0.002653 0.999895 0.014276
vn -0.621080 0.782903 -0.036363
vn -0.621080 0.782903 -0.036363
vn -0.621080 0.782904 -0.036363
s 1
g mesh_Paving_Inner45Right Modular_PavementEXPORT
f 21/1/1 24/4/2 23/3/3 22/2/4
s 2
f 22/2/5 23/3/6 26/6/7 25/5/8
s 1
f 29/7/9 32/10/10 31/9/11 30/8/12
s 2
f 30/8/13 31/9/14 34/12/15 33/11/16
s 1
f 32/10/10 38/14/17 37/13/18 31/9/11
s 2
f 31/9/14 37/13/19 39/15/20 34/12/15
s 1
f 38/14/17 42/17/21 41/16/22 37/13/18
s 2
f 37/13/19 41/16/23 43/18/24 39/15/20
s 1
f 42/17/21 46/20/25 45/19/26 41/16/22
s 2
f 41/16/23 45/19/27 47/21/28 43/18/24
s 1
f 46/20/25 50/23/29 49/22/30 45/19/26
s 2
f 45/19/27 49/22/31 51/24/32 47/21/28
s 1
f 50/23/29 54/26/33 53/25/34 49/22/30
s 2
f 49/22/31 53/25/35 55/27/36 51/24/32
s 1
f 54/26/33 58/29/37 57/28/38 53/25/34
s 2
f 53/25/35 57/28/39 59/30/40 55/27/36
s 1
f 58/29/37 62/32/41 61/31/42 57/28/38
s 2
f 57/28/39 61/31/43 63/33/44 59/30/40
s 1
f 62/32/41 66/35/45 65/34/46 61/31/42
s 2
f 61/31/43 65/34/47 67/36/48 63/33/44
s 1
f 66/35/45 21/1/1 22/2/4 65/34/46
s 2
f 65/34/47 22/2/5 25/5/8 67/36/48
f 9/37/49 23/3/6 24/4/50 8/38/51
f 7/39/52 26/6/7 23/3/6 9/37/49
s 5
f 6/40/53 72/41/54 26/6/55 7/39/56
s 6
f 20/117/57 27/45/58 28/44/59 10/118/60
f 10/118/61 28/44/59 71/46/62 6/40/63
s 2
f 3/47/64 29/7/65 30/8/13 4/48/66
f 4/48/66 30/8/13 33/11/16 2/49/67
s 5
f 2/49/68 33/11/69 74/51/70 1/50/71
s 6
f 1/50/72 73/54/73 35/53/74 5/52/75
f 5/52/76 35/53/74 36/56/77 11/55/78
f 11/55/79 36/56/77 40/58/80 12/125/81
f 12/125/81 40/58/80 44/60/82 13/124/83
f 13/124/83 44/60/82 48/62/84 14/123/85
f 52/63/86 15/65/87 95/114/88
f 15/65/87 52/63/86 56/67/89 16/122/90
f 16/122/90 56/67/89 60/69/91 17/121/92
f 17/121/92 60/69/91 64/71/93 18/120/94
f 18/120/94 64/71/93 68/73/95 19/119/96
f 19/119/96 68/73/95 27/45/58 20/117/57
s 11
f 69/74/97 92/77/98 91/76/99 70/75/100
f 70/75/100 72/41/101 71/46/102 69/74/97
f 74/51/103 75/79/104 76/78/105 73/54/106
f 75/79/104 77/81/107 78/80/108 76/78/105
f 77/81/107 79/83/109 80/82/110 78/80/108
f 79/83/109 81/85/111 82/84/112 80/82/110
f 81/85/111 83/87/113 84/86/114 82/84/112
f 83/87/113 85/89/115 86/88/116 84/86/114
f 85/89/115 87/91/117 88/90/118 86/88/116
f 87/91/117 89/93/119 90/92/120 88/90/118
f 89/93/119 91/76/99 92/77/98 90/92/120
s 5
f 25/5/121 26/6/55 72/41/54 70/75/122
s 6
f 69/74/123 71/46/62 28/44/59 27/45/58
s 5
f 33/11/69 34/12/124 75/79/125 74/51/70
s 6
f 76/78/126 36/56/77 35/53/74 73/54/73
s 5
f 34/12/124 39/15/127 77/81/128 75/79/125
s 6
f 76/78/126 78/80/129 40/58/80 36/56/77
s 5
f 39/15/127 43/18/130 79/83/131 77/81/128
s 6
f 78/80/129 80/82/132 44/60/82 40/58/80
s 5
f 43/18/130 47/21/133 81/85/134 79/83/131
s 6
f 80/82/132 82/84/135 48/62/84 44/60/82
s 5
f 47/21/133 51/24/136 83/87/137 81/85/134
s 6
f 82/84/135 84/86/138 52/63/86 48/62/84
s 5
f 51/24/136 55/27/139 85/89/140 83/87/137
s 6
f 84/86/138 86/88/141 56/67/89 52/63/86
s 5
f 55/27/139 59/30/142 87/91/143 85/89/140
s 6
f 86/88/141 88/90/144 60/69/91 56/67/89
s 5
f 59/30/142 63/33/145 89/93/146 87/91/143
s 6
f 88/90/144 90/92/147 64/71/93 60/69/91
s 5
f 63/33/145 67/36/148 91/76/149 89/93/146
s 6
f 90/92/147 92/77/150 68/73/95 64/71/93
s 5
f 67/36/148 25/5/121 70/75/122 91/76/149
s 6
f 92/77/150 69/74/123 27/45/58 68/73/95
s off
f 71/46/151 72/41/152 6/40/153
f 73/54/154 1/50/155 74/51/156
f 93/94/157 95/64/158 111/96/159 94/95/160
f 95/115/161 97/98/162 96/97/163 111/113/164
f 96/97/165 99/100/166 112/99/167 111/113/168
f 10/43/169 98/102/170 99/100/171 100/101/172
f 101/103/173 94/95/174 111/96/175 110/104/176
s 13
f 102/105/177 93/94/178 94/95/179
s 14
f 109/106/180 108/107/181 99/100/182
s off
f 103/108/183 13/59/184 14/61/185 102/105/186
f 105/109/187 19/72/188 20/42/189 104/110/190
f 106/111/191 18/70/192 19/72/193 105/109/194
f 107/112/195 17/68/196 18/70/197 106/111/198
f 108/107/199 16/66/200 17/68/201 107/112/202
s 15
f 109/106/203 15/116/204 16/66/205 108/107/206
s off
f 10/43/207 100/101/208 104/110/209 20/42/210
s 6
f 14/123/85 48/62/84 95/114/211
f 48/62/84 52/63/86 95/114/212
s 13
f 101/103/213 103/108/214 94/95/179
f 103/108/214 102/105/177 94/95/179
s off
f 13/59/215 103/108/216 101/103/217 12/57/218
f 11/126/219 101/103/220 110/104/221
f 95/64/222 93/94/223 102/105/224 14/61/225
s 15
f 97/98/226 95/115/227 15/116/204 109/106/203
s 14
f 97/98/228 109/106/180 99/100/182 96/97/229
f 107/112/230 106/111/231 99/100/182
f 108/107/181 107/112/230 99/100/182
f 105/109/232 104/110/233 99/100/182
f 106/111/231 105/109/232 99/100/182
f 104/110/233 100/101/234 99/100/182
s off
f 101/103/235 11/126/236 12/57/237
