# This file uses centimeters as units for non-parametric coordinates.

g default
v 1.000950 0.096917 -0.000000
v 0.990183 0.107685 0.010768
v 0.606823 0.107685 0.990180
v 0.617592 0.096917 1.001120
v 0.010769 0.107685 0.010768
v 0.000000 0.096917 -0.000000
v 0.010769 0.107685 0.990180
v 0.000000 0.096917 1.000949
v 1.121664 0.096917 -0.000000
v 0.809237 0.060768 1.000949
v 1.194302 0.010963 1.000949
v 1.121664 0.010533 -0.000000
v 1.253918 0.000000 -0.000000
v 1.369740 0.000000 1.000949
v 1.347553 0.010963 1.000949
v 1.236908 0.010533 -0.000000
v 1.121225 0.107685 0.013138
v 1.011717 0.107685 0.013138
v 1.268934 0.000000 0.013765
v 1.236908 0.019739 0.013765
v 1.131992 0.019739 0.013765
v 1.001875 0.040658 0.990503
v 0.808754 0.071535 0.989987
v 0.628359 0.107685 0.989987
v 1.379580 0.000000 0.990503
v 1.347553 0.019739 0.990504
v 1.196514 0.019739 0.990504
v 1.131992 0.096917 0.013571
v 0.606962 0.107685 0.868303
v 0.651573 0.107685 0.723577
v 0.752264 0.107685 0.577920
v 0.897223 0.107685 0.435382
v 0.971737 0.107685 0.294840
v 0.990183 0.107685 0.154298
v 0.617584 0.096917 0.870175
v 0.661793 0.096917 0.727007
v 0.761259 0.096917 0.583856
v 0.906593 0.096917 0.440693
v 0.982172 0.096917 0.297505
v 1.000950 0.096917 0.154326
v 0.628222 0.107685 0.871921
v 0.671993 0.107685 0.730509
v 0.770105 0.107685 0.590031
v 0.915735 0.107685 0.446434
v 0.992443 0.107685 0.300838
v 1.011717 0.107685 0.155245
v 0.816294 0.071917 0.870673
v 0.846935 0.074929 0.725977
v 0.922232 0.075312 0.583599
v 1.028364 0.088261 0.441137
v 1.107517 0.101261 0.298350
v 1.121225 0.107685 0.155271
v 1.003733 0.039625 0.870974
v 1.008394 0.040840 0.729576
v 1.028023 0.044747 0.585864
v 1.060633 0.065081 0.442234
v 1.118284 0.090493 0.298930
v 1.131992 0.096917 0.155920
v 1.193476 0.019739 0.871067
v 1.183010 0.019739 0.728057
v 1.163218 0.019739 0.585046
v 1.144352 0.019739 0.442038
v 1.131992 0.019739 0.299027
v 1.131992 0.019739 0.156016
v 1.347553 0.019739 0.871067
v 1.347553 0.019739 0.728057
v 1.332577 0.019739 0.585046
v 1.302586 0.019739 0.442038
v 1.260292 0.019739 0.299027
v 1.236908 0.019739 0.156016
v 1.379580 0.000000 0.871068
v 1.379580 0.000000 0.728057
v 1.364603 0.000000 0.585046
v 1.334612 0.000000 0.442035
v 1.292318 0.000000 0.299024
v 1.268934 0.000000 0.156013
v 0.999615 0.033007 1.000952
vt 0.999680 0.001881
vt 0.988942 0.012618
vt 0.988944 0.988911
vt 0.999680 0.999648
vt 0.012298 0.394892
vt 0.687773 0.886624
vt 0.001561 0.999647
vt 0.012298 0.988911
vt 0.995516 0.676366
vt 0.990414 0.672597
vt 0.991116 0.684022
vt 0.995797 0.682612
vt 0.997377 0.742977
vt 0.992489 0.744592
vt 0.994456 0.776830
vt 0.997685 0.716566
vt 0.992234 0.715980
vt 0.992567 0.740354
vt 0.688014 0.826774
vt 0.692671 0.827391
vt 0.693443 0.768219
vt 0.689448 0.768580
vt 0.692490 0.882812
vt 0.694352 0.663577
vt 0.693340 0.652413
vt 0.689943 0.655444
vt 0.690270 0.663135
vt 0.689691 0.709551
vt 0.693877 0.709123
vt 0.133833 0.394756
vt 0.728507 0.888487
vt 0.730429 0.663350
vt 0.730191 0.651801
vt 0.730414 0.710225
vt 0.730015 0.767859
vt 0.729127 0.825392
vt 0.728022 0.883814
vt 0.845820 0.012618
vt 0.845792 0.001881
vt 0.951151 0.778742
vt 0.951821 0.744987
vt 0.951736 0.740360
vt 0.951062 0.718048
vt 0.948069 0.686586
vt 0.947158 0.675173
vt 0.705675 0.031011
vt 0.565530 0.105314
vt 0.423393 0.249863
vt 0.278147 0.350270
vt 0.907340 0.786805
vt 0.862405 0.805751
vt 0.816559 0.847166
vt 0.772232 0.875789
vt 0.906138 0.782301
vt 0.860146 0.801654
vt 0.814054 0.843242
vt 0.770738 0.871371
vt 0.909142 0.747710
vt 0.863769 0.766557
vt 0.817779 0.795682
vt 0.773468 0.817082
vt 0.908729 0.743145
vt 0.862740 0.754161
vt 0.817694 0.761918
vt 0.773370 0.766992
vt 0.907252 0.721800
vt 0.862898 0.724251
vt 0.818381 0.719736
vt 0.774316 0.713644
vt 0.903623 0.683676
vt 0.859880 0.675361
vt 0.816777 0.667851
vt 0.773676 0.663542
vt 0.903003 0.672268
vt 0.859582 0.663881
vt 0.816706 0.656366
vt 0.773632 0.652076
vt 0.999439 0.780873
vt 0.951624 0.783394
vt 0.131965 0.384162
vt 0.001390 0.384155
vt 0.703018 0.020607
vt 0.560232 0.095971
vt 0.417474 0.240895
vt 0.274728 0.340078
vn 0.000000 0.707140 -0.707073
vn 0.000000 0.707140 -0.707073
vn 0.000000 0.707140 -0.707073
vn 0.000000 0.707140 -0.707073
vn -0.000099 0.709933 0.704269
vn -0.000099 0.709934 0.704269
vn -0.000099 0.709933 0.704269
vn -0.000099 0.709933 0.704269
vn 0.456167 0.738905 -0.495914
vn 0.456167 0.738905 -0.495914
vn 0.524452 0.850824 -0.032384
vn 0.524577 0.851050 -0.023068
vn 0.021830 0.773611 -0.633285
vn 0.000001 0.773438 -0.633872
vn 0.000001 0.773438 -0.633872
vn 0.420831 0.836279 -0.351480
vn 0.797948 -0.000712 -0.602726
vn 0.797948 -0.000712 -0.602726
vn 0.797948 -0.000712 -0.602726
vn 0.797948 -0.000712 -0.602726
vn 0.000000 0.831230 -0.555928
vn 0.000000 0.831230 -0.555928
vn 0.000000 0.831230 -0.555928
vn 0.000000 0.831230 -0.555928
vn 0.122603 0.715928 0.687325
vn 0.100699 0.760527 0.641451
vn 0.099017 0.762069 0.639880
vn 0.124394 0.709151 0.693997
vn 0.132168 0.678398 0.722709
vn 0.132167 0.678398 0.722709
vn 0.422999 0.746904 0.513036
vn 0.422999 0.746904 0.513036
vn 0.422999 0.746904 0.513036
vn 0.422999 0.746904 0.513036
vn 0.051154 0.771500 0.634170
vn 0.000000 0.765606 0.643310
vn 0.000000 0.765606 0.643310
vn 0.044429 0.770845 0.635472
vn 0.707360 0.706646 -0.017152
vn 0.695162 0.709496 0.115605
vn 0.709363 0.704844 0.000369
vn 0.709363 0.704844 0.000369
vn 0.695539 0.709497 0.113313
vn -0.707058 0.707156 0.000000
vn -0.707058 0.707156 0.000000
vn -0.707058 0.707156 0.000000
vn -0.707058 0.707156 0.000000
vn 0.000000 1.000000 -0.000000
vn 0.000000 1.000000 -0.000000
vn 0.000000 1.000000 -0.000000
vn 0.000000 1.000000 -0.000000
vn 0.524692 0.851292 0.000000
vn 0.524692 0.851292 0.000000
vn 0.524692 0.851292 0.000000
vn 0.524692 0.851292 0.000000
vn 0.000000 1.000000 0.000000
vn 0.000000 1.000000 0.000000
vn 0.058430 0.998291 -0.000714
vn 0.058244 0.998299 -0.002658
vn 0.142360 0.989762 0.010210
vn 0.134958 0.990851 -0.000494
vn 0.181917 0.982881 0.029164
vn 0.177981 0.984017 0.005697
vn 0.188954 0.981447 0.032535
vn 0.191584 0.981447 0.007554
vn -0.709162 0.705046 0.000413
vn -0.695491 0.709451 -0.113894
vn -0.695293 0.709447 -0.115119
vn -0.709162 0.705046 0.000413
vn 0.000000 1.000000 0.000000
vn 0.000000 1.000000 0.000000
vn 0.707123 0.707091 0.000000
vn 0.706183 0.706503 0.046467
vn 0.706276 0.706577 0.043863
vn 0.707123 0.707091 0.000000
vn -0.705835 0.706861 -0.046313
vn -0.707119 0.707095 0.000000
vn -0.707119 0.707095 0.000000
vn -0.705871 0.706879 -0.045491
vn 0.014273 0.999818 0.012628
vn 0.000000 1.000000 0.000000
vn 0.000000 1.000000 0.000000
vn 0.015301 0.999791 0.013537
vn 0.704769 0.707631 0.050585
vn 0.704868 0.707641 0.049035
vn 0.998665 0.045471 0.024522
vn 1.000000 -0.000000 0.000000
vn 1.000000 -0.000000 0.000000
vn 0.998708 0.044731 0.024123
vn 0.000000 1.000000 0.000000
vn 0.000000 1.000000 0.000000
vn 0.000000 1.000000 0.000000
vn 0.000000 1.000000 0.000000
vn 0.524248 0.850578 -0.041011
vn 0.524163 0.850441 -0.044767
vn 0.000000 1.000000 0.000000
vn 0.000000 1.000000 0.000000
vn 0.000000 1.000000 0.000000
vn 0.000000 1.000000 0.000000
vn 0.668875 0.708811 0.224037
vn 0.670866 0.708903 0.217704
vn 0.559181 0.702912 0.439580
vn 0.566253 0.703335 0.429741
vn 0.545570 0.699911 0.460952
vn 0.541200 0.699685 0.466416
vn 0.629624 0.707005 0.322053
vn 0.634887 0.707411 0.310627
vn -0.668356 0.710579 -0.219947
vn -0.668161 0.710576 -0.220553
vn -0.558679 0.706314 -0.434740
vn -0.563142 0.706546 -0.428560
vn -0.542714 0.701986 -0.461170
vn -0.539266 0.701934 -0.465275
vn -0.629138 0.707229 -0.322511
vn -0.634274 0.707568 -0.311520
vn 0.080791 0.993961 0.074262
vn 0.062494 0.996411 0.057091
vn 0.174939 0.966672 0.186927
vn 0.143318 0.979115 0.144199
vn 0.197686 0.969738 0.143277
vn 0.223605 0.961435 0.160136
vn 0.196885 0.977331 0.077844
vn 0.189747 0.978702 0.078347
vn 0.613842 0.734470 0.289398
vn 0.620962 0.733557 0.276225
vn 0.388882 0.873771 0.292055
vn 0.416240 0.856767 0.304456
vn 0.238883 0.966454 0.094354
vn 0.167222 0.985319 0.034398
vn 0.919863 0.374456 0.116772
vn 0.914272 0.387014 0.119693
vn 0.475152 0.871954 0.118009
vn 0.490404 0.863024 0.121215
vn 0.095633 0.995249 0.018288
vn 0.063743 0.997960 0.003459
vn 0.000000 1.000000 -0.000000
vn 0.000000 1.000000 -0.000000
vn 0.000000 1.000000 -0.000000
vn 0.000000 1.000000 -0.000000
vn 0.000000 1.000000 -0.000000
vn 0.000000 1.000000 0.000000
vn 0.521183 0.845615 -0.115346
vn 0.520661 0.844769 -0.123600
vn 0.519930 0.843582 -0.134321
vn 0.520339 0.844244 -0.128450
vn 0.522816 0.848253 -0.084444
vn 0.523015 0.848575 -0.079851
vn 0.524506 0.850989 -0.026665
vn 0.524483 0.850953 -0.028218
s off
g mesh_Paving_DrivewayRight Modular_PavementEXPORT
f 1/1/1 6/4/2 5/3/3 2/2/4
f 3/5/5 7/8/6 8/7/7 4/81/8
s 1
f 13/9/9 16/12/10 20/11/11 19/10/12
s 2
f 9/13/13 1/78/14 18/15/15 17/14/16
s off
f 9/13/17 28/18/18 21/17/19 12/16/20
f 21/17/21 20/11/22 16/12/23 12/16/24
s 3
f 10/19/25 77/22/26 22/21/27 23/20/28
f 10/19/25 23/20/28 24/23/29 4/6/30
s off
f 26/24/31 15/27/32 14/26/33 25/25/34
s 3
f 11/28/35 15/27/36 26/24/37 27/29/38
s 2
f 17/14/16 28/18/39 9/13/13
s 4
f 29/30/40 3/5/41 4/81/42 35/80/43
s off
f 6/4/44 8/7/45 7/8/46 5/3/47
s 5
f 29/30/48 5/3/49 7/8/50 3/5/51
s 1
f 65/32/52 26/24/53 25/25/54 71/33/55
s 2
f 26/24/56 65/32/57 59/34/58 27/29/59
f 27/29/59 59/34/58 53/35/60 22/21/61
f 22/21/61 53/35/60 47/36/62 23/20/63
f 23/20/63 47/36/62 41/37/64 24/23/65
s 8
f 24/23/66 41/37/67 35/31/68 4/6/69
s 5
f 2/2/70 5/3/49 34/38/71
s 4
f 2/2/72 34/38/73 40/39/74 1/1/75
s 8
f 46/40/76 18/15/77 1/78/78 40/79/79
s 2
f 52/41/80 17/14/81 18/15/82 46/40/83
f 58/42/84 28/18/39 17/14/16 52/41/85
f 64/43/86 21/17/87 28/18/88 58/42/89
f 70/44/90 20/11/91 21/17/92 64/43/93
s 1
f 19/10/12 20/11/11 70/44/94 76/45/95
s 5
f 5/3/49 33/46/96 34/38/71
f 5/3/49 32/47/97 33/46/96
f 5/3/49 31/48/98 32/47/97
f 5/3/49 29/30/48 30/49/99
f 5/3/49 30/49/99 31/48/98
s 4
f 33/46/100 39/82/101 40/39/74 34/38/73
f 32/47/102 38/83/103 39/82/101 33/46/100
f 31/48/104 37/84/105 38/83/103 32/47/102
f 29/30/40 35/80/43 36/85/106 30/49/107
f 30/49/107 36/85/106 37/84/105 31/48/104
s 8
f 39/50/108 45/54/109 46/40/76 40/79/79
f 38/51/110 44/55/111 45/54/109 39/50/108
f 37/52/112 43/56/113 44/55/111 38/51/110
f 35/31/68 41/37/67 42/57/114 36/53/115
f 36/53/115 42/57/114 43/56/113 37/52/112
s 2
f 45/54/116 51/58/117 52/41/80 46/40/83
f 44/55/118 50/59/119 51/58/117 45/54/116
f 43/56/120 49/60/121 50/59/119 44/55/118
f 41/37/64 47/36/62 48/61/122 42/57/123
f 42/57/123 48/61/122 49/60/121 43/56/120
f 51/58/124 57/62/125 58/42/84 52/41/85
f 50/59/126 56/63/127 57/62/125 51/58/124
f 49/60/121 55/64/128 56/63/127 50/59/126
f 47/36/62 53/35/60 54/65/129 48/61/122
f 48/61/122 54/65/129 55/64/128 49/60/121
f 57/62/130 63/66/131 64/43/86 58/42/89
f 56/63/132 62/67/133 63/66/131 57/62/130
f 55/64/128 61/68/134 62/67/133 56/63/132
f 53/35/60 59/34/58 60/69/135 54/65/129
f 54/65/129 60/69/135 61/68/134 55/64/128
f 63/66/136 69/70/137 70/44/90 64/43/93
f 62/67/138 68/71/139 69/70/137 63/66/136
f 61/68/134 67/72/140 68/71/139 62/67/138
f 59/34/58 65/32/57 66/73/141 60/69/135
f 60/69/135 66/73/141 67/72/140 61/68/134
s 1
f 69/70/142 75/74/143 76/45/95 70/44/94
f 68/71/144 74/75/145 75/74/143 69/70/142
f 67/72/146 73/76/147 74/75/145 68/71/144
f 65/32/52 71/33/55 72/77/148 66/73/149
f 66/73/149 72/77/148 73/76/147 67/72/146
s 3
f 22/21/27 77/22/26 11/28/35 27/29/38
