# This file uses centimeters as units for non-parametric coordinates.

g default
v -0.120715 0.096917 0.000000
v -0.120662 0.096917 1.000949
v -0.000002 0.096917 0.000000
v -0.120662 0.010963 1.000949
v -0.120715 0.010533 0.000000
v -0.252968 -0.000000 0.000000
v -0.258147 -0.000000 1.000949
v -0.235959 0.010963 1.000949
v -0.235959 0.010533 0.000000
v -0.120276 0.107685 0.013138
v -0.010768 0.107685 0.013138
v -0.267985 -0.000000 0.013765
v -0.235959 0.019739 0.013765
v -0.131045 0.019739 0.013765
v -0.131044 0.096917 0.990505
v -0.120276 0.107685 0.989987
v -0.010767 0.107685 0.989987
v -0.000001 0.096917 1.001292
v -0.267986 -0.000000 0.990505
v -0.235959 0.019739 0.990505
v -0.131044 0.019739 0.990505
v -0.131044 0.096917 0.013570
vt 0.659267 0.894984
vt 0.663946 0.889279
vt 0.663946 0.899036
vt 0.659267 0.899036
vt 0.659267 0.955242
vt 0.663733 0.957106
vt 0.663733 0.991479
vt 0.659267 0.995570
vt 0.659267 0.928721
vt 0.663946 0.929041
vt 0.663880 0.953015
vt 0.995976 0.953015
vt 0.995799 0.957105
vt 0.995799 0.991479
vt 0.999642 0.995570
vt 0.995976 0.889279
vt 0.995976 0.899036
vt 0.995976 0.929041
vt 0.999526 0.955261
vt 0.999526 0.893017
vt 0.999526 0.899036
vt 0.999526 0.928740
vn -0.456172 0.738897 -0.495921
vn -0.456172 0.738897 -0.495921
vn -0.456172 0.738897 -0.495921
vn -0.456172 0.738897 -0.495921
vn -0.021828 0.773609 -0.633287
vn -0.025172 0.773603 -0.633170
vn 0.000000 0.773436 -0.633874
vn 0.000000 0.773436 -0.633874
vn -0.797885 -0.000716 -0.602809
vn -0.797886 -0.000716 -0.602809
vn -0.797885 -0.000716 -0.602809
vn -0.797885 -0.000716 -0.602809
vn 0.000000 0.831221 -0.555942
vn 0.000000 0.831221 -0.555942
vn 0.000000 0.831221 -0.555942
vn 0.000000 0.831221 -0.555942
vn -0.707081 0.707132 0.000000
vn -0.707081 0.707132 0.000000
vn -0.707081 0.707132 0.000000
vn -0.707081 0.707132 0.000000
vn 0.000000 1.000000 0.000000
vn 0.000000 1.000000 0.000000
vn 0.000000 1.000000 0.000000
vn 0.000000 1.000000 0.000000
vn 0.707138 0.707075 -0.000000
vn 0.707138 0.707075 -0.000000
vn 0.707138 0.707075 -0.000000
vn 0.707138 0.707075 -0.000000
vn -0.524691 0.851292 -0.000000
vn -0.524692 0.851292 -0.000000
vn -0.524692 0.851292 -0.000000
vn -0.524692 0.851292 -0.000000
vn 0.000000 1.000000 0.000000
vn 0.000000 1.000000 0.000000
vn 0.000000 1.000000 0.000000
vn 0.000000 1.000000 0.000000
vn -1.000000 0.000001 0.000001
vn -1.000000 0.000001 0.000001
vn -1.000000 0.000001 0.000001
vn -1.000000 0.000001 0.000001
vn -0.569253 0.596500 0.565808
vn -0.569253 0.596500 0.565808
vn -0.569253 0.596500 0.565808
vn -0.001036 0.718604 0.695419
vn -0.001036 0.718604 0.695419
vn -0.001036 0.718604 0.695419
vn -0.001036 0.718604 0.695419
vn -0.422987 0.746912 0.513034
vn -0.422987 0.746912 0.513034
vn -0.422987 0.746912 0.513034
vn -0.422987 0.746912 0.513034
vn 0.000000 0.765595 0.643323
vn 0.000000 0.765595 0.643323
vn 0.000000 0.765595 0.643323
vn 0.000000 0.765595 0.643323
vn -0.709250 0.000000 0.704957
vn -0.709250 0.000000 0.704957
vn -0.709250 0.000000 0.704957
vn -0.709250 0.000000 0.704957
vn -0.630003 0.610825 -0.479572
s off
g mesh_Paving_Straight90 Modular_PavementEXPORT
f 6/1/1 12/2/2 13/3/3 9/4/4
s 1
f 1/5/5 10/6/6 11/7/7 3/8/8
s off
f 1/5/9 5/9/10 14/10/11 22/11/12
f 14/10/13 5/9/14 9/4/15 13/3/16
f 10/6/17 22/11/18 15/12/19 16/13/20
f 11/7/21 10/6/22 16/13/23 17/14/24
f 3/8/25 11/7/26 17/14/27 18/15/28
f 13/3/29 12/2/30 19/16/31 20/17/32
f 21/18/33 14/10/34 13/3/35 20/17/36
f 22/11/37 14/10/38 21/18/39 15/12/40
f 16/13/41 15/12/42 2/19/43
f 2/19/44 18/15/45 17/14/46 16/13/47
f 20/17/48 19/16/49 7/20/50 8/21/51
f 4/22/52 21/18/53 20/17/54 8/21/55
f 15/12/56 21/18/57 4/22/58 2/19/59
s 1
f 10/6/6 1/5/5 22/11/60
