# This file uses centimeters as units for non-parametric coordinates.

g default
v -1.001291 0.096917 -1.001292
v 0.000001 0.096917 -0.000000
v -0.345575 0.107685 -0.070335
v -0.193484 0.107685 -0.009428
v -0.990181 0.107685 -0.797072
v -0.928366 0.107685 -0.656013
v -0.473496 0.107685 -0.133418
v -0.867993 0.107685 -0.528626
v -0.590545 0.107685 -0.213325
v -0.788753 0.107685 -0.410035
v -0.697779 0.107685 -0.307367
v -1.000949 0.096917 0.000000
v -1.000949 0.096917 -0.923496
v -0.087306 0.096915 -0.010376
v -0.990181 0.107685 -0.010767
v -0.206957 0.096911 -0.034176
v -0.339558 0.096908 -0.079188
v -0.465148 0.096906 -0.141122
v -0.581580 0.096905 -0.218920
v -0.686861 0.096904 -0.311250
v -0.779191 0.096905 -0.416531
v -0.856988 0.096906 -0.532962
v -0.918922 0.096908 -0.658554
v -0.963935 0.096911 -0.791154
v -0.990289 0.096915 -0.923647
v -1.000949 0.096917 -0.792193
v -0.014468 0.096917 -0.129658
v -0.013841 0.107685 -0.118890
v -0.884292 0.107685 -0.989952
v -0.871346 0.096917 -0.990468
v -0.013841 0.107685 -0.009383
v -0.990660 0.107685 -0.989953
v -0.871346 0.019739 -0.990468
v -0.014468 0.019739 -0.129658
v -0.014468 0.000000 -0.268954
v -0.733698 0.000000 -0.990468
v -0.764627 0.019739 -0.990468
v -0.014468 0.019739 -0.240141
v -0.733915 0.000000 -0.948640
v -0.722304 0.000000 -0.875636
v -0.700543 0.000000 -0.777371
v -0.654837 0.000000 -0.672405
v -0.593450 0.000000 -0.577718
v -0.519940 0.000000 -0.503114
v -0.434382 0.000000 -0.433934
v -0.347876 0.000000 -0.376928
v -0.236691 0.000000 -0.328438
v -0.136786 0.000000 -0.293430
v -0.044385 0.000000 -0.272199
v -0.045395 0.019739 -0.244267
v -0.145648 0.019739 -0.266418
v -0.247016 0.019739 -0.296986
v -0.357147 0.019739 -0.346096
v -0.451168 0.019739 -0.407107
v -0.542318 0.019739 -0.480960
v -0.613599 0.019739 -0.553908
v -0.679609 0.019739 -0.653238
v -0.728679 0.019739 -0.767617
v -0.754457 0.019739 -0.870589
v -0.764525 0.019739 -0.949158
v -0.057936 0.019739 -0.144995
v -0.169622 0.019739 -0.170200
v -0.286838 0.019739 -0.207841
v -0.398996 0.019739 -0.263612
v -0.506589 0.019739 -0.330008
v -0.606621 0.019739 -0.408697
v -0.687372 0.019739 -0.494585
v -0.757974 0.019739 -0.596323
v -0.816916 0.019739 -0.715582
v -0.854013 0.019739 -0.831948
v -0.867423 0.019739 -0.925662
v -0.056401 0.096917 -0.143340
v -0.168569 0.096917 -0.168493
v -0.285459 0.096917 -0.206641
v -0.398117 0.096917 -0.262448
v -0.505994 0.096917 -0.329027
v -0.606091 0.096917 -0.407917
v -0.686785 0.096917 -0.493911
v -0.757337 0.096917 -0.595546
v -0.816158 0.096917 -0.714635
v -0.853341 0.096917 -0.830650
v -0.866969 0.096917 -0.924000
v -0.054882 0.107685 -0.130678
v -0.168881 0.107685 -0.156108
v -0.290578 0.107685 -0.196185
v -0.398652 0.107685 -0.248200
v -0.509735 0.107685 -0.316652
v -0.611731 0.107685 -0.397613
v -0.693745 0.107685 -0.485703
v -0.765679 0.107685 -0.589990
v -0.824695 0.107685 -0.710282
v -0.862445 0.107685 -0.827965
v -0.878817 0.107685 -0.922448
v -0.085891 0.107685 -0.021142
v -0.205296 0.107685 -0.044531
v -0.336326 0.107685 -0.088121
v -0.459372 0.107685 -0.150636
v -0.576893 0.107685 -0.226287
v -0.680149 0.107685 -0.317087
v -0.775682 0.107685 -0.423966
v -0.849344 0.107685 -0.536823
v -0.911592 0.107685 -0.662470
v -0.955476 0.107685 -0.793367
v -0.981947 0.107685 -0.923977
v -0.880578 0.096917 -1.001292
v -0.880578 0.010533 -1.001292
v -0.765333 0.010533 -1.001292
v -0.748325 0.000000 -1.001292
v 0.000001 0.096917 -0.120713
v 0.000001 0.010533 -0.120713
v 0.000001 0.010533 -0.235959
v 0.000001 0.000000 -0.252967
v -0.190933 0.107685 -0.025397
v -0.973406 0.107685 -0.797968
v -0.979027 0.096911 -0.811074
v -0.990314 0.096917 -0.812274
v -0.179462 0.096917 -0.009146
v -0.203072 0.096917 -0.000000
v -0.178241 0.096911 -0.021947
vt 0.026576 0.192882
vt 0.071059 0.346694
vt 0.010696 0.195399
vt 0.652629 0.926887
vt 0.793710 0.971850
vt 0.792797 0.988528
vt 0.350546 0.995714
vt 0.393212 0.995776
vt 0.133616 0.473961
vt 0.557532 0.995154
vt 0.599618 0.994951
vt 0.526051 0.866698
vt 0.434735 0.996121
vt 0.212915 0.590439
vt 0.516262 0.995506
vt 0.408241 0.787761
vt 0.475570 0.995764
vt 0.306280 0.697179
vt 0.679837 0.994740
vt 0.708753 0.995283
vt 0.918483 0.999395
vt 0.806734 0.977455
vt 0.807913 0.988680
vt 0.000290 0.998214
vt 0.011009 0.987523
vt 0.787934 0.999228
vt 0.011775 0.089831
vt 0.001311 0.204918
vt 0.001570 0.003013
vt 0.264452 0.888473
vt 0.309246 0.888373
vt 0.310499 0.899755
vt 0.267509 0.899768
vt 0.343939 0.888497
vt 0.345093 0.899734
vt 0.390080 0.888517
vt 0.389114 0.899726
vt 0.432662 0.888554
vt 0.432600 0.899722
vt 0.478535 0.888846
vt 0.479088 0.899719
vt 0.523238 0.888802
vt 0.520000 0.899722
vt 0.570752 0.888856
vt 0.567354 0.899727
vt 0.616068 0.888942
vt 0.614254 0.899738
vt 0.652335 0.889157
vt 0.651295 0.899750
vt 0.686183 0.889246
vt 0.685285 0.899771
vt 0.249921 0.991096
vt 0.276097 0.990790
vt 0.249152 0.956299
vt 0.267971 0.956295
vt 0.249701 0.952070
vt 0.267384 0.952070
vt 0.249947 0.927573
vt 0.268523 0.927566
vt 0.248752 0.899751
vt 0.248982 0.890024
vt 0.703754 0.889168
vt 0.704036 0.899746
vt 0.680083 0.927561
vt 0.703798 0.927576
vt 0.676233 0.952070
vt 0.704117 0.952070
vt 0.676380 0.956295
vt 0.704131 0.956302
vt 0.679588 0.990378
vt 0.703669 0.990060
vt 0.646444 0.927558
vt 0.605455 0.927563
vt 0.560938 0.927568
vt 0.518551 0.927571
vt 0.478131 0.927571
vt 0.434125 0.927572
vt 0.390667 0.927569
vt 0.348864 0.927562
vt 0.309288 0.927558
vt 0.646585 0.952070
vt 0.603485 0.952070
vt 0.558786 0.952070
vt 0.517149 0.952070
vt 0.477464 0.952070
vt 0.434573 0.952070
vt 0.391911 0.952070
vt 0.349601 0.952070
vt 0.308222 0.952070
vt 0.646520 0.956296
vt 0.603225 0.956295
vt 0.558563 0.956296
vt 0.516432 0.956296
vt 0.476512 0.956294
vt 0.433276 0.956295
vt 0.389910 0.956294
vt 0.349887 0.956294
vt 0.307001 0.956294
vt 0.641207 0.990704
vt 0.599822 0.990753
vt 0.557386 0.990793
vt 0.517310 0.991673
vt 0.475224 0.992125
vt 0.434720 0.992140
vt 0.392852 0.991073
vt 0.350576 0.991029
vt 0.307167 0.990987
vt 0.786948 0.962425
vt 0.035285 0.208825
vt 0.708905 0.953979
vt 0.708770 0.927581
vt 0.708981 0.899746
vt 0.707313 0.892948
vt 0.243976 0.953978
vt 0.244017 0.927579
vt 0.243983 0.899747
vt 0.244169 0.893408
vt 0.023163 0.180259
vt 0.010434 0.181457
vt 0.275497 0.995723
vt 0.243800 0.995595
vt 0.918646 0.988797
vt 0.995831 0.999836
vt 0.641162 0.994775
vt 0.655166 0.917502
vt 0.530376 0.855762
vt 0.414712 0.778263
vt 0.310154 0.686328
vt 0.218489 0.581533
vt 0.141287 0.465671
vt 0.079869 0.340722
vt 0.306646 0.995722
vn 0.000000 1.000000 0.000000
vn 0.000000 1.000000 0.000000
vn 0.000000 1.000000 0.000000
vn 0.000000 1.000000 0.000000
vn 0.000000 1.000000 0.000000
vn 0.000000 1.000000 0.000000
vn 0.284212 0.622208 -0.729439
vn 0.353643 0.698450 -0.622177
vn 0.365793 0.697286 -0.616431
vn 0.290370 0.637749 -0.713415
vn 0.600528 0.720142 -0.347507
vn 0.692305 0.664395 -0.281591
vn 0.698171 0.659589 -0.278387
vn 0.605412 0.718330 -0.342751
vn 0.436596 0.689941 -0.577378
vn 0.448684 0.688617 -0.569639
vn 0.545166 0.725315 -0.420371
vn 0.546396 0.725687 -0.418126
vn 0.498347 0.698856 -0.513080
vn 0.506820 0.705663 -0.495149
vn 0.000102 1.000000 0.000021
vn 0.000222 1.000000 -0.000001
vn 0.000120 1.000000 0.000017
vn 0.006734 0.795129 -0.606403
vn 0.006734 0.795129 -0.606403
vn 0.006734 0.795129 -0.606403
vn 0.006734 0.795129 -0.606403
vn -0.707088 0.707125 0.000000
vn -0.707088 0.707125 0.000000
vn -0.708282 0.705910 -0.005318
vn -0.707626 0.706583 -0.002383
vn -0.733595 0.557597 -0.388490
vn 0.000001 1.000000 -0.000261
vn 0.000017 1.000000 -0.000075
vn 0.000000 1.000000 -0.000259
vn 0.000000 1.000000 0.000000
vn 0.000000 1.000000 0.000000
vn 0.000000 1.000000 0.000000
vn 0.000000 1.000000 0.000000
vn 0.000000 1.000000 0.000000
vn 0.000000 1.000000 0.000000
vn 0.000000 1.000000 0.000000
vn 0.000000 1.000000 0.000000
vn 0.000000 1.000000 0.000000
vn 0.000000 1.000000 0.000000
vn 0.000000 1.000000 0.000000
vn 0.000000 1.000000 0.000000
vn 0.000000 1.000000 0.000000
vn 0.000000 1.000000 0.000000
vn 0.000000 1.000000 0.000000
vn 0.000000 1.000000 0.000000
vn 0.000000 1.000000 0.000000
vn 0.000000 1.000000 0.000000
vn 0.000000 1.000000 0.000000
vn 0.000000 1.000000 0.000000
vn 0.114479 0.817145 -0.564950
vn 0.148211 0.830069 -0.537604
vn 0.149235 0.830712 -0.536327
vn 0.111526 0.817350 -0.565244
vn 0.191033 0.849087 -0.492502
vn 0.189927 0.848760 -0.493492
vn 0.252638 0.850594 -0.461154
vn 0.243522 0.851540 -0.464303
vn 0.315187 0.846236 -0.429583
vn 0.313544 0.846209 -0.430836
vn 0.356487 0.846372 -0.395691
vn 0.357789 0.846356 -0.394548
vn 0.423092 0.843598 -0.330659
vn 0.415720 0.844186 -0.338420
vn 0.481803 0.838541 -0.254391
vn 0.477293 0.838944 -0.261465
vn 0.513446 0.840452 -0.173247
vn 0.513315 0.840390 -0.173930
vn 0.524404 0.845181 -0.103295
vn 0.524486 0.845229 -0.102486
vn 0.531606 0.845486 -0.050491
vn 0.532173 0.845315 -0.047277
vn -0.104981 0.646428 0.755718
vn -0.104980 0.646428 0.755718
vn -0.125660 0.682843 0.719677
vn -0.125149 0.681961 0.720602
vn 0.000000 1.000000 0.000000
vn 0.000000 1.000000 0.000000
vn 0.000000 1.000000 -0.000000
vn 0.000000 1.000000 -0.000000
vn 0.206379 0.710895 -0.672336
vn 0.206379 0.710895 -0.672336
vn 0.157110 0.740132 -0.653851
vn 0.165796 0.735196 -0.657266
vn 0.321734 0.006958 -0.946805
vn 0.321734 0.006958 -0.946805
vn 0.247929 0.014661 -0.968667
vn 0.249253 0.014525 -0.968330
vn 0.000000 1.000000 0.000000
vn 0.000000 1.000000 0.000000
vn 0.000000 1.000000 0.000000
vn 0.000000 1.000000 0.000000
vn 0.068925 0.819500 -0.568919
vn 0.068926 0.819500 -0.568919
vn 0.539959 0.841691 0.000756
vn 0.539959 0.841691 0.000756
vn 0.000000 1.000000 0.000000
vn 0.000000 1.000000 0.000000
vn 0.000000 1.000000 -0.000000
vn 0.000000 1.000000 -0.000000
vn 0.993829 -0.003584 -0.110865
vn 0.993949 -0.003554 -0.109782
vn 0.998005 -0.002256 -0.063092
vn 0.998005 -0.002256 -0.063092
vn 0.680941 0.727461 -0.084381
vn 0.680622 0.727809 -0.083956
vn 0.652705 0.756090 -0.047996
vn 0.652705 0.756090 -0.047996
vn 0.000000 1.000000 -0.000000
vn 0.000000 1.000000 -0.000000
vn 0.000000 1.000000 0.000000
vn 0.000000 1.000000 0.000000
vn -0.771202 0.621805 0.136406
vn -0.771088 0.621460 0.138606
vn -0.772384 0.626242 0.106038
vn -0.772384 0.626242 0.106038
vn 0.000000 1.000000 0.000000
vn 0.000000 1.000000 0.000000
vn 0.000000 1.000000 -0.000000
vn 0.000000 1.000000 0.000000
vn 0.000000 1.000000 -0.000000
vn 0.000000 1.000000 -0.000000
vn 0.000000 1.000000 -0.000000
vn 0.000000 1.000000 -0.000000
vn 0.000000 1.000000 0.000000
vn 0.000000 1.000000 0.000000
vn 0.000000 1.000000 0.000000
vn 0.000000 1.000000 0.000000
vn 0.000000 1.000000 0.000000
vn 0.000000 1.000000 0.000000
vn 0.000000 1.000000 0.000000
vn 0.000000 1.000000 0.000000
vn 0.000000 1.000000 0.000000
vn 0.000000 1.000000 0.000000
vn 0.972258 -0.004449 -0.233870
vn 0.971811 -0.004448 -0.235720
vn 0.926173 -0.003767 -0.377080
vn 0.925633 -0.003755 -0.378404
vn 0.863020 -0.002205 -0.505165
vn 0.862409 -0.002189 -0.506208
vn 0.778780 -0.000027 -0.627297
vn 0.778099 -0.000010 -0.628141
vn 0.673935 0.002878 -0.738785
vn 0.673100 0.002903 -0.739546
vn 0.573374 0.005634 -0.819274
vn 0.572565 0.005654 -0.819840
vn 0.485997 0.007019 -0.873932
vn 0.485111 0.007023 -0.874425
vn 0.378941 0.010095 -0.925366
vn 0.376993 0.010179 -0.926160
vn 0.266067 0.015226 -0.963834
vn 0.264998 0.015281 -0.964128
vn 0.709957 0.682060 -0.175371
vn 0.710245 0.681099 -0.177920
vn 0.690579 0.667160 -0.279283
vn 0.688713 0.667561 -0.282908
vn 0.633235 0.680469 -0.368749
vn 0.631581 0.680871 -0.370838
vn 0.559417 0.700040 -0.443843
vn 0.552293 0.702094 -0.449485
vn 0.468558 0.725902 -0.503507
vn 0.457784 0.728891 -0.509069
vn 0.386102 0.747023 -0.541186
vn 0.374562 0.749739 -0.545523
vn 0.323051 0.755700 -0.569698
vn 0.310257 0.755018 -0.577658
vn 0.249028 0.745247 -0.618540
vn 0.251558 0.745823 -0.616820
vn 0.182915 0.740893 -0.646234
vn 0.175256 0.742177 -0.646883
vn 0.000000 1.000000 -0.000000
vn 0.000000 1.000000 0.000000
vn 0.000000 1.000000 0.000000
vn 0.000000 1.000000 0.000000
vn 0.000000 1.000000 0.000000
vn 0.000000 1.000000 0.000000
vn 0.000000 1.000000 0.000000
vn 0.000000 1.000000 0.000000
vn 0.000000 1.000000 0.000000
vn 0.000000 1.000000 0.000000
vn 0.000000 1.000000 0.000000
vn 0.000000 1.000000 0.000000
vn 0.000000 1.000000 0.000000
vn 0.000000 1.000000 0.000000
vn 0.000000 1.000000 -0.000000
vn 0.000000 1.000000 -0.000000
vn 0.000000 1.000000 -0.000000
vn 0.000000 1.000000 -0.000000
vn -0.758399 0.618964 0.204242
vn -0.758459 0.618967 0.204010
vn -0.727279 0.617816 0.298947
vn -0.725776 0.617768 0.302675
vn -0.692551 0.601366 0.398413
vn -0.693165 0.602040 0.396321
vn -0.643282 0.594890 0.481969
vn -0.628637 0.598813 0.496225
vn -0.553602 0.618923 0.557189
vn -0.555989 0.618273 0.555531
vn -0.459055 0.654472 0.600778
vn -0.455372 0.656094 0.601811
vn -0.363501 0.684279 0.632163
vn -0.364349 0.684148 0.631815
vn -0.280864 0.684576 0.672660
vn -0.279093 0.684333 0.673643
vn -0.190670 0.690009 0.698235
vn -0.186364 0.691175 0.698245
vn 0.552720 0.687181 -0.471470
vn 0.552720 0.687181 -0.471470
vn 0.552720 0.687181 -0.471470
vn 0.000005 0.725160 -0.688581
vn 0.000005 0.725160 -0.688581
vn 0.000005 0.725160 -0.688581
vn 0.000005 0.725160 -0.688581
vn 0.760816 0.000000 -0.648968
vn 0.760816 0.000000 -0.648968
vn 0.760816 0.000000 -0.648968
vn 0.760816 0.000000 -0.648968
vn 0.000000 0.761739 -0.647884
vn 0.000000 0.761739 -0.647884
vn 0.000000 0.761739 -0.647885
vn 0.000000 0.761739 -0.647885
vn 0.429668 0.680373 -0.593699
vn 0.429668 0.680373 -0.593699
vn 0.429668 0.680373 -0.593699
vn 0.429668 0.680373 -0.593699
vn 0.406604 0.634049 -0.657765
vn 0.406604 0.634049 -0.657765
vn 0.406604 0.634049 -0.657765
vn 0.614001 0.789306 0.000000
vn 0.614001 0.789306 0.000000
vn 0.614001 0.789306 0.000000
vn 0.614001 0.789306 0.000000
vn 0.525809 0.000000 -0.850602
vn 0.525809 0.000000 -0.850602
vn 0.525809 0.000000 -0.850602
vn 0.525809 0.000000 -0.850603
vn 0.536805 0.843706 0.000000
vn 0.536805 0.843706 0.000000
vn 0.536805 0.843706 0.000000
vn 0.536805 0.843706 0.000000
vn 0.544758 0.699678 -0.462265
vn 0.544758 0.699678 -0.462265
vn 0.544758 0.699678 -0.462265
vn 0.544758 0.699678 -0.462265
vn 0.386468 0.164742 -0.907470
vn 0.386468 0.164742 -0.907470
vn 0.386468 0.164742 -0.907470
vn 0.251458 0.540300 -0.803022
vn 0.251458 0.540300 -0.803022
vn 0.618763 0.781394 0.080975
vn 0.618763 0.781394 0.080975
vn 0.618763 0.781394 0.080975
vn 0.618763 0.781394 0.080975
vn 0.752073 0.611179 -0.246669
vn 0.752073 0.611179 -0.246669
vn 0.759417 0.303721 -0.575360
vn 0.759417 0.303721 -0.575360
vn 0.759417 0.303721 -0.575360
vn 0.000071 1.000000 0.000026
vn 0.000158 1.000000 0.000012
vn 0.000549 1.000000 -0.000052
vn 0.000000 1.000000 0.000000
vn 0.000000 1.000000 0.000000
vn 0.000000 1.000000 0.000000
vn -0.000612 0.684351 0.729153
vn -0.000612 0.684351 0.729153
vn -0.000612 0.684351 0.729153
vn -0.000612 0.684351 0.729153
vn 0.323763 0.443485 0.835762
vn 0.323763 0.443485 0.835762
vn 0.323763 0.443485 0.835762
vn 0.000023 1.000000 -0.000476
vn 0.000027 1.000000 -0.000161
vn -0.000054 1.000000 0.000124
vn -0.000054 1.000000 0.000124
vn -0.000054 1.000000 0.000124
s 1
g mesh_Paving_Inner90Single Modular_PavementEXPORT
f 113/1/1 3/2/2 4/3/3
s 2
f 6/4/4 114/5/5 5/6/6
s 3
f 17/131/7 18/130/8 7/9/9 3/2/10
f 22/126/11 23/125/12 6/4/13 8/12/14
f 18/130/8 19/129/15 9/14/16 7/9/9
f 21/127/17 22/126/11 8/12/14 10/16/18
f 19/129/15 20/128/19 11/18/20 9/14/16
f 20/128/19 21/127/17 10/16/18 11/18/20
s 5
f 25/122/21 1/123/22 13/21/23
s off
f 114/5/24 115/22/25 116/23/26 5/6/27
s 6
f 12/24/28 15/25/29 5/6/30 26/26/31
f 26/26/31 5/6/30 116/23/32
s 7
f 14/27/33 118/28/34 2/29/35
s 1
f 4/3/3 3/2/2 15/25/36
s 2
f 6/4/4 5/6/6 15/25/37
s off
f 3/2/38 7/9/39 15/25/40
f 8/12/41 6/4/42 15/25/43
f 7/9/44 9/14/45 15/25/46
f 10/16/47 8/12/48 15/25/49
f 9/14/50 11/18/51 15/25/52
f 11/18/53 10/16/54 15/25/55
s 8
f 49/30/56 48/31/57 51/32/58 50/33/59
f 48/31/57 47/34/60 52/35/61 51/32/58
f 47/34/60 46/36/62 53/37/63 52/35/61
f 46/36/62 45/38/64 54/39/65 53/37/63
f 45/38/64 44/40/66 55/41/67 54/39/65
f 44/40/66 43/42/68 56/43/69 55/41/67
f 43/42/68 42/44/70 57/45/71 56/43/69
f 42/44/70 41/46/72 58/47/73 57/45/71
f 41/46/72 40/48/74 59/49/75 58/47/73
f 40/48/74 39/50/76 60/51/77 59/49/75
s 9
f 2/121/78 31/52/79 94/53/80 14/120/81
s 10
f 31/52/82 28/54/83 83/55/84 94/53/85
s 11
f 28/54/86 27/56/87 72/57/88 83/55/89
s 12
f 27/56/90 34/58/91 61/59/92 72/57/93
s 13
f 34/58/94 38/60/95 50/33/96 61/59/97
s 8
f 38/60/98 35/61/99 49/30/56 50/33/59
f 60/51/77 39/50/76 36/62/100 37/63/101
s 13
f 71/64/102 60/51/103 37/63/104 33/65/105
s 12
f 82/66/106 71/64/107 33/65/108 30/67/109
s 11
f 93/68/110 82/66/111 30/67/112 29/69/113
s 10
f 104/70/114 93/68/115 29/69/116 32/71/117
s 9
f 25/19/118 104/70/119 32/71/120 1/20/121
s 13
f 59/49/122 60/51/103 71/64/102 70/72/123
f 58/47/124 59/49/122 70/72/123 69/73/125
f 57/45/126 58/47/124 69/73/125 68/74/127
f 56/43/128 57/45/126 68/74/127 67/75/129
f 55/41/130 56/43/128 67/75/129 66/76/131
f 54/39/132 55/41/130 66/76/131 65/77/133
f 53/37/134 54/39/132 65/77/133 64/78/135
f 52/35/136 53/37/134 64/78/135 63/79/137
f 50/33/96 51/32/138 62/80/139 61/59/97
f 51/32/138 52/35/136 63/79/137 62/80/139
s 12
f 70/72/140 71/64/107 82/66/106 81/81/141
f 69/73/142 70/72/140 81/81/141 80/82/143
f 68/74/144 69/73/142 80/82/143 79/83/145
f 67/75/146 68/74/144 79/83/145 78/84/147
f 66/76/148 67/75/146 78/84/147 77/85/149
f 65/77/150 66/76/148 77/85/149 76/86/151
f 64/78/152 65/77/150 76/86/151 75/87/153
f 63/79/154 64/78/152 75/87/153 74/88/155
f 61/59/92 62/80/156 73/89/157 72/57/93
f 62/80/156 63/79/154 74/88/155 73/89/157
s 11
f 81/81/158 82/66/111 93/68/110 92/90/159
f 80/82/160 81/81/158 92/90/159 91/91/161
f 79/83/162 80/82/160 91/91/161 90/92/163
f 78/84/164 79/83/162 90/92/163 89/93/165
f 77/85/166 78/84/164 89/93/165 88/94/167
f 76/86/168 77/85/166 88/94/167 87/95/169
f 75/87/170 76/86/168 87/95/169 86/96/171
f 74/88/172 75/87/170 86/96/171 85/97/173
f 72/57/88 73/89/174 84/98/175 83/55/89
f 73/89/174 74/88/172 85/97/173 84/98/175
s 10
f 92/90/176 93/68/115 104/70/114 103/99/177
f 91/91/178 92/90/176 103/99/177 102/100/179
f 90/92/180 91/91/178 102/100/179 101/101/181
f 89/93/182 90/92/180 101/101/181 100/102/183
f 88/94/184 89/93/182 100/102/183 99/103/185
f 87/95/186 88/94/184 99/103/185 98/104/187
f 86/96/188 87/95/186 98/104/187 97/105/189
f 85/97/190 86/96/188 97/105/189 96/106/191
f 83/55/84 84/98/192 95/107/193 94/53/85
f 84/98/192 85/97/190 96/106/191 95/107/193
s 9
f 103/99/194 104/70/119 25/19/118 24/124/195
f 102/100/196 103/99/194 24/124/195 23/11/197
f 101/101/198 102/100/196 23/11/197 22/10/199
f 100/102/200 101/101/198 22/10/199 21/15/201
f 99/103/202 100/102/200 21/15/201 20/17/203
f 98/104/204 99/103/202 20/17/203 19/13/205
f 97/105/206 98/104/204 19/13/205 18/8/207
f 96/106/208 97/105/206 18/8/207 17/7/209
f 94/53/80 95/107/210 16/132/211 14/120/81
f 95/107/210 96/106/208 17/7/209 16/132/211
s off
f 29/69/212 30/67/213 105/110/214
f 32/71/215 29/69/216 105/110/217 1/20/218
f 30/67/219 33/65/220 106/111/221 105/110/222
f 33/65/223 37/63/224 107/112/225 106/111/226
f 37/63/227 36/62/228 108/113/229 107/112/230
f 27/56/231 28/54/232 109/114/233
f 28/54/234 31/52/235 2/121/236 109/114/237
f 34/58/238 27/56/239 109/114/240 110/115/241
f 38/60/242 34/58/243 110/115/244 111/116/245
f 35/61/246 38/60/247 111/116/248 112/117/249
f 119/118/250 16/109/251 113/1/252
s 3
f 16/109/253 17/131/7 3/2/10 113/1/254
s off
f 117/119/255 119/118/256 113/1/257 4/3/258
s 3
f 23/125/12 24/108/259 114/5/260 6/4/13
s off
f 24/108/261 115/22/262 114/5/263
s 5
f 24/108/264 25/122/21 13/21/23 115/22/265
f 116/23/266 115/22/265 13/21/23
s off
f 26/26/267 116/23/268 13/21/269
f 118/28/270 4/3/271 15/25/272 12/24/273
f 118/28/274 117/119/275 4/3/276
s 7
f 14/27/33 119/118/277 117/119/278
s off
f 14/27/279 16/109/280 119/118/281
s 7
f 14/27/33 117/119/278 118/28/34
