# This file uses centimeters as units for non-parametric coordinates.

g default
v 1.001291 0.096917 1.001292
v -0.000001 0.096917 0.000000
v 0.014468 0.096917 0.129658
v 0.013841 0.107685 0.118890
v 0.884291 0.107685 0.989951
v 0.871345 0.096917 0.990468
v 0.013841 0.107685 0.009383
v 0.990659 0.107685 0.989953
v 0.871345 0.019739 0.990468
v 0.014468 0.019739 0.129658
v 0.014468 0.000000 0.268954
v 0.733698 0.000000 0.990468
v 0.764626 0.019739 0.990468
v 0.014468 0.019739 0.240141
v 0.880578 0.096917 1.001292
v 0.880578 0.010533 1.001292
v 0.765333 0.010533 1.001292
v 0.748325 0.000000 1.001292
v -0.000001 0.096917 0.120713
v -0.000001 0.010533 0.120713
v -0.000001 0.010533 0.235959
v -0.000001 0.000000 0.252967
v 0.689123 0.096917 0.129657
v 0.688496 0.107685 0.118890
v 0.719018 0.107685 0.009383
v 0.689123 0.019739 0.129657
v 0.689123 0.019739 0.240141
v 0.689123 0.000000 0.268954
v 0.871345 0.096917 0.315419
v 0.884291 0.107685 0.314902
v 1.001291 0.096907 0.251648
v 0.990659 0.107685 0.280912
v 0.871345 0.019739 0.315419
v 0.764626 0.019739 0.315419
v 0.733698 0.000000 0.315419
v 0.751707 0.096927 0.000000
v 0.713924 0.000004 0.275358
v 0.716677 0.019744 0.241243
v 0.742805 0.019746 0.132015
v 0.742809 0.096924 0.132017
v 0.743100 0.107692 0.120919
v 0.751067 0.107694 0.012555
v 0.739619 0.019742 0.245608
v 0.791884 0.019746 0.144802
v 0.791899 0.096924 0.144810
v 0.795551 0.107691 0.134085
v 0.833435 0.107695 0.033983
v 0.836882 0.096928 0.024964
v 0.757599 0.019736 0.266981
v 0.831356 0.019738 0.171904
v 0.831373 0.096916 0.171921
v 0.839408 0.107684 0.163523
v 0.914563 0.107684 0.088999
v 0.921581 0.096916 0.082156
v 0.857462 0.019732 0.212184
v 0.857471 0.096910 0.212199
v 0.868655 0.107677 0.207650
v 0.967994 0.107673 0.170570
v 0.977464 0.096905 0.167109
v 0.728429 -0.000005 0.291276
v 0.762699 0.019734 0.287350
v 0.869441 0.019732 0.261655
v 0.869443 0.096910 0.261659
v 0.881923 0.107677 0.260274
v 0.988208 0.107674 0.252398
v 1.001291 0.096914 0.000000
v 0.834465 0.107786 0.012936
v 0.990431 0.107774 0.010858
v 0.929461 0.107776 0.074372
v 0.988945 0.107766 0.167816
vt 0.010695 0.923375
vt 0.010275 0.929240
vt 0.005544 0.924659
vt 0.010998 0.891483
vt 0.007439 0.887058
vt 0.009193 0.951159
vt 0.004780 0.949381
vt 0.008716 0.986974
vt 0.004756 0.986136
vt 0.008333 0.997801
vt 0.003970 0.993178
vt 0.535996 0.929237
vt 0.535986 0.923375
vt 0.541399 0.924659
vt 0.535777 0.890480
vt 0.540067 0.886339
vt 0.537048 0.950342
vt 0.542323 0.949577
vt 0.537600 0.988526
vt 0.542396 0.986430
vt 0.537999 0.998852
vt 0.543586 0.993407
vt 0.331782 0.929249
vt 0.331914 0.923375
vt 0.321365 0.891835
vt 0.332219 0.953035
vt 0.331890 0.988526
vt 0.332056 0.999248
vt 0.214336 0.923375
vt 0.214320 0.929249
vt 0.233199 0.886815
vt 0.224536 0.891835
vt 0.213679 0.953037
vt 0.213947 0.986893
vt 0.213765 0.998401
vt 0.311649 0.886984
vt 0.312105 0.891835
vt 0.312295 0.923375
vt 0.312296 0.929249
vt 0.315568 0.953035
vt 0.283009 0.987299
vt 0.324100 0.998907
vt 0.277539 0.987299
vt 0.291362 0.953035
vt 0.293049 0.929249
vt 0.293034 0.923375
vt 0.294221 0.891835
vt 0.294163 0.887042
vt 0.272847 0.953035
vt 0.267821 0.987299
vt 0.272736 0.929249
vt 0.272716 0.923375
vt 0.272848 0.891835
vt 0.272766 0.887016
vt 0.253768 0.953035
vt 0.251918 0.929249
vt 0.251924 0.923375
vt 0.251787 0.891835
vt 0.251782 0.887081
vt 0.266233 0.998838
vt 0.222282 0.987158
vt 0.230281 0.953035
vt 0.232862 0.929249
vt 0.232901 0.923375
vt 0.232674 0.891835
vt 0.819525 0.984264
vt 0.921551 0.918283
vt 0.987031 0.986497
vt 0.985436 0.817926
vt 0.730645 0.998158
vt 0.822120 0.971347
vt 0.998695 0.998158
vt 0.913087 0.909923
vt 0.973104 0.818685
vt 0.998695 0.727892
vt 0.262887 0.987299
vt 0.221423 0.998174
vt 0.323710 0.988217
vt 0.279917 0.998839
vn -0.552707 0.687165 0.471508
vn -0.552707 0.687165 0.471508
vn -0.552707 0.687165 0.471508
vn -0.000004 0.725160 0.688581
vn -0.000004 0.725160 0.688581
vn -0.000004 0.725160 0.688581
vn -0.000004 0.725160 0.688581
vn -0.760777 0.000000 0.649013
vn -0.760777 0.000000 0.649013
vn -0.760777 0.000000 0.649013
vn -0.760777 0.000000 0.649013
vn 0.000000 0.761731 0.647893
vn 0.000000 0.761731 0.647893
vn 0.000000 0.761731 0.647893
vn 0.000000 0.761731 0.647893
vn -0.429664 0.680356 0.593720
vn -0.429664 0.680356 0.593720
vn -0.429664 0.680356 0.593720
vn -0.429664 0.680356 0.593720
vn -0.406604 0.634049 0.657765
vn -0.406604 0.634049 0.657765
vn -0.406604 0.634049 0.657765
vn -0.614001 0.789306 0.000000
vn -0.614001 0.789306 0.000000
vn -0.614001 0.789306 0.000000
vn -0.614001 0.789306 0.000000
vn -0.525809 0.000000 0.850602
vn -0.525809 0.000000 0.850602
vn -0.525809 0.000000 0.850602
vn -0.525809 0.000000 0.850603
vn -0.536805 0.843706 0.000000
vn -0.536805 0.843706 0.000000
vn -0.536805 0.843706 0.000000
vn -0.536805 0.843706 0.000000
vn -0.544758 0.699678 0.462265
vn -0.544758 0.699678 0.462265
vn -0.544758 0.699678 0.462265
vn -0.544758 0.699678 0.462265
vn 0.000000 0.707095 0.707119
vn 0.000000 0.707095 0.707119
vn 0.000000 0.707095 0.707118
vn 0.000000 0.707095 0.707118
vn 0.000000 1.000000 -0.000000
vn 0.000000 1.000000 -0.000000
vn 0.000000 1.000000 -0.000000
vn 0.000000 1.000000 -0.000000
vn 0.000000 0.000000 1.000000
vn 0.000000 0.000000 1.000000
vn 0.000000 0.000000 1.000000
vn 0.000000 0.000000 1.000000
vn 0.000000 1.000000 0.000000
vn 0.000000 1.000000 0.000000
vn 0.000000 1.000000 0.000000
vn 0.000000 1.000000 0.000000
vn 0.000000 0.824970 0.565176
vn 0.000000 0.824970 0.565176
vn 0.000000 0.824970 0.565176
vn 0.000000 0.824970 0.565176
vn -0.639446 0.768836 0.000000
vn -0.639446 0.768836 0.000000
vn -0.639446 0.768836 0.000000
vn -0.639446 0.768836 0.000000
vn 0.711718 0.702466 -0.000005
vn 0.711718 0.702465 -0.000005
vn 0.711718 0.702466 -0.000005
vn 0.711718 0.702466 -0.000005
vn 0.000000 1.000000 0.000000
vn 0.000000 1.000000 0.000000
vn 0.000000 1.000000 0.000000
vn 0.000000 1.000000 0.000000
vn -1.000000 0.000000 0.000000
vn -1.000000 0.000000 0.000000
vn -1.000000 0.000000 0.000000
vn -1.000000 0.000000 0.000000
vn 0.000000 1.000000 0.000000
vn 0.000000 1.000000 0.000000
vn 0.000000 1.000000 0.000000
vn 0.000000 1.000000 0.000000
vn -0.538002 0.842944 0.000000
vn -0.538002 0.842944 0.000000
vn -0.538002 0.842944 0.000000
vn -0.538002 0.842944 0.000000
vn -0.000004 0.657158 -0.753753
vn -0.000004 0.657158 -0.753753
vn -0.000004 0.657158 -0.753753
vn -0.000004 0.657158 -0.753753
vn 0.170244 0.719972 -0.672798
vn 0.063887 0.759151 -0.647772
vn 0.168776 0.720586 -0.672511
vn -0.000191 1.000000 -0.000024
vn -0.000191 1.000000 -0.000024
vn -0.000077 1.000000 0.000007
vn -0.000087 1.000000 0.000004
vn -0.028530 0.711958 0.701643
vn -0.028530 0.711958 0.701643
vn -0.103818 0.716253 0.690075
vn -0.095966 0.715999 0.691474
vn -0.043894 -0.000017 0.999036
vn -0.043894 -0.000017 0.999036
vn -0.145823 -0.000028 0.989311
vn -0.145839 -0.000028 0.989308
vn -0.000146 1.000000 -0.000008
vn -0.000146 1.000000 -0.000008
vn -0.000067 1.000000 0.000013
vn -0.000056 1.000000 0.000016
vn -0.075792 0.846146 0.527534
vn -0.075792 0.846146 0.527534
vn -0.078582 0.849175 0.522232
vn -0.081379 0.852178 0.516886
vn -0.093706 0.864994 0.492955
vn 0.000070 1.000000 0.000071
vn 0.000066 1.000000 0.000062
vn -0.410739 -0.000029 0.911753
vn -0.410765 -0.000029 0.911741
vn -0.285811 0.723847 0.627979
vn -0.276277 0.723648 0.632460
vn 0.000046 1.000000 0.000055
vn 0.000042 1.000000 0.000053
vn 0.313162 0.690812 -0.651697
vn 0.306458 0.692304 -0.653299
vn 0.000110 1.000000 0.000103
vn 0.000071 1.000000 0.000058
vn -0.716654 0.000008 0.697429
vn -0.716683 0.000008 0.697400
vn -0.485935 0.733423 0.475350
vn -0.483402 0.733261 0.478175
vn 0.000089 1.000000 0.000086
vn 0.000089 1.000000 0.000086
vn 0.526186 0.673092 -0.519688
vn 0.526691 0.673113 -0.519148
vn 0.000064 1.000000 0.000057
vn -0.920561 0.000038 0.390599
vn -0.920574 0.000038 0.390568
vn -0.610740 0.746158 0.265037
vn -0.611614 0.746357 0.262450
vn 0.000056 1.000000 0.000040
vn 0.000054 1.000000 0.000036
vn 0.645130 0.702609 -0.300246
vn 0.646424 0.704398 -0.293189
vn -0.484920 0.866078 0.121497
vn -0.510093 0.856671 0.076941
vn -0.505654 0.858540 0.084994
vn 0.000012 1.000000 -0.000081
vn 0.000015 1.000000 -0.000070
vn -0.991083 0.000026 0.133250
vn -0.991085 0.000026 0.133233
vn -0.645183 0.758565 0.091200
vn -0.645218 0.758770 0.089224
vn 0.000005 1.000000 -0.000090
vn 0.000002 1.000000 -0.000100
vn 0.659072 0.735142 -0.158718
vn 0.659611 0.734109 -0.161238
vn -0.513552 0.855149 0.070603
vn -0.513552 0.855149 0.070603
vn -0.000009 1.000000 -0.000162
vn -0.000009 1.000000 -0.000162
vn -0.999374 0.000012 0.035367
vn -0.999374 0.000012 0.035367
vn -0.644989 0.763773 0.025296
vn -0.644989 0.763773 0.025296
vn -0.000032 1.000000 -0.000218
vn -0.000032 1.000000 -0.000218
vn 0.632642 0.772514 -0.054657
vn -0.344285 0.889549 0.300285
vn -0.344285 0.889549 0.300285
vn -0.344285 0.889549 0.300285
vn -0.344285 0.889549 0.300285
vn 0.000076 1.000000 0.000044
vn 0.000076 1.000000 0.000044
vn 0.000076 1.000000 0.000044
vn 0.000082 1.000000 0.000050
vn 0.000082 1.000000 0.000050
vn 0.000082 1.000000 0.000050
vn -0.198849 0.707256 0.678416
vn -0.369200 0.679188 0.634346
vn -0.321823 0.689396 0.648971
vn -0.003380 0.743635 -0.668578
vn -0.003380 0.743635 -0.668578
vn -0.003380 0.743635 -0.668578
vn -0.003380 0.743635 -0.668578
vn -0.518845 0.681963 0.515487
vn -0.518972 0.681969 0.515350
vn -0.633031 0.688140 0.354591
vn -0.644567 0.693772 0.321269
vn -0.680669 0.707029 0.191834
vn 0.679141 0.734004 0.002496
vn 0.679141 0.734004 0.002496
vn 0.679141 0.734004 0.002496
vn 0.679141 0.734004 0.002496
s off
g mesh_Paving_Inner90SingleTight Modular_PavementEXPORT
f 5/1/1 6/2/2 15/3/3
f 8/4/4 5/1/5 15/3/6 1/5/7
f 6/2/8 9/6/9 16/7/10 15/3/11
f 9/6/12 13/8/13 17/9/14 16/7/15
f 13/8/16 12/10/17 18/11/18 17/9/19
f 3/12/20 4/13/21 19/14/22
f 4/13/23 7/15/24 2/16/25 19/14/26
f 10/17/27 3/12/28 19/14/29 20/18/30
f 14/19/31 10/17/32 20/18/33 21/20/34
f 11/21/35 14/19/36 21/20/37 22/22/38
f 4/13/39 3/12/40 23/23/41 24/24/42
f 7/15/43 4/13/44 24/24/45 25/25/46
f 3/12/47 10/17/48 26/26/49 23/23/50
f 10/17/51 14/19/52 27/27/53 26/26/54
f 14/19/55 11/21/56 28/28/57 27/27/58
f 6/2/59 5/1/60 30/29/61 29/30/62
f 8/4/63 1/5/64 31/31/65 32/32/66
f 5/1/67 8/4/68 32/32/69 30/29/70
f 9/6/71 6/2/72 29/30/73 33/33/74
f 13/8/75 9/6/76 33/33/77 34/34/78
f 12/10/79 13/8/80 34/34/81 35/35/82
f 2/16/83 7/15/84 25/25/85 36/36/86
s 1
f 36/36/87 25/25/88 42/37/89
s 2
f 25/25/90 24/24/91 41/38/92 42/37/93
s 3
f 24/24/94 23/23/95 40/39/96 41/38/97
s 4
f 23/23/98 26/26/99 39/40/100 40/39/101
s 5
f 26/26/102 27/27/103 38/78/104 39/40/105
s 6
f 27/27/106 28/28/107 37/42/108 38/78/109
f 38/41/109 37/79/108 43/43/110
s 5
f 39/40/105 38/41/104 43/43/111 44/44/112
s 4
f 40/39/101 39/40/100 44/44/113 45/45/114
s 3
f 41/38/97 40/39/96 45/45/115 46/46/116
s 2
f 42/37/93 41/38/92 46/46/117 47/47/118
s 1
f 36/36/87 42/37/89 47/47/119 48/48/120
s 5
f 50/49/121 43/43/111 49/50/122
s 4
f 45/45/114 44/44/113 50/49/123 51/51/124
s 3
f 46/46/116 45/45/115 51/51/125 52/52/126
s 2
f 47/47/118 46/46/117 52/52/127 53/53/128
s 1
f 48/48/120 47/47/119 53/53/129 54/54/130
s 5
f 50/49/121 49/50/122 55/55/131
s 4
f 51/51/124 50/49/123 55/55/132 56/56/133
s 3
f 52/52/126 51/51/125 56/56/134 57/57/135
s 2
f 53/53/128 52/52/127 57/57/136 58/58/137
s 1
f 54/54/130 53/53/129 58/58/138 59/59/139
s 7
f 49/50/140 60/60/141 61/76/142
s 5
f 55/55/131 49/50/122 61/76/143 62/62/144
s 4
f 56/56/133 55/55/132 62/62/145 63/63/146
s 3
f 57/57/135 56/56/134 63/63/147 64/64/148
s 2
f 58/58/137 57/57/136 64/64/149 65/65/150
s 1
f 59/59/139 58/58/138 65/65/151 31/31/152
s 7
f 61/61/142 60/77/141 35/35/153 34/34/154
s 5
f 62/62/144 61/61/143 34/34/155 33/33/156
s 4
f 63/63/146 62/62/145 33/33/157 29/30/158
s 3
f 64/64/148 63/63/147 29/30/159 30/29/160
s 2
f 65/65/150 64/64/149 30/29/161 32/32/162
s 1
f 31/31/152 65/65/151 32/32/163
s 5
f 44/44/112 43/43/111 50/49/121
s off
f 43/43/164 37/79/165 60/60/166 49/50/167
f 67/66/168 69/67/169 68/68/170
f 69/67/171 70/69/172 68/68/173
s 8
f 36/70/174 48/71/175 67/66/176
s off
f 66/72/177 36/70/178 67/66/179 68/68/180
s 8
f 48/71/175 54/73/181 69/67/182 67/66/176
f 54/73/181 59/74/183 70/69/184 69/67/182
f 59/74/183 31/75/185 70/69/184
s off
f 31/75/186 66/72/187 68/68/188 70/69/189
