# This file uses centimeters as units for non-parametric coordinates.

g default
v 0.000000 0.096917 1.000949
v -0.010769 0.107685 1.011716
v -0.343534 0.107685 1.011716
v -0.367757 0.096899 1.003740
v -0.010769 0.107685 0.990182
v -0.357924 0.107685 0.990182
v 0.000000 0.096917 0.000000
v -0.010769 0.107685 0.010767
v -0.986456 0.096917 0.000000
v -0.975691 0.107685 0.010767
v -0.975691 0.107685 0.361680
v -0.990784 0.096942 0.374696
v -0.997225 0.107685 0.010767
v -0.997225 0.107685 0.347291
v -2.002584 0.096917 0.000000
v -1.886007 0.107685 0.010767
v -0.047658 0.106141 1.710648
v -0.141257 0.106954 1.418576
v -0.256763 0.107419 1.160070
v -0.400576 0.107685 0.926347
v -0.548292 0.107685 0.741307
v -0.708624 0.107685 0.572893
v -0.897981 0.107685 0.424250
v -1.136358 0.107685 0.249899
v -1.398219 0.107685 0.112276
v -1.678217 0.107685 0.020476
v -1.990458 0.096917 0.132075
v -1.991089 0.107685 0.121308
v -0.123111 0.107685 1.991303
v -0.133878 0.096917 1.991820
v -1.991089 0.107685 0.011800
v -0.015131 0.107685 1.991303
v 0.000685 0.096917 2.002584
v -0.133878 0.019739 1.991820
v -1.990458 0.019739 0.132075
v -1.990458 -0.000000 0.269016
v -0.266070 -0.000000 1.991820
v -0.238289 0.019739 1.991820
v -1.990458 0.019739 0.236990
v -1.686144 0.096934 0.037400
v -1.686920 0.107704 0.048154
v -1.689011 0.107701 0.157620
v -1.688643 0.096930 0.168393
v -1.688992 0.019753 0.168384
v -1.690993 0.019750 0.273259
v -1.691695 0.000010 0.305271
v -1.403096 0.096944 0.123766
v -1.404781 0.107714 0.134405
v -1.416263 0.107711 0.243182
v -1.416834 0.096940 0.253934
v -1.417173 0.019763 0.253897
v -1.428168 0.019760 0.358113
v -1.431613 0.000020 0.389915
v -1.139777 0.096946 0.264452
v -1.142995 0.107716 0.274714
v -1.170315 0.107713 0.380444
v -1.172469 0.096942 0.390973
v -1.172795 0.019765 0.390888
v -1.198969 0.019762 0.492184
v -1.207042 0.000022 0.523084
v -0.911886 0.096940 0.435712
v -0.917012 0.107710 0.445147
v -0.964163 0.107707 0.530720
v -0.968311 0.096937 0.540612
v -0.968612 0.019760 0.540468
v -1.013787 0.019758 0.636592
v -1.027655 0.000018 0.665298
v -0.719243 0.096928 0.585799
v -0.726327 0.107698 0.593850
v -0.794136 0.107697 0.679034
v -0.800383 0.096927 0.687734
v -0.800642 0.019750 0.687531
v -0.867567 0.019879 0.764717
v -0.887464 0.000140 0.789578
v -0.556171 0.096914 0.754966
v -0.564932 0.107684 0.761154
v -0.650719 0.107684 0.828202
v -0.658831 0.096914 0.835200
v -0.659032 0.019737 0.834947
v -0.741221 0.019737 0.899184
v -0.766365 -0.000002 0.918729
v -0.408678 0.096901 0.940724
v -0.418597 0.107671 0.944833
v -0.517219 0.107673 0.991295
v -0.526692 0.096903 0.996323
v -0.526830 0.019726 0.996038
v -0.621316 0.019727 1.040551
v -0.650194 -0.000012 1.054067
v -0.262723 0.096894 1.165486
v -0.273259 0.107664 1.167642
v -0.379115 0.107666 1.194505
v -0.389398 0.096896 1.197633
v -0.389475 0.019719 1.197334
v -0.490892 0.019721 1.223070
v -0.521872 -0.000017 1.230850
v -0.151201 0.096894 1.428294
v -0.161952 0.107663 1.428911
v -0.270756 0.107666 1.440190
v -0.281402 0.096897 1.441790
v -0.281434 0.019719 1.441489
v -0.385674 0.019721 1.452294
v -0.417504 -0.000017 1.455515
v -0.057943 0.096901 1.721289
v -0.068717 0.107671 1.721006
v -0.178185 0.107673 1.723058
v -0.188939 0.096904 1.723746
v -0.188946 0.019726 1.723451
v -0.293824 0.019729 1.725418
v -0.325839 -0.000010 1.725942
v -0.010387 0.105106 1.891462
v -0.120664 0.096917 2.002241
v -0.120664 0.010963 2.002241
v -0.235961 0.010963 2.002241
v -0.258146 0.000000 2.002241
v -2.002927 0.096917 0.120662
v -2.002927 0.010963 0.120662
v -2.002927 0.010963 0.235959
v -2.002927 0.000000 0.258145
vt 0.997599 0.998014
vt 0.988611 0.990005
vt 0.988470 0.112753
vt 0.862628 0.994369
vt 0.656789 0.990201
vt 0.630141 0.002429
vt 0.989170 0.015871
vt 0.640031 0.015871
vt 0.999113 0.997529
vt 0.989170 0.986854
vt 0.007908 0.996848
vt 0.018734 0.986854
vt 0.018734 0.638962
vt 0.995343 0.625462
vt 0.989012 0.989361
vt 0.989012 0.652864
vt 0.000630 0.999916
vt 0.115239 0.989361
vt 0.858252 0.584375
vt 0.951413 0.293077
vt 0.448576 0.262602
vt 0.597135 0.079156
vt 0.852228 0.750249
vt 0.594790 0.887860
vt 0.743227 0.842216
vt 0.096889 0.576931
vt 0.287327 0.429567
vt 0.319519 0.979653
vt 0.941150 0.282472
vt 0.784877 0.990097
vt 0.859165 0.990327
vt 0.779404 0.955682
vt 0.859137 0.955666
vt 0.778920 0.952918
vt 0.859136 0.952916
vt 0.778433 0.930962
vt 0.859142 0.930963
vt 0.773648 0.899853
vt 0.859117 0.899854
vt 0.772138 0.888617
vt 0.859112 0.888612
vt 0.011846 0.990934
vt 0.095811 0.991022
vt 0.311727 0.962730
vt 0.011819 0.955667
vt 0.100800 0.955684
vt 0.011817 0.952916
vt 0.101459 0.952919
vt 0.011825 0.930961
vt 0.101920 0.930961
vt 0.011803 0.899853
vt 0.106508 0.899853
vt 0.011799 0.888618
vt 0.107956 0.888619
vt 0.178501 0.991208
vt 0.589995 0.876371
vt 0.186442 0.955685
vt 0.187422 0.952919
vt 0.187362 0.930961
vt 0.196096 0.899854
vt 0.199002 0.888614
vt 0.260448 0.990782
vt 0.848867 0.735697
vt 0.270002 0.955680
vt 0.271135 0.952918
vt 0.270966 0.930961
vt 0.281233 0.899854
vt 0.284564 0.888614
vt 0.340858 0.990257
vt 0.345747 0.955679
vt 0.346636 0.952918
vt 0.346635 0.930962
vt 0.354434 0.899853
vt 0.356760 0.888615
vt 0.082903 0.565567
vt 0.409949 0.990295
vt 0.276647 0.416773
vt 0.412909 0.955684
vt 0.413365 0.952919
vt 0.413377 0.930962
vt 0.414873 0.899854
vt 0.415708 0.888616
vt 0.476118 0.990189
vt 0.440651 0.249061
vt 0.474423 0.955688
vt 0.474418 0.952919
vt 0.474488 0.930962
vt 0.472441 0.899853
vt 0.471770 0.888618
vt 0.543511 0.989866
vt 0.588987 0.064902
vt 0.537326 0.955686
vt 0.536851 0.952919
vt 0.536788 0.930962
vt 0.530453 0.899854
vt 0.528378 0.888616
vt 0.618677 0.990055
vt 0.610615 0.955683
vt 0.609912 0.952918
vt 0.609641 0.930962
vt 0.601296 0.899854
vt 0.598557 0.888614
vt 0.737280 0.836819
vt 0.696959 0.990055
vt 0.848330 0.574691
vt 0.690247 0.955682
vt 0.689650 0.952918
vt 0.689344 0.930962
vt 0.682319 0.899854
vt 0.680041 0.888615
vt 0.863500 0.955141
vt 0.863502 0.930963
vt 0.863496 0.899854
vt 0.863495 0.892569
vt 0.007394 0.955142
vt 0.007405 0.930961
vt 0.007380 0.899853
vt 0.007377 0.891076
vt 0.632640 0.998169
vt 0.565370 0.994497
vt 0.632640 0.998169
vt 0.630141 0.002429
vt 0.619537 0.994276
vt 0.003554 0.626058
vt 0.312159 0.995052
vt 0.003554 0.626058
vt 0.995343 0.625462
vt 0.340226 0.994959
vt 0.785545 0.994543
vt 0.998568 0.001939
vt 0.697701 0.994269
vt 0.544306 0.994399
vt 0.476403 0.994403
vt 0.409784 0.994670
vt 0.259781 0.994971
vt 0.177911 0.995148
vt 0.095401 0.995318
vt 0.007422 0.995042
vt 0.000630 0.999916
vt 0.999598 0.999447
vt 0.998244 0.002475
vn 0.653726 0.756731 0.000667
vn 0.653726 0.756731 0.000667
vn 0.653726 0.756731 0.000667
vn 0.653726 0.756731 0.000667
vn -0.003020 0.657281 -0.753639
vn -0.003020 0.657281 -0.753640
vn -0.003020 0.657281 -0.753639
vn -0.003020 0.657281 -0.753639
vn 0.002571 0.748523 0.663104
vn 0.002571 0.748523 0.663104
vn 0.002571 0.748523 0.663104
vn 0.002571 0.748523 0.663104
vn 0.707058 0.707155 0.000000
vn 0.707058 0.707155 0.000000
vn 0.707058 0.707155 0.000000
vn 0.707058 0.707155 0.000000
vn 0.000000 0.707093 -0.707121
vn 0.000000 0.707093 -0.707121
vn 0.000000 0.707093 -0.707121
vn 0.000000 0.707093 -0.707121
vn -0.639704 0.768612 -0.003842
vn -0.639704 0.768612 -0.003842
vn -0.639704 0.768612 -0.003842
vn -0.639704 0.768612 -0.003842
vn 0.779040 0.626957 0.004719
vn 0.779040 0.626957 0.004719
vn 0.779040 0.626957 0.004719
vn 0.779040 0.626957 0.004719
vn 0.000000 0.707093 -0.707120
vn 0.000000 0.707093 -0.707120
vn 0.000000 0.707093 -0.707120
vn 0.000000 0.707093 -0.707120
vn 0.000510 0.999998 0.001905
vn 0.001181 0.999997 0.002175
vn 0.010838 0.999937 0.002781
vn 0.000000 1.000000 0.000000
vn 0.000000 1.000000 0.000000
vn 0.000000 1.000000 0.000000
vn 0.000000 1.000000 -0.000000
vn 0.000000 1.000000 -0.000000
vn 0.000000 1.000000 -0.000000
vn 0.013559 0.999904 0.002925
vn 0.000000 0.999998 0.001791
vn 0.000002 0.999998 0.001795
vn 0.000000 1.000000 0.000000
vn 0.000000 1.000000 0.000000
vn 0.000000 1.000000 0.000000
vn 0.000000 1.000000 0.000000
vn 0.000000 1.000000 0.000000
vn 0.000000 1.000000 0.000000
vn 0.000000 1.000000 0.000000
vn 0.000000 1.000000 -0.000000
vn 0.000000 1.000000 -0.000001
vn 0.672375 0.720023 -0.171692
vn 0.676159 0.713812 -0.182430
vn 0.658270 0.740767 -0.133957
vn 0.658270 0.740767 -0.133957
vn 0.000015 1.000000 -0.000042
vn 0.000016 1.000000 -0.000039
vn 0.000010 1.000000 -0.000050
vn 0.000010 1.000000 -0.000050
vn -0.688879 0.701956 0.180840
vn -0.687429 0.701541 0.187836
vn -0.696099 0.703577 0.142915
vn -0.696099 0.703577 0.142915
vn -0.965909 -0.000666 0.258883
vn -0.965838 -0.000667 0.259147
vn -0.979570 -0.000343 0.201101
vn -0.979570 -0.000343 0.201102
vn 0.000014 1.000000 -0.000040
vn 0.000016 1.000000 -0.000038
vn 0.000010 1.000000 -0.000046
vn 0.000010 1.000000 -0.000046
vn -0.530517 0.835548 0.142870
vn -0.525630 0.837337 0.150266
vn -0.546368 0.829145 0.118324
vn -0.546367 0.829145 0.118324
vn 0.084196 0.700349 -0.708817
vn 0.084196 0.700349 -0.708817
vn 0.148466 0.702156 -0.696372
vn 0.140909 0.702100 -0.697998
vn -0.000060 1.000000 0.000013
vn -0.000060 1.000000 0.000013
vn -0.000051 1.000000 0.000020
vn -0.000053 1.000000 0.000018
vn -0.085002 0.702616 0.706474
vn -0.085002 0.702616 0.706474
vn -0.155570 0.698008 0.698987
vn -0.141049 0.699250 0.700824
vn -0.119524 0.000211 0.992831
vn -0.119524 0.000211 0.992831
vn -0.207572 0.000619 0.978220
vn -0.208086 0.000622 0.978110
vn -0.000043 1.000000 0.000013
vn -0.000043 1.000000 0.000013
vn -0.000044 1.000000 0.000020
vn -0.000044 1.000000 0.000018
vn -0.063462 0.849826 0.523228
vn -0.063462 0.849826 0.523228
vn -0.117044 0.847611 0.517548
vn -0.106267 0.848257 0.518814
vn 0.281346 0.698701 -0.657770
vn 0.267358 0.699490 -0.662748
vn -0.000030 1.000000 0.000025
vn -0.000035 1.000000 0.000025
vn -0.298060 0.685929 0.663824
vn -0.275642 0.687865 0.671464
vn -0.395646 0.001238 0.918402
vn -0.396158 0.001239 0.918182
vn -0.000032 1.000000 0.000024
vn -0.000036 1.000000 0.000025
vn -0.230216 0.840071 0.491205
vn -0.210884 0.841489 0.497419
vn 0.366197 0.693569 -0.620373
vn 0.358246 0.692836 -0.625810
vn -0.000007 1.000000 0.000027
vn -0.000012 1.000000 0.000026
vn -0.398976 0.682385 0.612510
vn -0.387221 0.681459 0.621026
vn -0.538329 0.001314 0.842734
vn -0.538598 0.001314 0.842562
vn -0.000007 1.000000 0.000026
vn -0.000013 1.000000 0.000025
vn -0.312484 0.836681 0.449797
vn -0.301646 0.836234 0.457955
vn 0.406401 0.737938 -0.538782
vn 0.435567 0.704638 -0.560149
vn 0.000017 1.000000 0.000035
vn 0.000015 1.000000 0.000034
vn -0.453363 0.690489 0.563637
vn -0.448089 0.689099 0.569525
vn -0.623331 0.000963 0.781958
vn -0.623510 0.000961 0.781815
vn 0.000103 1.000000 -0.000323
vn 0.000075 1.000000 -0.000223
vn -0.346196 0.841615 0.414527
vn -0.344175 0.840519 0.418416
vn 0.436960 0.702788 -0.561386
vn 0.474634 0.703927 -0.528402
vn 0.474257 0.703928 -0.528740
vn 0.000035 1.000000 0.000044
vn 0.000034 1.000000 0.000044
vn -0.493980 0.699073 0.516993
vn -0.491446 0.698655 0.519963
vn -0.689256 0.000412 0.724518
vn -0.689423 0.000410 0.724359
vn 0.000459 1.000000 -0.000381
vn 0.000441 1.000000 -0.000396
vn -0.370149 0.847151 0.381214
vn -0.368497 0.847007 0.383131
vn 0.535259 0.701276 -0.470861
vn 0.537517 0.701069 -0.468591
vn 0.000037 1.000000 0.000044
vn 0.000037 1.000000 0.000044
vn -0.532527 0.702209 0.472565
vn -0.532762 0.702209 0.472300
vn -0.747960 -0.000208 0.663744
vn -0.748096 -0.000210 0.663591
vn 0.000395 1.000000 -0.000056
vn 0.000367 1.000000 -0.000048
vn -0.395479 0.847082 0.355033
vn -0.396238 0.846986 0.354416
vn 0.566140 0.698711 -0.437364
vn 0.566624 0.699037 -0.436216
vn 0.000030 1.000000 0.000030
vn 0.000028 1.000000 0.000027
vn -0.572357 0.699657 0.427654
vn -0.575236 0.699296 0.424369
vn -0.802384 -0.000769 0.596808
vn -0.802517 -0.000770 0.596629
vn 0.000029 1.000000 0.000030
vn 0.000028 1.000000 0.000027
vn -0.422925 0.842953 0.332513
vn -0.427164 0.842203 0.328976
vn 0.602704 0.694447 -0.393055
vn 0.649770 0.690375 -0.318091
vn 0.000022 1.000000 0.000006
vn 0.000021 1.000000 0.000002
vn -0.623484 0.699309 0.349621
vn -0.629252 0.699497 0.338741
vn -0.875825 -0.000957 0.482629
vn -0.876040 -0.000957 0.482238
vn 0.000021 1.000000 0.000005
vn 0.000021 1.000000 0.000001
vn -0.463827 0.841859 0.275930
vn -0.471222 0.842189 0.262044
vn 0.654688 0.691016 -0.306400
vn 0.675389 0.692353 -0.253963
vn 0.678636 0.692193 -0.245606
vn 0.000019 1.000000 -0.000018
vn 0.000020 1.000000 -0.000022
vn -0.666760 0.699418 0.257381
vn -0.669229 0.699400 0.250944
vn -0.934404 -0.000945 0.356214
vn -0.934489 -0.000946 0.355990
vn 0.000019 1.000000 -0.000020
vn 0.000019 1.000000 -0.000024
vn -0.499564 0.842529 0.201448
vn -0.502699 0.842546 0.193416
vn -0.569829 0.812948 0.120044
vn -0.569829 0.812948 0.120044
vn -0.569829 0.812948 0.120044
vn -0.569829 0.812948 0.120044
vn -0.574753 0.797220 0.184662
vn -0.574753 0.797220 0.184662
vn -0.574753 0.797220 0.184662
vn -0.574753 0.797220 0.184662
vn -0.647364 0.707873 0.282552
vn -0.647364 0.707873 0.282552
vn -0.647364 0.707873 0.282552
vn -0.647364 0.707873 0.282552
vn -0.456813 0.811808 0.363718
vn -0.456813 0.811807 0.363718
vn -0.456812 0.811807 0.363718
vn -0.456813 0.811807 0.363718
vn -0.405355 0.827562 0.388367
vn -0.405355 0.827562 0.388367
vn -0.405355 0.827562 0.388367
vn -0.405355 0.827562 0.388366
vn -0.327151 0.847310 0.418376
vn -0.327151 0.847310 0.418376
vn -0.327151 0.847310 0.418376
vn -0.327151 0.847310 0.418376
vn -0.292208 0.781390 0.551402
vn -0.292208 0.781390 0.551402
vn -0.292208 0.781390 0.551402
vn -0.292208 0.781390 0.551402
vn -0.172072 0.821423 0.543742
vn -0.172072 0.821423 0.543742
vn -0.172072 0.821423 0.543742
vn -0.172072 0.821423 0.543742
vn -0.309972 0.865805 0.392809
vn -0.309972 0.865805 0.392809
vn -0.309972 0.865805 0.392809
vn -0.309972 0.865805 0.392809
vn -0.323947 0.832449 0.449541
vn -0.323947 0.832449 0.449541
vn -0.323947 0.832449 0.449541
vn -0.323947 0.832449 0.449541
vn -0.560358 0.751939 0.347255
vn -0.560358 0.751939 0.347255
vn -0.560358 0.751939 0.347255
vn -0.560358 0.751939 0.347255
vn -0.483762 0.815098 0.318732
vn -0.483762 0.815098 0.318732
vn -0.483762 0.815098 0.318732
vn -0.483762 0.815098 0.318732
vn -0.069806 0.626136 0.776583
vn -0.069806 0.626136 0.776583
vn -0.069806 0.626136 0.776583
vn -0.069806 0.626136 0.776583
vn -0.517578 0.549024 0.656267
vn -0.517578 0.549024 0.656267
vn -0.517578 0.549024 0.656267
vn -0.001042 0.717647 0.696407
vn -0.001042 0.717647 0.696407
vn -0.001042 0.717647 0.696407
vn -0.001042 0.717647 0.696407
vn -0.619257 0.000000 0.785189
vn -0.619256 0.000000 0.785189
vn -0.619256 0.000000 0.785189
vn -0.619256 0.000000 0.785189
vn 0.000000 0.764885 0.644166
vn 0.000000 0.764886 0.644166
vn 0.000000 0.764886 0.644166
vn 0.000000 0.764885 0.644166
vn -0.445681 0.725336 0.524648
vn -0.445682 0.725336 0.524648
vn -0.445682 0.725336 0.524648
vn -0.445681 0.725336 0.524648
vn -0.553637 0.572414 0.604838
vn -0.553637 0.572414 0.604838
vn -0.553637 0.572414 0.604838
vn -0.677924 0.735132 -0.001008
vn -0.677924 0.735132 -0.001008
vn -0.677924 0.735132 -0.001008
vn -0.677924 0.735132 -0.001008
vn -0.675196 0.000000 0.737639
vn -0.675196 0.000000 0.737639
vn -0.675196 0.000000 0.737639
vn -0.675196 0.000000 0.737639
vn -0.575608 0.817726 0.000000
vn -0.575608 0.817726 0.000000
vn -0.575608 0.817726 0.000000
vn -0.575608 0.817726 0.000000
vn -0.476157 0.765171 0.433345
vn -0.476157 0.765171 0.433345
vn -0.476157 0.765171 0.433345
vn -0.476157 0.765171 0.433345
s off
g mesh_Paving_Inner90Double Modular_PavementEXPORT
f 1/1/1 2/2/2 110/3/3 33/130/4
f 3/5/5 2/2/6 1/1/7 4/119/8
f 4/6/9 1/141/10 5/7/11 6/8/12
f 7/9/13 8/10/14 5/7/15 1/141/16
f 9/11/17 10/12/18 8/10/19 7/9/20
f 11/13/21 10/12/22 9/11/23 12/124/24
f 12/14/25 9/140/26 13/15/27 14/16/28
f 15/17/29 16/18/30 13/15/31 9/140/32
s 1
f 2/2/33 18/19/34 17/20/35
s 2
f 8/10/36 21/21/37 20/22/38
s 3
f 24/23/39 13/15/40 25/24/41
s 1
f 2/2/33 17/20/35 110/3/42
f 2/2/33 3/5/43 19/25/44
f 2/2/33 19/25/44 18/19/34
s 2
f 8/10/36 20/22/38 6/8/45 5/7/46
f 8/10/36 23/26/47 22/27/48
f 8/10/36 22/27/48 21/21/37
f 10/12/49 11/13/50 23/26/47 8/10/36
s 3
f 14/16/51 13/15/40 24/23/39
f 26/28/52 13/15/40 16/18/53
f 25/24/41 13/15/40 26/28/52
s 5
f 103/129/54 104/30/55 32/31/56 33/4/57
s 6
f 104/30/58 105/32/59 29/33/60 32/31/61
s 7
f 105/32/62 106/34/63 30/35/64 29/33/65
s 8
f 106/34/66 107/36/67 34/37/68 30/35/69
s 9
f 107/36/70 108/38/71 38/39/72 34/37/73
s 10
f 108/38/74 109/40/75 37/41/76 38/39/77
s 5
f 15/138/78 31/42/79 41/43/80 40/137/81
s 6
f 31/42/82 28/45/83 42/46/84 41/43/85
s 7
f 28/45/86 27/47/87 43/48/88 42/46/89
s 8
f 27/47/90 35/49/91 44/50/92 43/48/93
s 9
f 35/49/94 39/51/95 45/52/96 44/50/97
s 10
f 39/51/98 36/53/99 46/54/100 45/52/101
s 5
f 40/137/81 41/43/80 48/55/102 47/136/103
s 6
f 41/43/85 42/46/84 49/57/104 48/55/105
s 7
f 42/46/89 43/48/88 50/58/106 49/57/107
s 8
f 43/48/93 44/50/92 51/59/108 50/58/109
s 9
f 44/50/97 45/52/96 52/60/110 51/59/111
s 10
f 45/52/101 46/54/100 53/61/112 52/60/113
s 5
f 47/136/103 48/55/102 55/62/114 54/135/115
s 6
f 48/55/105 49/57/104 56/64/116 55/62/117
s 7
f 49/57/107 50/58/106 57/65/118 56/64/119
s 8
f 50/58/109 51/59/108 58/66/120 57/65/121
s 9
f 51/59/111 52/60/110 59/67/122 58/66/123
s 10
f 52/60/113 53/61/112 60/68/124 59/67/125
s 5
f 12/125/126 55/62/114 62/69/127
s 6
f 55/62/117 56/64/116 63/70/128 62/69/129
s 7
f 56/64/119 57/65/118 64/71/130 63/70/131
s 8
f 57/65/121 58/66/120 65/72/132 64/71/133
s 9
f 58/66/123 59/67/122 66/73/134 65/72/135
s 10
f 59/67/125 60/68/124 67/74/136 66/73/137
s 5
f 61/128/138 62/69/127 69/76/139 68/134/140
s 6
f 62/69/129 63/70/128 70/78/141 69/76/142
s 7
f 63/70/131 64/71/130 71/79/143 70/78/144
s 8
f 64/71/133 65/72/132 72/80/145 71/79/146
s 9
f 65/72/135 66/73/134 73/81/147 72/80/148
s 10
f 66/73/137 67/74/136 74/82/149 73/81/150
s 5
f 68/134/140 69/76/139 76/83/151 75/133/152
s 6
f 69/76/142 70/78/141 77/85/153 76/83/154
s 7
f 70/78/144 71/79/143 78/86/155 77/85/156
s 8
f 71/79/146 72/80/145 79/87/157 78/86/158
s 9
f 72/80/148 73/81/147 80/88/159 79/87/160
s 10
f 73/81/150 74/82/149 81/89/161 80/88/162
s 5
f 75/133/152 76/83/151 83/90/163 82/132/164
s 6
f 76/83/154 77/85/153 84/92/165 83/90/166
s 7
f 77/85/156 78/86/155 85/93/167 84/92/168
s 8
f 78/86/158 79/87/157 86/94/169 85/93/170
s 9
f 79/87/160 80/88/159 87/95/171 86/94/172
s 10
f 80/88/162 81/89/161 88/96/173 87/95/174
s 5
f 4/120/175 83/90/163 90/97/176
s 6
f 83/90/166 84/92/165 91/98/177 90/97/178
s 7
f 84/92/168 85/93/167 92/99/179 91/98/180
s 8
f 85/93/170 86/94/169 93/100/181 92/99/182
s 9
f 86/94/172 87/95/171 94/101/183 93/100/184
s 10
f 87/95/174 88/96/173 95/102/185 94/101/186
s 5
f 89/123/187 90/97/176 97/104/188 96/131/189
s 6
f 90/97/178 91/98/177 98/106/190 97/104/191
s 7
f 91/98/180 92/99/179 99/107/192 98/106/193
s 8
f 92/99/182 93/100/181 100/108/194 99/107/195
s 9
f 93/100/184 94/101/183 101/109/196 100/108/197
s 10
f 94/101/186 95/102/185 102/110/198 101/109/199
s 5
f 96/131/189 97/104/188 104/30/55 103/129/54
s 6
f 97/104/191 98/106/190 105/32/59 104/30/58
s 7
f 98/106/193 99/107/192 106/34/63 105/32/62
s 8
f 99/107/195 100/108/194 107/36/67 106/34/66
s 9
f 100/108/197 101/109/196 108/38/71 107/36/70
s 10
f 101/109/199 102/110/198 109/40/75 108/38/74
s off
f 33/130/200 110/3/201 17/20/202 103/29/203
f 17/20/204 18/19/205 96/105/206 103/29/207
f 18/19/208 19/25/209 89/103/210 96/105/211
f 20/22/212 21/21/213 75/84/214 82/91/215
f 21/21/216 22/27/217 68/77/218 75/84/219
f 22/27/220 23/26/221 61/75/222 68/77/223
f 24/23/224 25/24/225 47/56/226 54/63/227
f 25/24/228 26/28/229 40/44/230 47/56/231
s 5
f 12/125/126 62/69/127 61/128/138
f 54/135/115 55/62/114 12/125/126
f 4/120/175 90/97/176 89/123/187
f 82/132/164 83/90/163 4/120/175
s off
f 23/26/232 11/13/233 12/126/234 61/75/235
f 14/16/236 24/23/237 54/63/238 12/127/239
f 19/25/240 3/5/241 4/121/242 89/103/243
f 6/8/244 20/22/245 82/91/246 4/122/247
f 26/28/248 16/18/249 15/139/250 40/44/251
f 29/33/252 30/35/253 111/111/254
f 32/31/255 29/33/256 111/111/257 33/4/258
f 30/35/259 34/37/260 112/112/261 111/111/262
f 34/37/263 38/39/264 113/113/265 112/112/266
f 38/39/267 37/41/268 114/114/269 113/113/270
f 27/47/271 28/45/272 115/115/273
f 28/45/274 31/42/275 15/138/276 115/115/277
f 35/49/278 27/47/279 115/115/280 116/116/281
f 39/51/282 35/49/283 116/116/284 117/117/285
f 36/53/286 39/51/287 117/117/288 118/118/289
