# This file uses meters as units for non-parametric coordinates.

g default
v -0.024582 0.731583 0.969377
v 0.006717 0.766258 0.932799
v 0.006717 1.118020 1.166148
v -0.024582 1.109299 1.197461
v -0.495479 0.766258 0.932799
v -0.464180 0.731583 0.969377
v -0.464180 1.109299 1.197461
v -0.495479 1.118020 1.166148
v -0.026429 1.488982 0.789008
v 0.006717 1.488982 0.822167
v 0.006717 1.099252 0.512748
v -0.024582 1.109299 0.481436
v -0.495479 1.488982 0.822167
v -0.462333 1.488982 0.789008
v -0.495479 1.099252 0.512748
v -0.464180 1.109299 0.481436
v 0.006717 0.766258 0.512748
v -0.024582 0.731583 0.481436
v 0.006717 1.488982 1.166148
v -0.024582 1.484441 1.197461
v -0.464180 1.484441 1.197461
v -0.495479 1.488982 1.166148
v -0.464180 0.731583 0.481436
v -0.495479 0.766258 0.512748
v -0.077394 1.772206 1.166148
v -0.110039 1.798317 1.197461
v -0.403867 1.772206 1.166148
v -0.371223 1.798317 1.197461
v -0.077394 1.772206 0.820320
v -0.110039 1.798317 0.789008
v -0.403867 1.772206 0.820320
v -0.371223 1.798317 0.789008
vt 0.356259 -0.000000
vt 0.390352 0.248570
vt 0.609648 0.000000
vt 0.642616 0.250000
vt 0.934970 0.000000
vt 1.000000 0.000000
vt 0.500000 1.000000
vt 0.375000 0.500000
vt 0.375000 0.617000
vt 0.125000 0.130427
vt 0.125000 0.000000
vt 0.000000 0.000000
vt 0.500000 1.000000
vt 0.608742 0.500000
vt 0.625000 0.500000
vt 0.625000 0.617000
vt 0.875000 0.130427
vt 0.858957 0.000000
vt 0.875000 0.000000
vt 0.000000 0.000000
vt 0.500000 1.000000
vt 0.927613 -0.000000
vt 1.000000 0.000000
vt 0.500000 1.000000
vt 0.390352 0.130427
vt 0.609648 0.248570
vt 0.391258 0.500000
vt 0.609648 0.619573
vt 0.638111 0.133173
vt 0.856345 0.250000
vt 0.138051 0.126957
vt 0.357384 0.250000
vt 0.143655 0.250000
vt 0.141043 -0.000000
vt 0.361889 0.133173
vt 0.390352 -0.000000
vt 0.609648 0.130427
vt 0.643741 0.000000
vt 0.861949 0.126957
vt 0.390352 0.619573
vt 0.609648 0.750000
vt 0.390352 0.750000
vt 0.063120 -0.000000
vt 0.500000 1.000000
vt 0.065030 0.000000
vt 0.500000 1.000000
vt 0.074620 0.000000
vt 0.929537 0.000000
vt 0.500000 1.000000
vt 0.070463 0.000000
vt 0.925381 -0.000000
vt 0.500000 1.000000
vn 0.050981 0.998700 0.000000
vn -0.050981 0.998700 0.000000
vn -0.050981 0.998700 0.000000
vn 0.050981 0.998700 0.000000
vn 0.789685 -0.327973 0.518490
vn 0.768902 -0.192302 0.609762
vn 0.768592 -0.190936 0.610581
vn 0.789685 -0.327973 0.518490
vn 0.716405 0.090428 0.691800
vn 0.716373 0.089960 0.691894
vn -0.789680 -0.327976 0.518495
vn -0.768588 -0.190938 0.610587
vn -0.768897 -0.192304 0.609768
vn -0.789680 -0.327976 0.518495
vn -0.717224 0.098548 0.689839
vn -0.717182 0.097894 0.689976
vn 0.688865 0.381042 -0.616662
vn 0.725265 0.203234 -0.657789
vn 0.725265 0.203234 -0.657789
vn 0.694829 0.359130 -0.623088
vn 0.700322 0.280825 -0.656267
vn 0.701069 0.275048 -0.657914
vn 0.707255 0.000000 -0.706959
vn 0.707255 0.000000 -0.706959
vn -0.693995 0.367575 -0.619080
vn -0.725967 0.221831 -0.650971
vn -0.725967 0.221831 -0.650971
vn -0.688411 0.386698 -0.613641
vn -0.701065 0.275048 -0.657918
vn -0.700318 0.280826 -0.656270
vn -0.707250 0.000000 -0.706964
vn -0.707250 0.000000 -0.706964
vn 0.719249 0.204258 0.664047
vn 0.719249 0.204258 0.664047
vn -0.719433 0.222384 0.657998
vn -0.719433 0.222384 0.657998
vn 0.000000 0.000000 1.000000
vn 0.000000 0.000000 1.000000
vn 0.000000 0.000000 1.000000
vn 0.000000 0.000000 1.000000
vn 0.000000 0.629457 -0.777036
vn 0.000000 0.629457 -0.777036
vn 0.000000 0.629457 -0.777036
vn 0.000000 0.629457 -0.777036
vn -1.000000 -0.000000 0.000000
vn -0.993949 0.109847 0.000000
vn -0.996279 0.086185 0.000000
vn -1.000000 -0.000000 0.000000
vn 1.000000 -0.000000 0.000000
vn 0.996861 0.079177 0.000000
vn 0.994892 0.100949 0.000000
vn 1.000000 -0.000000 0.000000
vn 1.000000 -0.000000 0.000000
vn 1.000000 -0.000000 0.000000
vn 0.000000 -0.516918 0.856035
vn 0.000000 -0.516918 0.856035
vn 0.000000 -0.516918 0.856035
vn 0.000000 -0.516918 0.856035
vn -1.000000 -0.000000 0.000000
vn -1.000000 -0.000000 0.000000
vn 0.000000 0.000000 -1.000000
vn 0.000000 0.000000 -1.000000
vn 0.000000 0.000000 -1.000000
vn 0.000000 0.000000 -1.000000
vn 0.000000 0.000000 1.000000
vn 0.000000 0.000000 1.000000
vn 0.000000 0.000000 -1.000000
vn 0.000000 0.000000 -1.000000
vn 0.000000 0.000000 -1.000000
vn 0.000000 0.000000 -1.000000
vn 0.958619 0.284691 0.000000
vn 0.958619 0.284691 0.000000
vn -0.951464 0.307762 0.000000
vn -0.951463 0.307762 0.000000
vn 0.624627 0.780923 0.000000
vn 0.624627 0.780923 0.000000
vn -0.742311 -0.670055 0.000000
vn -0.742311 -0.670055 0.000000
vn -0.742311 -0.670055 0.000000
vn -0.742311 -0.670055 0.000000
vn 0.000000 -1.000000 0.000000
vn 0.000000 -1.000000 0.000000
vn 0.000000 -1.000000 0.000000
vn 0.000000 -1.000000 0.000000
vn 0.742316 -0.670049 0.000000
vn 0.742316 -0.670049 0.000000
vn 0.742316 -0.670049 0.000000
vn 0.742316 -0.670049 0.000000
vn -0.624627 0.780923 0.000000
vn -0.624627 0.780923 0.000000
s 1
g mesh_BuildingA_TrimOffsetCap1 Modular_Building_A
f 30/7/1 32/46/2 28/24/3 26/44/4
s 2
f 2/1/5 3/35/6 4/25/7 1/36/8
f 3/35/6 19/32/9 20/2/10 4/25/7
s 3
f 6/3/11 7/37/12 8/29/13 5/38/14
f 7/37/12 21/26/15 22/4/16 8/29/13
s 4
f 9/5/17 30/7/18 29/49/19 10/6/20
f 10/8/20 11/9/21 12/40/22 9/27/17
f 11/31/21 17/34/23 18/11/24 12/10/22
s 5
f 13/12/25 31/13/26 32/46/27 14/45/28
f 14/14/28 16/28/29 15/16/30 13/15/25
f 16/17/29 23/19/31 24/18/32 15/39/30
s 2
f 19/20/9 25/21/33 26/44/34 20/43/10
s 3
f 21/22/15 28/24/35 27/52/36 22/23/16
s 6
f 4/25/37 20/2/38 21/26/39 7/37/40
s off
f 9/27/41 12/40/42 16/28/43 14/14/44
s 7
f 8/29/45 22/4/46 13/30/47 15/39/48
s 8
f 11/31/49 10/33/50 19/32/51 3/35/52
f 11/31/49 3/35/52 2/1/53 17/34/54
s off
f 4/25/55 7/37/56 6/3/57 1/36/58
s 7
f 8/29/45 15/39/48 24/18/59 5/38/60
s off
f 12/40/61 18/42/62 23/41/63 16/28/64
s 6
f 20/43/38 26/44/65 28/24/66 21/22/39
s off
f 14/45/67 32/46/68 30/7/69 9/5/70
s 8
f 10/47/50 29/49/71 25/21/72 19/48/51
s 7
f 22/50/46 27/52/73 31/13/74 13/51/47
s 1
f 25/21/75 29/49/76 30/7/1 26/44/4
s off
f 5/38/77 24/18/78 23/19/79 6/3/80
f 6/3/81 23/41/82 18/42/83 1/36/84
f 1/36/85 18/11/86 17/34/87 2/1/88
s 1
f 32/46/2 31/13/89 27/52/90 28/24/3
