# This file uses meters as units for non-parametric coordinates.

g default
v 0.183230 0.107685 0.957968
v 0.183230 0.438218 0.957968
v 0.183230 0.641293 0.898971
v 0.183230 0.641293 0.862193
v 0.183230 1.727279 0.862193
v 0.183230 1.844791 0.957966
v 0.183230 2.110269 0.957968
v 1.819353 0.107685 0.957968
v 1.819353 0.438218 0.957968
v 1.819353 0.641293 0.898971
v 1.819353 0.641293 0.862193
v 1.819353 1.727279 0.862193
v 1.819353 1.844791 0.957966
v 1.819364 2.110269 0.957968
vt 0.625000 0.000366
vt 0.625000 0.250000
vt 0.625000 0.250000
vt 0.058375 0.000000
vt 0.639063 0.283282
vt 0.058375 0.000000
vt 0.058375 1.000000
vt 0.058375 0.000000
vt 0.058375 1.000000
vt 0.058375 1.000000
vt 0.625000 0.250000
vt 0.625000 0.250000
vt 0.639063 0.283282
vt 0.058375 1.000000
vt 0.058375 0.000000
vt 0.058375 1.000000
vt 0.058375 0.000000
vt 0.058375 1.000000
vt 0.058375 0.000000
vt 0.625000 0.000366
vn 0.000000 0.278985 0.960295
vn 0.000000 0.278985 0.960295
vn 0.000000 0.278985 0.960295
vn 0.000000 0.278985 0.960295
vn 0.000000 1.000000 0.000000
vn 0.000000 1.000000 0.000000
vn 0.000000 1.000000 0.000000
vn 0.000000 1.000000 0.000000
vn 0.000000 0.000000 1.000000
vn 0.000000 0.000000 1.000000
vn 0.000000 0.000000 1.000000
vn 0.000000 0.000000 1.000000
vn 0.000000 -0.631761 0.775163
vn 0.000000 -0.631761 0.775163
vn 0.000000 -0.631761 0.775163
vn 0.000000 -0.631761 0.775163
vn 0.000000 -0.000007 1.000000
vn 0.000000 -0.000007 1.000000
vn 0.000000 -0.000007 1.000000
vn 0.000000 -0.000007 1.000000
vn 0.000000 0.000000 1.000000
vn 0.000000 0.000000 1.000000
vn 0.000000 0.000000 1.000000
vn 0.000000 0.000000 1.000000
s off
g mesh_BuildingA_WallPlain Modular_Building_A
f 2/2/1 9/12/2 10/11/3 3/3/4
f 3/3/5 10/11/6 11/13/7 4/5/8
f 4/4/9 11/15/10 12/14/11 5/7/12
f 5/6/13 12/17/14 13/16/15 6/9/16
f 6/8/17 13/19/18 14/18/19 7/10/20
f 1/1/21 8/20/22 9/12/23 2/2/24
