# This file uses meters as units for non-parametric coordinates.

g default
v 0.183230 1.107685 0.957967
v 0.183230 1.305025 0.957967
v 0.155236 1.271987 0.998782
v 0.155236 1.107685 0.981471
v 0.155236 1.127713 0.999999
v -0.183221 1.107685 0.957967
v -0.183221 1.305025 0.957967
v -0.155227 1.271987 0.998782
v -0.155227 1.107685 0.981471
v -0.155227 1.127713 0.999999
v 0.183231 1.305025 0.681733
v -0.183220 1.305025 0.681733
v 0.183231 1.232121 0.681733
v -0.183220 1.232121 0.681733
vt 0.625000 0.000366
vt 0.625000 0.250000
vt 0.625000 0.250000
vt 0.625000 0.000000
vt 0.625000 0.014743
vt 0.625000 0.250000
vt 0.625000 0.000000
vt 0.625000 0.014743
vt 0.625000 0.250000
vt 0.625000 0.000366
vt 0.000000 0.000000
vt 1.000000 0.000000
vt 1.000000 1.000000
vt 0.000000 1.000000
vt 0.000000 0.000000
vt 1.000000 0.000000
vt 1.000000 1.000000
vt 0.000000 1.000000
vn 0.825802 -0.009781 0.563876
vn 0.826187 -0.008067 0.563338
vn 0.524685 -0.578093 0.624911
vn 0.828395 0.001995 0.560141
vn 0.828395 0.001995 0.560141
vn 0.000000 -0.104781 0.994495
vn 0.000000 -0.104781 0.994495
vn 0.000000 -0.679072 0.734071
vn 0.000000 -0.679072 0.734071
vn -0.825802 -0.009781 0.563876
vn -0.524685 -0.578093 0.624911
vn -0.826187 -0.008067 0.563338
vn -0.828395 0.001995 0.560141
vn -0.828395 0.001995 0.560141
vn 0.000000 0.008434 0.999965
vn 0.000000 0.008434 0.999965
vn 0.000000 0.777272 0.629165
vn 0.000000 0.777272 0.629165
vn 0.000000 0.777272 0.629165
vn 0.000000 0.777272 0.629165
vn 0.000000 1.000000 -0.000000
vn 0.000000 1.000000 -0.000000
vn 0.000000 1.000000 -0.000000
vn 0.000000 1.000000 -0.000000
vn 0.000000 0.000000 -1.000000
vn 0.000000 0.000000 -1.000000
vn 0.000000 0.000000 -1.000000
vn 0.000000 0.000000 -1.000000
s 1
g mesh_BuildingA_TrimStraightCapRoof Modular_Building_A
f 1/1/1 5/5/2 4/4/3
f 5/5/2 1/1/1 2/2/4 3/3/5
s 2
f 5/5/6 10/8/7 9/7/8 4/4/9
s 3
f 6/10/10 9/7/11 10/8/12
f 10/8/12 8/6/13 7/9/14 6/10/10
s 2
f 3/3/15 8/6/16 10/8/7 5/5/6
s off
f 3/3/17 2/2/18 7/9/19 8/6/20
f 7/11/21 2/12/22 11/13/23 12/14/24
f 12/15/25 11/16/26 13/17/27 14/18/28
