# This file uses meters as units for non-parametric coordinates.

g default
v 0.425550 0.107685 0.731787
v 1.416808 0.107685 0.731787
v 1.416808 1.673121 0.733060
v 0.425550 1.673121 0.733060
v 0.534718 0.107685 0.731787
v 0.534718 1.572866 0.733060
v 1.307685 0.107685 0.731787
v 1.307685 1.572866 0.733060
v 0.445851 0.107685 0.780694
v 0.445868 1.652804 0.781951
v 0.514417 0.107685 0.780693
v 0.514389 1.593151 0.781938
v 1.396552 0.107685 0.780694
v 1.396535 1.652804 0.781951
v 1.327970 1.593151 0.781938
v 1.327942 0.107685 0.780699
v 0.534718 0.857063 0.732307
v 1.307685 1.255797 0.732775
v 0.689675 0.857063 0.732306
v 1.099264 1.255797 0.732770
v 0.575276 0.897635 0.763232
v 0.575276 1.532236 0.763921
v 0.664571 0.897635 0.763235
v 1.074116 1.296380 0.763694
v 1.267039 1.296380 0.763693
v 1.267039 1.532236 0.763920
v 1.124456 1.215177 0.763630
v 1.267039 1.215177 0.763629
v 0.714823 0.816438 0.763166
v 0.575276 0.816438 0.763163
v 0.575276 0.148257 0.762716
v 1.267039 0.148257 0.762716
v 1.518660 0.838302 0.732574
v 1.416808 0.746324 0.732506
v 1.396543 0.761129 0.781403
v 1.498393 0.857482 0.781472
v 1.327958 0.803698 0.781401
v 1.429811 0.898792 0.781468
v 1.307685 0.812855 0.732347
v 1.409537 0.908508 0.732415
v 1.267039 0.842430 0.763231
v 1.368891 0.944278 0.763306
v 0.575276 0.991799 0.763580
v 0.473723 1.071544 0.763675
v 0.534718 0.968645 0.732694
v 0.433165 1.046155 0.732786
v 0.514401 0.949328 0.781410
v 0.412846 1.032985 0.781485
v 0.445861 0.894219 0.781416
v 0.344309 0.978846 0.781485
v 0.425550 0.877379 0.732521
v 0.323997 0.954599 0.732583
v 0.473723 1.283403 0.763744
v 0.575276 1.366642 0.763803
v 0.433165 1.315721 0.732889
v 0.534718 1.393611 0.732941
v 0.412842 1.321856 0.781662
v 0.514394 1.400723 0.781742
v 0.344312 1.364268 0.781712
v 0.445866 1.445115 0.781778
v 0.323997 1.385569 0.732834
v 0.425550 1.462075 0.732894
v 1.267039 1.172817 0.763589
v 1.368891 1.088112 0.763510
v 1.307685 1.202125 0.732729
v 1.409537 1.122226 0.732660
v 1.327965 1.219491 0.781709
v 1.429815 1.136329 0.781658
v 1.396538 1.272930 0.781741
v 1.498390 1.189751 0.781695
v 1.416808 1.284761 0.732851
v 1.518660 1.209640 0.732811
v 0.183231 0.107685 0.957968
v 0.183231 0.438218 0.957968
v 0.183231 0.641292 0.898971
v 0.183231 0.641292 0.862194
v 0.183231 1.727279 0.862194
v 0.183231 1.844791 0.957966
v 0.183231 2.110269 0.957968
v 1.819354 0.107685 0.957968
v 1.819354 0.438218 0.957968
v 1.819354 0.641292 0.898971
v 1.819354 0.641292 0.862194
v 1.819354 1.727279 0.862194
v 1.819354 1.844791 0.957966
v 1.819364 2.110269 0.957968
v 0.402536 0.641292 0.862194
v 0.402536 0.641292 0.898971
v 0.402536 0.438218 0.957968
v 0.402536 0.107685 0.957968
v 1.425260 0.641292 0.862194
v 1.425260 0.641292 0.898971
v 1.425260 0.438218 0.957968
v 1.425260 0.107685 0.957968
v 1.426006 1.727279 0.862194
v 0.402029 1.727279 0.862194
v 0.402536 0.107685 0.862194
v 1.425260 0.107685 0.862194
v 0.402536 1.547566 0.862194
v 0.402536 0.837595 0.862194
v 0.240278 0.965700 0.862194
v 0.240279 1.402684 0.862194
v 1.425260 1.336501 0.862194
v 1.425260 0.707441 0.862194
v 1.562839 1.229169 0.862194
v 1.562839 0.831521 0.862194
v 0.406183 2.110351 0.957967
v 1.518574 1.844791 0.957966
v 1.445038 2.110351 0.957967
v 0.470601 1.989625 0.862194
v 1.357434 1.989625 0.862194
v 0.329881 1.844791 0.957966
vt 1.653679 0.999261
vt 0.500000 1.000000
vt 0.499094 -0.000069
vt 0.500000 0.000000
vt 1.607699 0.994405
vt -0.011740 0.006023
vt 1.000000 0.000000
vt 1.000000 1.000000
vt 0.127183 0.994819
vt 0.846188 0.999669
vt 0.658076 0.999862
vt 0.614159 0.999875
vt 0.231943 1.000000
vt 0.500000 1.000000
vt 1.653679 0.999261
vt -0.667006 1.000000
vt 1.185596 0.999561
vt 1.185596 0.999561
vt 0.231943 1.000000
vt 0.500000 1.000000
vt 1.185596 0.999561
vt 0.931090 0.999647
vt 1.185594 0.999561
vt 0.846188 0.999669
vt 0.500000 1.000000
vt 0.689839 0.999854
vt -0.076824 0.999975
vt 0.292386 0.000147
vt -0.086444 1.000000
vt 0.745001 0.999843
vt 0.612034 0.000149
vt 0.616788 0.999923
vt 0.213290 0.000052
vt 0.113965 1.000000
vt 0.686678 -0.000010
vt 0.702553 0.002095
vt 1.651690 0.004921
vt 0.692272 0.000168
vt 1.634497 0.000397
vt 1.185595 0.999561
vt 0.680990 0.997630
vt -0.157238 1.000000
vt -0.667006 1.000000
vt 0.260703 0.996671
vt -0.659160 0.998944
vt -0.637729 0.000518
vt 0.281401 0.002872
vt -0.651298 0.001125
vt 0.833805 0.999786
vt 0.864119 0.999753
vt 0.738821 -0.000031
vt 1.002575 0.004224
vt 0.726764 0.003707
vt 0.963635 0.994935
vt 0.231944 1.000000
vt 0.663870 0.995676
vt 0.257582 0.999979
vt 0.190068 1.000000
vt 0.231943 1.000000
vt 0.675304 0.999888
vt 0.655173 0.999901
vt 0.749695 0.999840
vt 0.355232 0.998764
vt 0.314626 0.000937
vt 0.585612 0.997960
vt 0.290610 0.000071
vt 0.611763 0.001823
vt 0.500000 1.000000
vt 0.608171 0.999931
vt 0.000000 1.000000
vt 0.000000 0.000005
vt 0.251965 0.999123
vt 0.226469 0.000679
vt -0.095198 1.000000
vt 0.127730 1.000000
vt 0.348820 0.996451
vt 0.372839 0.003044
vt 0.597154 0.995840
vt 0.378942 0.000112
vt 0.666370 0.003594
vt 0.625000 0.250000
vt 0.625000 0.250000
vt 0.625000 0.250000
vt 0.625000 0.250000
vt 0.639063 0.283282
vt 0.639063 0.283282
vt 0.058375 0.541319
vt 0.058375 0.999619
vt 0.085546 0.470583
vt 0.058375 0.626025
vt 0.625000 0.000366
vt 0.625000 0.000366
vt 0.058375 0.000000
vt 0.058375 0.000000
vt 0.058375 0.180759
vt 0.058375 0.298722
vt 0.625000 0.250000
vt 0.625000 0.250000
vt 0.639063 0.283282
vt 0.639063 0.283282
vt 0.625000 0.250000
vt 0.625000 0.250000
vt 0.625000 0.000366
vt 0.625000 0.000366
vt 0.058375 0.999531
vt 0.058375 0.999524
vt 0.058375 0.002209
vt 0.058375 0.500935
vt 0.058375 0.872214
vt 0.000000 0.000000
vt 1.000000 0.000000
vt 2.624276 1.694586
vt 0.000000 1.000000
vt 0.000000 0.000000
vt 1.000000 0.000000
vt 0.999760 0.997159
vt 0.000000 0.000000
vt 1.000000 0.000000
vt 1.000000 1.000000
vt -1.624276 1.694586
vt 0.000000 0.000000
vt 1.000000 0.000000
vt 0.000240 0.997159
vt 0.058375 0.701002
vt 0.058375 0.999575
vt 0.058375 0.834516
vt 0.058375 0.175167
vt 0.058375 0.000000
vt 0.058375 0.000000
vt 0.058375 0.060911
vt 0.058375 0.998536
vt 0.058375 0.002065
vt 0.058375 0.001598
vt 0.057371 1.027251
vt 0.063739 1.018439
vt 0.058375 0.001463
vt 0.058375 0.998715
vt 0.059695 0.532806
vt 0.058375 0.000279
vt 0.058375 0.999560
vt 0.058375 0.783222
vn 0.000054 -0.000356 1.000000
vn -0.000080 -0.000389 1.000000
vn -0.000066 -0.000361 1.000000
vn 0.000046 -0.000337 1.000000
vn -0.923569 -0.000345 0.383432
vn -0.923858 -0.000240 0.382735
vn -0.923619 -0.000326 0.383311
vn 0.000000 0.923445 0.383731
vn 0.000000 0.923445 0.383731
vn 0.000000 0.923445 0.383731
vn 0.000000 0.923445 0.383731
vn 0.000000 -0.923620 0.383310
vn 0.000000 -0.923620 0.383310
vn 0.000000 -0.923620 0.383310
vn 0.000000 -0.923620 0.383310
vn 0.923591 -0.000266 0.383380
vn 0.923742 -0.000425 0.383016
vn 0.923600 -0.000275 0.383359
vn -0.000003 -0.606233 0.795287
vn -0.000003 -0.606233 0.795287
vn -0.000003 -0.606233 0.795287
vn -0.000003 -0.606233 0.795287
vn 0.385173 -0.396596 0.833279
vn 0.385173 -0.396596 0.833279
vn 0.385173 -0.396596 0.833279
vn 0.385173 -0.396596 0.833279
vn -0.000007 -0.606054 0.795424
vn -0.000007 -0.606054 0.795424
vn -0.000007 -0.606054 0.795424
vn -0.000007 -0.606054 0.795424
vn 0.605063 -0.000737 0.796177
vn 0.605063 -0.000737 0.796177
vn 0.605063 -0.000737 0.796177
vn 0.605063 -0.000737 0.796177
vn 0.000000 0.604854 0.796337
vn 0.000000 0.604854 0.796336
vn 0.000000 0.604854 0.796337
vn 0.000000 0.604854 0.796337
vn -0.000009 0.604911 0.796293
vn -0.000009 0.604911 0.796293
vn -0.000009 0.604911 0.796293
vn -0.000009 0.604911 0.796293
vn -0.385321 0.394859 0.834035
vn -0.385321 0.394859 0.834035
vn -0.385321 0.394859 0.834035
vn -0.385321 0.394859 0.834035
vn -0.000005 0.604870 0.796324
vn -0.000005 0.604870 0.796324
vn -0.000005 0.604870 0.796324
vn -0.000005 0.604870 0.796324
vn -0.605931 -0.000543 0.795517
vn -0.605931 -0.000543 0.795517
vn -0.605931 -0.000543 0.795517
vn -0.605931 -0.000543 0.795517
vn 0.000000 -0.606254 0.795271
vn 0.000000 -0.606254 0.795271
vn 0.000000 -0.606254 0.795271
vn 0.000000 -0.606254 0.795271
vn 0.000061 -0.000833 1.000000
vn 0.000058 -0.000929 1.000000
vn 0.000002 -0.000960 1.000000
vn 0.000002 -0.000960 1.000000
vn -0.000032 -0.000697 1.000000
vn -0.000024 -0.000714 1.000000
vn -0.000005 -0.000673 1.000000
vn -0.000005 -0.000673 1.000000
vn -0.000041 -0.001104 0.999999
vn -0.000041 -0.001104 0.999999
vn -0.000035 -0.001103 0.999999
vn -0.036577 0.016152 0.999200
vn 0.000560 -0.001411 0.999999
vn 0.053907 -0.009906 0.998497
vn 0.001140 -0.002585 0.999996
vn 0.001140 -0.002585 0.999996
vn 0.903233 -0.113910 0.413757
vn 0.866106 -0.235610 0.440850
vn 0.886543 -0.175019 0.428265
vn 0.896781 -0.139392 0.419945
vn -0.000301 -0.000938 1.000000
vn -0.000258 -0.000594 1.000000
vn -0.000253 -0.000621 1.000000
vn -0.000300 -0.000898 1.000000
vn -0.909790 0.115664 0.398627
vn -0.867328 0.278804 0.412323
vn -0.869475 0.272516 0.412004
vn -0.909549 0.117007 0.398786
vn 0.571919 -0.062138 0.817953
vn 0.469142 -0.224135 0.854207
vn 0.196523 -0.060163 0.978652
vn -0.470459 -0.279057 0.837135
vn -0.535803 -0.159648 0.829112
vn -0.523099 -0.184610 0.832038
vn -0.479881 -0.263079 0.836961
vn 0.883050 0.188846 0.429605
vn 0.866959 0.234511 0.439757
vn 0.858486 0.257075 0.443751
vn 0.896891 0.140809 0.419236
vn 0.000395 -0.000771 1.000000
vn 0.000400 -0.000546 1.000000
vn 0.000393 -0.000518 1.000000
vn 0.000399 -0.000818 1.000000
vn -0.897174 -0.123064 0.424186
vn -0.888953 -0.150584 0.432535
vn -0.861095 -0.229054 0.453928
vn -0.904184 -0.096759 0.416040
vn -0.199616 0.053771 0.978398
vn -0.504419 0.187384 0.842881
vn -0.499169 0.195793 0.844095
vn 0.877312 -0.263059 0.401402
vn 0.859881 -0.316050 0.400896
vn 0.851407 -0.338737 0.400455
vn 0.885208 -0.235806 0.401002
vn 0.000305 -0.000698 1.000000
vn -0.000166 -0.000934 1.000000
vn -0.000196 -0.000932 1.000000
vn 0.000281 -0.000719 1.000000
vn -0.888507 0.157613 0.430946
vn -0.822235 0.323456 0.468300
vn -0.845416 0.273891 0.458536
vn -0.867299 0.219985 0.446542
vn 0.391472 0.332935 0.857849
vn 0.508987 0.168528 0.844115
vn 0.469167 0.228374 0.853070
vn 0.413500 0.304823 0.857963
vn -0.833116 -0.323243 0.448811
vn -0.856369 -0.269191 0.440646
vn -0.843325 -0.300717 0.445390
vn -0.856423 -0.268578 0.440915
vn 0.000078 -0.000595 1.000000
vn -0.000170 -0.000690 1.000000
vn -0.000141 -0.000674 1.000000
vn 0.000101 -0.000590 1.000000
vn 0.880067 0.201131 0.430150
vn 0.886170 0.181511 0.426330
vn 0.866231 0.241365 0.437478
vn 0.883648 0.189789 0.427956
vn 0.000404 -0.000884 1.000000
vn 0.000404 -0.000884 1.000000
vn -0.923521 -0.000353 0.383547
vn -0.923521 -0.000353 0.383547
vn -0.924053 -0.000334 0.382264
vn -0.924053 -0.000334 0.382263
vn -0.000303 -0.001045 0.999999
vn -0.000303 -0.001045 0.999999
vn 0.923823 -0.000416 0.382821
vn 0.923823 -0.000416 0.382821
vn -0.604678 -0.002843 0.796465
vn -0.604678 -0.002843 0.796465
vn 0.604947 -0.000612 0.796265
vn 0.604947 -0.000612 0.796265
vn 0.923767 -0.000205 0.382955
vn 0.923767 -0.000205 0.382955
vn 0.605053 -0.000712 0.796185
vn 0.605053 -0.000712 0.796185
vn -0.605837 -0.000546 0.795588
vn -0.605837 -0.000546 0.795588
vn 0.923205 -0.000314 0.384308
vn 0.923205 -0.000314 0.384308
vn -0.923474 -0.000305 0.383662
vn -0.923474 -0.000305 0.383662
vn 0.000000 0.278986 0.960295
vn 0.000000 0.278986 0.960295
vn 0.000000 0.278986 0.960295
vn 0.000000 0.278986 0.960295
vn 0.000000 1.000000 0.000000
vn 0.000000 1.000000 0.000000
vn 0.000000 1.000000 0.000000
vn 0.000000 1.000000 0.000000
vn -0.000000 0.000000 1.000000
vn -0.000000 0.000000 1.000000
vn -0.000000 0.000000 1.000000
vn -0.000000 0.000000 1.000000
vn 0.000000 0.000000 1.000000
vn 0.000000 0.000000 1.000000
vn 0.000000 0.000000 1.000000
vn 0.000000 0.000000 1.000000
vn 0.000000 0.000000 1.000000
vn 0.000000 0.000000 1.000000
vn 0.000000 0.000000 1.000000
vn 0.000000 0.000000 1.000000
vn 0.000000 1.000000 0.000000
vn 0.000000 1.000000 0.000000
vn 0.000000 1.000000 0.000000
vn 0.000000 1.000000 0.000000
vn 0.000000 0.278985 0.960295
vn 0.000000 0.278985 0.960295
vn 0.000000 0.278985 0.960295
vn 0.000000 0.278985 0.960295
vn 0.000000 0.000000 1.000000
vn 0.000000 0.000000 1.000000
vn 0.000000 0.000000 1.000000
vn 0.000000 0.000000 1.000000
vn 0.000002 -0.000006 1.000000
vn 0.000002 -0.000006 1.000000
vn 0.000002 -0.000006 1.000000
vn 0.000002 -0.000006 1.000000
vn 0.000000 -0.631758 0.775166
vn 0.000000 -0.631758 0.775166
vn 0.000000 -0.631758 0.775166
vn 0.000000 -0.631758 0.775166
vn 1.000000 -0.000000 0.000000
vn 1.000000 -0.000000 0.000000
vn 1.000000 -0.000000 0.000000
vn 1.000000 -0.000000 0.000000
vn 1.000000 0.000000 0.000000
vn 1.000000 0.000000 0.000000
vn 1.000000 0.000000 0.000000
vn -1.000000 0.000000 0.000000
vn -1.000000 0.000000 0.000000
vn -1.000000 0.000000 0.000000
vn -1.000000 0.000000 0.000000
vn -1.000000 0.000000 0.000000
vn -1.000000 0.000000 0.000000
vn -1.000000 0.000000 0.000000
vn 0.000000 0.000000 1.000000
vn 0.000000 0.000000 1.000000
vn 0.000000 0.000000 1.000000
vn 0.000000 0.000000 1.000000
vn -0.000000 0.000000 1.000000
vn -0.000000 0.000000 1.000000
vn 0.000000 0.000000 1.000000
vn 0.000000 0.000000 1.000000
vn 0.000000 -0.621493 0.783420
vn 0.000000 -0.621493 0.783420
vn 0.000000 -0.621493 0.783420
vn 0.000000 -0.621493 0.783420
vn -0.288380 -0.461579 0.838917
vn -0.292851 -0.458327 0.839152
vn -0.000000 -0.631757 0.775166
vn -0.000000 -0.631757 0.775166
vn -0.000001 -0.000006 1.000000
vn -0.000001 -0.000006 1.000000
vn -0.000001 -0.000006 1.000000
vn -0.000001 -0.000006 1.000000
vn 0.676221 -0.185578 0.712942
vn 0.676221 -0.185578 0.712942
vn 0.676221 -0.185578 0.712942
vn 0.676221 -0.185578 0.712942
vn 0.000000 0.000000 1.000000
vn 0.000000 0.000000 1.000000
vn 0.000000 0.000000 1.000000
vn 0.000000 0.000000 1.000000
vn 0.000000 -0.922180 0.386760
vn 0.000000 -0.922180 0.386760
vn 0.000000 -0.922180 0.386760
vn 0.000000 -0.922180 0.386760
vn 0.581527 0.747077 0.322030
vn 0.581527 0.747077 0.322030
vn 0.581527 0.747077 0.322030
vn 0.581527 0.747077 0.322030
vn 0.839758 -0.000158 0.542962
vn 0.839758 -0.000158 0.542962
vn 0.839758 -0.000158 0.542962
vn 0.839758 -0.000158 0.542962
vn 0.558622 -0.665801 0.494622
vn 0.558622 -0.665801 0.494622
vn 0.558622 -0.665801 0.494622
vn 0.558622 -0.665801 0.494622
vn 0.984284 0.001203 0.176591
vn 0.984284 0.001203 0.176591
vn 0.984284 0.001203 0.176591
vn 0.984284 0.001203 0.176591
vn -0.997702 0.000938 0.067742
vn -0.997702 0.000938 0.067742
vn -0.997702 0.000938 0.067742
vn -0.997702 0.000938 0.067742
vn -0.573389 -0.752524 0.323933
vn -0.573389 -0.752524 0.323933
vn -0.573389 -0.752524 0.323933
vn -0.573389 -0.752524 0.323933
vn -0.946442 -0.000100 0.322874
vn -0.946442 -0.000100 0.322874
vn -0.946442 -0.000100 0.322874
vn -0.946442 -0.000100 0.322874
vn 0.000123 -0.001185 0.999999
vn 0.000182 -0.000499 1.000000
vn -0.647354 0.717302 0.257704
vn -0.647354 0.717302 0.257704
vn -0.647354 0.717302 0.257704
vn -0.647354 0.717302 0.257704
vn 0.984713 -0.000098 0.174186
vn 0.984713 -0.000098 0.174186
vn 0.984713 -0.000098 0.174186
vn 0.984713 -0.000098 0.174186
vn -0.997896 -0.000040 0.064835
vn -0.997896 -0.000040 0.064835
vn -0.997896 -0.000040 0.064835
vn -0.997896 -0.000040 0.064835
vn -0.997883 0.000000 0.065030
vn -0.997883 0.000000 0.065030
vn -0.997883 0.000000 0.065030
vn 0.984613 0.000000 0.174750
vn 0.984613 0.000000 0.174750
vn 0.984613 0.000000 0.174750
vn -0.608668 -0.163851 0.776322
vn -0.608668 -0.163851 0.776322
s 1
g mesh_BuildingA_Door1 Modular_Building_A
f 14/6/1 10/7/2 12/8/3 15/9/4
s 2
f 8/2/5 18/55/6 15/54/7
s off
f 3/3/8 4/4/9 10/7/10 14/6/11
f 6/68/12 8/2/13 15/9/14 12/8/15
s 3
f 5/1/16 17/40/17 11/5/18
s off
f 17/40/19 19/10/20 23/24/21 21/23/22
f 19/10/23 20/11/24 24/12/25 23/24/26
f 20/11/27 18/55/28 25/13/29 24/12/30
f 18/55/31 8/2/32 26/14/33 25/13/34
f 8/2/35 6/68/36 22/25/37 26/14/38
f 18/55/39 20/11/40 27/26/41 28/59/42
f 20/11/43 19/10/44 29/22/45 27/26/46
f 19/10/47 17/40/48 30/17/49 29/22/50
f 17/40/51 5/1/52 31/15/53 30/18/54
f 5/1/55 7/43/56 32/16/57 31/15/58
s 4
f 22/25/59 24/12/60 25/19/61 26/20/62
s 5
f 32/16/63 29/22/64 30/21/65 31/15/66
f 28/59/67 27/26/68 29/22/64 63/57/69
s 4
f 24/12/60 54/32/70 43/50/71
f 22/25/59 54/32/70 24/12/60
s 5
f 41/27/72 29/22/64 32/16/63
s 4
f 43/50/71 21/23/73 23/24/74 24/12/60
s 5
f 41/27/72 63/57/69 29/22/64
s 7
f 34/28/75 33/79/76 36/77/77 35/47/78
s 1
f 35/47/79 36/77/80 38/76/81 37/44/82
s 2
f 37/44/83 38/76/84 40/74/85 39/42/86
s 5
f 39/42/87 40/74/88 42/29/89 41/27/72
s 4
f 43/50/90 44/30/91 46/62/92 45/49/93
s 3
f 45/49/94 46/62/95 48/65/96 47/41/97
s 1
f 47/41/98 48/65/99 50/67/100 49/36/101
s 14
f 49/36/102 50/67/103 52/31/104 51/38/105
s 4
f 53/60/106 54/32/70 56/69/107 55/61/108
s 3
f 55/61/109 56/69/110 58/72/111 57/63/112
s 1
f 57/63/113 58/72/114 60/73/115 59/64/116
s 14
f 59/64/117 60/73/118 62/33/119 61/66/120
s 5
f 63/57/121 64/34/122 66/75/123 65/58/124
s 2
f 65/58/125 66/75/126 68/78/127 67/56/128
s 1
f 67/56/129 68/78/130 70/80/131 69/53/132
s 7
f 69/53/133 70/80/134 72/35/135 71/51/136
s 1
f 49/36/101 9/37/137 11/5/138 47/41/98
s 14
f 49/36/102 51/38/105 1/39/139 9/37/140
s 3
f 11/5/18 17/40/17 45/49/94 47/41/97
s 2
f 37/44/83 39/42/86 7/43/141 16/45/142
s 1
f 13/48/143 35/47/79 37/44/82 16/45/144
s 7
f 2/46/145 34/28/75 35/47/78 13/48/146
s 4
f 45/49/93 17/40/147 21/23/148 43/50/90
s 5
f 7/43/149 39/42/87 41/27/72 32/16/150
s 7
f 69/53/133 71/51/136 3/3/151 14/52/152
s 1
f 67/56/129 69/53/132 14/52/1 15/54/4
s 2
f 15/54/7 18/55/6 65/58/125 67/56/128
s 5
f 63/57/121 65/58/124 18/55/153 28/59/154
s 4
f 53/60/106 55/61/108 46/62/92 44/30/91
s 3
f 48/65/96 46/62/95 55/61/109 57/63/112
s 1
f 57/63/113 59/64/116 50/67/100 48/65/99
s 14
f 59/64/117 61/66/120 52/31/104 50/67/103
s 4
f 6/68/155 56/69/107 54/32/70 22/25/156
s 3
f 58/72/111 56/69/110 6/68/157 12/70/158
s 1
f 10/71/2 60/73/115 58/72/114 12/70/3
s 14
f 4/4/159 62/33/119 60/73/118 10/71/160
s 5
f 42/29/89 40/74/88 66/75/123 64/34/122
s 2
f 68/78/127 66/75/126 40/74/85 38/76/84
s 1
f 38/76/81 36/77/80 70/80/131 68/78/130
s 7
f 36/77/77 33/79/76 72/35/135 70/80/134
s off
f 93/81/161 81/82/162 82/83/163 92/84/164
f 92/84/165 82/83/166 83/85/167 91/86/168
s 17
f 105/87/169 84/88/170 95/89/171 103/90/172
s off
f 94/91/173 80/92/174 81/82/175 93/81/176
s 18
f 76/93/177 87/94/178 100/95/179 101/96/180
s off
f 75/97/181 88/98/182 87/99/183 76/100/184
f 74/101/185 89/102/186 88/98/187 75/97/188
f 73/103/189 90/104/190 89/102/191 74/101/192
f 107/105/193 79/106/194 78/109/195 112/141/196
f 77/107/197 96/108/198 112/141/199 78/109/200
f 88/110/201 89/111/202 97/112/203 87/113/204
f 89/114/205 90/115/206 97/116/207
f 93/117/208 92/118/209 91/119/210 98/120/211
f 94/121/212 93/122/213 98/123/214
s 18
f 76/93/177 101/96/180 102/124/215 77/125/216
f 77/125/216 102/124/215 99/126/217 96/108/218
s 17
f 106/127/219 83/128/220 84/88/170 105/87/169
f 91/129/221 83/128/220 106/127/219 104/130/222
s off
f 107/131/223 110/132/224 111/133/225 109/134/226
s 19
f 108/135/227 95/89/228 84/136/229 85/137/230
s off
f 109/134/231 108/138/232 85/139/233 86/140/234
f 107/131/235 112/141/236 96/108/237 110/132/238
f 96/108/239 95/89/240 111/133/241 110/132/242
f 4/4/243 3/3/244 95/89/245 96/108/246
f 51/38/247 52/31/248 101/96/249 100/95/250
f 52/31/251 61/66/252 102/124/253 101/96/254
f 61/66/255 62/33/256 99/126/257 102/124/258
f 62/33/259 4/4/260 96/108/261 99/126/262
f 3/3/263 71/51/264 103/90/265 95/89/266
f 71/51/267 72/35/268 105/87/269 103/90/270
f 72/35/271 33/79/272 106/127/273 105/87/274
s 5
f 64/34/275 63/57/69 41/27/72 42/29/89
s 4
f 43/50/71 54/32/70 53/60/106 44/30/276
s off
f 33/79/277 34/28/278 104/130/279 106/127/280
f 1/39/281 51/38/282 87/113/283 97/112/284
f 34/28/285 2/46/286 98/120/287 91/119/288
f 104/130/289 34/28/290 91/129/291
f 100/95/292 87/113/293 51/38/294
s 19
f 95/89/228 108/138/227 109/134/295 111/133/296
