# This file uses meters as units for non-parametric coordinates.

g default
v 0.042033 1.107685 1.183230
v 0.042033 1.305025 1.183230
v 0.042033 1.107685 2.819353
v 0.042033 1.305025 2.819353
v 0.020545 1.121353 2.834519
v 0.020545 1.117652 1.168064
v 0.020545 1.291357 2.834519
v 0.020545 1.287656 1.168064
v 0.318267 1.305025 2.819353
v 0.318267 1.305025 1.183230
v 0.318267 1.232122 2.819353
v 0.318267 1.232122 1.183230
vt 0.625000 0.000366
vt 0.625000 0.250000
vt 0.625000 0.250000
vt 0.625000 0.000366
vt 0.625000 0.000366
vt 0.625000 0.000366
vt 0.625000 0.250000
vt 0.625000 0.250000
vt 0.000000 0.000000
vt 1.000000 0.000000
vt 1.000000 1.000000
vt 0.000000 1.000000
vt 0.000000 0.000000
vt 1.000000 0.000000
vt 1.000000 1.000000
vt 0.000000 1.000000
vn -1.000000 0.000000 0.000000
vn -1.000000 0.000000 0.000000
vn -1.000000 0.000000 0.000000
vn -1.000000 0.000000 0.000000
vn -0.481910 -0.876221 0.000982
vn -0.481910 -0.876220 0.000982
vn -0.481910 -0.876220 0.000982
vn -0.481910 -0.876221 0.000982
vn -0.585493 0.810677 -0.000909
vn -0.585493 0.810677 -0.000909
vn -0.585493 0.810677 -0.000909
vn -0.585493 0.810677 -0.000909
vn 0.000000 1.000000 0.000000
vn 0.000000 1.000000 0.000000
vn 0.000000 1.000000 0.000000
vn 0.000000 1.000000 0.000000
vn 1.000000 0.000000 0.000000
vn 1.000000 0.000000 0.000000
vn 1.000000 0.000000 0.000000
vn 1.000000 0.000000 0.000000
s off
g mesh_BuildingA_WallCapRoof Modular_Building_A
f 6/5/1 5/6/2 7/7/3 8/8/4
f 1/1/5 3/4/6 5/6/7 6/5/8
f 4/3/9 2/2/10 8/8/11 7/7/12
f 2/9/13 4/10/14 9/11/15 10/12/16
f 10/13/17 9/14/18 11/15/19 12/16/20
