# This file uses meters as units for non-parametric coordinates.

g default
v 0.521469 0.238137 0.403769
v 0.596229 0.238137 0.478523
v 0.596229 0.772943 0.478523
v 0.521469 0.772943 0.403769
v 0.476028 0.896729 0.428738
v 0.572372 0.896729 0.523972
v 0.440186 0.896729 0.504451
v 0.495469 0.896729 0.560041
v 0.440186 1.612838 0.504451
v 0.495469 1.612838 0.560041
v 0.485367 1.654207 0.420531
v 0.583038 1.654207 0.511068
v 0.469364 2.110131 0.444447
v 0.558979 2.110131 0.527515
v 0.057731 0.238137 1.017032
v -0.017028 0.238137 0.942277
v -0.017028 0.772943 0.942277
v 0.057731 0.772943 1.017032
v 0.103172 0.896729 0.992063
v 0.006827 0.896729 0.896828
v 0.139016 0.896729 0.916350
v 0.083733 0.896729 0.860759
v 0.139016 1.612838 0.916350
v 0.083733 1.612838 0.860759
v 0.089959 1.654207 1.003990
v -0.000242 1.654207 0.906005
v 0.107563 2.110269 0.981471
v 0.018528 2.110269 0.884804
v -0.017032 0.238137 0.478531
v 0.057723 0.238137 0.403771
v 0.057723 0.772943 0.403771
v -0.017032 0.772943 0.478531
v 0.007937 0.896729 0.523972
v 0.103171 0.896729 0.427627
v 0.083651 0.896729 0.559816
v 0.139241 0.896729 0.504531
v 0.083651 1.612838 0.559816
v 0.139241 1.612838 0.504531
v -0.000339 1.654207 0.514564
v 0.090199 1.654207 0.416889
v 0.023727 2.110131 0.530722
v 0.106796 2.110131 0.441106
v 0.596231 0.238137 0.942269
v 0.521477 0.238137 1.017029
v 0.521477 0.772943 1.017029
v 0.596231 0.772943 0.942269
v 0.571262 0.896729 0.896828
v 0.476028 0.896729 0.993173
v 0.495549 0.896729 0.860985
v 0.439959 0.896729 0.916269
v 0.495549 1.612838 0.860985
v 0.439959 1.612838 0.916269
v 0.583121 1.654207 0.909971
v 0.485138 1.654207 1.000172
v 0.559055 2.110131 0.893510
v 0.469154 2.110131 0.976270
v -0.000242 2.079842 0.906005
v -0.000339 2.079842 0.514564
v 0.090199 2.079842 0.416889
v 0.485367 2.079842 0.420531
v 0.583038 2.079842 0.511068
v 0.583121 2.079842 0.909971
v 0.485138 2.079842 1.000172
v 0.089959 2.079842 1.003990
v 0.558979 0.110132 0.527515
v 0.469364 0.110132 0.444447
v 0.018528 0.110269 0.884804
v 0.107563 0.110269 0.981471
v 0.106796 0.110132 0.441106
v 0.023727 0.110132 0.530722
v 0.469154 0.110132 0.976270
v 0.559055 0.110132 0.893510
vt 0.375000 0.299995
vt 0.424995 0.250000
vt 0.424709 0.000035
vt 0.325387 0.000028
vt 0.325005 0.250000
vt 0.375000 0.299995
vt 0.424995 0.250000
vt 0.375000 0.299995
vt 0.424995 0.250000
vt 0.000000 0.000000
vt 1.000000 0.000000
vt 0.500000 0.500000
vt 0.500000 0.500000
vt 0.000000 0.000000
vt 0.000000 1.000000
vt 1.000000 0.000000
vt 1.000000 1.000000
vt 0.000000 1.000000
vt 1.000000 1.000000
vt 0.000000 0.000000
vt 0.000000 1.000000
vt 1.000000 0.000000
vt 1.000000 1.000000
vt 0.000000 0.000000
vt 1.000000 0.000000
vt 1.000000 1.000000
vt 0.000000 1.000000
vt 0.424995 0.250000
vt 0.424709 0.000035
vt 0.325387 0.000028
vt 0.325005 0.250000
vt 0.375000 0.299995
vt 0.424995 0.250000
vt 0.375000 0.299995
vt 0.424995 0.250000
vt 0.375000 0.299995
vt 0.000000 0.000000
vt 1.000000 0.000000
vt 0.500000 0.500000
vt 0.500000 0.500000
vt 0.000000 0.000000
vt 0.000000 1.000000
vt 1.000000 0.000000
vt 1.000000 1.000000
vt 0.000000 1.000000
vt 1.000000 1.000000
vt 0.000000 0.000000
vt 0.000000 1.000000
vt 1.000000 0.000000
vt 1.000000 1.000000
vt 0.000000 0.000000
vt 1.000000 0.000000
vt 1.000000 1.000000
vt 0.000000 1.000000
vt 0.424995 0.250000
vt 0.424613 0.000028
vt 0.325291 0.000035
vt 0.325005 0.250000
vt 0.375000 0.299995
vt 0.424995 0.250000
vt 0.375000 0.299995
vt 0.424995 0.250000
vt 0.375000 0.299995
vt 0.000000 0.000000
vt 1.000000 0.000000
vt 0.500000 0.500000
vt 0.500000 0.500000
vt 0.000000 0.000000
vt 0.000000 1.000000
vt 1.000000 0.000000
vt 1.000000 1.000000
vt 0.000000 1.000000
vt 1.000000 1.000000
vt 0.000000 0.000000
vt 0.000000 1.000000
vt 1.000000 0.000000
vt 1.000000 1.000000
vt 0.000000 0.000000
vt 1.000000 0.000000
vt 1.000000 1.000000
vt 0.000000 1.000000
vt 0.424995 0.250000
vt 0.424709 0.000035
vt 0.325387 0.000028
vt 0.325005 0.250000
vt 0.375000 0.299995
vt 0.424995 0.250000
vt 0.375000 0.299995
vt 0.424995 0.250000
vt 0.375000 0.299995
vt 0.000000 0.000000
vt 1.000000 0.000000
vt 0.500000 0.500000
vt 0.500000 0.500000
vt 0.000000 0.000000
vt 0.000000 1.000000
vt 1.000000 0.000000
vt 1.000000 1.000000
vt 0.000000 1.000000
vt 1.000000 1.000000
vt 0.000000 0.000000
vt 0.000000 1.000000
vt 1.000000 0.000000
vt 1.000000 1.000000
vt 0.000000 0.000000
vt 1.000000 0.000000
vt 1.000000 1.000000
vt 0.000000 1.000000
vt 0.434269 0.250000
vt 0.321722 0.250000
vt 0.321722 0.250000
vt 0.434269 0.250000
vt 0.434269 0.250000
vt 0.321722 0.250000
vt 0.321723 0.250000
vt 0.434269 0.250000
vt 1.000000 0.933565
vt 0.000000 0.933565
vt 1.000000 0.933565
vt 0.000000 0.933565
vt 1.000000 0.933565
vt 0.000000 0.933565
vt 1.000000 0.933565
vt 0.000000 0.933565
vt 1.000000 0.933565
vt 0.000000 0.933565
vt 1.000000 0.933565
vt 0.000000 0.933565
vt 1.000000 0.933565
vt 0.000000 0.933565
vt 1.000000 0.933565
vt 0.000000 0.933565
vt 0.000000 0.000000
vt 1.000000 0.000000
vt 1.000000 1.000000
vt 0.000000 1.000000
vt 0.000000 0.000000
vt 1.000000 0.000000
vt 1.000000 1.000000
vt 0.000000 1.000000
vt 0.000000 0.000000
vt 1.000000 0.000000
vt 1.000000 1.000000
vt 0.000000 1.000000
vt 0.000000 0.000000
vt 1.000000 0.000000
vt 1.000000 1.000000
vt 0.000000 1.000000
vt 0.000000 0.000000
vt 1.000000 0.000000
vt 1.000000 1.000000
vt 0.000000 1.000000
vt 0.000000 0.000000
vt 1.000000 0.000000
vt 1.000000 1.000000
vt 0.000000 1.000000
vt 0.000000 0.000000
vt 1.000000 0.000000
vt 1.000000 1.000000
vt 0.000000 1.000000
vt 0.000000 0.000000
vt 1.000000 0.000000
vt 1.000000 1.000000
vt 0.000000 1.000000
vn 0.707084 0.000000 -0.707129
vn 0.707084 0.000000 -0.707129
vn 0.707084 0.000000 -0.707129
vn 0.707084 0.000000 -0.707129
vn 0.654597 0.370635 -0.658887
vn 0.654597 0.370635 -0.658887
vn 0.654597 0.370635 -0.658888
vn 0.654597 0.370635 -0.658888
vn 0.001299 0.193488 -0.981102
vn 0.000181 0.027611 -0.999619
vn 0.000181 0.027599 -0.999619
vn 0.001299 0.193488 -0.981102
vn 0.000000 1.000000 0.000000
vn 0.000000 1.000000 0.000000
vn 0.000000 1.000000 0.000000
vn 0.000000 1.000000 0.000000
vn 0.000000 1.000000 0.000000
vn 0.000000 1.000000 0.000000
vn 0.000000 1.000000 0.000000
vn 0.000000 1.000000 0.000000
vn 0.709060 0.000000 -0.705148
vn 0.709060 0.000000 -0.705148
vn 0.709060 0.000000 -0.705148
vn 0.709060 0.000000 -0.705148
vn -0.000268 0.000000 -1.000000
vn -0.000268 0.000000 -1.000000
vn -0.000268 0.000000 -1.000000
vn -0.000268 0.000000 -1.000000
vn 0.002222 -0.900707 -0.434421
vn 0.002222 -0.900707 -0.434421
vn 0.002222 -0.900707 -0.434421
vn 0.002222 -0.900707 -0.434421
vn 0.278513 -0.915120 -0.291524
vn 0.278513 -0.915120 -0.291524
vn 0.278513 -0.915120 -0.291524
vn 0.278513 -0.915120 -0.291524
vn 0.009214 0.000000 -0.999958
vn 0.009214 0.000000 -0.999958
vn 0.009214 0.000000 -0.999958
vn 0.009214 0.000000 -0.999958
vn 0.679817 0.000000 -0.733382
vn 0.679817 0.000000 -0.733382
vn 0.679817 0.000000 -0.733382
vn 0.679817 0.000000 -0.733382
vn -0.707089 0.000000 0.707124
vn -0.707089 0.000000 0.707124
vn -0.707089 0.000000 0.707124
vn -0.707089 0.000000 0.707124
vn -0.654597 0.370635 0.658887
vn -0.654597 0.370635 0.658887
vn -0.654597 0.370635 0.658887
vn -0.654597 0.370635 0.658887
vn -0.001299 0.193488 0.981102
vn -0.000180 0.027611 0.999619
vn -0.000180 0.027599 0.999619
vn -0.001299 0.193488 0.981102
vn 0.000000 1.000000 0.000000
vn 0.000000 1.000000 0.000000
vn 0.000000 1.000000 0.000000
vn 0.000000 1.000000 0.000000
vn 0.000000 1.000000 0.000000
vn 0.000000 1.000000 0.000000
vn 0.000000 1.000000 0.000000
vn 0.000000 1.000000 0.000000
vn -0.709061 0.000000 0.705148
vn -0.709061 0.000000 0.705148
vn -0.709061 0.000000 0.705148
vn -0.709061 0.000000 0.705148
vn 0.000269 0.000000 1.000000
vn 0.000269 0.000000 1.000000
vn 0.000269 0.000000 1.000000
vn 0.000269 0.000000 1.000000
vn 0.002433 -0.900686 0.434464
vn 0.002433 -0.900686 0.434464
vn 0.002433 -0.900686 0.434464
vn 0.002433 -0.900686 0.434464
vn -0.292469 -0.915258 0.277064
vn -0.292469 -0.915258 0.277064
vn -0.292469 -0.915258 0.277064
vn -0.292469 -0.915258 0.277064
vn 0.009662 0.000000 0.999953
vn 0.009662 0.000000 0.999953
vn 0.009662 0.000000 0.999953
vn 0.009662 0.000000 0.999953
vn -0.735724 0.000000 0.677282
vn -0.735724 0.000000 0.677282
vn -0.735724 0.000000 0.677282
vn -0.735724 0.000000 0.677282
vn -0.707131 0.000000 -0.707082
vn -0.707131 0.000000 -0.707082
vn -0.707131 0.000000 -0.707082
vn -0.707131 0.000000 -0.707082
vn -0.658891 0.370635 -0.654594
vn -0.658891 0.370635 -0.654594
vn -0.658891 0.370635 -0.654594
vn -0.658891 0.370635 -0.654594
vn -0.981102 0.193486 -0.001297
vn -0.981102 0.193486 -0.001297
vn -0.999619 0.027610 -0.000178
vn -0.999619 0.027599 -0.000178
vn 0.000000 1.000000 0.000000
vn 0.000000 1.000000 0.000000
vn 0.000000 1.000000 0.000000
vn 0.000000 1.000000 0.000000
vn 0.000000 1.000000 -0.000000
vn 0.000000 1.000000 -0.000000
vn 0.000000 1.000000 -0.000000
vn 0.000000 1.000000 -0.000000
vn -0.705151 0.000000 -0.709057
vn -0.705151 0.000000 -0.709057
vn -0.705151 0.000000 -0.709057
vn -0.705151 0.000000 -0.709057
vn -1.000000 0.000000 0.000273
vn -1.000000 0.000000 0.000273
vn -1.000000 0.000000 0.000273
vn -1.000000 0.000000 0.000273
vn -0.441886 -0.897071 0.000114
vn -0.441886 -0.897071 0.000114
vn -0.441886 -0.897071 0.000114
vn -0.441886 -0.897071 0.000114
vn -0.291268 -0.915277 -0.278263
vn -0.291268 -0.915277 -0.278263
vn -0.291268 -0.915277 -0.278263
vn -0.291268 -0.915277 -0.278263
vn -1.000000 0.000000 0.000246
vn -1.000000 0.000000 0.000246
vn -1.000000 0.000000 0.000246
vn -1.000000 0.000000 0.000246
vn -0.733390 0.000000 -0.679808
vn -0.733390 0.000000 -0.679808
vn -0.733390 0.000000 -0.679808
vn -0.733390 0.000000 -0.679808
vn 0.707135 0.000000 0.707078
vn 0.707135 0.000000 0.707078
vn 0.707135 0.000000 0.707078
vn 0.707135 0.000000 0.707078
vn 0.658894 0.370632 0.654592
vn 0.658894 0.370632 0.654592
vn 0.658894 0.370632 0.654592
vn 0.658894 0.370632 0.654592
vn 0.981102 0.193486 0.001300
vn 0.981102 0.193486 0.001300
vn 0.999619 0.027610 0.000182
vn 0.999619 0.027599 0.000182
vn 0.000000 1.000000 0.000000
vn 0.000000 1.000000 0.000000
vn 0.000000 1.000000 0.000000
vn 0.000000 1.000000 0.000000
vn 0.000000 1.000000 0.000000
vn 0.000000 1.000000 0.000000
vn 0.000000 1.000000 0.000000
vn 0.000000 1.000000 0.000000
vn 0.705147 0.000000 0.709062
vn 0.705147 0.000000 0.709062
vn 0.705147 0.000000 0.709062
vn 0.705147 0.000000 0.709062
vn 1.000000 0.000000 -0.000266
vn 1.000000 0.000000 -0.000266
vn 1.000000 0.000000 -0.000266
vn 1.000000 0.000000 -0.000266
vn 0.427139 -0.904186 -0.000099
vn 0.427139 -0.904186 -0.000099
vn 0.427139 -0.904186 -0.000099
vn 0.427139 -0.904186 -0.000099
vn 0.277307 -0.915103 0.292725
vn 0.277307 -0.915103 0.292725
vn 0.277307 -0.915103 0.292725
vn 0.277307 -0.915103 0.292725
vn 1.000000 0.000000 -0.000208
vn 1.000000 0.000000 -0.000208
vn 1.000000 0.000000 -0.000208
vn 1.000000 0.000000 -0.000208
vn 0.677287 0.000000 0.735719
vn 0.677287 0.000000 0.735719
vn 0.677287 0.000000 0.735719
vn 0.677287 0.000000 0.735719
vn -0.000006 0.000000 -1.000000
vn -0.000006 0.000000 -1.000000
vn 1.000000 0.000000 -0.000004
vn 1.000000 0.000000 -0.000004
vn 0.000006 0.000000 1.000000
vn 0.000006 0.000000 1.000000
vn -1.000000 0.000000 0.000008
vn -1.000000 0.000000 0.000008
vn -0.817317 0.576161 -0.005700
vn -0.817317 0.576161 -0.005700
vn -0.817317 0.576161 -0.005700
vn -0.817317 0.576161 -0.005700
vn -0.532938 0.686980 -0.494000
vn -0.532938 0.686980 -0.494000
vn -0.532938 0.686980 -0.494000
vn -0.532938 0.686980 -0.494000
vn 0.007214 0.622030 -0.782960
vn 0.007214 0.622030 -0.782960
vn 0.007214 0.622030 -0.782960
vn 0.007214 0.622030 -0.782960
vn 0.495771 0.684224 -0.534836
vn 0.495771 0.684224 -0.534836
vn 0.495771 0.684224 -0.534836
vn 0.495771 0.684224 -0.534836
vn 0.782992 0.622032 -0.000163
vn 0.782992 0.622032 -0.000163
vn 0.782992 0.622032 -0.000163
vn 0.782992 0.622032 -0.000163
vn 0.493992 0.684118 0.536613
vn 0.493992 0.684118 0.536613
vn 0.493992 0.684118 0.536613
vn 0.493992 0.684118 0.536613
vn 0.009579 0.607187 0.794501
vn 0.009579 0.607187 0.794501
vn 0.009579 0.607187 0.794501
vn 0.009579 0.607187 0.794501
vn -0.539656 0.679591 0.496918
vn -0.539656 0.679591 0.496918
vn -0.539656 0.679591 0.496918
vn -0.539656 0.679591 0.496918
vn 0.620857 -0.443182 -0.646627
vn 0.620857 -0.443182 -0.646627
vn 0.620857 -0.443182 -0.646627
vn 0.620857 -0.443182 -0.646627
vn -0.648557 -0.441985 0.619696
vn -0.648557 -0.441985 0.619696
vn -0.648557 -0.441985 0.619696
vn -0.648557 -0.441985 0.619696
vn -0.646394 -0.443846 -0.620626
vn -0.646394 -0.443846 -0.620626
vn -0.646394 -0.443846 -0.620626
vn -0.646394 -0.443846 -0.620626
vn 0.619699 -0.443137 0.647768
vn 0.619699 -0.443137 0.647768
vn 0.619699 -0.443137 0.647768
vn 0.619699 -0.443137 0.647768
vn 0.003864 -0.291531 -0.956554
vn 0.003864 -0.291531 -0.956554
vn 0.003864 -0.291531 -0.956554
vn 0.003864 -0.291531 -0.956554
vn 0.960247 -0.279153 -0.000090
vn 0.960247 -0.279153 -0.000090
vn 0.960247 -0.279153 -0.000090
vn 0.960247 -0.279153 -0.000090
vn 0.005993 -0.285874 0.958248
vn 0.005993 -0.285874 0.958248
vn 0.005993 -0.285874 0.958248
vn 0.005993 -0.285874 0.958248
vn -0.958303 -0.285692 -0.006040
vn -0.958303 -0.285692 -0.006040
vn -0.958303 -0.285692 -0.006040
vn -0.958303 -0.285692 -0.006040
s off
g mesh_BuildingA_PillarLevel Modular_Building_A
f 2/4/1 1/3/2 4/2/3 3/5/4
f 3/1/5 4/2/6 5/7/7 6/6/8
s 1
f 5/7/9 4/2/10 31/59/11 34/61/12
s off
f 6/6/13 5/7/14 7/9/15 8/8/16
f 7/9/17 5/7/18 34/61/19 36/63/20
f 8/10/21 7/11/22 9/12/23 10/13/24
f 9/15/25 7/14/26 36/70/27 38/71/28
f 11/18/29 9/12/30 38/67/31 40/73/32
f 9/12/33 11/18/34 12/19/35 10/13/36
f 59/121/37 60/124/38 11/20/39 40/76/40
f 12/24/41 11/25/42 60/123/43 61/126/44
f 16/30/45 15/29/46 18/28/47 17/31/48
f 17/32/49 18/28/50 19/33/51 20/34/52
s 2
f 19/33/53 18/28/54 45/86/55 48/88/56
s off
f 20/34/57 19/33/58 21/35/59 22/36/60
f 21/35/61 19/33/62 48/88/63 50/90/64
f 22/37/65 21/38/66 23/39/67 24/40/68
f 23/42/69 21/41/70 50/97/71 52/98/72
f 25/45/73 23/39/74 52/94/75 54/100/76
f 23/39/77 25/45/78 26/46/79 24/40/80
f 63/129/81 64/132/82 25/47/83 54/103/84
f 26/51/85 25/52/86 64/131/87 57/118/88
f 30/57/89 29/56/90 32/55/91 31/58/92
f 31/59/93 32/55/94 33/60/95 34/61/96
s 3
f 20/34/97 33/60/98 32/55/99 17/32/100
s off
f 34/61/101 33/60/102 35/62/103 36/63/104
f 22/36/105 35/62/106 33/60/107 20/34/108
f 36/64/109 35/65/110 37/66/111 38/67/112
f 24/44/113 37/69/114 35/68/115 22/43/116
f 26/46/117 39/72/118 37/66/119 24/40/120
f 37/66/121 39/72/122 40/73/123 38/67/124
f 57/117/125 58/120/126 39/74/127 26/49/128
f 40/78/129 39/79/130 58/119/131 59/122/132
f 44/84/133 43/83/134 46/82/135 45/85/136
f 45/86/137 46/82/138 47/87/139 48/88/140
s 4
f 6/6/141 47/87/142 46/82/143 3/1/144
s off
f 48/88/145 47/87/146 49/89/147 50/90/148
f 8/8/149 49/89/150 47/87/151 6/6/152
f 50/91/153 49/92/154 51/93/155 52/94/156
f 10/17/157 51/96/158 49/95/159 8/16/160
f 12/19/161 53/99/162 51/93/163 10/13/164
f 51/93/165 53/99/166 54/100/167 52/94/168
f 61/125/169 62/128/170 53/101/171 12/22/172
f 54/105/173 53/106/174 62/127/175 63/130/176
s 1
f 31/58/11 4/2/10 1/109/177 30/110/178
s 4
f 3/5/144 46/82/143 43/112/179 2/111/180
s 2
f 45/85/55 18/28/54 15/113/181 44/114/182
s 3
f 17/31/100 32/55/99 29/116/183 16/115/184
s off
f 28/50/185 41/75/186 58/120/187 57/117/188
f 59/122/189 58/119/190 41/80/191 42/81/192
f 42/77/193 13/21/194 60/124/195 59/121/196
f 61/126/197 60/123/198 13/26/199 14/27/200
f 14/23/201 55/102/202 62/128/203 61/125/204
f 63/130/205 62/127/206 55/107/207 56/108/208
f 56/104/209 27/48/210 64/132/211 63/129/212
f 57/118/213 64/131/214 27/53/215 28/54/216
f 1/133/217 2/134/218 65/135/219 66/136/220
f 15/137/221 16/138/222 67/139/223 68/140/224
f 29/141/225 30/142/226 69/143/227 70/144/228
f 43/145/229 44/146/230 71/147/231 72/148/232
f 30/149/233 1/150/234 66/151/235 69/152/236
f 2/153/237 43/154/238 72/155/239 65/156/240
f 44/157/241 15/158/242 68/159/243 71/160/244
f 16/161/245 29/162/246 70/163/247 67/164/248
