# This file uses meters as units for non-parametric coordinates.

g default
v 0.539453 0.107685 0.379987
v 0.620010 0.107685 0.460539
v 0.620010 0.772943 0.460539
v 0.539453 0.772943 0.379987
v 0.476028 0.896729 0.428738
v 0.572372 0.896729 0.523972
v 0.440185 0.896729 0.504451
v 0.495469 0.896729 0.560041
v 0.440185 1.612838 0.504451
v 0.495469 1.612838 0.560041
v 0.485366 1.654207 0.420531
v 0.583039 1.654207 0.511068
v 0.469365 2.110132 0.444447
v 0.558980 2.110132 0.527515
v 0.039747 0.107685 1.040813
v -0.040810 0.107685 0.960261
v -0.040810 0.772943 0.960261
v 0.039747 0.772943 1.040813
v 0.103173 0.896729 0.992063
v 0.006827 0.896729 0.896828
v 0.139016 0.896729 0.916350
v 0.083733 0.896729 0.860759
v 0.139016 1.612838 0.916350
v 0.083733 1.612838 0.860759
v 0.089959 1.654207 1.003990
v -0.000242 1.654207 0.906005
v 0.107563 2.110269 0.981471
v 0.018528 2.110269 0.884804
v -0.040813 0.107685 0.460548
v 0.039739 0.107685 0.379990
v 0.039739 0.772943 0.379990
v -0.040813 0.772943 0.460548
v 0.007937 0.896729 0.523972
v 0.103171 0.896729 0.427627
v 0.083651 0.896729 0.559816
v 0.139241 0.896729 0.504531
v 0.083651 1.612838 0.559816
v 0.139241 1.612838 0.504531
v -0.000339 1.654207 0.514564
v 0.090199 1.654207 0.416889
v 0.023727 2.110132 0.530722
v 0.106797 2.110132 0.441106
v 0.620013 0.107685 0.960252
v 0.539461 0.107685 1.040810
v 0.539461 0.772943 1.040810
v 0.620013 0.772943 0.960252
v 0.571262 0.896729 0.896828
v 0.476028 0.896729 0.993173
v 0.495549 0.896729 0.860985
v 0.439959 0.896729 0.916269
v 0.495549 1.612838 0.860985
v 0.439959 1.612838 0.916269
v 0.583121 1.654207 0.909971
v 0.485137 1.654207 1.000172
v 0.559055 2.110132 0.893510
v 0.469154 2.110132 0.976270
v 0.430853 0.664343 0.379988
v 0.430853 0.107685 0.379988
v 0.148338 0.107685 0.379989
v 0.148338 0.664343 0.379989
v 0.620013 0.107685 0.851653
v 0.620011 0.107685 0.569139
v 0.620011 0.664343 0.569139
v 0.620013 0.664343 0.851653
v 0.148347 0.664343 1.040813
v 0.148347 0.107685 1.040813
v 0.430861 0.107685 1.040811
v 0.430861 0.664343 1.040811
v -0.040813 0.107685 0.569148
v -0.040812 0.107685 0.851661
v -0.040812 0.664343 0.851661
v -0.040813 0.664343 0.569148
v 0.430853 0.496147 0.287857
v 0.430853 0.107685 0.287857
v 0.148338 0.107685 0.287859
v 0.148338 0.496147 0.287859
v 0.712142 0.107685 0.851652
v 0.712141 0.107685 0.569139
v 0.712141 0.496147 0.569139
v 0.712142 0.496147 0.851652
v 0.148347 0.496147 1.132943
v 0.148347 0.107685 1.132943
v 0.430861 0.107685 1.132941
v 0.430861 0.496147 1.132941
v -0.132942 0.107685 0.569148
v -0.132941 0.107685 0.851661
v -0.132941 0.496147 0.851661
v -0.132942 0.496147 0.569148
v -0.000242 2.079842 0.906005
v -0.000339 2.079842 0.514564
v 0.090199 2.079842 0.416889
v 0.485366 2.079842 0.420531
v 0.583039 2.079842 0.511068
v 0.583121 2.079842 0.909971
v 0.485137 2.079842 1.000172
v 0.089959 2.079842 1.003990
vt 0.375000 0.299995
vt 0.424995 0.250000
vt 0.424995 0.000000
vt 0.325005 0.000000
vt 0.325005 0.250000
vt 0.375000 0.299995
vt 0.424995 0.250000
vt 0.375000 0.299995
vt 0.424995 0.250000
vt 0.000000 0.000000
vt 1.000000 0.000000
vt 0.500000 0.500000
vt 0.500000 0.500000
vt 0.000000 0.000000
vt 0.000000 1.000000
vt 1.000000 0.000000
vt 1.000000 1.000000
vt 0.000000 1.000000
vt 1.000000 1.000000
vt 0.000000 0.000000
vt 0.000000 1.000000
vt 1.000000 0.000000
vt 1.000000 1.000000
vt 0.000000 0.000000
vt 1.000000 0.000000
vt 1.000000 1.000000
vt 0.000000 1.000000
vt 0.424995 0.250000
vt 0.424995 0.000000
vt 0.325005 0.000000
vt 0.325005 0.250000
vt 0.375000 0.299995
vt 0.424995 0.250000
vt 0.375000 0.299995
vt 0.424995 0.250000
vt 0.375000 0.299995
vt 0.000000 0.000000
vt 1.000000 0.000000
vt 0.500000 0.500000
vt 0.500000 0.500000
vt 0.000000 0.000000
vt 0.000000 1.000000
vt 1.000000 0.000000
vt 1.000000 1.000000
vt 0.000000 1.000000
vt 1.000000 1.000000
vt 0.000000 0.000000
vt 0.000000 1.000000
vt 1.000000 0.000000
vt 1.000000 1.000000
vt 0.000000 0.000000
vt 1.000000 0.000000
vt 1.000000 1.000000
vt 0.000000 1.000000
vt 0.424995 0.250000
vt 0.424995 0.000000
vt 0.325005 0.000000
vt 0.325005 0.250000
vt 0.375000 0.299995
vt 0.424995 0.250000
vt 0.375000 0.299995
vt 0.424995 0.250000
vt 0.375000 0.299995
vt 0.000000 0.000000
vt 1.000000 0.000000
vt 0.500000 0.500000
vt 0.500000 0.500000
vt 0.000000 0.000000
vt 0.000000 1.000000
vt 1.000000 0.000000
vt 1.000000 1.000000
vt 0.000000 1.000000
vt 1.000000 1.000000
vt 0.000000 0.000000
vt 0.000000 1.000000
vt 1.000000 0.000000
vt 1.000000 1.000000
vt 0.000000 0.000000
vt 1.000000 0.000000
vt 1.000000 1.000000
vt 0.000000 1.000000
vt 0.424995 0.250000
vt 0.424995 0.000000
vt 0.325005 0.000000
vt 0.325005 0.250000
vt 0.375000 0.299995
vt 0.424995 0.250000
vt 0.375000 0.299995
vt 0.424995 0.250000
vt 0.375000 0.299995
vt 0.000000 0.000000
vt 1.000000 0.000000
vt 0.500000 0.500000
vt 0.500000 0.500000
vt 0.000000 0.000000
vt 0.000000 1.000000
vt 1.000000 0.000000
vt 1.000000 1.000000
vt 0.000000 1.000000
vt 1.000000 1.000000
vt 0.000000 0.000000
vt 0.000000 1.000000
vt 1.000000 0.000000
vt 1.000000 1.000000
vt 0.000000 0.000000
vt 1.000000 0.000000
vt 1.000000 1.000000
vt 0.000000 1.000000
vt 0.424995 0.250000
vt 0.424995 0.000000
vt 0.325005 0.000000
vt 0.325005 0.250000
vt 0.424995 0.000000
vt 0.325005 0.000000
vt 0.325005 0.250000
vt 0.424995 0.250000
vt 0.424995 0.250000
vt 0.424995 0.000000
vt 0.325005 0.000000
vt 0.325005 0.250000
vt 0.424995 0.000000
vt 0.325005 0.000000
vt 0.325005 0.250000
vt 0.424995 0.250000
vt 0.424995 0.250000
vt 0.424995 0.000000
vt 0.325005 0.000000
vt 0.325005 0.250000
vt 0.424995 0.000000
vt 0.325005 0.000000
vt 0.325005 0.250000
vt 0.424995 0.250000
vt 0.424995 0.250000
vt 0.424995 0.000000
vt 0.325005 0.000000
vt 0.325005 0.250000
vt 0.424995 0.000000
vt 0.325005 0.000000
vt 0.325005 0.250000
vt 0.424995 0.250000
vt 1.000000 0.933565
vt 0.000000 0.933565
vt 1.000000 0.933565
vt 0.000000 0.933565
vt 1.000000 0.933565
vt 0.000000 0.933565
vt 1.000000 0.933565
vt 0.000000 0.933565
vt 1.000000 0.933565
vt 0.000000 0.933565
vt 1.000000 0.933565
vt 0.000000 0.933565
vt 1.000000 0.933565
vt 0.000000 0.933565
vt 1.000000 0.933565
vt 0.000000 0.933565
vn -0.000005 0.000000 -1.000000
vn -0.000005 0.000000 -1.000000
vn -0.000005 0.000000 -1.000000
vn -0.000005 0.000000 -1.000000
vn 1.000000 0.000000 -0.000003
vn 1.000000 0.000000 -0.000003
vn 1.000000 0.000000 -0.000003
vn 1.000000 0.000000 -0.000003
vn 0.707086 0.000000 -0.707128
vn 0.707086 0.000000 -0.707128
vn 0.707086 0.000000 -0.707128
vn 0.707086 0.000000 -0.707128
vn 0.594330 0.537636 -0.598097
vn 0.594330 0.537636 -0.598097
vn 0.594330 0.537636 -0.598097
vn 0.594330 0.537636 -0.598097
vn 0.001183 0.362806 -0.931864
vn 0.000517 0.159766 -0.987155
vn 0.000517 0.159666 -0.987171
vn 0.001183 0.362806 -0.931864
vn 0.000000 1.000000 0.000001
vn 0.000000 1.000000 0.000001
vn 0.000000 1.000000 0.000001
vn 0.000000 1.000000 0.000001
vn 0.000000 1.000000 -0.000001
vn 0.000000 1.000000 -0.000001
vn 0.000000 1.000000 -0.000001
vn 0.000000 1.000000 -0.000001
vn 0.709057 0.000000 -0.705151
vn 0.709057 0.000000 -0.705151
vn 0.709057 0.000000 -0.705151
vn 0.709057 0.000000 -0.705151
vn -0.000268 0.000000 -1.000000
vn -0.000268 0.000000 -1.000000
vn -0.000268 0.000000 -1.000000
vn -0.000268 0.000000 -1.000000
vn 0.002222 -0.900708 -0.434420
vn 0.002222 -0.900708 -0.434420
vn 0.002222 -0.900708 -0.434420
vn 0.002222 -0.900708 -0.434420
vn 0.278509 -0.915121 -0.291524
vn 0.278509 -0.915121 -0.291524
vn 0.278509 -0.915121 -0.291524
vn 0.278509 -0.915121 -0.291524
vn 0.009214 0.000000 -0.999958
vn 0.009214 0.000000 -0.999958
vn 0.009214 0.000000 -0.999958
vn 0.009214 0.000000 -0.999958
vn 0.679813 0.000000 -0.733385
vn 0.679813 0.000000 -0.733385
vn 0.679813 0.000000 -0.733385
vn 0.679813 0.000000 -0.733385
vn 0.000005 0.000000 1.000000
vn 0.000005 0.000000 1.000000
vn 0.000005 0.000000 1.000000
vn 0.000005 0.000000 1.000000
vn -1.000000 0.000000 0.000003
vn -1.000000 0.000000 0.000003
vn -1.000000 0.000000 0.000003
vn -1.000000 0.000000 0.000003
vn -0.707086 0.000000 0.707128
vn -0.707086 0.000000 0.707128
vn -0.707086 0.000000 0.707128
vn -0.707086 0.000000 0.707128
vn -0.594326 0.537638 0.598098
vn -0.594326 0.537638 0.598098
vn -0.594326 0.537638 0.598098
vn -0.594326 0.537638 0.598098
vn -0.001183 0.362806 0.931864
vn -0.000518 0.159765 0.987155
vn -0.000517 0.159666 0.987171
vn -0.001183 0.362806 0.931864
vn 0.000000 1.000000 -0.000001
vn 0.000000 1.000000 -0.000001
vn 0.000000 1.000000 -0.000001
vn 0.000000 1.000000 -0.000001
vn 0.000000 1.000000 0.000001
vn 0.000000 1.000000 0.000001
vn 0.000000 1.000000 0.000001
vn 0.000000 1.000000 0.000001
vn -0.709061 0.000000 0.705148
vn -0.709061 0.000000 0.705148
vn -0.709061 0.000000 0.705148
vn -0.709061 0.000000 0.705148
vn 0.000269 0.000000 1.000000
vn 0.000269 0.000000 1.000000
vn 0.000269 0.000000 1.000000
vn 0.000269 0.000000 1.000000
vn 0.002433 -0.900687 0.434461
vn 0.002433 -0.900687 0.434461
vn 0.002433 -0.900687 0.434461
vn 0.002433 -0.900687 0.434461
vn -0.292468 -0.915259 0.277061
vn -0.292468 -0.915259 0.277061
vn -0.292468 -0.915259 0.277061
vn -0.292468 -0.915259 0.277061
vn 0.009662 0.000000 0.999953
vn 0.009662 0.000000 0.999953
vn 0.009662 0.000000 0.999953
vn 0.009662 0.000000 0.999953
vn -0.735724 0.000000 0.677282
vn -0.735724 0.000000 0.677282
vn -0.735724 0.000000 0.677282
vn -0.735724 0.000000 0.677282
vn -0.707135 0.000000 -0.707079
vn -0.707135 0.000000 -0.707079
vn -0.707135 0.000000 -0.707079
vn -0.707135 0.000000 -0.707079
vn -0.598102 0.537636 -0.594325
vn -0.598102 0.537636 -0.594325
vn -0.598102 0.537636 -0.594325
vn -0.598102 0.537636 -0.594325
vn -0.931864 0.362805 -0.001182
vn -0.931864 0.362805 -0.001182
vn -0.987155 0.159766 -0.000519
vn -0.987171 0.159667 -0.000515
vn 0.000000 1.000000 0.000000
vn 0.000000 1.000000 0.000000
vn 0.000000 1.000000 0.000000
vn 0.000000 1.000000 0.000000
vn 0.000000 1.000000 -0.000000
vn 0.000000 1.000000 -0.000000
vn 0.000000 1.000000 -0.000000
vn 0.000000 1.000000 -0.000000
vn -0.705151 0.000000 -0.709057
vn -0.705151 0.000000 -0.709057
vn -0.705151 0.000000 -0.709057
vn -0.705151 0.000000 -0.709057
vn -1.000000 0.000000 0.000273
vn -1.000000 0.000000 0.000273
vn -1.000000 0.000000 0.000273
vn -1.000000 0.000000 0.000273
vn -0.441884 -0.897072 0.000114
vn -0.441884 -0.897072 0.000114
vn -0.441884 -0.897072 0.000114
vn -0.441884 -0.897072 0.000114
vn -0.291267 -0.915278 -0.278262
vn -0.291267 -0.915278 -0.278262
vn -0.291267 -0.915278 -0.278262
vn -0.291267 -0.915278 -0.278262
vn -1.000000 0.000000 0.000246
vn -1.000000 0.000000 0.000246
vn -1.000000 0.000000 0.000246
vn -1.000000 0.000000 0.000246
vn -0.733390 0.000000 -0.679808
vn -0.733390 0.000000 -0.679808
vn -0.733390 0.000000 -0.679808
vn -0.733390 0.000000 -0.679808
vn 0.707135 0.000000 0.707079
vn 0.707135 0.000000 0.707079
vn 0.707135 0.000000 0.707079
vn 0.707135 0.000000 0.707079
vn 0.598102 0.537636 0.594324
vn 0.598102 0.537636 0.594324
vn 0.598102 0.537636 0.594324
vn 0.598102 0.537636 0.594324
vn 0.931864 0.362805 0.001182
vn 0.931864 0.362805 0.001182
vn 0.987155 0.159767 0.000519
vn 0.987171 0.159667 0.000515
vn 0.000000 1.000000 0.000000
vn 0.000000 1.000000 0.000000
vn 0.000000 1.000000 0.000000
vn 0.000000 1.000000 0.000000
vn 0.000000 1.000000 0.000000
vn 0.000000 1.000000 0.000000
vn 0.000000 1.000000 0.000000
vn 0.000000 1.000000 0.000000
vn 0.705147 0.000000 0.709062
vn 0.705147 0.000000 0.709062
vn 0.705147 0.000000 0.709062
vn 0.705147 0.000000 0.709062
vn 1.000000 0.000000 -0.000266
vn 1.000000 0.000000 -0.000266
vn 1.000000 0.000000 -0.000266
vn 1.000000 0.000000 -0.000266
vn 0.427136 -0.904188 -0.000099
vn 0.427136 -0.904188 -0.000099
vn 0.427136 -0.904188 -0.000099
vn 0.427136 -0.904188 -0.000099
vn 0.277306 -0.915103 0.292725
vn 0.277306 -0.915103 0.292725
vn 0.277306 -0.915103 0.292725
vn 0.277306 -0.915103 0.292725
vn 1.000000 0.000000 -0.000207
vn 1.000000 0.000000 -0.000207
vn 1.000000 0.000000 -0.000207
vn 1.000000 0.000000 -0.000207
vn 0.677285 0.000000 0.735721
vn 0.677285 0.000000 0.735721
vn 0.677285 0.000000 0.735721
vn 0.677285 0.000000 0.735721
vn -0.000006 0.000000 -1.000000
vn -0.000006 0.000000 -1.000000
vn -0.000006 0.000000 -1.000000
vn -0.000007 0.000000 -1.000000
vn -0.000006 0.000000 -1.000000
vn -0.000007 0.000000 -1.000000
vn 1.000000 0.000000 -0.000013
vn 1.000000 0.000003 -0.000010
vn 1.000000 0.000000 -0.000013
vn 1.000000 0.000003 -0.000002
vn 1.000000 0.000000 0.000000
vn 1.000000 0.000000 0.000000
vn 0.000006 0.000000 1.000000
vn 0.000006 0.000000 1.000000
vn 0.000006 0.000000 1.000000
vn 0.000007 0.000000 1.000000
vn 0.000007 0.000000 1.000000
vn 0.000007 0.000000 1.000000
vn -1.000000 0.000000 0.000013
vn -1.000000 0.000003 0.000010
vn -1.000000 0.000000 0.000013
vn -1.000000 0.000003 0.000002
vn -1.000000 0.000000 0.000000
vn -1.000000 0.000000 0.000000
vn 1.000000 0.000000 0.000000
vn 1.000000 0.000000 0.000000
vn 1.000000 0.000000 0.000000
vn 1.000000 0.000000 0.000000
vn 0.000000 -1.000000 0.000000
vn 0.000000 -1.000000 0.000000
vn 0.000000 -1.000000 0.000000
vn 0.000000 -1.000000 0.000000
vn -1.000000 0.000000 0.000000
vn -1.000000 0.000000 0.000000
vn -1.000000 0.000000 0.000000
vn -1.000000 0.000000 0.000000
vn -0.000004 0.480406 -0.877046
vn -0.000004 0.480406 -0.877046
vn -0.000004 0.480406 -0.877046
vn -0.000004 0.480406 -0.877046
vn 0.000000 -1.000000 0.000000
vn 0.000000 -1.000000 0.000000
vn 0.000000 -1.000000 0.000000
vn 0.000000 -1.000000 0.000000
vn 0.000001 0.000000 -1.000000
vn 0.000001 0.000000 -1.000000
vn 0.000001 0.000000 -1.000000
vn 0.000001 0.000000 -1.000000
vn 0.877048 0.480403 -0.000004
vn 0.877048 0.480403 -0.000004
vn 0.877048 0.480403 -0.000004
vn 0.877048 0.480403 -0.000004
vn 0.000007 0.000000 1.000000
vn 0.000007 0.000000 1.000000
vn 0.000007 0.000000 1.000000
vn 0.000007 0.000000 1.000000
vn -1.000000 0.000000 0.000000
vn -1.000000 0.000000 0.000000
vn -1.000000 0.000000 0.000000
vn -1.000000 0.000000 0.000000
vn 0.000000 -1.000000 0.000000
vn 0.000000 -1.000000 0.000000
vn 0.000000 -1.000000 0.000000
vn 0.000000 -1.000000 0.000000
vn 1.000000 0.000000 0.000000
vn 1.000000 0.000000 0.000000
vn 1.000000 0.000000 0.000000
vn 1.000000 0.000000 0.000000
vn 0.000004 0.480406 0.877046
vn 0.000004 0.480406 0.877046
vn 0.000004 0.480406 0.877046
vn 0.000004 0.480406 0.877046
vn 0.000000 -1.000000 0.000000
vn 0.000000 -1.000000 0.000000
vn 0.000000 -1.000000 0.000000
vn 0.000000 -1.000000 0.000000
vn 0.000001 0.000000 1.000000
vn 0.000001 0.000000 1.000000
vn 0.000001 0.000000 1.000000
vn 0.000001 0.000000 1.000000
vn -0.877048 0.480403 0.000004
vn -0.877048 0.480403 0.000004
vn -0.877048 0.480403 0.000004
vn -0.877048 0.480403 0.000004
vn -0.000001 0.000000 -1.000000
vn -0.000001 0.000000 -1.000000
vn -0.000001 0.000000 -1.000000
vn -0.000001 0.000000 -1.000000
vn -0.817318 0.576159 -0.005700
vn -0.817318 0.576159 -0.005700
vn -0.817318 0.576159 -0.005700
vn -0.817318 0.576159 -0.005700
vn -0.532937 0.686978 -0.494003
vn -0.532937 0.686978 -0.494003
vn -0.532937 0.686978 -0.494003
vn -0.532937 0.686978 -0.494003
vn 0.007214 0.622024 -0.782965
vn 0.007214 0.622024 -0.782965
vn 0.007214 0.622024 -0.782965
vn 0.007214 0.622024 -0.782965
vn 0.495773 0.684216 -0.534844
vn 0.495773 0.684216 -0.534844
vn 0.495773 0.684216 -0.534844
vn 0.495773 0.684216 -0.534844
vn 0.782991 0.622033 -0.000162
vn 0.782991 0.622033 -0.000162
vn 0.782991 0.622033 -0.000162
vn 0.782991 0.622033 -0.000162
vn 0.493992 0.684115 0.536618
vn 0.493992 0.684115 0.536618
vn 0.493992 0.684115 0.536618
vn 0.493992 0.684115 0.536618
vn 0.009579 0.607186 0.794502
vn 0.009579 0.607186 0.794502
vn 0.009579 0.607186 0.794502
vn 0.009579 0.607186 0.794502
vn -0.539656 0.679591 0.496918
vn -0.539656 0.679591 0.496918
vn -0.539656 0.679591 0.496918
vn -0.539656 0.679591 0.496918
s off
g mesh_BuildingA_PillarBase Modular_Building_A
f 73/125/1 74/126/2 75/127/3 76/128/4
f 77/129/5 78/130/6 79/131/7 80/132/8
f 2/4/9 1/3/10 4/2/11 3/5/12
f 3/1/13 4/2/14 5/7/15 6/6/16
s 1
f 5/7/17 4/2/18 31/59/19 34/61/20
s off
f 6/6/21 5/7/22 7/9/23 8/8/24
f 7/9/25 5/7/26 34/61/27 36/63/28
f 8/10/29 7/11/30 9/12/31 10/13/32
f 9/15/33 7/14/34 36/70/35 38/71/36
f 11/18/37 9/12/38 38/67/39 40/73/40
f 9/12/41 11/18/42 12/19/43 10/13/44
f 91/145/45 92/148/46 11/20/47 40/76/48
f 12/24/49 11/25/50 92/147/51 93/150/52
f 81/133/53 82/134/54 83/135/55 84/136/56
f 85/137/57 86/138/58 87/139/59 88/140/60
f 16/30/61 15/29/62 18/28/63 17/31/64
f 17/32/65 18/28/66 19/33/67 20/34/68
s 2
f 19/33/69 18/28/70 45/86/71 48/88/72
s off
f 20/34/73 19/33/74 21/35/75 22/36/76
f 21/35/77 19/33/78 48/88/79 50/90/80
f 22/37/81 21/38/82 23/39/83 24/40/84
f 23/42/85 21/41/86 50/97/87 52/98/88
f 25/45/89 23/39/90 52/94/91 54/100/92
f 23/39/93 25/45/94 26/46/95 24/40/96
f 95/153/97 96/156/98 25/47/99 54/103/100
f 26/51/101 25/52/102 96/155/103 89/142/104
f 30/57/105 29/56/106 32/55/107 31/58/108
f 31/59/109 32/55/110 33/60/111 34/61/112
s 3
f 20/34/113 33/60/114 32/55/115 17/32/116
s off
f 34/61/117 33/60/118 35/62/119 36/63/120
f 22/36/121 35/62/122 33/60/123 20/34/124
f 36/64/125 35/65/126 37/66/127 38/67/128
f 24/44/129 37/69/130 35/68/131 22/43/132
f 26/46/133 39/72/134 37/66/135 24/40/136
f 37/66/137 39/72/138 40/73/139 38/67/140
f 89/141/141 90/144/142 39/74/143 26/49/144
f 40/78/145 39/79/146 90/143/147 91/146/148
f 44/84/149 43/83/150 46/82/151 45/85/152
f 45/86/153 46/82/154 47/87/155 48/88/156
s 4
f 6/6/157 47/87/158 46/82/159 3/1/160
s off
f 48/88/161 47/87/162 49/89/163 50/90/164
f 8/8/165 49/89/166 47/87/167 6/6/168
f 50/91/169 49/92/170 51/93/171 52/94/172
f 10/17/173 51/96/174 49/95/175 8/16/176
f 12/19/177 53/99/178 51/93/179 10/13/180
f 51/93/181 53/99/182 54/100/183 52/94/184
f 93/149/185 94/152/186 53/101/187 12/22/188
f 54/105/189 53/106/190 94/151/191 95/154/192
s 1
f 4/2/18 1/3/193 58/110/194 57/109/195
f 30/57/196 31/58/19 60/112/197 59/111/198
f 31/58/19 4/2/18 57/109/195 60/112/197
s 4
f 2/4/199 3/5/160 63/115/200 62/114/201
f 3/5/160 46/82/159 64/116/202 63/115/200
f 46/82/159 43/83/203 61/113/204 64/116/202
s 2
f 18/28/70 15/29/205 66/118/206 65/117/207
f 44/84/208 45/85/71 68/120/209 67/119/210
f 45/85/71 18/28/70 65/117/207 68/120/209
s 3
f 16/30/211 17/31/116 71/123/212 70/122/213
f 17/31/116 32/55/115 72/124/214 71/123/212
f 32/55/115 29/56/215 69/121/216 72/124/214
s off
f 57/109/217 58/110/218 74/126/219 73/125/220
f 58/110/221 59/111/222 75/127/223 74/126/224
f 59/111/225 60/112/226 76/128/227 75/127/228
f 60/112/229 57/109/230 73/125/231 76/128/232
f 61/113/233 62/114/234 78/130/235 77/129/236
f 62/114/237 63/115/238 79/131/239 78/130/240
f 63/115/241 64/116/242 80/132/243 79/131/244
f 64/116/245 61/113/246 77/129/247 80/132/248
f 65/117/249 66/118/250 82/134/251 81/133/252
f 66/118/253 67/119/254 83/135/255 82/134/256
f 67/119/257 68/120/258 84/136/259 83/135/260
f 68/120/261 65/117/262 81/133/263 84/136/264
f 69/121/265 70/122/266 86/138/267 85/137/268
f 70/122/269 71/123/270 87/139/271 86/138/272
f 71/123/273 72/124/274 88/140/275 87/139/276
f 72/124/277 69/121/278 85/137/279 88/140/280
f 28/50/281 41/75/282 90/144/283 89/141/284
f 91/146/285 90/143/286 41/80/287 42/81/288
f 42/77/289 13/21/290 92/148/291 91/145/292
f 93/150/293 92/147/294 13/26/295 14/27/296
f 14/23/297 55/102/298 94/152/299 93/149/300
f 95/154/301 94/151/302 55/107/303 56/108/304
f 56/104/305 27/48/306 96/156/307 95/153/308
f 89/142/309 96/155/310 27/53/311 28/54/312
