# This file uses meters as units for non-parametric coordinates.

g default
v -0.005525 1.571633 0.975418
v 0.031054 1.536958 1.006717
v -0.166148 1.185196 1.006717
v -0.197461 1.193917 0.975418
v 0.031054 1.536958 0.504521
v -0.005525 1.571633 0.535820
v -0.197461 1.193917 0.535820
v -0.166148 1.185196 0.504521
v 0.210992 0.814234 0.973571
v 0.177833 0.814234 1.006717
v 0.409800 1.203965 1.006717
v 0.441112 1.193917 0.975418
v 0.177833 0.814234 0.504521
v 0.210992 0.814234 0.537667
v 0.409800 1.203965 0.504521
v 0.441112 1.193917 0.535821
v 0.409800 1.536958 1.006717
v 0.441112 1.571633 0.975418
v -0.166148 0.814234 1.006717
v -0.197461 0.818775 0.975418
v -0.197461 0.818775 0.535820
v -0.166148 0.814234 0.504521
v 0.441112 1.571633 0.535821
v 0.409800 1.536958 0.504521
v -0.166148 0.531010 0.922605
v -0.197461 0.504899 0.889961
v -0.166148 0.531010 0.596133
v -0.197461 0.504899 0.628777
v 0.179680 0.531010 0.922605
v 0.210992 0.504899 0.889961
v 0.179680 0.531010 0.596133
v 0.210992 0.504899 0.628777
vt 0.356259 -0.000000
vt 0.390352 0.248570
vt 0.609648 0.000000
vt 0.642616 0.250000
vt 0.934970 0.000000
vt 1.000000 0.000000
vt 0.500000 1.000000
vt 0.375000 0.500000
vt 0.375000 0.617000
vt 0.125000 0.130427
vt 0.125000 0.000000
vt 0.000000 0.000000
vt 0.500000 1.000000
vt 0.608742 0.500000
vt 0.625000 0.500000
vt 0.625000 0.617000
vt 0.875000 0.130427
vt 0.858957 0.000000
vt 0.875000 0.000000
vt 0.000000 0.000000
vt 0.500000 1.000000
vt 0.927613 -0.000000
vt 1.000000 0.000000
vt 0.500000 1.000000
vt 0.390352 0.130427
vt 0.609648 0.248570
vt 0.391258 0.500000
vt 0.609648 0.619573
vt 0.638111 0.133173
vt 0.856345 0.250000
vt 0.138051 0.126957
vt 0.357384 0.250000
vt 0.143655 0.250000
vt 0.141043 -0.000000
vt 0.361889 0.133173
vt 0.390352 -0.000000
vt 0.609648 0.130427
vt 0.643741 0.000000
vt 0.861949 0.126957
vt 0.390352 0.619573
vt 0.609648 0.750000
vt 0.390352 0.750000
vt 0.063120 -0.000000
vt 0.500000 1.000000
vt 0.065030 0.000000
vt 0.500000 1.000000
vt 0.074620 0.000000
vt 0.929537 0.000000
vt 0.500000 1.000000
vt 0.070463 0.000000
vt 0.925381 -0.000000
vt 0.500000 1.000000
vn 0.000000 -0.998700 0.050981
vn 0.000000 -0.998700 0.050980
vn 0.000000 -0.998700 -0.050980
vn 0.000000 -0.998700 -0.050981
vn -0.542353 0.289317 0.788764
vn -0.542353 0.289317 0.788764
vn -0.622249 0.167172 0.764761
vn -0.624365 0.163571 0.763815
vn -0.691888 -0.089960 0.716379
vn -0.691794 -0.090428 0.716411
vn -0.542351 0.289316 -0.788766
vn -0.542351 0.289316 -0.788766
vn -0.624363 0.163570 -0.763817
vn -0.622246 0.167171 -0.764764
vn -0.689963 -0.097896 -0.717194
vn -0.689826 -0.098549 -0.717236
vn 0.639637 -0.313010 0.702061
vn 0.641567 -0.303509 0.704468
vn 0.657790 -0.203234 0.725264
vn 0.657790 -0.203234 0.725264
vn 0.672747 -0.218042 0.707014
vn 0.674418 -0.210938 0.707577
vn 0.706963 0.000000 0.707250
vn 0.706964 0.000000 0.707250
vn 0.638027 -0.311785 -0.704069
vn 0.636638 -0.319478 -0.701874
vn 0.650970 -0.221831 -0.725968
vn 0.650970 -0.221831 -0.725968
vn 0.674419 -0.210937 -0.707577
vn 0.672749 -0.218041 -0.707013
vn 0.706967 0.000000 -0.707247
vn 0.706967 0.000000 -0.707247
vn -0.664038 -0.204260 0.719257
vn -0.664038 -0.204260 0.719257
vn -0.657983 -0.222387 -0.719446
vn -0.657983 -0.222387 -0.719446
vn -1.000000 0.000000 0.000000
vn -1.000000 0.000000 0.000000
vn -1.000000 0.000000 0.000000
vn -1.000000 0.000000 0.000000
vn 0.855189 -0.518316 0.000000
vn 0.855189 -0.518316 0.000000
vn 0.855189 -0.518316 0.000000
vn 0.855189 -0.518316 0.000000
vn 0.000000 0.000000 -1.000000
vn 0.000000 0.000000 -1.000000
vn 0.000000 -0.095300 -0.995449
vn 0.000000 -0.115582 -0.993298
vn -0.000000 0.000000 1.000000
vn -0.000000 0.000000 1.000000
vn 0.000000 -0.106232 0.994341
vn 0.000000 -0.087563 0.996159
vn -0.000000 0.000000 1.000000
vn -0.000000 0.000000 1.000000
vn -0.891502 0.453017 0.000000
vn -0.891502 0.453017 0.000000
vn -0.891502 0.453017 0.000000
vn -0.891502 0.453017 0.000000
vn 0.000000 0.000000 -1.000000
vn 0.000000 0.000000 -1.000000
vn 1.000000 0.000000 0.000000
vn 1.000000 0.000000 0.000000
vn 1.000000 0.000000 0.000000
vn 1.000000 0.000000 0.000000
vn -1.000000 0.000000 0.000000
vn -1.000000 0.000000 0.000000
vn 1.000000 0.000000 0.000000
vn 1.000000 0.000000 0.000000
vn 1.000000 0.000000 0.000000
vn 1.000000 0.000000 0.000000
vn 0.000000 -0.284692 0.958619
vn 0.000000 -0.284692 0.958619
vn 0.000000 -0.307762 -0.951464
vn 0.000000 -0.307762 -0.951463
vn 0.000000 -0.780919 0.624632
vn 0.000000 -0.780919 0.624632
vn 0.000000 0.670053 -0.742313
vn 0.000000 0.670053 -0.742313
vn 0.000000 0.670053 -0.742313
vn 0.000000 0.670053 -0.742313
vn 0.000000 1.000000 0.000000
vn 0.000000 1.000000 0.000000
vn 0.000000 1.000000 0.000000
vn 0.000000 1.000000 0.000000
vn -0.000000 0.670053 0.742313
vn -0.000000 0.670053 0.742313
vn -0.000000 0.670053 0.742313
vn -0.000000 0.670053 0.742313
vn 0.000000 -0.780919 -0.624633
vn 0.000000 -0.780919 -0.624633
s 1
g mesh_BuildingA_TrimOffsetCap3 Modular_Building_A
f 30/7/1 26/44/2 28/24/3 32/46/4
s 2
f 2/1/5 1/36/6 4/25/7 3/35/8
f 3/35/8 4/25/7 20/2/9 19/32/10
s 3
f 6/3/11 5/38/12 8/29/13 7/37/14
f 7/37/14 8/29/13 22/4/15 21/26/16
s 4
f 9/5/17 10/6/18 29/49/19 30/7/20
f 10/8/18 9/27/17 12/40/21 11/9/22
f 11/31/22 12/10/21 18/11/23 17/34/24
s 5
f 13/12/25 14/45/26 32/46/27 31/13/28
f 14/14/26 13/15/25 15/16/29 16/28/30
f 16/17/30 15/39/29 24/18/31 23/19/32
s 2
f 19/20/10 20/43/9 26/44/33 25/21/34
s 3
f 21/22/16 22/23/15 27/52/35 28/24/36
s 6
f 4/25/37 7/37/38 21/26/39 20/2/40
s off
f 9/27/41 14/14/42 16/28/43 12/40/44
s 7
f 8/29/45 15/39/46 13/30/47 22/4/48
s 8
f 11/31/49 3/35/50 19/32/51 10/33/52
f 11/31/49 17/34/53 2/1/54 3/35/50
s off
f 4/25/55 1/36/56 6/3/57 7/37/58
s 7
f 8/29/45 5/38/59 24/18/60 15/39/46
s off
f 12/40/61 16/28/62 23/41/63 18/42/64
s 6
f 20/43/40 21/22/39 28/24/65 26/44/66
s off
f 14/45/67 9/5/68 30/7/69 32/46/70
s 8
f 10/47/52 19/48/51 25/21/71 29/49/72
s 7
f 22/50/48 13/51/47 31/13/73 27/52/74
s 1
f 25/21/75 26/44/2 30/7/1 29/49/76
s off
f 5/38/77 6/3/78 23/19/79 24/18/80
f 6/3/81 1/36/82 18/42/83 23/41/84
f 1/36/85 2/1/86 17/34/87 18/11/88
s 1
f 32/46/4 28/24/3 27/52/89 31/13/90
