# This file uses meters as units for non-parametric coordinates.

g default
v 0.113074 1.204531 0.964039
v 0.034970 1.204531 0.885934
v 0.034970 1.472031 0.885934
v 0.113074 1.472031 0.964039
v 0.007075 1.107685 0.891765
v 0.100195 1.107685 0.992867
v 0.074973 1.595259 0.845207
v 0.268150 1.595259 0.733051
v 0.152047 1.595259 0.924230
v 0.423223 1.204531 0.964040
v 0.501328 1.204531 0.885935
v 0.501328 1.472031 0.885935
v 0.423223 1.472031 0.964040
v 0.529224 1.107685 0.891765
v 0.436104 1.107685 0.992867
v 0.461325 1.595259 0.845207
v 0.384252 1.595259 0.924230
v 0.113074 1.204531 0.502064
v 0.034970 1.204531 0.580167
v 0.034970 1.472031 0.580167
v 0.113074 1.472031 0.502064
v 0.007075 1.107685 0.574338
v 0.100195 1.107685 0.473235
v 0.074973 1.595259 0.620893
v 0.152047 1.595259 0.541874
v 0.423223 1.204531 0.502063
v 0.501327 1.204531 0.580167
v 0.501327 1.472031 0.580167
v 0.423223 1.472031 0.502063
v 0.529224 1.107685 0.574338
v 0.436104 1.107685 0.473235
v 0.461325 1.595259 0.620893
v 0.384252 1.595259 0.541874
v 0.007075 0.596900 0.891765
v 0.100195 0.596900 0.992867
v 0.007075 0.596900 0.574338
v 0.529224 0.596900 0.891765
v 0.436104 0.596900 0.992867
v 0.100195 0.596900 0.473235
v 0.156666 0.394426 0.800824
v 0.196430 0.394426 0.843997
v 0.156666 0.394426 0.665278
v 0.379633 0.394426 0.800824
v 0.339869 0.394426 0.843997
v 0.196430 0.394426 0.622105
vt 0.449843 0.249991
vt 0.449992 0.000000
vt 0.300007 0.000000
vt 0.300139 0.249989
vt 0.000000 0.000000
vt 0.000000 1.000000
vt 1.000000 0.000000
vt 1.000000 1.000000
vt 0.000000 0.000000
vt 1.000000 0.000000
vt 1.000000 1.000000
vt 0.000000 1.000000
vt 0.000000 0.000000
vt 0.500661 0.655524
vt 0.000000 0.000000
vt 1.000000 0.000000
vt 1.000000 0.000000
vt 0.000000 0.000000
vt 0.054398 0.000000
vt 0.837678 0.000000
vt 1.000000 0.000000
vt 0.449824 0.249989
vt 0.449992 0.000000
vt 0.300007 0.000000
vt 0.300153 0.249988
vt 0.000000 0.000000
vt 0.000000 1.000000
vt 0.000000 0.000000
vt 1.000000 0.000000
vt 1.000000 1.000000
vt 0.000000 1.000000
vt 0.000000 0.000000
vt 0.500661 0.655524
vt 0.000000 0.000000
vt 1.000000 0.000000
vt 0.000000 0.000000
vt 0.054398 0.000000
vt 0.837678 0.000000
vt 1.000000 0.000000
vt 1.000000 1.000000
vt 1.000000 0.000000
vt 1.000000 0.000000
vt 0.511385 0.994125
vt 0.449864 0.249989
vt 0.449992 0.000000
vt 0.300007 0.000000
vt 0.300174 0.249989
vt 0.000000 0.000000
vt 0.000000 1.000000
vt 0.000000 0.000000
vt 1.000000 0.000000
vt 1.000000 1.000000
vt 0.000000 1.000000
vt 0.000000 0.000000
vt 0.500661 0.655524
vt 0.000000 0.000000
vt 1.000000 0.000000
vt 0.000000 0.000000
vt 0.162320 0.000000
vt 0.945596 0.000000
vt 1.000000 0.000000
vt 1.000000 1.000000
vt 1.000000 0.000000
vt 1.000000 0.000000
vt 0.511385 0.994125
vt 0.449827 0.249989
vt 0.449992 0.000000
vt 0.300007 0.000000
vt 0.300137 0.249989
vt 0.000000 0.000000
vt 0.000000 1.000000
vt 0.000000 0.000000
vt 0.000000 1.000000
vt 1.000000 1.000000
vt 1.000000 0.000000
vt 0.000000 0.000000
vt 0.500661 0.655524
vt 0.000000 0.000000
vt 1.000000 0.000000
vt 0.000000 0.000000
vt 0.054400 0.000000
vt 0.837680 0.000000
vt 1.000000 1.000000
vt 1.000000 0.000000
vt 1.000000 0.000000
vt 1.000000 0.000000
vt 0.000000 0.000000
vt 1.000000 0.000000
vt 1.000000 1.000000
vt 0.000000 1.000000
vt 0.000000 0.000000
vt 1.000000 0.000000
vt 1.000000 1.000000
vt 0.000000 1.000000
vt 0.000000 0.000000
vt 1.000000 0.000000
vt 1.000000 1.000000
vt 0.000000 1.000000
vt 0.000000 0.000000
vt 1.000000 0.000000
vt 1.000000 1.000000
vt 0.000000 1.000000
vt 0.000000 0.000000
vt 1.000000 0.000000
vt 1.000000 1.000000
vt 0.000000 1.000000
vt 0.000000 0.000000
vt 1.000000 0.000000
vt 1.000000 1.000000
vt 0.000000 1.000000
vt 0.000000 0.000000
vt 1.000000 0.000000
vt 1.000000 1.000000
vt 0.000000 1.000000
vt 0.000000 0.000000
vt 1.000000 0.000000
vt 1.000000 1.000000
vt 0.000000 1.000000
vt 0.000000 0.000000
vt 1.000000 0.000000
vt 1.000000 1.000000
vt 0.000000 1.000000
vt 0.000000 0.000000
vt 1.000000 0.000000
vt 1.000000 1.000000
vt 0.000000 1.000000
vn -0.000003 0.000000 1.000000
vn -0.000003 0.000000 1.000000
vn -0.000003 0.000000 1.000000
vn -0.000003 0.000000 1.000000
vn -0.707107 0.000000 0.707107
vn -0.707107 0.000000 0.707107
vn -0.707107 0.000000 0.707107
vn -0.707107 0.000000 0.707107
vn -0.960933 0.276781 0.000000
vn -0.960933 0.276781 0.000000
vn -0.960933 0.276781 0.000000
vn -0.960933 0.276781 0.000000
vn -0.697000 0.265888 0.665954
vn -0.697000 0.265888 0.665954
vn -0.697000 0.265888 0.665954
vn -0.697000 0.265887 0.665954
vn 0.000000 1.000000 0.000000
vn 0.000000 1.000000 0.000000
vn 0.000000 1.000000 0.000000
vn 0.000000 1.000000 0.000000
vn 0.000000 1.000000 0.000000
vn 0.000000 1.000000 0.000000
vn -0.000001 0.307411 0.951577
vn -0.000001 0.307411 0.951577
vn -0.000001 0.307411 0.951577
vn -0.000001 0.307411 0.951577
vn -0.646978 0.416118 0.638957
vn -0.646978 0.416118 0.638957
vn -0.646978 0.416118 0.638957
vn -0.646978 0.416118 0.638957
vn 0.707102 0.000000 0.707111
vn 0.707102 0.000000 0.707111
vn 0.707102 0.000000 0.707111
vn 0.707102 0.000000 0.707111
vn 0.696997 0.265891 0.665955
vn 0.696997 0.265891 0.665955
vn 0.696997 0.265891 0.665955
vn 0.696997 0.265891 0.665956
vn 0.000000 1.000000 0.000002
vn 0.000000 1.000000 0.000002
vn 0.000000 1.000000 0.000002
vn 0.646979 0.416120 0.638954
vn 0.646979 0.416120 0.638954
vn 0.646979 0.416120 0.638954
vn 0.646979 0.416120 0.638954
vn -0.000001 0.285291 0.958441
vn -0.000001 0.285291 0.958441
vn -0.000001 0.285291 0.958441
vn -0.000001 0.285291 0.958441
vn 1.000000 0.000000 -0.000006
vn 1.000000 0.000000 -0.000006
vn 1.000000 0.000000 -0.000006
vn 1.000000 0.000000 -0.000006
vn 0.951139 0.308762 -0.000003
vn 0.951139 0.308763 -0.000003
vn 0.951139 0.308763 -0.000003
vn 0.951139 0.308763 -0.000003
vn 0.000000 1.000000 0.000000
vn 0.000000 1.000000 0.000000
vn 0.000000 1.000000 0.000000
vn -0.707099 0.000000 -0.707114
vn -0.707099 0.000000 -0.707114
vn -0.707099 0.000000 -0.707114
vn -0.707099 0.000000 -0.707114
vn -0.696998 0.265889 -0.665956
vn -0.696998 0.265889 -0.665956
vn -0.696998 0.265889 -0.665956
vn -0.696998 0.265889 -0.665956
vn 0.000000 1.000000 -0.000001
vn 0.000000 1.000000 -0.000001
vn 0.000000 1.000000 -0.000001
vn -0.646965 0.416115 -0.638971
vn -0.646965 0.416115 -0.638971
vn -0.646965 0.416115 -0.638971
vn -0.646965 0.416115 -0.638971
vn -0.000003 0.285301 -0.958438
vn -0.000003 0.285301 -0.958438
vn -0.000003 0.285301 -0.958438
vn -0.000003 0.285301 -0.958438
vn -1.000000 0.000000 0.000000
vn -1.000000 0.000000 0.000000
vn -1.000000 0.000000 0.000000
vn -1.000000 0.000000 0.000000
vn -0.951139 0.308763 0.000000
vn -0.951139 0.308763 0.000000
vn -0.951139 0.308763 0.000000
vn -0.951139 0.308763 0.000000
vn 0.000000 1.000000 0.000000
vn 0.000000 1.000000 0.000000
vn 0.000000 1.000000 0.000000
vn -0.000005 0.000000 -1.000000
vn -0.000005 0.000000 -1.000000
vn -0.000005 0.000000 -1.000000
vn -0.000005 0.000000 -1.000000
vn 0.707111 0.000000 -0.707103
vn 0.707111 0.000000 -0.707103
vn 0.707111 0.000000 -0.707103
vn 0.707111 0.000000 -0.707103
vn 0.960928 0.276799 -0.000003
vn 0.960928 0.276799 -0.000003
vn 0.960928 0.276799 -0.000003
vn 0.960928 0.276799 -0.000003
vn 0.697001 0.265899 -0.665949
vn 0.697001 0.265899 -0.665949
vn 0.697001 0.265899 -0.665949
vn 0.697001 0.265899 -0.665949
vn 0.000000 1.000000 0.000000
vn 0.000000 1.000000 0.000000
vn 0.000000 1.000000 0.000000
vn 0.000000 1.000000 -0.000002
vn 0.000000 1.000000 -0.000002
vn 0.000000 1.000000 -0.000002
vn -0.000003 0.307421 -0.951574
vn -0.000003 0.307421 -0.951574
vn -0.000003 0.307421 -0.951574
vn -0.000003 0.307421 -0.951574
vn 0.646975 0.416114 -0.638962
vn 0.646975 0.416114 -0.638962
vn 0.646975 0.416114 -0.638962
vn 0.646975 0.416114 -0.638962
vn -0.735546 0.000000 0.677474
vn -0.735546 0.000000 0.677474
vn -0.735546 0.000000 0.677474
vn -0.735546 0.000000 0.677474
vn -1.000000 0.000000 0.000000
vn -1.000000 0.000000 0.000000
vn -1.000000 0.000000 0.000000
vn -1.000000 0.000000 0.000000
vn 0.735546 0.000000 0.677474
vn 0.735546 0.000000 0.677474
vn 0.735546 0.000000 0.677474
vn 0.735546 0.000000 0.677474
vn 0.000000 0.000000 1.000000
vn 0.000000 0.000000 1.000000
vn 0.000000 0.000000 1.000000
vn 0.000000 0.000000 1.000000
vn -0.735549 0.000000 -0.677471
vn -0.735549 0.000000 -0.677471
vn -0.735549 0.000000 -0.677471
vn -0.735549 0.000000 -0.677471
vn -0.561074 -0.646639 0.516773
vn -0.561074 -0.646639 0.516773
vn -0.561074 -0.646639 0.516773
vn -0.561074 -0.646639 0.516773
vn -0.804296 -0.594229 0.000000
vn -0.804296 -0.594229 0.000000
vn -0.804296 -0.594229 0.000000
vn -0.804296 -0.594229 0.000000
vn 0.561075 -0.646638 0.516772
vn 0.561075 -0.646638 0.516772
vn 0.561076 -0.646638 0.516772
vn 0.561075 -0.646638 0.516772
vn 0.000000 -0.592369 0.805667
vn 0.000000 -0.592369 0.805667
vn 0.000000 -0.592369 0.805667
vn 0.000000 -0.592369 0.805667
vn -0.561074 -0.646639 -0.516773
vn -0.561074 -0.646639 -0.516773
vn -0.561074 -0.646639 -0.516773
vn -0.561074 -0.646639 -0.516773
s off
g mesh_BuildingA_TrimCornerCapBalcony Modular_Building_A
f 4/1/1 1/2/2 10/23/3 13/22/4
f 2/3/5 1/2/6 4/1/7 3/4/8
f 22/49/9 5/6/10 2/5/11 19/48/12
f 1/9/13 2/10/14 5/11/15 6/12/16
f 8/14/17 9/13/18 17/32/19
f 7/15/20 9/16/21 8/14/22
f 9/13/23 4/18/24 13/36/25 17/32/26
f 3/19/27 4/20/28 9/16/29 7/15/30
f 11/24/31 12/25/32 13/22/33 10/23/34
f 10/28/35 15/31/36 14/30/37 11/29/38
f 16/34/39 8/33/40 17/35/41
f 12/37/42 16/34/43 17/35/44 13/38/45
f 6/8/46 15/40/47 10/39/48 1/7/49
f 12/25/50 11/24/51 27/68/52 28/69/53
f 16/42/54 12/41/55 28/85/56 32/86/57
f 8/43/58 16/42/59 32/86/60
f 19/46/61 20/47/62 21/44/63 18/45/64
f 18/50/65 23/53/66 22/52/67 19/51/68
f 24/56/69 8/55/70 25/57/71
f 20/59/72 24/56/73 25/57/74 21/60/75
f 31/83/76 23/62/77 18/61/78 26/84/79
f 3/4/80 20/47/81 19/46/82 2/3/83
f 7/21/84 24/64/85 20/63/86 3/17/87
f 8/65/88 24/64/89 7/21/90
f 21/44/91 29/66/92 26/67/93 18/45/94
f 27/68/95 26/67/96 29/66/97 28/69/98
f 14/27/99 30/71/100 27/70/101 11/26/102
f 26/72/103 27/75/104 30/74/105 31/73/106
f 8/77/107 33/76/108 25/54/109
f 32/78/110 33/79/111 8/77/112
f 25/54/113 33/76/114 29/80/115 21/58/116
f 28/81/117 29/82/118 33/79/119 32/78/120
f 6/87/121 5/88/122 34/89/123 35/90/124
f 5/91/125 22/92/126 36/93/127 34/94/128
f 14/95/129 15/96/130 38/97/131 37/98/132
f 15/99/133 6/100/134 35/101/135 38/102/136
f 22/103/137 23/104/138 39/105/139 36/106/140
f 35/107/141 34/108/142 40/109/143 41/110/144
f 34/111/145 36/112/146 42/113/147 40/114/148
f 37/115/149 38/116/150 44/117/151 43/118/152
f 38/119/153 35/120/154 41/121/155 44/122/156
f 36/123/157 39/124/158 45/125/159 42/126/160
