# This file uses meters as units for non-parametric coordinates.

g default
v 0.410025 1.844791 0.957966
v 0.382031 1.798589 0.981471
v 0.410025 1.727279 0.862193
v 0.382031 1.690403 0.894820
v 0.137806 1.727279 0.597939
v 0.018528 1.798589 0.625933
v 0.042034 1.844791 0.597939
v 0.105179 1.690403 0.625933
v 0.410025 0.641293 0.898971
v 0.410025 0.641293 0.862193
v 0.382031 0.835656 0.894820
v 0.382031 0.447321 0.998781
v 0.101028 0.641293 0.597939
v 0.105179 0.835656 0.625933
v 0.137806 0.641293 0.597939
v 0.410025 0.438218 0.957967
v 0.001218 0.447321 0.625933
v 0.382031 0.127713 1.000000
v 0.042032 0.438218 0.597939
v 0.410025 0.107685 0.957967
v 0.382031 0.107685 0.981471
v 0.000000 0.127713 0.625933
v 0.042032 0.107685 0.597939
v 0.018528 0.107685 0.625933
v 0.410025 2.110269 0.957967
v 0.382031 2.110269 0.981471
v 0.018528 2.110269 0.625933
v 0.042030 2.110269 0.597939
v 0.107563 1.798589 0.981471
v 0.018528 1.798589 0.884804
v 0.018528 2.110269 0.884804
v 0.107563 2.110269 0.981471
v 0.194215 1.690403 0.894820
v 0.105179 1.690403 0.798153
v 0.194215 0.835656 0.894820
v 0.105179 0.835656 0.798153
v 0.090254 0.447321 0.998781
v 0.001218 0.447321 0.902114
v 0.089039 0.128016 0.999997
v 0.000003 0.128016 0.903331
v 0.107563 0.107685 0.981471
v 0.018528 0.107685 0.884804
vt 0.058375 1.000000
vt 0.058375 0.000000
vt 0.058375 0.000000
vt 0.058375 0.000000
vt 0.058375 1.000000
vt 0.058375 1.000000
vt 0.625000 0.250000
vt 0.639063 0.283282
vt 0.625000 0.250000
vt 0.634995 0.273654
vt 0.639063 0.283282
vt 0.625000 0.250000
vt 0.625000 0.250000
vt 0.625000 0.000366
vt 0.625000 0.000000
vt 0.625000 0.000366
vt 0.058375 0.000000
vt 0.058375 1.000000
vt 0.058375 0.000000
vt 0.058375 1.000000
vt 0.058375 0.000000
vt 0.058375 1.000000
vt 0.058333 0.023059
vt 0.058375 0.000000
vt 0.058375 1.000000
vt 0.058375 1.000000
vt 0.058375 0.000000
vt 0.058375 1.000000
vt 0.016376 1.000000
vt 0.010399 0.894685
vt 0.048963 0.000000
vt 0.016377 0.000000
vt 0.016376 1.000000
vt 0.048961 1.000000
vt 0.039553 1.000000
vt 0.039560 0.015632
vt 0.635602 0.275090
vt 0.625000 0.000000
vt 0.016376 0.000000
vt 0.058375 1.000000
vt 0.016377 1.000000
vt 0.058375 0.000000
vt 0.048961 0.000000
vt 0.058375 1.000000
vt 0.016377 1.000000
vt 0.058375 0.000000
vt 0.048943 0.019344
vt 0.058375 1.000000
vt 0.048963 1.000000
vt 0.058333 0.023059
vt 0.048946 0.019345
vt 0.625000 0.250000
vt 0.634995 0.273654
vt 0.635602 0.275090
vt 0.625000 0.250000
vt 0.625000 0.014965
vt 0.625000 0.250000
vt 0.625000 0.250000
vt 0.625000 0.014743
vt 0.625000 0.000000
vt 0.625000 0.014743
vt 0.625000 0.014965
vt 0.625000 0.000000
vn 0.802429 -0.089496 0.589998
vn 0.723902 -0.088651 0.684183
vn 0.820774 -0.225490 0.524866
vn 0.776873 -0.034373 0.628718
vn -0.524880 -0.225493 -0.820764
vn -0.684197 -0.088656 -0.723889
vn -0.590012 -0.089497 -0.802419
vn -0.628732 -0.034374 -0.776862
vn 0.874950 0.143130 0.462575
vn 0.894477 0.054328 0.443801
vn 0.764904 0.005766 0.644118
vn 0.840889 0.074486 0.536057
vn 0.840067 0.068355 0.538159
vn -0.462587 0.143134 -0.874943
vn -0.644132 0.005766 -0.764893
vn -0.443816 0.054328 -0.894469
vn -0.536072 0.074488 -0.840880
vn -0.538174 0.068356 -0.840057
vn 0.827564 -0.004251 0.561356
vn 0.827360 -0.005173 0.561649
vn 0.524689 -0.578108 0.624895
vn -0.561373 -0.004252 -0.827552
vn -0.561666 -0.005174 -0.827348
vn -0.624912 -0.578093 -0.524685
vn 0.643040 -0.000001 0.765833
vn 0.643040 -0.000001 0.765833
vn -0.765849 -0.000005 -0.643021
vn -0.765848 -0.000005 -0.643021
vn -0.487033 -0.749382 0.448582
vn -0.487033 -0.749382 0.448582
vn -0.487033 -0.749382 0.448582
vn -0.487033 -0.749382 0.448582
vn -0.735548 0.000000 0.677473
vn -0.735548 0.000000 0.677473
vn -0.735548 0.000000 0.677473
vn -0.735548 0.000000 0.677473
vn -0.735544 0.000000 0.677477
vn -0.735544 0.000000 0.677477
vn -0.735544 0.000000 0.677477
vn -0.735544 0.000000 0.677477
vn -0.687967 0.353811 0.633656
vn -0.687967 0.353811 0.633656
vn -0.687967 0.353811 0.633656
vn -0.687967 0.353811 0.633656
vn -0.735532 0.005380 0.677469
vn -0.735532 0.005380 0.677469
vn -0.735532 0.005380 0.677469
vn -0.735532 0.005380 0.677469
vn -0.451182 -0.789773 0.415564
vn -0.451182 -0.789773 0.415564
vn -0.451182 -0.789773 0.415564
vn -0.451182 -0.789773 0.415564
vn 0.000000 0.000000 1.000000
vn 0.000000 0.000000 1.000000
vn 0.000000 0.000000 1.000000
vn 0.000000 0.000000 1.000000
vn -1.000000 0.000000 0.000000
vn -1.000000 0.000000 0.000000
vn -1.000000 0.000000 0.000000
vn -1.000000 0.000000 0.000000
vn 0.000000 -0.625146 0.780508
vn 0.000000 -0.625146 0.780508
vn 0.000000 -0.625146 0.780508
vn 0.000000 -0.625146 0.780508
vn -0.780508 -0.625146 0.000000
vn -0.780508 -0.625146 0.000000
vn -0.780508 -0.625146 0.000000
vn -0.780508 -0.625146 0.000000
vn 0.000000 0.000000 1.000000
vn 0.000000 0.000000 1.000000
vn 0.000000 0.000000 1.000000
vn 0.000000 0.000000 1.000000
vn -1.000000 0.000000 0.000000
vn -1.000000 0.000000 0.000000
vn -1.000000 0.000000 0.000000
vn -1.000000 0.000000 0.000000
vn 0.000000 0.258603 0.965984
vn 0.000000 0.258603 0.965984
vn 0.000000 0.258603 0.965984
vn 0.000000 0.258603 0.965984
vn -0.965984 0.258603 0.000000
vn -0.965984 0.258603 0.000000
vn -0.965984 0.258603 0.000000
vn -0.965984 0.258603 0.000000
vn -0.000003 0.003811 0.999993
vn -0.000003 0.003811 0.999993
vn -0.000003 0.003811 0.999993
vn -0.000003 0.003811 0.999993
vn -0.999993 0.003808 0.000003
vn -0.999993 0.003808 0.000003
vn -0.999993 0.003808 0.000003
vn -0.999993 0.003808 0.000003
vn -0.000364 -0.676397 0.736537
vn -0.000364 -0.676397 0.736537
vn -0.000364 -0.676397 0.736537
vn -0.000364 -0.676397 0.736537
vn -0.736550 -0.676383 0.000385
vn -0.736550 -0.676383 0.000385
vn -0.736550 -0.676383 0.000385
vn -0.736550 -0.676383 0.000385
s 1
g mesh_BuildingA_TrimCornerOuter Modular_Building_A
f 3/2/1 1/1/2 2/44/3 4/3/4
s 2
f 6/5/5 7/6/6 5/4/7 8/46/8
s 1
f 9/7/9 10/8/10 11/53/11
f 9/7/9 11/53/11 12/57/12 16/12/13
s 2
f 13/9/14 14/10/15 15/11/16
f 17/55/17 14/10/15 13/9/14 19/13/18
s 1
f 16/12/13 12/57/12 18/61/19 20/14/20
f 20/14/20 18/61/19 21/15/21
s 2
f 22/59/22 17/55/17 19/13/18 23/16/23
f 23/16/23 24/63/24 22/59/22
s 1
f 1/17/2 25/18/25 26/40/26 2/19/3
s 2
f 7/21/6 6/42/5 27/20/27 28/22/28
s 1
f 10/24/10 3/25/1 4/48/4 11/23/11
s 2
f 15/27/16 14/50/15 8/26/8 5/28/7
s off
f 29/29/29 30/30/30 34/31/31 33/43/32
f 30/32/33 29/39/34 32/33/35 31/41/36
f 33/34/37 34/35/38 36/36/39 35/47/40
f 35/37/41 36/54/42 38/58/43 37/52/44
f 37/52/45 38/58/46 40/62/47 39/56/48
f 39/56/49 40/62/50 42/38/51 41/60/52
f 29/39/53 2/19/54 26/40/55 32/33/56
f 30/32/57 31/41/58 27/20/59 6/42/60
f 33/43/61 4/3/62 2/44/63 29/29/64
f 30/45/65 6/5/66 8/46/67 34/31/68
f 35/47/69 11/23/70 4/48/71 33/34/72
f 34/49/73 8/26/74 14/50/75 36/51/76
f 37/52/77 12/57/78 11/53/79 35/37/80
f 36/54/81 14/10/82 17/55/83 38/58/84
f 39/56/85 18/61/86 12/57/87 37/52/88
f 38/58/89 17/55/90 22/59/91 40/62/92
f 39/56/93 41/60/94 21/15/95 18/61/96
f 40/62/97 22/59/98 24/63/99 42/38/100
