# This file uses meters as units for non-parametric coordinates.

g default
v 0.382030 1.294559 0.998781
v 0.410027 1.320223 0.957968
v 0.001218 1.294559 0.625933
v 0.382030 1.127713 1.000000
v 0.042032 1.320223 0.597939
v 0.410027 1.107570 0.957968
v 0.382030 1.107685 0.981471
v 0.000000 1.127713 0.625933
v 0.042032 1.107570 0.597939
v 0.018529 1.107685 0.625933
v 0.090444 1.294559 0.998781
v 0.001218 1.294559 0.902174
v 0.089039 1.128016 0.999998
v 0.000003 1.128016 0.903331
v 0.107564 1.107685 0.981471
v 0.018529 1.107685 0.884804
v 0.118629 1.320223 0.957968
v 0.042032 1.320223 0.874239
v 0.395046 1.320223 0.681585
v 0.318449 1.320223 0.597857
v 0.395046 1.233975 0.681585
v 0.318449 1.233975 0.597857
v 0.318449 1.304309 0.597696
v 0.042032 1.304309 0.597939
v 0.395046 1.304966 0.681475
v 0.410027 1.304966 0.957968
vt 0.625000 0.259541
vt 0.625000 0.259541
vt 0.625000 0.000366
vt 0.625000 0.000000
vt 0.625000 0.000366
vt 0.625000 0.000000
vt 0.312500 0.625000
vt 0.625000 0.250000
vt 0.625000 0.014965
vt 0.625000 0.250000
vt 0.812500 0.625000
vt 0.625000 0.014743
vt 0.625000 0.000000
vt 0.625000 0.014743
vt 0.625000 0.014965
vt 0.625000 0.000000
vt 0.000000 0.000000
vt 0.905977 0.089443
vt 1.000000 1.000000
vt 0.063770 0.089235
vt 1.000000 0.000000
vt 0.000000 1.000000
vt 0.000000 0.000000
vt 1.000000 0.000000
vt 1.000000 1.000000
vt 0.000000 1.000000
vt 0.000000 0.000000
vt 1.000000 0.000000
vt 0.551204 5.536931
vt 0.000000 0.000000
vt 1.000000 0.000000
vt 0.389374 5.737154
vt 0.000000 0.000000
vt 1.000000 0.000000
vt 1.000000 1.000000
vt 0.000000 1.000000
vt 0.000000 0.000000
vt 1.000000 0.000000
vt 1.000000 1.000000
vt 0.000000 1.000000
vt 0.000000 0.000000
vt 1.000000 0.000000
vt 1.000000 1.000000
vt 0.000000 1.000000
vn 0.828461 0.001799 0.560045
vn 0.828461 0.001799 0.560045
vn 0.826469 -0.007234 0.562936
vn 0.826114 -0.008810 0.563435
vn 0.522911 -0.578849 0.625698
vn -0.562904 -0.007234 -0.826491
vn -0.560013 0.001797 -0.828482
vn -0.560013 0.001797 -0.828482
vn -0.563403 -0.008811 -0.826135
vn -0.625686 -0.578837 -0.522939
vn -0.735038 0.010612 0.677943
vn -0.735038 0.010612 0.677943
vn -0.735038 0.010612 0.677943
vn -0.735038 0.010612 0.677943
vn -0.451170 -0.789788 0.415549
vn -0.451170 -0.789788 0.415549
vn -0.451170 -0.789788 0.415549
vn -0.451170 -0.789788 0.415549
vn 0.000000 0.007306 0.999973
vn 0.000000 0.007306 0.999973
vn 0.000000 0.007306 0.999973
vn 0.000000 0.007306 0.999973
vn -0.999973 0.007297 0.000001
vn -0.999973 0.007297 0.000001
vn -0.999973 0.007297 0.000001
vn -0.999973 0.007297 0.000001
vn -0.000363 -0.676409 0.736527
vn -0.000363 -0.676409 0.736526
vn -0.000363 -0.676409 0.736526
vn -0.000363 -0.676409 0.736526
vn -0.736531 -0.676404 0.000385
vn -0.736531 -0.676404 0.000385
vn -0.736531 -0.676404 0.000385
vn -0.736531 -0.676404 0.000385
vn 0.000000 0.846541 0.532324
vn 0.000000 0.846541 0.532324
vn 0.000000 0.846541 0.532324
vn 0.000000 0.846541 0.532324
vn -0.532314 0.846547 0.000000
vn -0.532314 0.846547 0.000000
vn -0.532314 0.846547 0.000000
vn -0.532314 0.846547 0.000000
vn -0.343390 0.884524 0.315753
vn -0.343390 0.884524 0.315753
vn -0.343390 0.884524 0.315753
vn -0.343390 0.884524 0.315753
vn 0.000000 1.000000 0.000000
vn 0.000000 1.000000 -0.000000
vn 0.000000 1.000000 -0.000000
vn 0.000000 1.000000 0.000000
vn 0.000000 1.000000 -0.000000
vn 0.000000 1.000000 0.000000
vn 0.737833 0.000000 -0.674984
vn 0.737833 0.000000 -0.674984
vn 0.737833 0.000000 -0.674984
vn 0.737833 0.000000 -0.674984
vn -0.000587 0.005034 -0.999987
vn -0.000587 0.005034 -0.999987
vn -0.000587 0.005034 -0.999987
vn -0.000587 0.005034 -0.999987
vn 0.998535 0.000196 -0.054111
vn 0.998535 0.000196 -0.054111
vn 0.998535 0.000196 -0.054111
vn 0.998535 0.000196 -0.054111
s 1
g mesh_BuildingA_TrimCornerCapRoof Modular_Building_A
f 2/1/1 1/10/2 4/14/3 6/3/4
f 6/3/4 4/14/3 7/4/5
s 2
f 8/12/6 3/8/7 5/2/8 9/5/9
f 9/5/9 10/16/10 8/12/6
s off
f 11/7/11 12/11/12 14/15/13 13/9/14
f 13/9/15 14/15/16 16/6/17 15/13/18
f 13/9/19 4/14/20 1/10/21 11/7/22
f 12/11/23 3/8/24 8/12/25 14/15/26
f 13/9/27 15/13/28 7/4/29 4/14/30
f 14/15/31 8/12/32 10/16/33 16/6/34
f 1/17/35 2/18/36 17/19/37 11/7/38
f 5/20/39 3/21/40 12/11/41 18/22/42
f 11/7/43 17/19/44 18/22/45 12/11/46
s 3
f 18/23/47 17/24/48 19/25/49 20/26/50
f 19/27/49 17/28/48 2/29/51
f 18/30/47 20/31/50 5/32/52
s off
f 20/33/53 19/34/54 21/35/55 22/36/56
f 5/37/57 20/38/58 23/39/59 24/40/60
f 19/41/61 2/42/62 26/43/63 25/44/64
