# This file uses meters as units for non-parametric coordinates.

g default
v -0.053370 1.209699 0.891560
v -0.159711 1.209699 0.785220
v -0.159711 1.477199 0.785220
v -0.053370 1.477199 0.891560
v -0.249622 1.112853 0.898992
v -0.155227 1.112853 0.981472
v -0.116269 1.477199 0.767227
v -0.035378 1.477199 0.848119
v -0.116269 1.600428 0.767227
v -0.000000 1.600427 0.733052
v -0.035378 1.600428 0.848119
v 0.053371 1.209699 0.891560
v 0.159710 1.209699 0.785220
v 0.159710 1.477199 0.785220
v 0.053371 1.477199 0.891560
v 0.249623 1.112853 0.898992
v 0.155237 1.112853 0.981472
v 0.116270 1.477199 0.767227
v 0.035378 1.477199 0.848119
v 0.116270 1.600427 0.767227
v 0.035378 1.600428 0.848119
v -0.053370 1.209699 0.574544
v -0.159711 1.209699 0.680884
v -0.159711 1.477199 0.680884
v -0.053370 1.477199 0.574544
v -0.249622 1.112853 0.581301
v -0.160586 1.112853 0.484633
v -0.116269 1.477199 0.698877
v -0.035378 1.477200 0.617985
v -0.116269 1.600427 0.698877
v -0.035378 1.600428 0.617985
v 0.053371 1.209699 0.574544
v 0.159710 1.209699 0.680884
v 0.159710 1.477199 0.680884
v 0.053371 1.477199 0.574544
v 0.249623 1.112853 0.581301
v 0.160587 1.112853 0.484633
v 0.116270 1.477199 0.698877
v 0.035378 1.477199 0.617985
v 0.116270 1.600428 0.698877
v 0.035378 1.600428 0.617985
vt 0.449992 0.250000
vt 0.449992 0.000000
vt 0.300007 0.000000
vt 0.300007 0.250000
vt 0.000000 0.000000
vt 0.000000 1.000000
vt 1.000000 0.000000
vt 1.000000 1.000000
vt 0.000000 0.000000
vt 1.000000 0.000000
vt 1.000000 1.000000
vt 0.000000 1.000000
vt 0.000000 0.000000
vt 0.500661 0.655524
vt 0.000000 0.000000
vt 1.000000 0.000000
vt 1.000000 0.000000
vt 1.000000 0.000000
vt 0.000000 0.000000
vt 0.000000 0.000000
vt 0.000000 0.000000
vt 1.000000 0.000000
vt 1.000000 0.000000
vt 0.000000 0.000000
vt 1.000000 0.000000
vt 0.449992 0.250000
vt 0.449992 0.000000
vt 0.300007 0.000000
vt 0.300007 0.250000
vt 0.000000 0.000000
vt 0.000000 1.000000
vt 0.000000 0.000000
vt 1.000000 0.000000
vt 1.000000 1.000000
vt 0.000000 1.000000
vt 0.000000 0.000000
vt 0.500661 0.655524
vt 0.000000 0.000000
vt 1.000000 0.000000
vt 0.000000 0.000000
vt 0.000000 0.000000
vt 0.000000 0.000000
vt 1.000000 0.000000
vt 1.000000 0.000000
vt 0.000000 0.000000
vt 1.000000 0.000000
vt 1.000000 1.000000
vt 1.000000 0.000000
vt 1.000000 0.000000
vt 1.000000 0.000000
vt 0.511385 0.994125
vt 0.449992 0.250000
vt 0.449992 0.000000
vt 0.300007 0.000000
vt 0.300007 0.250000
vt 0.000000 0.000000
vt 0.000000 1.000000
vt 0.000000 0.000000
vt 1.000000 0.000000
vt 1.000000 1.000000
vt 0.000000 1.000000
vt 0.000000 0.000000
vt 0.500661 0.655524
vt 0.000000 0.000000
vt 1.000000 0.000000
vt 0.000000 0.000000
vt 0.000000 0.000000
vt 0.000000 0.000000
vt 1.000000 0.000000
vt 1.000000 0.000000
vt 0.000000 0.000000
vt 1.000000 0.000000
vt 1.000000 1.000000
vt 1.000000 0.000000
vt 1.000000 0.000000
vt 1.000000 0.000000
vt 0.511385 0.994125
vt 0.449992 0.250000
vt 0.449992 0.000000
vt 0.300007 0.000000
vt 0.300007 0.250000
vt 0.000000 0.000000
vt 0.000000 1.000000
vt 0.000000 0.000000
vt 0.000000 1.000000
vt 1.000000 1.000000
vt 1.000000 0.000000
vt 0.000000 0.000000
vt 0.500661 0.655524
vt 0.000000 0.000000
vt 1.000000 0.000000
vt 0.000000 0.000000
vt 0.000000 0.000000
vt 0.000000 0.000000
vt 0.000000 0.000000
vt 1.000000 0.000000
vt 1.000000 0.000000
vt 1.000000 1.000000
vt 1.000000 0.000000
vt 1.000000 0.000000
vt 1.000000 0.000000
vt 1.000000 0.000000
vn 0.000000 0.000000 1.000000
vn 0.000000 0.000000 1.000000
vn 0.000000 0.000000 1.000000
vn 0.000000 0.000000 1.000000
vn -0.707102 0.000000 0.707112
vn -0.707102 0.000000 0.707112
vn -0.707102 0.000000 0.707112
vn -0.707102 0.000000 0.707112
vn -0.732858 0.680382 0.000000
vn -0.732858 0.680382 0.000000
vn -0.732858 0.680382 0.000000
vn -0.732858 0.680382 0.000000
vn -0.390019 0.822169 0.414636
vn -0.390019 0.822169 0.414636
vn -0.390019 0.822169 0.414636
vn -0.390019 0.822169 0.414636
vn 0.000000 1.000000 -0.000003
vn 0.000000 1.000000 -0.000003
vn 0.000000 1.000000 -0.000003
vn 0.000001 1.000000 0.000000
vn 0.000001 1.000000 0.000000
vn 0.000001 1.000000 0.000000
vn 0.000000 1.000000 0.000001
vn 0.000000 1.000000 0.000001
vn 0.000000 1.000000 0.000001
vn 0.000000 1.000000 0.000001
vn 0.000000 1.000000 0.000000
vn 0.000000 1.000000 0.000000
vn 0.000000 0.000000 1.000000
vn 0.000000 0.000000 1.000000
vn 0.000000 0.000000 1.000000
vn 0.000000 0.000000 1.000000
vn -0.707110 0.000000 0.707104
vn -0.707110 0.000000 0.707104
vn -0.707110 0.000000 0.707104
vn -0.707110 0.000000 0.707104
vn 0.707108 0.000000 0.707105
vn 0.707108 0.000000 0.707105
vn 0.707108 0.000000 0.707105
vn 0.707108 0.000000 0.707105
vn 0.390023 0.822177 0.414617
vn 0.390023 0.822177 0.414617
vn 0.390023 0.822177 0.414617
vn 0.390023 0.822177 0.414617
vn 0.000000 1.000000 -0.000002
vn 0.000000 1.000000 -0.000002
vn 0.000000 1.000000 -0.000002
vn 0.000000 1.000000 0.000000
vn 0.000000 1.000000 0.000000
vn 0.707105 -0.000000 0.707108
vn 0.707105 -0.000000 0.707108
vn 0.707105 -0.000000 0.707108
vn 0.707105 -0.000000 0.707108
vn 0.000000 0.680381 0.732858
vn 0.000000 0.680381 0.732858
vn 0.000000 0.680381 0.732858
vn 0.000000 0.680381 0.732858
vn 1.000000 0.000000 0.000000
vn 1.000000 0.000000 0.000000
vn 1.000000 0.000000 0.000000
vn 1.000000 0.000000 0.000000
vn 0.000000 1.000000 0.000002
vn 0.000000 1.000000 0.000002
vn 1.000000 0.000000 0.000000
vn 1.000000 0.000000 0.000000
vn 1.000000 0.000000 0.000000
vn 1.000000 0.000000 0.000000
vn -0.000001 1.000000 0.000000
vn -0.000001 1.000000 0.000000
vn -0.000001 1.000000 0.000000
vn -0.707102 0.000000 -0.707111
vn -0.707102 0.000000 -0.707111
vn -0.707102 0.000000 -0.707111
vn -0.707102 0.000000 -0.707111
vn -0.416484 0.816014 -0.400829
vn -0.416483 0.816014 -0.400829
vn -0.416484 0.816014 -0.400829
vn -0.416484 0.816014 -0.400829
vn -0.000000 1.000000 0.000000
vn -0.000000 1.000000 0.000000
vn -0.000000 1.000000 0.000000
vn -0.000005 1.000000 -0.000003
vn -0.000005 1.000000 -0.000003
vn -0.000003 1.000000 -0.000007
vn -0.000003 1.000000 -0.000007
vn -0.707110 0.000000 -0.707104
vn -0.707110 0.000000 -0.707104
vn -0.707110 0.000000 -0.707104
vn -0.707110 0.000000 -0.707104
vn -0.000000 0.680381 -0.732859
vn -0.000000 0.680381 -0.732859
vn -0.000000 0.680381 -0.732859
vn -0.000000 0.680381 -0.732859
vn -1.000000 0.000000 0.000000
vn -1.000000 0.000000 0.000000
vn -1.000000 0.000000 0.000000
vn -1.000000 0.000000 0.000000
vn -1.000000 0.000000 0.000000
vn -1.000000 0.000000 0.000000
vn -1.000000 0.000000 0.000000
vn -1.000000 0.000000 0.000000
vn 0.000001 1.000000 0.000000
vn 0.000001 1.000000 0.000000
vn 0.000001 1.000000 0.000000
vn 0.000000 0.000000 -1.000000
vn 0.000000 0.000000 -1.000000
vn 0.000000 0.000000 -1.000000
vn 0.000000 0.000000 -1.000000
vn 0.707108 0.000000 -0.707105
vn 0.707108 0.000000 -0.707105
vn 0.707108 0.000000 -0.707105
vn 0.707108 0.000000 -0.707105
vn 0.732850 0.680390 0.000000
vn 0.732850 0.680390 0.000000
vn 0.732850 0.680390 0.000000
vn 0.732850 0.680390 0.000000
vn 0.416483 0.816015 -0.400826
vn 0.416483 0.816015 -0.400826
vn 0.416483 0.816015 -0.400826
vn 0.416484 0.816015 -0.400826
vn 0.000000 1.000000 0.000003
vn 0.000000 1.000000 0.000003
vn 0.000000 1.000000 0.000003
vn -0.000001 1.000000 0.000000
vn -0.000001 1.000000 0.000000
vn -0.000001 1.000000 0.000000
vn 0.000002 1.000000 -0.000002
vn 0.000002 1.000000 -0.000002
vn 0.000000 0.000000 -1.000000
vn 0.000000 0.000000 -1.000000
vn 0.000000 0.000000 -1.000000
vn 0.000000 0.000000 -1.000000
vn 0.707106 0.000000 -0.707108
vn 0.707106 0.000000 -0.707108
vn 0.707106 0.000000 -0.707108
vn 0.707106 0.000000 -0.707108
s off
g mesh_BuildingA_TrimStraightCapBalcony Modular_Building_A
f 4/1/1 1/2/2 12/27/3 15/26/4
f 2/3/5 1/2/6 4/1/7 3/4/8
f 26/57/9 5/6/10 2/5/11 23/56/12
f 1/9/13 2/10/14 5/11/15 6/12/16
f 10/14/17 11/13/18 21/36/19
f 9/15/20 11/16/21 10/14/22
s 1
f 8/20/23 4/19/24 15/40/25 19/41/26
f 3/21/27 4/22/24 8/23/23 7/24/28
s off
f 11/13/29 8/20/30 19/41/31 21/36/32
f 7/24/33 8/23/34 11/16/35 9/15/36
f 13/28/37 14/29/38 15/26/39 12/27/40
f 12/32/41 17/35/42 16/34/43 13/33/44
f 20/38/45 10/37/46 21/39/47
s 1
f 14/42/48 18/45/49 19/44/26 15/43/25
s off
f 18/45/50 20/38/51 21/39/52 19/44/53
f 6/8/54 17/47/55 12/46/56 1/7/57
f 14/29/58 13/28/59 33/80/60 34/81/61
s 1
f 18/49/49 14/48/48 34/101/62 38/100/63
s off
f 20/50/64 18/49/65 38/100/66 40/102/67
f 10/51/68 20/50/69 40/102/70
f 23/54/71 24/55/72 25/52/73 22/53/74
f 22/58/75 27/61/76 26/60/77 23/59/78
f 30/64/79 10/63/80 31/65/81
s 1
f 24/68/82 28/71/83 29/70/84 25/69/85
s off
f 28/71/86 30/64/87 31/65/88 29/70/89
f 37/98/90 27/73/91 22/72/92 32/99/93
f 3/4/94 24/55/95 23/54/96 2/3/97
s 1
f 7/18/28 28/75/83 24/74/82 3/17/27
s off
f 9/25/98 30/76/99 28/75/100 7/18/101
f 10/77/102 30/76/103 9/25/104
f 25/52/105 35/78/106 32/79/107 22/53/108
f 33/80/109 32/79/110 35/78/111 34/81/112
f 16/31/113 36/83/114 33/82/115 13/30/116
f 32/84/117 33/87/118 36/86/119 37/85/120
f 10/89/121 41/88/122 31/62/123
f 40/90/124 41/91/125 10/89/126
s 1
f 29/67/84 39/93/127 35/92/128 25/66/85
f 34/94/62 35/97/128 39/96/127 38/95/63
s off
f 31/62/129 41/88/130 39/93/131 29/67/132
f 38/95/133 39/96/134 41/91/135 40/90/136
