# This file uses meters as units for non-parametric coordinates.

g default
v 0.183230 0.107685 0.957968
v 0.183230 0.438218 0.957968
v 0.183230 0.641293 0.898971
v 0.183230 0.641293 0.862193
v 0.183230 1.727279 0.862193
v 0.183230 1.844791 0.957966
v 0.183230 2.110269 0.957968
v 0.155236 1.798589 0.981471
v 0.155236 2.110269 0.981471
v 0.155236 1.690403 0.894820
v 0.155236 0.835656 0.894820
v 0.155236 0.447321 0.998781
v 0.155236 0.107685 0.981471
v 0.155236 0.127713 1.000000
v -0.183221 0.107685 0.957968
v -0.183221 0.438218 0.957968
v -0.183221 0.641293 0.898971
v -0.183221 0.641293 0.862193
v -0.183221 1.727279 0.862193
v -0.183221 1.844791 0.957966
v -0.183221 2.110269 0.957968
v -0.155227 1.798589 0.981471
v -0.155227 2.110269 0.981471
v -0.155227 1.690403 0.894820
v -0.155227 0.835656 0.894820
v -0.155227 0.447321 0.998781
v -0.155227 0.107685 0.981471
v -0.155227 0.127713 1.000000
vt 0.625000 0.000366
vt 0.625000 0.250000
vt 0.625000 0.250000
vt 0.058375 0.000000
vt 0.639063 0.283282
vt 0.058375 0.000000
vt 0.058375 1.000000
vt 0.058375 0.000000
vt 0.058375 1.000000
vt 0.058375 1.000000
vt 0.058375 0.000000
vt 0.058375 1.000000
vt 0.058375 0.000000
vt 0.058375 1.000000
vt 0.058333 0.023059
vt 0.058375 1.000000
vt 0.634995 0.273654
vt 0.625000 0.250000
vt 0.625000 0.000000
vt 0.625000 0.014743
vt 0.058375 0.000000
vt 0.058375 1.000000
vt 0.058375 0.000000
vt 0.058375 1.000000
vt 0.058333 0.023059
vt 0.058375 1.000000
vt 0.625000 0.250000
vt 0.634995 0.273654
vt 0.625000 0.000000
vt 0.625000 0.014743
vt 0.625000 0.250000
vt 0.625000 0.250000
vt 0.639063 0.283282
vt 0.058375 1.000000
vt 0.058375 0.000000
vt 0.058375 1.000000
vt 0.058375 0.000000
vt 0.058375 1.000000
vt 0.058375 0.000000
vt 0.625000 0.000366
vn 0.723886 -0.088654 0.684200
vn 0.643019 -0.000003 0.765850
vn 0.643019 -0.000003 0.765850
vn 0.820763 -0.225495 0.524881
vn 0.802419 -0.089497 0.590012
vn 0.776863 -0.034374 0.628731
vn 0.894470 0.054329 0.443815
vn 0.764894 0.005766 0.644131
vn 0.874942 0.143135 0.462589
vn 0.840055 0.068357 0.538177
vn 0.840878 0.074489 0.536075
vn 0.827345 -0.005174 0.561670
vn 0.827549 -0.004251 0.561377
vn 0.524661 -0.578119 0.624908
vn 0.000000 0.000000 1.000000
vn 0.000000 0.000000 1.000000
vn 0.000000 0.000000 1.000000
vn 0.000000 0.000000 1.000000
vn 0.000000 -0.625146 0.780508
vn 0.000000 -0.625146 0.780508
vn 0.000000 -0.625146 0.780508
vn 0.000000 -0.625146 0.780508
vn 0.000000 0.000000 1.000000
vn 0.000000 0.000000 1.000000
vn 0.000000 0.000000 1.000000
vn 0.000000 0.000000 1.000000
vn 0.000000 0.258603 0.965984
vn 0.000000 0.258603 0.965984
vn 0.000000 0.258603 0.965984
vn 0.000000 0.258603 0.965984
vn 0.000000 -0.050901 0.998704
vn 0.000000 -0.050901 0.998704
vn 0.000000 -0.679092 0.734053
vn 0.000000 -0.679092 0.734053
vn -0.723886 -0.088654 0.684200
vn -0.820763 -0.225495 0.524881
vn -0.643020 -0.000003 0.765849
vn -0.643020 -0.000003 0.765850
vn -0.802419 -0.089497 0.590013
vn -0.776862 -0.034374 0.628732
vn -0.894470 0.054329 0.443816
vn -0.764893 0.005766 0.644132
vn -0.874942 0.143135 0.462589
vn -0.840055 0.068357 0.538177
vn -0.840878 0.074489 0.536075
vn -0.827345 -0.005174 0.561671
vn -0.524661 -0.578119 0.624908
vn -0.827549 -0.004251 0.561377
vn 0.000000 0.003813 0.999993
vn 0.000000 0.003813 0.999993
s 1
g mesh_BuildingA_TrimStraightWall Modular_Building_A
f 6/8/1 7/10/2 9/12/3 8/11/4
f 5/6/5 6/9/1 8/14/4 10/13/6
f 4/4/7 5/7/5 10/16/6 11/15/8
f 3/3/9 4/5/7 11/17/8
f 2/2/10 3/3/9 11/17/8 12/18/11
f 1/1/12 14/20/13 13/19/14
f 14/20/13 1/1/12 2/2/10 12/18/11
s off
f 9/12/15 23/22/16 22/21/17 8/11/18
f 8/14/19 22/24/20 24/23/21 10/13/22
f 10/16/23 24/26/24 25/25/25 11/15/26
f 11/17/27 25/28/28 26/27/29 12/18/30
s 2
f 14/20/31 28/30/32 27/29/33 13/19/34
s 3
f 20/39/35 22/21/36 23/22/37 21/38/38
f 19/37/39 24/23/40 22/24/36 20/36/35
f 18/35/41 25/25/42 24/26/40 19/34/39
f 17/31/43 25/28/42 18/33/41
f 16/32/44 26/27/45 25/28/42 17/31/43
f 15/40/46 27/29/47 28/30/48
f 28/30/48 26/27/45 16/32/44 15/40/46
s 2
f 12/18/49 26/27/50 28/30/32 14/20/31
