# This file uses meters as units for non-parametric coordinates.

g default
v 0.024592 0.731583 0.969377
v -0.006720 0.766258 0.932799
v -0.006720 1.118020 1.166148
v 0.024592 1.109299 1.197461
v 0.495684 0.766258 0.932799
v 0.464371 0.731583 0.969377
v 0.464371 1.109299 1.197461
v 0.495684 1.118020 1.166148
v 0.026440 1.488982 0.789008
v -0.006720 1.488982 0.822167
v -0.006720 1.099252 0.512748
v 0.024592 1.109299 0.481436
v 0.495684 1.488982 0.822167
v 0.462524 1.488982 0.789008
v 0.495684 1.099252 0.512748
v 0.464371 1.109299 0.481436
v -0.006720 0.766258 0.512748
v 0.024592 0.731583 0.481436
v -0.006720 1.488982 1.166148
v 0.024592 1.484441 1.197461
v 0.464371 1.484441 1.197461
v 0.495684 1.488982 1.166148
v 0.464371 0.731583 0.481436
v 0.495684 0.766258 0.512748
v 0.077426 1.772206 1.166148
v 0.110084 1.798317 1.197461
v 0.404034 1.772206 1.166148
v 0.371377 1.798317 1.197461
v 0.077426 1.772206 0.820320
v 0.110084 1.798317 0.789008
v 0.404034 1.772206 0.820320
v 0.371377 1.798317 0.789008
vt 0.356259 -0.000000
vt 0.390352 0.248570
vt 0.609648 0.000000
vt 0.642616 0.250000
vt 0.934970 0.000000
vt 1.000000 0.000000
vt 0.500000 1.000000
vt 0.375000 0.500000
vt 0.375000 0.617000
vt 0.125000 0.130427
vt 0.125000 0.000000
vt 0.000000 0.000000
vt 0.500000 1.000000
vt 0.608742 0.500000
vt 0.625000 0.500000
vt 0.625000 0.617000
vt 0.875000 0.130427
vt 0.858957 0.000000
vt 0.875000 0.000000
vt 0.000000 0.000000
vt 0.500000 1.000000
vt 0.927613 -0.000000
vt 1.000000 0.000000
vt 0.500000 1.000000
vt 0.390352 0.130427
vt 0.609648 0.248570
vt 0.391258 0.500000
vt 0.609648 0.619573
vt 0.638111 0.133173
vt 0.856345 0.250000
vt 0.138051 0.126957
vt 0.357384 0.250000
vt 0.143655 0.250000
vt 0.141043 -0.000000
vt 0.361889 0.133173
vt 0.390352 -0.000000
vt 0.609648 0.130427
vt 0.643741 0.000000
vt 0.861949 0.126957
vt 0.390352 0.619573
vt 0.609648 0.750000
vt 0.390352 0.750000
vt 0.063120 -0.000000
vt 0.500000 1.000000
vt 0.065030 0.000000
vt 0.500000 1.000000
vt 0.074620 0.000000
vt 0.929537 0.000000
vt 0.500000 1.000000
vt 0.070463 0.000000
vt 0.925381 -0.000000
vt 0.500000 1.000000
vn -0.050966 0.998700 0.000000
vn -0.050966 0.998700 0.000000
vn 0.050966 0.998700 0.000000
vn 0.050966 0.998700 0.000000
vn -0.789558 -0.328060 0.518628
vn -0.789558 -0.328060 0.518628
vn -0.768458 -0.190984 0.610735
vn -0.768768 -0.192351 0.609916
vn -0.716226 0.089983 0.692043
vn -0.716257 0.090441 0.691951
vn 0.789558 -0.328060 0.518628
vn 0.789558 -0.328060 0.518628
vn 0.768768 -0.192351 0.609916
vn 0.768458 -0.190985 0.610735
vn 0.717038 0.097908 0.690123
vn 0.717082 0.098574 0.689983
vn -0.688716 0.381110 -0.616786
vn -0.694676 0.359214 -0.623210
vn -0.725124 0.203278 -0.657931
vn -0.725124 0.203278 -0.657931
vn -0.700918 0.275105 -0.658051
vn -0.700171 0.280883 -0.656403
vn -0.707104 0.000000 -0.707110
vn -0.707104 0.000000 -0.707110
vn 0.693845 0.367658 -0.619198
vn 0.688265 0.386766 -0.613762
vn 0.725827 0.221880 -0.651110
vn 0.725827 0.221880 -0.651110
vn 0.700172 0.280881 -0.656403
vn 0.700920 0.275104 -0.658050
vn 0.707104 0.000000 -0.707110
vn 0.707104 0.000000 -0.707110
vn -0.719104 0.204301 0.664192
vn -0.719104 0.204301 0.664192
vn 0.719291 0.222431 0.658138
vn 0.719291 0.222431 0.658138
vn 0.000000 0.000000 1.000000
vn 0.000000 0.000000 1.000000
vn 0.000000 0.000000 1.000000
vn 0.000000 0.000000 1.000000
vn 0.000000 0.629457 -0.777036
vn 0.000000 0.629457 -0.777036
vn 0.000000 0.629457 -0.777036
vn 0.000000 0.629457 -0.777036
vn 1.000000 -0.000000 0.000000
vn 1.000000 -0.000000 0.000000
vn 0.996276 0.086220 0.000000
vn 0.993944 0.109891 0.000000
vn -1.000000 0.000000 0.000000
vn -1.000000 0.000000 0.000000
vn -0.994887 0.100991 0.000000
vn -0.996858 0.079209 0.000000
vn -1.000000 0.000000 0.000000
vn -1.000000 0.000000 0.000000
vn 0.000000 -0.516918 0.856035
vn 0.000000 -0.516918 0.856035
vn 0.000000 -0.516918 0.856035
vn 0.000000 -0.516918 0.856035
vn 1.000000 -0.000000 0.000000
vn 1.000000 -0.000000 0.000000
vn 0.000000 0.000000 -1.000000
vn 0.000000 0.000000 -1.000000
vn 0.000000 0.000000 -1.000000
vn 0.000000 0.000000 -1.000000
vn 0.000000 0.000000 1.000000
vn 0.000000 0.000000 1.000000
vn 0.000000 0.000000 -1.000000
vn 0.000000 0.000000 -1.000000
vn 0.000000 0.000000 -1.000000
vn 0.000000 0.000000 -1.000000
vn -0.958587 0.284799 0.000000
vn -0.958587 0.284799 0.000000
vn 0.951427 0.307876 0.000000
vn 0.951426 0.307876 0.000000
vn -0.624471 0.781048 0.000000
vn -0.624471 0.781048 0.000000
vn 0.742174 -0.670207 0.000000
vn 0.742174 -0.670207 0.000000
vn 0.742174 -0.670207 0.000000
vn 0.742174 -0.670207 0.000000
vn 0.000000 -1.000000 0.000000
vn 0.000000 -1.000000 0.000000
vn 0.000000 -1.000000 0.000000
vn 0.000000 -1.000000 0.000000
vn -0.742174 -0.670207 0.000000
vn -0.742174 -0.670207 0.000000
vn -0.742174 -0.670207 0.000000
vn -0.742174 -0.670207 0.000000
vn 0.624471 0.781048 0.000000
vn 0.624471 0.781048 0.000000
s 1
g mesh_BuildingA_TrimOffsetCap2 Modular_Building_A
f 30/7/1 26/44/2 28/24/3 32/46/4
s 2
f 2/1/5 1/36/6 4/25/7 3/35/8
f 3/35/8 4/25/7 20/2/9 19/32/10
s 3
f 6/3/11 5/38/12 8/29/13 7/37/14
f 7/37/14 8/29/13 22/4/15 21/26/16
s 4
f 9/5/17 10/6/18 29/49/19 30/7/20
f 10/8/18 9/27/17 12/40/21 11/9/22
f 11/31/22 12/10/21 18/11/23 17/34/24
s 5
f 13/12/25 14/45/26 32/46/27 31/13/28
f 14/14/26 13/15/25 15/16/29 16/28/30
f 16/17/30 15/39/29 24/18/31 23/19/32
s 2
f 19/20/10 20/43/9 26/44/33 25/21/34
s 3
f 21/22/16 22/23/15 27/52/35 28/24/36
s 6
f 4/25/37 7/37/38 21/26/39 20/2/40
s off
f 9/27/41 14/14/42 16/28/43 12/40/44
s 7
f 8/29/45 15/39/46 13/30/47 22/4/48
s 8
f 11/31/49 3/35/50 19/32/51 10/33/52
f 11/31/49 17/34/53 2/1/54 3/35/50
s off
f 4/25/55 1/36/56 6/3/57 7/37/58
s 7
f 8/29/45 5/38/59 24/18/60 15/39/46
s off
f 12/40/61 16/28/62 23/41/63 18/42/64
s 6
f 20/43/40 21/22/39 28/24/65 26/44/66
s off
f 14/45/67 9/5/68 30/7/69 32/46/70
s 8
f 10/47/52 19/48/51 25/21/71 29/49/72
s 7
f 22/50/48 13/51/47 31/13/73 27/52/74
s 1
f 25/21/75 26/44/2 30/7/1 29/49/76
s off
f 5/38/77 6/3/78 23/19/79 24/18/80
f 6/3/81 1/36/82 18/42/83 23/41/84
f 1/36/85 2/1/86 17/34/87 18/11/88
s 1
f 32/46/4 28/24/3 27/52/89 31/13/90
